<svg xmlns="http://www.w3.org/2000/svg" width="64" height="64"><path fill-rule="evenodd" clip-rule="evenodd" fill="#CAE8F4" d="M59.168 9.247H4.834C2.72 9.247 1 10.984 1 13.117v37.766c0 2.134 1.72 3.87 3.834 3.87h54.334c2.113 0 3.832-1.736 3.832-3.87V13.117c0-2.133-1.719-3.87-3.832-3.87zM4.834 11.306h54.334c.989 0 1.793.813 1.793 1.811v2.434H3.04v-2.434c0-.999.804-1.811 1.794-1.811zM3.04 27.696V17.609h44.534l-5.466 10.087H3.04zm46.859-10.087h3.323l-5.711 10.087h-3.079l5.467-10.087zm5.672 0h5.389v10.087h-11.1l5.711-10.087zm3.597 35.085H4.834c-.99 0-1.795-.813-1.795-1.812V29.754H60.96v21.128a1.804 1.804 0 0 1-1.792 1.812z"/><g fill="#CAE8F4"><path d="M18.581 47.695l1.19-5.7h4.226l-.198.953h-3.052l-.272 1.295h2.951l-.198.952h-2.951l-.358 1.548h3.317l-.202.952h-4.453zM24.84 47.695h-1.517l2.516-2.885-1.415-2.815h1.225l.556 1.069a120.156 120.156 0 0 0 .432.894c.316-.386.582-.702.797-.948l.898-1.016h1.474l-2.609 3.002 1.404 2.698h-1.322l-.428-.859a11.428 11.428 0 0 1-.443-.976c-.101.153-.362.469-.782.948l-.786.888zM30.373 47.695h-1.174l1.194-5.7h2.317c.413 0 .739.049.978.146.24.097.43.258.57.481.14.225.21.492.21.804 0 .287-.056.567-.168.84a1.976 1.976 0 0 1-.41.652 1.763 1.763 0 0 1-.522.372 2.835 2.835 0 0 1-.755.192c-.184.025-.529.039-1.034.039h-.75l-.456 2.174zm.649-3.118h.361c.62 0 1.033-.039 1.24-.116a1.008 1.008 0 0 0 .669-.937c0-.138-.03-.25-.091-.338a.519.519 0 0 0-.257-.192c-.11-.04-.355-.061-.737-.061h-.84l-.345 1.644zM35.711 47.695h-1.174l1.193-5.7h2.531c.436 0 .774.045 1.018.135.242.089.438.253.587.491.148.239.224.528.224.867 0 .485-.146.885-.436 1.2-.291.314-.729.51-1.318.585.15.135.292.313.424.532.262.446.554 1.076.875 1.89h-1.26c-.102-.321-.3-.822-.595-1.505-.161-.367-.332-.615-.514-.742-.111-.075-.306-.113-.583-.113h-.479l-.493 2.36zm.673-3.215h.622c.63 0 1.048-.038 1.254-.113s.368-.193.484-.354a.846.846 0 0 0 .175-.506.514.514 0 0 0-.253-.467c-.104-.062-.327-.093-.672-.093h-1.291l-.319 1.533zM40.265 47.695l1.189-5.7h4.227l-.198.953H42.43l-.271 1.295h2.951l-.198.952H41.96l-.358 1.548h3.317l-.202.952h-4.452zM45.754 45.849l1.116-.059c.016.355.076.595.183.72.171.202.487.303.949.303.383 0 .66-.068.832-.206a.618.618 0 0 0 .256-.497.533.533 0 0 0-.21-.428c-.098-.086-.368-.225-.811-.416-.441-.192-.765-.353-.968-.48s-.363-.295-.48-.5a1.431 1.431 0 0 1-.175-.719c0-.479.174-.878.521-1.193.347-.316.85-.475 1.508-.475.669 0 1.187.156 1.554.471.367.313.568.73.604 1.252l-1.124.05c-.028-.271-.127-.48-.295-.626-.169-.145-.418-.218-.747-.218-.323 0-.555.058-.693.172a.534.534 0 0 0-.208.432c0 .163.063.298.19.404.127.108.408.258.844.447.655.282 1.073.512 1.252.688.267.26.4.593.4.999 0 .503-.199.933-.597 1.289-.398.356-.952.535-1.662.535-.49 0-.915-.083-1.273-.247-.359-.165-.612-.394-.761-.687a2.116 2.116 0 0 1-.205-1.011zM51.065 45.849l1.116-.059c.015.355.076.595.183.72.171.202.487.303.948.303.384 0 .661-.068.832-.206a.619.619 0 0 0 .257-.497.536.536 0 0 0-.21-.428c-.099-.086-.369-.225-.811-.416a8.001 8.001 0 0 1-.969-.48 1.398 1.398 0 0 1-.479-.5 1.421 1.421 0 0 1-.175-.719c0-.479.173-.878.521-1.193.348-.316.851-.475 1.509-.475.669 0 1.187.156 1.553.471.367.313.568.73.605 1.252l-1.124.05c-.028-.271-.127-.48-.296-.626-.168-.145-.417-.218-.746-.218-.324 0-.556.058-.694.172a.534.534 0 0 0-.208.432c0 .163.063.298.19.404.127.108.408.258.844.447.656.282 1.073.512 1.252.688.268.26.4.593.4.999 0 .503-.198.933-.597 1.289-.397.356-.952.535-1.662.535-.489 0-.914-.083-1.273-.247-.358-.165-.612-.394-.76-.687s-.216-.631-.206-1.011z"/></g><g fill="#CAE8F4"><path d="M12.644 38.473h-2.259L9.7 39.732H8.495l3.223-5.7h1.303l.925 5.7h-1.112l-.19-1.259zm-.144-.949l-.331-2.294-1.376 2.294H12.5zM17.939 39.732h-1.112l-.206-4.763-.906 4.763h-1.058l1.19-5.7h1.672l.175 3.993 1.944-3.993h1.691l-1.193 5.7h-1.069l1.124-4.728-2.252 4.728zM21.295 39.732l1.19-5.7h4.226l-.198.953H23.46l-.272 1.295h2.951l-.198.952H22.99l-.358 1.548h3.317l-.202.952h-4.452zM27.803 39.732h-1.174l1.193-5.7h2.531c.436 0 .774.045 1.017.135.242.089.438.253.587.491.149.239.224.528.224.867 0 .485-.146.885-.436 1.2-.291.314-.729.51-1.318.585.15.135.292.313.424.532.262.446.554 1.076.875 1.89h-1.26c-.101-.321-.299-.822-.595-1.505-.161-.367-.332-.615-.513-.742-.112-.075-.306-.113-.583-.113h-.478l-.494 2.36zm.673-3.214h.622c.63 0 1.048-.038 1.254-.113s.368-.193.484-.354a.846.846 0 0 0 .175-.506.514.514 0 0 0-.253-.467c-.104-.062-.328-.093-.672-.093h-1.291l-.319 1.533zM32.306 39.732l1.194-5.7h1.17l-1.189 5.7h-1.175zM38.698 37.68l1.182.179c-.23.641-.576 1.13-1.038 1.468-.461.339-1.002.508-1.621.508-.697 0-1.242-.21-1.635-.63s-.589-1.029-.589-1.828c0-.647.131-1.24.395-1.778.263-.538.628-.949 1.095-1.234a2.869 2.869 0 0 1 1.523-.428c.617 0 1.116.165 1.497.495.381.331.605.781.673 1.352l-1.124.109c-.062-.332-.182-.572-.359-.722s-.414-.224-.71-.224c-.323 0-.626.099-.907.296-.281.196-.507.505-.675.923a3.33 3.33 0 0 0-.253 1.254c0 .456.109.809.329 1.058.219.249.491.373.818.373.303 0 .581-.098.834-.295s.441-.49.565-.876zM44.052 38.473h-2.259l-.685 1.26h-1.205l3.224-5.7h1.303l.925 5.7h-1.111l-.192-1.26zm-.144-.949l-.33-2.294-1.377 2.294h1.707zM50.627 39.732h-1.093l-1.539-3.83-.802 3.83h-1.092l1.189-5.7h1.097l1.543 3.814.798-3.814h1.088l-1.189 5.7z"/></g><g fill="#E89021"><path d="M18.012 47.695l1.19-5.7h4.226l-.198.953h-3.052l-.272 1.295h2.951l-.198.952h-2.951l-.358 1.548h3.317l-.202.952h-4.453zM24.271 47.695h-1.517l2.516-2.885-1.415-2.815h1.225l.556 1.069a120.156 120.156 0 0 0 .432.894c.316-.386.582-.702.797-.948l.898-1.016h1.474l-2.609 3.002 1.404 2.698H26.71l-.428-.859a11.428 11.428 0 0 1-.443-.976c-.101.153-.362.469-.782.948l-.786.888z"/></g><g fill="#E89021"><path d="M12.075 38.473H9.816l-.685 1.26H7.926l3.223-5.7h1.303l.925 5.7h-1.112l-.19-1.26zm-.144-.949L11.6 35.23l-1.376 2.294h1.707zM17.371 39.732h-1.112l-.206-4.763-.906 4.763h-1.058l1.19-5.7h1.672l.175 3.993 1.944-3.993h1.691l-1.193 5.7h-1.069l1.124-4.728-2.252 4.728z"/></g></svg>