<svg xmlns="http://www.w3.org/2000/svg" width="64" height="64"><path fill-rule="evenodd" clip-rule="evenodd" fill="#CAE8F4" d="M59.586 8.494H11.182a3.423 3.423 0 0 0-3.416 3.422v.219h1.817v-.219c0-.883.717-1.602 1.599-1.602h48.404a1.6 1.6 0 0 1 1.597 1.602v33.392c0 .864-.687 1.567-1.542 1.596v1.82A3.42 3.42 0 0 0 63 45.307V11.916a3.421 3.421 0 0 0-3.414-3.422z"/><path fill="#CAE8F4" d="M52.82 15.271H4.416A3.423 3.423 0 0 0 1 18.692v33.392a3.423 3.423 0 0 0 3.416 3.422H52.82a3.422 3.422 0 0 0 3.414-3.422V18.692a3.422 3.422 0 0 0-3.414-3.421zm-48.404 1.82H52.82a1.6 1.6 0 0 1 1.597 1.601v2.152h-51.6v-2.152c0-.883.717-1.601 1.599-1.601zM2.817 31.583v-8.919h39.674l-4.87 8.919H2.817zm41.746-8.919h2.961l-5.087 8.919h-2.743l4.869-8.919zm5.053 0h4.801v8.919h-9.888l5.087-8.919zm3.204 31.022H4.416a1.602 1.602 0 0 1-1.599-1.602V33.403h51.6v18.681c0 .883-.716 1.602-1.597 1.602z"/><path fill="#E89022" d="M14.619 44.11H4.792a.909.909 0 0 0 0 1.82h9.826a.909.909 0 0 0 .001-1.82zm8.041-4.474H4.793a.909.909 0 0 0 0 1.82H22.66a.91.91 0 1 0 0-1.82z"/></svg>