<svg xmlns="http://www.w3.org/2000/svg" width="64" height="64"><path fill-rule="evenodd" clip-rule="evenodd" fill="#CAE8F4" d="M59.168 9.247H4.834C2.72 9.247 1 10.984 1 13.117v37.766c0 2.134 1.72 3.87 3.834 3.87h54.334c2.113 0 3.832-1.736 3.832-3.87V13.117c0-2.133-1.719-3.87-3.832-3.87zM4.834 11.306h54.334c.989 0 1.793.813 1.793 1.811v2.434H3.04v-2.434c0-.999.804-1.811 1.794-1.811zM3.04 27.696V17.609h44.534l-5.466 10.087H3.04zm46.859-10.087h3.323l-5.711 10.087h-3.079l5.467-10.087zm5.672 0h5.389v10.087h-11.1l5.711-10.087zm3.597 35.085H4.834c-.99 0-1.795-.813-1.795-1.812V29.754H60.96v21.128a1.804 1.804 0 0 1-1.792 1.812z"/><path fill="#CAE8F4" d="M46.546 32c.114 0 .321.021.433.163.091.115.113.297.062.513l-1.034 4.39-.592.018-1.205.036h-.763l.01-.04-1.121.037-.622-.009-.008.024c-.177 0-.452-.003-.868-.011l-.303-.006c-.008-.462-.143-.878-.377-1.188-.648-.896-1.737-.901-2.549-.904l-.349.003c-.342.004-.604.006-.806.006h-.079l.433-1.836c.146-.626.847-1.196 1.471-1.196h8.267m-21.469.002a3.525 3.525 0 0 0-.239.671l-.567 2.364-1.051.01-.553.003c-.229 0-.363-.001-.441-.006l-1.069-.243-.051.24-.658.006c-.319.003-.568.004-.76.004h-.067l-.245-.325.366-1.523c.151-.629.876-1.201 1.522-1.201h3.813m12.394 8.415c.019.308.093.564.196.777h-.304l.003-.009-.28.002.156-.75a4.52 4.52 0 0 0 .229-.02m7.536.886l-1.815 7.702c-.149.626-.853 1.197-1.477 1.197h-8.263c-.114 0-.322-.021-.435-.163-.09-.114-.112-.295-.061-.509l.282-1.194h.308l.005-.015c.09.002.182.002.274.002h1.403l.062-.202h.396l-.065.21h1.244l-.002.005h2.262a2.05 2.05 0 0 0 1.039-.271.256.256 0 0 0 .024.011c.1.058.334.193.662.223l.028.003.029.001.071.003c.097.004.172.007.225.007H42.398l.247-.803.213-.693.435-1.414h.001l.246-.806.06-.197.234-.756h-.003l.204-.67.039-.044.068-.146.01-.02.855-1.461m-27.277.271c.486.442 1.227.673 2.178.673.735 0 1.42-.148 1.94-.413l.234.441.457-.023-1.621 6.752a3.041 3.041 0 0 0-.053 1.201h-4.522c-.212 0-.377-.062-.466-.174-.089-.112-.11-.288-.061-.493l1.914-7.964m28.816-10.712h-8.267c-1.156 0-2.31.93-2.579 2.074l-1.292 5.482c.018.028.041.051.054.085.097.232.031.518-.1 1.081l-.065.288c-.137.626-.157.742-.23 1.172l-.05.037-.236-.004-.365 1.55c.085-.056.18-.113.262-.146.202-.074.661-.14.661-.14l1.491-.009-.508 1.672a1.928 1.928 0 0 1-.248.556.642.642 0 0 1-.251.228.945.945 0 0 1-.345.115c-.098.007-.25.009-.459.012h-1.142l-.377 1.597.418-.039-.217.725h-.362l-.488 2.07c-.271 1.141.447 2.071 1.603 2.071h8.263c1.156 0 2.312-.93 2.583-2.071l3.848-16.333c.271-1.143-.447-2.073-1.602-2.073zM34.7 41.095l.807-3.284.322-1.477.036-.18c.091.011.261.016.587.016.205 0 .472-.002.82-.006l.347-.003c.702.003 1.311.011 1.616.433.12.159.162.362.162.567 0 .156-.023.313-.056.444-.125.536-.403.977-.811 1.276-.599.436-1.364.436-2.04.436h-.072c-.049.026-.097.094-.097.094-.01.023-.165.665-.165.665l-.214 1.024a4.896 4.896 0 0 0-.442-.012c-.19 0-.449.002-.8.007zm8.963-1.431c.286-.63.214-.606.565-1.406l1.221-.038s-2.067 3.504-2.338 4.081l-.042.048h.006l-.404.684c-.128.234-.364.408-.742.41l-.642-.011.187-.615h.126a.36.36 0 0 0 .149-.021c.033-.011.057-.037.083-.074l.227-.356-.002-.005c.323-.48.402-.687.737-1.234-.06-.612-.087-.81-.136-1.211-.029-.24-.068-.484-.096-.727-.063-.495-.047-.425-.11-.739l-.003-.007c.003-.019.067-.171.072-.187h1.138v1.329l.004.079zm-4.035 1.515c-.164 0-.327-.029-.507-.105-.645-.248-.541-.945-.451-1.326.086-.378.237-.773.552-1.06.354-.319.755-.455 1.016-.455.069 0 .128.009.174.027a.704.704 0 0 1 .364.296c.006-.038.01-.076.015-.116l.023-.182c.469.009.763.012.941.012.186 0 .245-.003.245-.003-.095.389-.188.776-.281 1.167-.191.815-.26 1.229-.333 1.655l-.046.034-.388-.002c-.236 0-.404.004-.722.018l-.029-.037.046-.174c-.169.141-.353.239-.55.25l-.069.001zm-1.747 1.153l-.102.34s.26-.186.508-.248c.204-.054 1.213-.079 1.551-.086v-.002h1.046l.01.385c-.007.066.05.096.172.096h.213l-.195.635h-.565c-.035.002-.069.004-.101.004-.412 0-.571-.193-.559-.41l-.011-.378-.106.34h-.335l-1.008 3.296h.272l-.211.68h-.27l-.063.21h-.96l.066-.21h-1.948l.195-.63h.198l1.022-3.347.204-.675h.977zm1.447 1.935l.191-.637h3.125l-.194.637h-1.048l-.163.516h1.051l-.175.565h-1.136l-.203.238h.462l.112.712c.012.071.012.118.036.148.024.025.162.038.242.038h.14l-.213.693H41.2c-.054 0-.136-.004-.25-.009-.105-.01-.18-.071-.253-.107a.338.338 0 0 1-.186-.241l-.111-.711-.517.7c-.164.221-.386.39-.761.39h-.723l.19-.618h.276c.081 0 .15-.031.203-.057a.311.311 0 0 0 .153-.126l.754-1.049h-.995l.171-.565h1.139l.161-.516h-1.123v-.001zm-5.469 1.167h.215c.074 0 .124-.007.155-.026a.163.163 0 0 0 .059-.092l.09-.283h.703l-.086.401c-.035.126-.067.22-.163.301-.101.085-.219.173-.495.173l-.512.021-.004.453c-.005.128.03.115.05.135.024.024.045.032.067.042l.162-.01.488-.026-.202.662h-.561c-.392 0-.683-.009-.778-.083-.094-.059-.107-.133-.106-.26l.036-1.769h.894l-.012.361zm-5.286-14.57h-7.311c-1.178 0-2.354.93-2.628 2.074l-3.923 16.333c-.274 1.141.459 2.071 1.633 2.071h7.311c-1.179 0-1.907-.93-1.631-2.071l2.46-10.248a1.758 1.758 0 0 0-.188.072c-.059.207-.18.788-.237 1.053-.123.558-.13.623-.186.898l-.035.037a13.609 13.609 0 0 0-1.091.018l-.022-.042c.083-.331.167-.665.247-.996.211-.899.261-1.244.318-1.701l.041-.026c.49-.067.608-.081 1.138-.186l.045.048-.082.286c.071-.041.139-.079.208-.116l1.304-5.432c.279-1.142 1.453-2.072 2.629-2.072zm-8.313 9.424a.955.955 0 0 0 .621-.21c.311-.244.402-.621.528-1.15.001-.003.586-2.618.617-2.763.061.014.215.022.64.022l.564-.003c-.006.008-.007.018-.011.036-.108.322-.74 2.798-.74 2.798l-.07.267c-.153.52-.323 1.105-.976 1.479-.376.223-.932.346-1.526.346-.46 0-1.274-.073-1.56-.557a1.067 1.067 0 0 1-.134-.554l.105-.745.053-.228.627-2.686s.03-.148.038-.174c.01.014.126.023.65.023.195 0 .446-.001.77-.004a.18.18 0 0 1-.009.036c-.11.315-.723 2.699-.723 2.699l-.117.713.007.121c.038.349.262.534.646.534zm16.635-3.408l-.004.058-.011.075-.341 1.467-.014.074h.185c.288 0 .566-.009.794-.122.276-.133.491-.409.564-.736.08-.359-.035-.633-.313-.74l-.723-.062-.137-.014zm3.434 2.024c-.331 0-.458.398-.569.868-.039.167-.069.32-.068.467.007.297.21.297.244.297.116 0 .319-.074.404-.192.045-.06.086-.149.122-.244.035-.139.071-.277.104-.417a9.4 9.4 0 0 0 .059-.263c.023-.325-.087-.516-.296-.516zm-1.87 4.103h-.777l-.259.842s.291-.13.448-.172c.16-.042.401-.056.401-.056l.187-.614zm-3.794.02H33.32l-.13.551c.134-.07.312-.142.533-.179.068-.013.349-.015.566-.015l.266.001.11-.358zm-.315.997h-1.264l-.071.3h1.041a.843.843 0 0 1 .11-.007c.048 0 .07.006.081.006l.007-.001.096-.298zm3.725.243h-.781l-.268.877s.297-.149.455-.197a5.3 5.3 0 0 1 .405-.066l.189-.614zm-.4 1.304h-.777l-.226.74h.778l.225-.74z"/><path fill="#E89021" d="M34.378 31.998c-.101.216-.18.441-.235.673l-1.015 4.275-.431.086c-.458.091-.586.109-.969.161l-.093.013-.313.064-.085.06c-.31-.159-.719-.272-1.255-.272-.474 0-.868.086-1.19.211a1.5 1.5 0 0 0-.352-.282 1.825 1.825 0 0 0-.913-.233c-.294 0-.588.06-.853.171l.885-3.726c.151-.629.864-1.202 1.495-1.202h5.324M28.002 42c.061.032.116.057.16.075l-.198.644-.192.624-.453 1.472h.154l-.231.742h.005l-.364 1.183h.642a1.36 1.36 0 0 0 .267.907c.209.317.501.525.901.625.147.032.309.064.521.064h1.208l-.158.667a3.069 3.069 0 0 0-.051 1.199h-6.027c-.204 0-.362-.059-.447-.167-.089-.113-.11-.291-.059-.504l1.738-7.316.15.002.031.05.666-.031.054-.002c.187-.009.317-.015.479-.017l.118-.002.184.002.228.002.452-.035.222-.184m9.849-11.14h-8.798c-1.164 0-2.326.929-2.601 2.074l-1.253 5.275c.114-.022.216-.031.289-.031.231 0 .482.063.588.323.099.233.034.518-.098 1.082l-.068.288c-.134.626-.156.741-.232 1.171l-.049.037c-.142-.002-.254-.004-.358-.004-.202 0-.376.006-.699.023l-.018-.037c.042-.183.088-.363.13-.549l.06-.25c.076-.326.15-.695.178-.888l-2.35 9.892c-.274 1.141.448 2.071 1.613 2.071h8.801c-1.166 0-1.889-.931-1.616-2.071l.492-2.07a6.955 6.955 0 0 1-.452-.013c-.11-.01-.225 0-.303-.057-.066-.058-.167-.134-.165-.211.007-.072.038-.191.084-.354l1.3-4.226h.69l.298-1.255c-.113.003-.24.009-.41.018l-.018-.037c.042-.183.09-.363.134-.549l.057-.25c.092-.388.18-.84.189-.979.009-.083.039-.289-.202-.289-.105 0-.209.048-.317.097-.057.207-.179.788-.238 1.053-.118.558-.126.622-.179.898l-.037.037c-.147-.002-.261-.004-.367-.004-.206 0-.382.006-.71.023l-.022-.042c.082-.331.165-.665.244-.997a14.54 14.54 0 0 0 .316-1.701l.037-.026c.484-.067.604-.081 1.129-.185l.04.048-.075.286c.087-.052.175-.104.263-.15.246-.119.523-.155.674-.155.059 0 .12.005.18.016l1.25-5.26c.269-1.142 1.432-2.072 2.599-2.072zm-10.646 7.873a.705.705 0 0 1-.342-.078c-.235-.139-.204-.401.074-.586.169-.115.388-.176.587-.176.13 0 .251.026.344.08.233.135.198.396-.08.585a1.065 1.065 0 0 1-.583.175zm2.094 2.408c-.187 0-.477-.023-.679-.108-.653-.26-.549-.956-.459-1.342.09-.38.239-.776.56-1.068.448-.404 1.021-.428 1.261-.428.4 0 .786.088 1.004.361.144.18.258.475.111 1.107-.045.19-.175.653-.459.965-.37.384-.861.513-1.339.513zm-3.09-.043l-.013-.02-.015-.022c.064-.238.099-.319.131-.405.033-.085.062-.169.119-.41.073-.315.12-.535.148-.727.035-.187.053-.345.079-.529l.018-.014.02-.018c.252-.034.412-.057.575-.083.165-.021.331-.053.591-.103l.01.022.007.023c-.047.195-.098.389-.145.587-.046.198-.095.392-.14.586-.094.414-.132.569-.154.681-.022.104-.028.162-.064.376l-.024.02-.022.018c-.172-.001-.303-.004-.418-.004l-.157.002c-.157.001-.311.009-.546.02zm4.749 1.228l-.191.355h1.09l-.197.649h-1.49l-.161.137c-.07.067-.094.039-.184.087a1.102 1.102 0 0 1-.489.124h-.477l.192-.624h.144c.12 0 .204-.011.246-.036a.566.566 0 0 0 .159-.203l.275-.488h1.083v-.001zm-2.172 2.093l.193-.621h2.659l-.197.621h-1.063l-.166.53H31.3l-.199.641h-1.086l-.264.862c-.032.095.259.108.363.108l.543-.073-.218.711h-1.225c-.099 0-.172-.014-.278-.037a.289.289 0 0 1-.194-.14c-.045-.07-.114-.127-.067-.279l.352-1.14h-.604l.201-.652h.605l.161-.53h-.604v-.001zm1.025-5.436c-.271 0-.377.342-.467.751a1.827 1.827 0 0 0-.055.4c.003.259.172.259.2.259.095 0 .182-.065.255-.171.105-.144.183-.483.199-.574.096-.41.08-.665-.132-.665z"/></svg>