<svg xmlns="http://www.w3.org/2000/svg" width="64" height="64" viewBox="0 0 50 50"><path fill="#E0E0E0" d="M32.85 8.9H4.806c-1.856 0-3.364 1.456-3.364 3.249v18.875c0 1.795 1.508 3.217 3.364 3.217H32.85c1.859 0 3.367-1.422 3.367-3.217V12.148c0-1.793-1.508-3.248-3.367-3.248zM20.423 33.466h-2.318v-2.318h2.318v2.318zm13.55-5.879c0 1.195-1.005 2.198-2.244 2.198h-25.8c-1.241 0-2.244-1.003-2.244-2.198V13.233c0-1.198 1.003-2.201 2.244-2.201H31.73c1.239 0 2.244 1.003 2.244 2.201v14.354h-.001zM23.889 39.135v-2.839l-10.109.011v2.918l-2.044 1.059s-.677 1.116.328 1.082H25.56s.935-.451.466-.901c-.466-.451-2.137-1.33-2.137-1.33zm0 0"/><path fill="#96B7DD" d="M32.619 8.632H4.575c-1.856 0-3.364 1.456-3.364 3.249v18.875c0 1.795 1.508 3.217 3.364 3.217h28.044c1.859 0 3.367-1.422 3.367-3.217V11.88c-.001-1.793-1.508-3.248-3.367-3.248zM20.192 33.198h-2.318V30.88h2.318v2.318zm13.55-5.879c0 1.195-1.005 2.198-2.244 2.198h-25.8c-1.241 0-2.244-1.003-2.244-2.198V12.965c0-1.198 1.003-2.201 2.244-2.201h25.801c1.239 0 2.244 1.003 2.244 2.201v14.354h-.001zM23.658 38.867v-2.839l-10.109.012v2.918l-2.044 1.059s-.677 1.116.328 1.082h13.496s.935-.451.466-.901c-.466-.452-2.137-1.331-2.137-1.331zm0 0"/><path fill="#DDDDDE" d="M45.699 34.919c-.752 0-1.416.302-1.95.745l-4.711-3.362c.299-.616.48-1.292.48-2.019 0 1.02-.326-1.923-.863-2.677l5.511-5.514c.459.268.963.465 1.533.465a3.088 3.088 0 0 0 3.09-3.091 3.089 3.089 0 0 0-3.09-3.091 3.09 3.09 0 0 0-3.091 3.091c0 .57.196 1.074.465 1.533l-5.511 5.514a4.585 4.585 0 0 0-2.68-.866c-1.769 0-3.29 1.005-4.071 2.466L27.09 26.87c-.151-.694-.739-1.222-1.48-1.222a1.544 1.544 0 1 0 0 3.09c.39 0 .737-.157 1.009-.395l3.7 1.235a4.578 4.578 0 0 0-.072.706 4.637 4.637 0 0 0 7.905 3.287l4.681 3.341a3.03 3.03 0 0 0-.223 1.099 3.09 3.09 0 1 0 3.089-3.092zm0 0"/><path fill="#F5A557" d="M45.279 34.919c-.752 0-1.416.302-1.95.745l-4.711-3.362c.299-.616.48-1.292.48-2.019 0-.999-.326-1.923-.863-2.677l5.511-5.514c.459.268.963.465 1.533.465a3.088 3.088 0 0 0 3.09-3.091 3.089 3.089 0 0 0-3.09-3.091 3.09 3.09 0 0 0-3.091 3.091c0 .57.196 1.074.465 1.533l-5.511 5.514a4.585 4.585 0 0 0-2.68-.866c-1.769 0-3.29 1.005-4.071 2.466L26.67 26.87c-.151-.694-.739-1.222-1.48-1.222a1.544 1.544 0 1 0 0 3.09c.39 0 .737-.157 1.009-.395l3.7 1.235a4.578 4.578 0 0 0-.072.706 4.637 4.637 0 0 0 7.905 3.287l4.681 3.341a3.03 3.03 0 0 0-.223 1.099 3.09 3.09 0 1 0 3.089-3.092zm0 0"/></svg>