<svg xmlns="http://www.w3.org/2000/svg" width="42" height="36"><path fill-rule="evenodd" fill="#00BB9C" d="M36.721 30.701c-6.995 7.023-18.337 7.023-25.333 0-.128-.13-.238-.27-.362-.402v.038L.893 20.164a3.092 3.092 0 0 1 0-4.36L11.026 5.631v.038c.124-.132.234-.272.362-.402 6.996-7.023 18.338-7.023 25.333 0 6.996 7.024 6.996 18.41 0 25.434z"/><path fill-rule="evenodd" fill="#010203" d="M15.769 10.113c.31-.31.91-.213 1.339.219l14.008 14.062c.429.432.527 1.034.217 1.345-.31.31-.909.213-1.339-.219L15.987 11.458c-.43-.432-.527-1.034-.218-1.345z"/><path fill-rule="evenodd" fill="#010203" d="M31.537 10.474c.319.32.219.938-.223 1.382L16.913 26.314c-.442.444-1.059.544-1.377.224-.318-.319-.218-.938.224-1.382l14.401-14.458c.441-.443 1.058-.544 1.376-.224z"/></svg>