<svg xmlns="http://www.w3.org/2000/svg" width="64" height="64"><path fill-rule="evenodd" clip-rule="evenodd" fill="#CAE8F4" d="M59.457 1.612H4.543A3.539 3.539 0 0 0 1 5.145v41.358a3.539 3.539 0 0 0 3.543 3.533h54.914A3.537 3.537 0 0 0 63 46.503V5.145a3.537 3.537 0 0 0-3.543-3.533zm-.46 44.149H4.449V5.618h54.548v40.143zM46.835 57.933h-3.993l-2.206-6.635H23.809l-2.485 6.635h-3.716c-1.956 0-3.543.681-3.543 1.522v1.411c0 .841 1.587 1.522 3.543 1.522h29.228c1.959 0 3.543-.681 3.543-1.522v-1.411c-.001-.84-1.585-1.522-3.544-1.522z"/><path fill-rule="evenodd" clip-rule="evenodd" fill="#E89022" d="M46.243 27.994H17.195c-1.014 0-1.836.812-1.836 1.809 0 .529.234.989.595 1.322.048.078.083.16.156.233l6.933 6.97a1.839 1.839 0 0 0 2.599 0c.72-.725.72-1.899 0-2.616l-4.081-4.106h24.678c1.018 0 1.838-.809 1.84-1.803-.001-.997-.823-1.809-1.836-1.809zm-29.051-4.839h29.044c1.018 0 1.842-.812 1.836-1.801 0-.561-.271-1.039-.672-1.374-.036-.036-.038-.08-.079-.114l-6.928-6.83a1.859 1.859 0 0 0-2.603 0 1.783 1.783 0 0 0 0 2.558l4.007 3.936H17.192a1.83 1.83 0 0 0-1.838 1.817c0 .997.821 1.808 1.838 1.808z"/></svg>