<svg xmlns="http://www.w3.org/2000/svg" width="64" height="64"><path fill-rule="evenodd" clip-rule="evenodd" fill="#CAE8F4" d="M59.457 1.612H4.543A3.539 3.539 0 0 0 1 5.145v41.358a3.539 3.539 0 0 0 3.543 3.533h54.914A3.537 3.537 0 0 0 63 46.503V5.145a3.537 3.537 0 0 0-3.543-3.533zm-.46 44.149H4.449V5.618h54.548v40.143zM46.835 57.934h-3.993l-2.206-6.635H23.809l-2.485 6.635h-3.716c-1.956 0-3.543.681-3.543 1.522v1.411c0 .841 1.587 1.522 3.543 1.522h29.228c1.959 0 3.543-.681 3.543-1.522v-1.411c-.001-.841-1.585-1.522-3.544-1.522z"/><path fill-rule="evenodd" clip-rule="evenodd" fill="#E89022" d="M31.721 8.572c-9.451 0-17.112 7.661-17.112 17.112 0 9.451 7.661 17.112 17.112 17.112 9.451 0 17.112-7.662 17.112-17.112 0-9.451-7.661-17.112-17.112-17.112zm-6.941 3.226a32.915 32.915 0 0 0-1.784 5.234 31.803 31.803 0 0 0-5.254 1.9 15.597 15.597 0 0 1 7.038-7.134zm6.126 5.843v7.229h-7.314c.051-2.212.31-4.357.751-6.403a32.447 32.447 0 0 1 6.563-.826zm-14.075 3.65a29.66 29.66 0 0 1 5.746-2.36 35.772 35.772 0 0 0-.625 5.939h-5.731c.064-1.237.273-2.436.61-3.579zm-.61 5.208h5.731c.046 2.097.271 4.136.656 6.096a30.567 30.567 0 0 1-5.681-2.204 15.493 15.493 0 0 1-.706-3.892zm1.614 6.126a32.703 32.703 0 0 0 5.176 1.77 32.927 32.927 0 0 0 1.769 5.175 15.59 15.59 0 0 1-6.945-6.945zm13.071 8.559a15.493 15.493 0 0 1-3.892-.706 30.567 30.567 0 0 1-2.204-5.681c1.959.384 3.999.609 6.096.656v5.731zm-6.535-8.15a34.224 34.224 0 0 1-.779-6.535h7.314v7.313a34.145 34.145 0 0 1-6.535-.778zm6.535-22.833v5.714a34.07 34.07 0 0 0-6.106.692 30.575 30.575 0 0 1 2.214-5.716 15.493 15.493 0 0 1 3.892-.706v.016zM47.22 24.869h-5.73a34.07 34.07 0 0 0-.66-5.949 29.681 29.681 0 0 1 5.781 2.37c.336 1.144.545 2.343.609 3.579zm-1.521-5.936a31.76 31.76 0 0 0-5.312-1.916 31.79 31.79 0 0 0-1.915-5.312 15.585 15.585 0 0 1 7.227 7.228zm-13.163 5.936v-7.228c2.223.054 4.377.328 6.432.795.468 2.055.742 4.21.796 6.433h-7.228zm7.228 1.63a32.518 32.518 0 0 1-.826 6.563 34.22 34.22 0 0 1-6.403.75v-7.313h7.229zm-3.65-15.705a29.658 29.658 0 0 1 2.371 5.781 34.048 34.048 0 0 0-5.949-.659v-5.714-.017c1.236.064 2.434.272 3.578.609zm-3.578 30.39v-5.731a35.867 35.867 0 0 0 5.938-.624 29.662 29.662 0 0 1-2.361 5.746 15.518 15.518 0 0 1-3.577.609zm5.936-1.521a31.822 31.822 0 0 0 1.899-5.253 32.929 32.929 0 0 0 5.235-1.785 15.587 15.587 0 0 1-7.134 7.038zm8.043-9.272a30.584 30.584 0 0 1-5.717 2.214 34.05 34.05 0 0 0 .692-6.106h5.731a15.5 15.5 0 0 1-.706 3.892z"/></svg>