<svg xmlns="http://www.w3.org/2000/svg" width="64" height="64"><path fill-rule="evenodd" clip-rule="evenodd" fill="#CAE8F4" d="M29.281 56.832H8.12c-2.731 0-4.944-2.246-4.944-5.016V8.677c0-2.77 2.214-5.016 4.944-5.016h21.911L46.684 20.76v4.603h2.175v-5.378L30.541 1.49H6.439A5.432 5.432 0 0 0 1 6.916v46.661a5.433 5.433 0 0 0 5.439 5.426h22.842v-2.171z"/><path fill="#CAE8F4" d="M29.825 3.661l16.86 17.362h-12.51c-3.004 0-4.351-.801-4.351-3.798V3.661m0-2.461a2.461 2.461 0 0 0-2.461 2.461v13.564c0 6.259 5.127 6.259 6.812 6.259h12.509a2.461 2.461 0 0 0 1.766-4.176L31.59 1.946a2.46 2.46 0 0 0-1.766-.746z"/><path fill-rule="evenodd" clip-rule="evenodd" fill="#C7E7F3" d="M11.713 19.938h9.574c.51 0 .923-.413.923-.922v-.326a.922.922 0 0 0-.923-.922h-9.574a.922.922 0 0 0-.923.922v.326a.922.922 0 0 0 .923.922zm0 5.968h9.574c.51 0 .923-.413.923-.922v-.326a.922.922 0 0 0-.923-.922h-9.574a.922.922 0 0 0-.923.922v.326a.922.922 0 0 0 .923.922zm12.837 3.798H11.713a.922.922 0 0 0-.923.922v.326c0 .509.413.922.923.922H24.55c.51 0 .923-.413.923-.922v-.326a.922.922 0 0 0-.923-.922zm0 5.968H11.713a.922.922 0 0 0-.923.922v.326c0 .509.413.922.923.922H24.55c.51 0 .923-.413.923-.922v-.326a.922.922 0 0 0-.923-.922zm0 5.968h-1.96a.922.922 0 0 0-.923.922v.326c0 .509.413.922.923.922h1.96c.51 0 .923-.413.923-.922v-.326a.922.922 0 0 0-.923-.922zm0 5.969h-1.96a.922.922 0 0 0-.923.922v.326c0 .509.413.922.923.922h1.96c.51 0 .923-.413.923-.922v-.326a.921.921 0 0 0-.923-.922z"/><path fill-rule="evenodd" clip-rule="evenodd" fill="#E89022" d="M21.287 9.629h-9.574a.922.922 0 0 0-.923.922v2.496c0 .509.413.922.923.922h9.574c.51 0 .923-.413.923-.922v-2.496a.922.922 0 0 0-.923-.922zM18.024 41.64h-6.311a.922.922 0 0 0-.923.922v6.294c0 .509.413.922.923.922h6.311c.51 0 .923-.413.923-.922v-6.294a.922.922 0 0 0-.923-.922z"/><path fill="#E89022" d="M45.325 40.846c2.392 0 4.337 1.938 4.337 4.321s-1.946 4.321-4.337 4.321-4.337-1.938-4.337-4.321 1.945-4.321 4.337-4.321m0-2.461c-3.755 0-6.798 3.036-6.798 6.782s3.044 6.782 6.798 6.782c3.755 0 6.798-3.036 6.798-6.782s-3.044-6.782-6.798-6.782z"/><path fill="#E89022" d="M46.981 29.994l.162 1.681.157 1.632 1.566.484c.644.199 1.274.454 1.875.76l1.435.729 1.243-1.023 1.36-1.119 2.47 2.465-1.073 1.298-1.046 1.265.766 1.452c.294.556.546 1.165.772 1.859l.499 1.535 1.606.154 1.763.169v3.479l-1.699.163-1.63.156-.486 1.564a11.82 11.82 0 0 1-.758 1.862l-.734 1.44 1.03 1.246 1.12 1.355-2.47 2.465-1.313-1.081-1.262-1.039-1.447.761c-.557.293-1.167.545-1.863.771l-1.535.498-.154 1.607-.169 1.758h-3.5l-.162-1.688-.157-1.633-1.568-.483a11.894 11.894 0 0 1-1.871-.757l-1.435-.727-1.242 1.022-1.364 1.122-2.47-2.465 1.071-1.295 1.047-1.266-.768-1.453a11.737 11.737 0 0 1-.776-1.862l-.5-1.533-1.605-.154L30.11 47v-3.48l1.686-.161 1.632-.156.485-1.566c.198-.64.454-1.27.761-1.871l.735-1.44-1.031-1.246-1.112-1.344 2.47-2.465 1.303 1.073 1.262 1.039 1.447-.761a11.825 11.825 0 0 1 1.872-.775l1.537-.498.155-1.608.168-1.746h3.501m.642-2.461H42.84c-.88 0-1.654.625-1.731 1.423l-.245 2.548c-.772.25-1.53.555-2.26.938l-1.92-1.581a1.476 1.476 0 0 0-.946-.325c-.457 0-.932.186-1.287.54l-3.382 3.374c-.623.621-.727 1.609-.216 2.227l1.628 1.969c-.373.732-.68 1.488-.92 2.262l-2.487.238c-.8.077-1.426.849-1.426 1.727v4.772c0 .878.627 1.65 1.426 1.727l2.558.245c.251.769.556 1.524.94 2.25l-1.588 1.92c-.511.618-.407 1.606.216 2.227l3.382 3.374c.355.354.829.54 1.286.54.345 0 .68-.106.946-.325l1.981-1.63a14.3 14.3 0 0 0 2.259.914l.239 2.49c.077.798.851 1.423 1.731 1.423h4.783c.881 0 1.654-.625 1.731-1.423l.246-2.561a14.204 14.204 0 0 0 2.248-.934l1.931 1.589c.266.219.601.325.946.325.457 0 .932-.186 1.286-.54l3.382-3.374c.623-.621.727-1.609.216-2.227l-1.637-1.979a14.31 14.31 0 0 0 .916-2.25l2.499-.239c.802-.078 1.429-.85 1.429-1.728v-4.771c0-.878-.627-1.65-1.426-1.727l-2.564-.245a14.298 14.298 0 0 0-.936-2.247l1.59-1.922c.511-.618.407-1.606-.216-2.227l-3.382-3.374a1.84 1.84 0 0 0-1.286-.54c-.345 0-.68.106-.946.325l-1.977 1.627a14.369 14.369 0 0 0-2.264-.917l-.239-2.484c-.077-.799-.851-1.424-1.731-1.424z"/></svg>