<svg xmlns="http://www.w3.org/2000/svg" width="64" height="64"><path fill-rule="evenodd" clip-rule="evenodd" fill="#CAE8F4" d="M46.41 44.117v9.057c0 2.701-2.157 4.891-4.819 4.891H8.825c-2.661 0-4.819-2.19-4.819-4.891V11.108c0-2.701 2.157-4.891 4.819-4.891H30.18l16.23 16.674v3.927l2.12-2.413v-2.269L30.677 4.1H7.186a5.297 5.297 0 0 0-5.301 5.291v45.501a5.296 5.296 0 0 0 5.301 5.291H43.23a5.297 5.297 0 0 0 5.301-5.291V41.61l-2.121 2.507z"/><path fill="#CAE8F4" d="M29.979 6.216L46.41 23.147H34.219c-2.927 0-4.24-.782-4.24-3.704V6.216m-.001-2.399a2.4 2.4 0 0 0-2.398 2.399v13.227c0 6.103 4.997 6.103 6.64 6.103h12.19a2.4 2.4 0 0 0 1.722-4.069L31.7 4.546a2.398 2.398 0 0 0-1.722-.729z"/><path fill-rule="evenodd" clip-rule="evenodd" fill="#CAE8F4" d="M12.327 22.089h9.331a.9.9 0 0 0 .9-.899v-.318a.9.9 0 0 0-.9-.899h-9.331a.9.9 0 0 0-.9.899v.318a.9.9 0 0 0 .9.899zm0 5.82h9.331a.9.9 0 0 0 .9-.899v-.317a.9.9 0 0 0-.9-.899h-9.331a.9.9 0 0 0-.9.899v.317a.9.9 0 0 0 .9.899zm0 5.82h12.512a.9.9 0 0 0 .9-.899v-.317a.9.9 0 0 0-.9-.899H12.327a.9.9 0 0 0-.9.899v.317a.9.9 0 0 0 .9.899zm13.411 4.92v-.318a.9.9 0 0 0-.9-.899H12.327a.9.9 0 0 0-.9.899v.318a.9.9 0 0 0 .9.899h12.512a.898.898 0 0 0 .899-.899zm7.581 4.603H22.928a.9.9 0 0 0-.9.899v.317a.9.9 0 0 0 .9.899H33.32a.9.9 0 0 0 .9-.899v-.317a.901.901 0 0 0-.901-.899zm-1.06 5.82h-9.331a.9.9 0 0 0-.9.899v.317a.9.9 0 0 0 .9.899h9.331a.9.9 0 0 0 .9-.899v-.317a.9.9 0 0 0-.9-.899z"/><path fill="#E89022" d="M21.658 12.036h-9.331a.9.9 0 0 0-.9.899v2.434a.9.9 0 0 0 .9.899h9.331a.9.9 0 0 0 .9-.899v-2.434a.9.9 0 0 0-.9-.899zm17.067 19.576h-9.541a.794.794 0 0 0-.795.794v6.349c0 .438.356.794.795.794h6.361c.439 0 3.975-4.059 3.975-4.497v-2.645a.795.795 0 0 0-.795-.795zm-20.247 11.64h-6.151a.9.9 0 0 0-.9.899v6.137a.9.9 0 0 0 .9.899h6.151a.9.9 0 0 0 .9-.899v-6.137a.9.9 0 0 0-.9-.899z"/><path fill-rule="evenodd" clip-rule="evenodd" fill="#E89022" d="M61.655 20.604l-3.918-3.195a1.246 1.246 0 0 0-1.759.188l-2.37 2.939 5.856 4.779 2.37-2.94a1.267 1.267 0 0 0-.179-1.771zM39.047 38.598l.888.723a.328.328 0 0 0 .02-.031L51.75 24.659a.936.936 0 0 1 1.32-.142.947.947 0 0 1 .135 1.329L41.41 40.478c-.007.01-.018.018-.026.029l1.078.879c.009-.011.014-.022.021-.032l11.793-14.633a.939.939 0 0 1 1.323-.14.949.949 0 0 1 .135 1.329L43.939 42.541c-.007.01-.015.018-.024.028l.991.808 14.096-17.492-5.854-4.779-14.101 17.492zm-1.952 8.613a2.62 2.62 0 0 0-1.945-.572l-.899 4.053 3.786-1.808a2.648 2.648 0 0 0-.942-1.673zm-.96-5l-.866 3.891a3.125 3.125 0 0 1 2.154.7 3.176 3.176 0 0 1 1.102 1.845l3.463-1.656 2.348-2.908-5.859-4.781-2.342 2.909z"/></svg>