<svg xmlns="http://www.w3.org/2000/svg" width="64" height="64"><path fill-rule="evenodd" clip-rule="evenodd" fill="#CAE8F4" d="M53.441 41.119a9.455 9.455 0 0 0-3.573.715L38.124 20.565c2.077-1.784 3.429-4.416 3.429-7.401 0-5.368-4.278-9.717-9.555-9.717s-9.555 4.349-9.555 9.717c0 2.472.934 4.699 2.429 6.417L12.853 41.433c-.74-.187-1.504-.315-2.298-.315C5.278 41.119 1 45.468 1 50.836s4.278 9.717 9.555 9.717c4.723 0 8.618-3.49 9.392-8.069h24.105c.775 4.579 4.669 8.069 9.392 8.069 5.278 0 9.555-4.349 9.555-9.717s-4.28-9.717-9.558-9.717zM24.658 13.237a7.342 7.342 0 1 1 14.684 0 7.342 7.342 0 0 1-14.684 0zM10.79 58.105a7.342 7.342 0 1 1 0-14.684 7.342 7.342 0 0 1 0 14.684zm9.038-9.508a9.7 9.7 0 0 0-3.514-5.469l11.651-21.183a9.32 9.32 0 0 0 4.034.937c.965 0 1.875-.19 2.755-.459l11.911 21.568a9.746 9.746 0 0 0-2.495 4.606H19.828zm33.383 9.508a7.342 7.342 0 1 1 0-14.684 7.342 7.342 0 0 1 0 14.684z"/><path fill="#E89022" d="M53.211 45.868a4.895 4.895 0 1 0 0 9.79 4.895 4.895 0 0 0 0-9.79zM32 8.342a4.895 4.895 0 1 0 0 9.79 4.895 4.895 0 0 0 0-9.79zM10.79 45.868a4.895 4.895 0 1 0 0 9.79 4.895 4.895 0 0 0 0-9.79z"/></svg>