<svg xmlns="http://www.w3.org/2000/svg" width="64" height="64"><path fill-rule="evenodd" clip-rule="evenodd" fill="#CAE8F4" d="M31.164 55.87H8.409c-2.66 0-4.817-2.188-4.817-4.887V8.959c0-2.699 2.157-4.887 4.817-4.887h21.348L45.982 20.73v12.582l2.12-.026v-13.31L30.254 1.958H6.771a5.292 5.292 0 0 0-5.299 5.286V52.7a5.292 5.292 0 0 0 5.299 5.286h24.385l.008-2.116z"/><path fill="#CAE8F4" d="M29.556 4.072l16.426 16.914H33.795c-2.927 0-4.239-.781-4.239-3.7V4.072m-.001-2.398a2.399 2.399 0 0 0-2.397 2.398v13.214c0 6.097 4.995 6.097 6.637 6.097h12.187a2.398 2.398 0 0 0 1.72-4.068L31.276 2.402a2.396 2.396 0 0 0-1.721-.728z"/><path fill-rule="evenodd" clip-rule="evenodd" fill="#CAE8F4" d="M11.91 19.929h9.328a.9.9 0 0 0 .9-.899v-.317a.899.899 0 0 0-.9-.898H11.91c-.497 0-.9.402-.9.898v.317a.9.9 0 0 0 .9.899zm0 5.814h9.328c.497 0 .9-.402.9-.898v-.317a.9.9 0 0 0-.9-.899H11.91a.9.9 0 0 0-.9.899v.317a.9.9 0 0 0 .9.898zm0 5.814h12.508a.9.9 0 0 0 .9-.899v-.317a.9.9 0 0 0-.9-.899H11.91a.9.9 0 0 0-.9.899v.317a.9.9 0 0 0 .9.899zm13.407 4.915v-.317a.9.9 0 0 0-.9-.899H11.91a.9.9 0 0 0-.9.899v.317a.9.9 0 0 0 .9.899h12.508a.899.899 0 0 0 .899-.899zm-3.709 5.497v.317a.9.9 0 0 0 .9.899h10.918a.9.9 0 0 0 .9-.899v-.317a.9.9 0 0 0-.9-.899H22.507a.9.9 0 0 0-.899.899zm14.997 4.916H22.507a.9.9 0 0 0-.9.899v.317a.9.9 0 0 0 .9.899h14.097a.9.9 0 0 0 .9-.899v-.317a.898.898 0 0 0-.899-.899z"/><path fill-rule="evenodd" clip-rule="evenodd" fill="#E89022" d="M21.238 9.886H11.91a.9.9 0 0 0-.9.899v2.431a.9.9 0 0 0 .9.899h9.328a.9.9 0 0 0 .9-.899v-2.431a.9.9 0 0 0-.9-.899zM31.94 29.443h-3.179a.794.794 0 0 0-.795.793v6.343c0 .438.356.793.795.793h3.179a.794.794 0 0 0 .795-.793v-6.343a.794.794 0 0 0-.795-.793zM18.059 41.071H11.91a.9.9 0 0 0-.9.899v6.131a.9.9 0 0 0 .9.899h6.149a.9.9 0 0 0 .9-.899V41.97a.9.9 0 0 0-.9-.899zM53.798 47.492l.199-.199c2.259.442 4.687-.19 6.437-1.936a7.118 7.118 0 0 0 1.954-6.452c-.029.031-.05.067-.08.098l-2.623 2.616a3.981 3.981 0 0 1-5.62 0 3.957 3.957 0 0 1 0-5.606l2.623-2.616c.031-.031.067-.051.098-.08a7.157 7.157 0 0 0-6.468 1.949c-1.906 1.901-2.484 4.602-1.786 7.014l-1.975 1.97-4.658-4.652a2.82 2.82 0 0 0-.631-3.025s-1.561-1.085-3.997-2.395c-2.435-1.31-2.864-1.131-3.197-.798-.334.333-.637.736.799 3.193s2.398 3.992 2.398 3.992a2.828 2.828 0 0 0 3.029.63l4.657 4.651L34.769 56.01a3.692 3.692 0 0 0 0 5.232 3.716 3.716 0 0 0 5.246 0l8.185-8.165 7.456 7.447a3.96 3.96 0 0 0 5.595 0 3.948 3.948 0 0 0 0-5.588l-7.453-7.444zM38.89 59.373a1.593 1.593 0 0 1-2.248 0 1.582 1.582 0 0 1 0-2.242 1.593 1.593 0 0 1 2.248 0 1.582 1.582 0 0 1 0 2.242zm18.764-.046a.566.566 0 0 1-.799 0l-7.194-7.185a.562.562 0 0 1-.159-.364l.594-.593a.56.56 0 0 1 .364.158l7.194 7.185a.564.564 0 0 1 0 .799zm2.398-2.395a.566.566 0 0 1-.799 0l-7.194-7.185a.553.553 0 0 1-.158-.361l.596-.595a.558.558 0 0 1 .361.158l7.194 7.185a.563.563 0 0 1 0 .798z"/></svg>