<svg xmlns="http://www.w3.org/2000/svg" width="64" height="64"><path fill-rule="evenodd" clip-rule="evenodd" fill="#CAE8F4" d="M48.284 56.388v.606a3.433 3.433 0 0 1-3.431 3.436H11.3a3.433 3.433 0 0 1-3.431-3.436V14.347a3.433 3.433 0 0 1 3.431-3.436h.611V8.89h-.344a5.722 5.722 0 0 0-5.718 5.727v42.614a5.722 5.722 0 0 0 5.718 5.727h33.021a5.722 5.722 0 0 0 5.718-5.727v-.842h-2.022z"/><path fill="#CAE8F4" d="M39.911 3.599l15.683 15.876v30.344a2.766 2.766 0 0 1-2.763 2.764H18.479a2.766 2.766 0 0 1-2.763-2.764V6.363a2.766 2.766 0 0 1 2.763-2.764h21.432m.956-2.289H18.479a5.052 5.052 0 0 0-5.052 5.053v43.456a5.052 5.052 0 0 0 5.052 5.053h34.352a5.052 5.052 0 0 0 5.052-5.053V18.535L40.867 1.31z"/><path fill="#CAE8F4" d="M40.201 3.332l15.661 16.17H44.243c-2.79 0-4.041-.746-4.041-3.537V3.332m-.001-2.289a2.29 2.29 0 0 0-2.288 2.289v12.632c0 5.826 4.765 5.826 6.33 5.826h11.619a2.29 2.29 0 0 0 1.645-3.881L41.846 1.739a2.29 2.29 0 0 0-1.645-.696z"/><path fill-rule="evenodd" clip-rule="evenodd" fill="#CAE8F4" d="M23.378 18.491h8.893a.859.859 0 0 0 .858-.859v-.303a.859.859 0 0 0-.858-.859h-8.893a.859.859 0 0 0-.858.859v.303c0 .474.384.859.858.859zm0 5.558h8.893a.859.859 0 0 0 .858-.859v-.303a.859.859 0 0 0-.858-.859h-8.893a.859.859 0 0 0-.858.859v.303c0 .474.384.859.858.859zm0 5.558h11.925a.859.859 0 0 0 .858-.859v-.303a.859.859 0 0 0-.858-.859H23.378a.859.859 0 0 0-.858.859v.303c0 .475.384.859.858.859zm12.782 4.7v-.303a.859.859 0 0 0-.858-.859H23.378a.859.859 0 0 0-.858.859v.303c0 .474.384.859.858.859h11.925a.858.858 0 0 0 .857-.859zm12.277 4.396H33.481a.859.859 0 0 0-.858.859v.303c0 .474.384.859.858.859h14.956a.859.859 0 0 0 .858-.859v-.303a.858.858 0 0 0-.858-.859zm0 5.558H33.481a.859.859 0 0 0-.858.859v.303c0 .474.384.859.858.859h14.956a.859.859 0 0 0 .858-.859v-.303a.859.859 0 0 0-.858-.859z"/><path fill-rule="evenodd" clip-rule="evenodd" fill="#E89022" d="M32.271 8.89h-8.893a.859.859 0 0 0-.858.859v2.324c0 .474.384.859.858.859h8.893a.859.859 0 0 0 .858-.859V9.749a.859.859 0 0 0-.858-.859zm16.166 18.696h-8.893a.859.859 0 0 0-.858.859v5.862c0 .474.384.859.858.859h8.893a.859.859 0 0 0 .858-.859v-5.862a.859.859 0 0 0-.858-.859zM29.24 38.703h-5.862a.859.859 0 0 0-.858.859v5.861c0 .474.384.859.858.859h5.862a.859.859 0 0 0 .858-.859v-5.861a.858.858 0 0 0-.858-.859z"/></svg>