<svg xmlns="http://www.w3.org/2000/svg" width="64" height="64"><path fill-rule="evenodd" clip-rule="evenodd" fill="#CAE8F4" d="M32 56.832H8.12c-2.731 0-4.944-2.246-4.944-5.016V8.677c0-2.77 2.214-5.016 4.944-5.016h21.911L46.684 20.76v10.029h2.175V19.985L30.541 1.49H6.439A5.432 5.432 0 0 0 1 6.916v46.661a5.433 5.433 0 0 0 5.439 5.426H32v-2.171z"/><path fill="#CAE8F4" d="M29.825 3.661l16.86 17.362h-12.51c-3.004 0-4.351-.801-4.351-3.798V3.661m0-2.461a2.461 2.461 0 0 0-2.461 2.461v13.564c0 6.259 5.127 6.259 6.812 6.259h12.509a2.461 2.461 0 0 0 1.766-4.176L31.59 1.946a2.46 2.46 0 0 0-1.766-.746z"/><path fill-rule="evenodd" clip-rule="evenodd" fill="#C7E7F3" d="M11.713 19.938h9.574c.51 0 .923-.413.923-.922v-.326a.922.922 0 0 0-.923-.922h-9.574a.922.922 0 0 0-.923.922v.326a.922.922 0 0 0 .923.922zm0 5.968h9.574c.51 0 .923-.413.923-.922v-.326a.922.922 0 0 0-.923-.922h-9.574a.922.922 0 0 0-.923.922v.326a.922.922 0 0 0 .923.922zm0 5.968H24.55c.51 0 .923-.413.923-.922v-.326a.922.922 0 0 0-.923-.922H11.713a.922.922 0 0 0-.923.922v.326a.922.922 0 0 0 .923.922zm13.761 5.046v-.326a.922.922 0 0 0-.923-.922H11.713a.922.922 0 0 0-.923.922v.326c0 .509.413.922.923.922H24.55c.51 0 .924-.413.924-.922zm4.515 4.72H22.59a.922.922 0 0 0-.923.922v.326c0 .509.413.922.923.922h7.399c.51 0 .923-.413.923-.922v-.326a.922.922 0 0 0-.923-.922zm0 5.969H22.59a.922.922 0 0 0-.923.922v.326c0 .509.413.922.923.922h7.399c.51 0 .923-.413.923-.922v-.326a.922.922 0 0 0-.923-.922z"/><path fill-rule="evenodd" clip-rule="evenodd" fill="#E89022" d="M21.287 9.629h-9.574a.922.922 0 0 0-.923.922v2.496c0 .509.413.922.923.922h9.574c.51 0 .923-.413.923-.922v-2.496a.922.922 0 0 0-.923-.922zm8.809 20.075h-1.088a.815.815 0 0 0-.816.814v6.511c0 .45.365.814.816.814h1.088a.815.815 0 0 0 .816-.814v-6.511a.815.815 0 0 0-.816-.814zM18.024 41.64h-6.311a.922.922 0 0 0-.923.922v6.294c0 .509.413.922.923.922h6.311c.51 0 .923-.413.923-.922v-6.294a.922.922 0 0 0-.923-.922zM39.614 43.521a2.461 2.461 0 0 0 2.462 2.46h12.479a2.46 2.46 0 0 0 2.462-2.46V37.3H39.614v6.221zm11.421-3.436c0-.34.276-.615.616-.615h2.032c.34 0 .616.275.616.615v3.111c0 .34-.276.615-.616.615h-2.032a.615.615 0 0 1-.616-.615v-3.111zm5.983-7.668H36.895a3.26 3.26 0 0 0-3.263 3.255v23.873a3.259 3.259 0 0 0 3.263 3.255h22.842A3.259 3.259 0 0 0 63 59.545v-21.16l-5.982-5.968zm4.35 26.585c0 1.199-.974 2.17-2.175 2.17H37.439a2.173 2.173 0 0 1-2.175-2.17V36.215c0-1.199.974-2.17 2.175-2.17h19.035l4.895 4.883v20.074zm-21.282-3.255h-2.032a.615.615 0 0 0-.616.615v2.026c0 .34.276.615.616.615h2.032c.34 0 .616-.275.616-.615v-2.026a.615.615 0 0 0-.616-.615z"/></svg>