<svg xmlns="http://www.w3.org/2000/svg" width="64" height="64"><path fill="#CAE8F4" d="M63 32C63 14.873 49.122 1 32.002 1 14.877 1 1 14.873 1 32c0 17.12 13.877 31 31.002 31 7.025 0 13.462-2.394 18.664-6.33.214-.248.353-.551.353-.904 0-.758-.614-1.371-1.377-1.371a1.35 1.35 0 0 0-.995.419h-.013c-4.656 3.427-10.383 5.477-16.605 5.477-15.505 0-28.07-12.57-28.07-28.073 0-15.507 12.566-28.077 28.07-28.077 15.502 0 28.075 12.57 28.075 28.077 0 4.737-1.112 9.188-3.184 13.106v.025c-.034.126-.079.254-.079.392 0 .76.617 1.377 1.373 1.377.594 0 1.085-.383 1.278-.905v.014C61.699 41.955 63 37.131 63 32z"/><path fill-rule="evenodd" clip-rule="evenodd" fill="#E89021" d="M51.978 33.28a7.106 7.106 0 0 0-3.77-3.767 6.97 6.97 0 0 0-5.063-.151V26.81a3.782 3.782 0 0 0-1.096-2.689 3.696 3.696 0 0 0-2.698-1.141h-1.183a7.16 7.16 0 0 0 .342-2.219 7.009 7.009 0 0 0-.583-2.835 7.317 7.317 0 0 0-1.53-2.26 7.316 7.316 0 0 0-2.261-1.532 7.074 7.074 0 0 0-5.599 0 7.284 7.284 0 0 0-2.259 1.532 7.304 7.304 0 0 0-1.533 2.26 6.993 6.993 0 0 0-.58 2.835c0 .776.122 1.522.362 2.219h-3.47a3.758 3.758 0 0 0-2.703 1.127 3.74 3.74 0 0 0-1.13 2.702l.002 3.965c.036.792.194 1.368.491 1.814.374.56.927.909 1.553.977l.268.016c.385 0 .787-.09 1.199-.268.304-.135.617-.279.934-.437l.31-.124a3.333 3.333 0 0 1 2.674-.029c.421.18.774.414 1.082.724a3.352 3.352 0 0 1 .985 2.417c0 .484-.081.909-.254 1.305a3.406 3.406 0 0 1-1.816 1.803 3.126 3.126 0 0 1-2.68-.074l-.304-.108a1.748 1.748 0 0 1-.27-.139c-1.141-.684-2.196-.689-2.966-.097-.576.443-.972 1.091-1.17 1.929l-.038 4.438c0 1.04.394 1.971 1.141 2.698a3.793 3.793 0 0 0 2.691 1.098h18.295a3.74 3.74 0 0 0 2.687-1.109 3.728 3.728 0 0 0 1.107-2.687v-2.253c1.589.583 3.457.538 5.063-.151A7.109 7.109 0 0 0 50.458 41a7.199 7.199 0 0 0 1.516-2.223c.371-.855.56-1.782.56-2.761a6.845 6.845 0 0 0-.556-2.736zm-2.536 4.391a4.527 4.527 0 0 1-.938 1.377 4.282 4.282 0 0 1-1.384.929c-1.008.43-2.172.446-3.141.05a4.917 4.917 0 0 1-1.319-.797l-2.277-1.938v7.629c0 .302-.09.522-.302.729a.94.94 0 0 1-.729.302H21.057c-.308 0-.535-.095-.763-.315a.914.914 0 0 1-.304-.715v-3.889c.347.203.633.333.891.41a5.942 5.942 0 0 0 4.856.076 6.163 6.163 0 0 0 1.953-1.314 6.164 6.164 0 0 0 1.314-1.931 5.982 5.982 0 0 0 .486-2.408c0-.853-.162-1.665-.482-2.413a6.208 6.208 0 0 0-1.314-1.958 6.142 6.142 0 0 0-1.958-1.316c-1.49-.632-3.375-.619-4.751-.002a4.587 4.587 0 0 0-.544.221c-.151.076-.297.146-.453.221v-3.808c0-.301.095-.522.32-.747a.97.97 0 0 1 .747-.317h8.666l-1.798-2.248a4.807 4.807 0 0 1-.736-1.287 3.936 3.936 0 0 1-.259-1.449c0-.621.117-1.202.347-1.728.239-.54.558-1.015.956-1.413a4.5 4.5 0 0 1 1.415-.954 4.249 4.249 0 0 1 3.375 0 4.496 4.496 0 0 1 2.372 2.372c.229.524.346 1.105.346 1.724 0 1.057-.315 1.94-.967 2.705l-1.946 2.279h6.523c.295 0 .509.092.718.306.218.223.313.452.313.758v7.926l2.277-1.935a4.929 4.929 0 0 1 1.319-.794c.976-.401 2.133-.383 3.141.047.535.229.988.533 1.386.932.396.398.702.851.932 1.386a4.08 4.08 0 0 1 .333 1.645 4.03 4.03 0 0 1-.326 1.652z"/></svg>