<svg xmlns="http://www.w3.org/2000/svg" width="64" height="64"><path fill="#CAE8F4" d="M59.457 1.612H4.543A3.539 3.539 0 0 0 1 5.145v41.358a3.539 3.539 0 0 0 3.543 3.533h54.914A3.537 3.537 0 0 0 63 46.503V5.145a3.537 3.537 0 0 0-3.543-3.533zm-.46 44.149H4.449V5.618h54.548v40.143zM46.835 57.933h-3.993l-2.206-6.635H23.809l-2.485 6.635h-3.716c-1.956 0-3.543.681-3.543 1.522v1.411c0 .841 1.587 1.522 3.543 1.522h29.228c1.959 0 3.543-.681 3.543-1.522v-1.411c-.001-.84-1.585-1.522-3.544-1.522z"/><path fill-rule="evenodd" clip-rule="evenodd" fill="#E89022" d="M22.488 40.599h6.152V25.313h-6.152v15.286zm-12.304 0h6.152v-9.171h-6.152v9.171zm24.609 0h6.153V13.083h-6.153v27.516zm12.305-21.401v21.401h6.152V19.198h-6.152z"/></svg>