<svg xmlns="http://www.w3.org/2000/svg" width="64" height="64"><path fill-rule="evenodd" clip-rule="evenodd" fill="#CAE8F4" d="M45.195 49.709c-.666 1.737-2.318 2.973-4.264 2.973H9.755c-2.532 0-4.585-2.085-4.585-4.656V7.982c0-2.572 2.053-4.656 4.585-4.656h20.318l15.443 15.873v7.138c.718.407 1.391.887 2.017 1.427V18.48L30.546 1.311H8.196a5.04 5.04 0 0 0-5.043 5.036V49.66a5.04 5.04 0 0 0 5.043 5.036H42.49a5.034 5.034 0 0 0 4.549-2.895l-1.844-2.092z"/><path fill="#CAE8F4" d="M29.882 3.325l15.634 16.117h-11.6c-2.785 0-4.035-.744-4.035-3.526V3.325m0-2.283a2.282 2.282 0 0 0-2.282 2.283v12.591c0 5.809 4.755 5.809 6.318 5.809h11.599a2.282 2.282 0 1 0 1.639-3.872L31.52 1.736a2.282 2.282 0 0 0-1.639-.694z"/><path fill="#C7E7F3" d="M13.086 18.435h8.878a.856.856 0 0 0 .856-.856v-.302a.856.856 0 0 0-.856-.856h-8.878a.856.856 0 0 0-.856.856v.302c0 .472.384.856.856.856zm10.087 20.146a.856.856 0 0 0-.856.856v.302c0 .473.383.856.856.856h2.535a13.076 13.076 0 0 1-.314-2.015h-2.221zM13.086 23.975h8.878a.856.856 0 0 0 .856-.856v-.302a.856.856 0 0 0-.856-.856h-8.878a.856.856 0 0 0-.856.856v.302c0 .472.384.856.856.856zm0 5.54H24.99a.856.856 0 0 0 .856-.856v-.302a.856.856 0 0 0-.856-.856H13.086a.856.856 0 0 0-.856.856v.302c0 .473.384.856.856.856zm12.585 5.178c.052-.23.112-.457.176-.683v-.113a.856.856 0 0 0-.856-.856H13.086a.856.856 0 0 0-.856.856v.302c0 .473.383.856.856.856H24.99a.838.838 0 0 0 .681-.362zm1.44 9.428h-3.938a.856.856 0 0 0-.856.856v.302c0 .473.383.856.856.856h5.376a13.085 13.085 0 0 1-1.438-2.014z"/><path fill="#E89022" d="M29.225 27.5a.856.856 0 0 0-.856.856v.852a13.156 13.156 0 0 1 1.711-1.709h-.855zm-7.26-18.634h-8.878a.856.856 0 0 0-.856.856v2.317c0 .473.383.856.856.856h8.878a.856.856 0 0 0 .856-.856V9.722a.856.856 0 0 0-.856-.856zm-3.026 29.715h-5.852a.856.856 0 0 0-.856.856v5.842c0 .473.383.856.856.856h5.852a.856.856 0 0 0 .856-.856v-5.842a.856.856 0 0 0-.856-.856z"/><path fill-rule="evenodd" clip-rule="evenodd" fill="#E89022" d="M60.201 58.001l-7.335-7.777-4.087 3.576 6.771 8.272a2.61 2.61 0 0 0 3.677.24l.734-.643a2.596 2.596 0 0 0 .24-3.668zM47.69 45.588c3.811-4.444 3.875-11.122-.104-15.649-4.365-4.966-11.937-5.461-16.914-1.107-4.977 4.355-5.473 11.911-1.109 16.877 3.964 4.51 10.574 5.331 15.482 2.182l3.458 3.934 2.639-2.309-3.452-3.928zm-2.866-.654c-3.929 3.438-9.929 3.046-13.375-.875-3.446-3.921-3.053-9.908.877-13.346 3.929-3.438 9.93-3.046 13.375.875 3.446 3.921 3.052 9.908-.877 13.346z"/></svg>