<svg xmlns="http://www.w3.org/2000/svg" width="64" height="64"><path fill="#CAE8F4" d="M59.457 1.612H4.543A3.539 3.539 0 0 0 1 5.145v41.358a3.539 3.539 0 0 0 3.543 3.533h54.914A3.537 3.537 0 0 0 63 46.503V5.145a3.537 3.537 0 0 0-3.543-3.533zm-.46 44.149H4.449V5.618h54.548v40.143zM46.835 57.934h-3.993l-2.206-6.635H23.809l-2.485 6.635h-3.716c-1.956 0-3.543.681-3.543 1.522v1.411c0 .841 1.587 1.522 3.543 1.522h29.228c1.959 0 3.543-.681 3.543-1.522v-1.411c-.001-.841-1.585-1.522-3.544-1.522z"/><path fill-rule="evenodd" clip-rule="evenodd" fill="#E89022" d="M52.242 16.868H35.789c-.871 0-1.574.697-1.574 1.563s.703 1.563 1.574 1.563h16.453c.874 0 1.577-.697 1.577-1.563 0-.867-.707-1.563-1.577-1.563zM35.789 27.083h10.234c.871 0 1.577-.697 1.577-1.563 0-.863-.707-1.56-1.577-1.56H35.789c-.871 0-1.574.697-1.574 1.56 0 .863.703 1.563 1.574 1.563zm13.204 3.461H35.789c-.871 0-1.574.697-1.574 1.559 0 .863.703 1.563 1.574 1.563h13.204c.874 0 1.577-.697 1.577-1.563a1.567 1.567 0 0 0-1.577-1.559zm-20.776-18.61H13.154c-1.952 0-3.54 1.576-3.54 3.51v20.504c0 1.934 1.587 3.507 3.54 3.507H28.22c1.953 0 3.54-1.573 3.54-3.507V15.441c.001-1.934-1.59-3.507-3.543-3.507zm.392 24.014a.39.39 0 0 1-.389.385H13.154a.392.392 0 0 1-.389-.385V15.441c0-.212.178-.388.389-.388H28.22a.39.39 0 0 1 .389.388v20.507z"/></svg>