<svg xmlns="http://www.w3.org/2000/svg" width="64" height="64"><path fill="#CAE8F4" d="M50.473 5.197s-14.91 0-22.431-4.197C20.666 5.197 5.611 5.197 5.611 5.197v35.369c0 .942.196 1.837.55 2.647h-.01C10.36 53.366 19.887 59.853 28.042 63v-2.663l-.065.024c-5.596-1.933-14.555-8.128-19.054-17.149a11.822 11.822 0 0 1-.673-3.946V7.829s13.136-.099 19.792-4.19c6.835 4.092 19.792 4.19 19.792 4.19v31.439a11.83 11.83 0 0 1-.673 3.946h-.014a29.154 29.154 0 0 1-2.346 3.957h3.221a30.121 30.121 0 0 0 1.932-3.957h-.03a6.6 6.6 0 0 0 .55-2.647V5.197zm-4.509 38.016c.354-.808.55-1.701.55-2.64V31.34H10.888V10.234s11.384-.093 17.153-3.957c5.924 3.864 17.153 3.957 17.153 3.957v18.468h1.319V8.795s-12.279 0-18.473-3.838C21.967 8.795 9.569 8.795 9.569 8.795v31.778c0 .939.196 1.832.549 2.639h-.028a30.328 30.328 0 0 0 3.437 5.205v.072h.059c4.181 5.09 9.667 8.6 14.455 10.632v-1.417c-1.545-.565-3.37-1.478-5.278-2.715v-6.501h6.597v-7.914h15.76a11.797 11.797 0 0 1-.605 2.639h-.007a30.48 30.48 0 0 1-2.677 3.957h1.798a28.89 28.89 0 0 0 2.335-3.957zm-35.076-3.968V32.66h7.917v6.596h-7.916l-.001-.011zm9.237 13.854a35.507 35.507 0 0 1-4.844-4.609h4.844v4.609zm6.597-5.929H14.196a30.555 30.555 0 0 1-2.627-3.957h-.005a11.892 11.892 0 0 1-.603-2.639h15.76v6.596zm7.917-7.915H21.444v-6.596h13.195v6.596zm10.556-.01v.011h-7.917V32.66h7.917v6.585z"/><path fill-rule="evenodd" clip-rule="evenodd" fill="#E89022" d="M55.75 49.809h-5.278v2.638h5.278v5.277H42.556v-3.957h-2.639v6.595H58.39V49.809h-2.64zm-22.431 2.638h11.875v3.958h2.639v-6.596H30.681v10.553h7.917v-2.638H33.32v-5.277z"/></svg>