<svg id="组_4_拷贝" xmlns="http://www.w3.org/2000/svg" viewBox="0 0 50 50"><style>.st1{fill:#cdcfd1}</style><circle id="椭圆_3_拷贝" cx="25" cy="25" r="25" fill="#165079"/><path class="st1" d="M25.4 17c-4.7 0-8.5 3.8-8.5 8.5s3.8 8.5 8.5 8.5 8.5-3.8 8.5-8.5-3.8-8.5-8.5-8.5zm0 12.3c-2.1 0-3.8-1.7-3.8-3.8 0-2.1 1.7-3.8 3.8-3.8 2.1 0 3.8 1.7 3.8 3.8 0 2.1-1.7 3.8-3.8 3.8z"/><path class="st1" d="M23 13h5v7h-5z"/><path class="st1" d="M32.6 14.9l3.5 3.5-5 4.9-3.5-3.5z"/><path class="st1" d="M30.6 22.4H38v5.3h-7.4zM23 30.9h4.9V38H23z"/><path class="st1" d="M18.4 36.1l-3.5-3.5 4.9-5 3.5 3.5zM35.8 32.5L32.4 36l-4.9-4.9 3.5-3.5zM15 18.4l3.5-3.4 4.9 4.8-3.5 3.5z"/><path class="st1" d="M13 22h7.3v5.3H13z"/></svg>