<svg id="组_4" xmlns="http://www.w3.org/2000/svg" viewBox="0 0 628 633"><style>.st0{fill:#719cbb}</style><switch><g><path class="st0" d="M401 66.2l38.7 40.8-61.3 59.3c31.6 16.8 57 43.6 72.1 76.3l61.4-59.4 38.7 40.8L582 42.4 401 66.2z"/><path id="椭圆_1" class="st0" d="M304.9 242.6c40.7-.4 74.1 32.3 74.5 73 .4 40.7-32.3 74.1-73 74.5-40.7.4-74.1-32.3-74.5-73v-.8c-.2-40.5 32.5-73.5 73-73.7z"/><path class="st0" d="M587.8 596.6l-23.6-182.8-40.4 39.1-70.8-74.6c-14 33.3-38.7 60.9-69.7 78.8l65.1 68.6-40.4 39.1 179.8 31.8zM224.4 459.8c-31.6-16.8-56.9-43.7-72-76.3L91 443l-38.7-40.8-31.5 181.6 181-23.8-38.7-40.8 61.3-59.4zM231.9 162.8l-59.1-62.3 40.4-39.1L33.4 29.6 57 212.5l40.4-39.1 58.6 61.8c16.7-31.7 43.4-57.2 75.9-72.4z"/></g></switch></svg>