<svg id="组_3_拷贝" xmlns="http://www.w3.org/2000/svg" viewBox="0 0 628 633"><style>.st1{fill:#09131c}</style><circle cx="314" cy="314" r="314" fill="#00dfc4"/><path class="st1" d="M285.9 322.6H128.4c-13.3 0-24.2-10.8-24.2-24.2s10.8-24.2 24.2-24.2h133.4V140.8c0-13.3 10.8-24.2 24.2-24.2s24.2 10.8 24.2 24.2v157.6c-.1 13.4-10.9 24.2-24.3 24.2zM344.2 534.1c-13.3 0-24.2-10.8-24.2-24.2V352.3c0-13.3 10.8-24.2 24.2-24.2h157.6c13.3 0 24.2 10.8 24.2 24.2s-10.8 24.2-24.2 24.2H368.4v133.4c0 13.3-10.8 24.2-24.2 24.2z"/></svg>