<svg xmlns="http://www.w3.org/2000/svg" width="64" height="64"><path fill-rule="evenodd" clip-rule="evenodd" fill="#CAE8F4" d="M45.845 56.127A27.686 27.686 0 0 1 32 59.821C16.635 59.821 4.18 47.365 4.18 32c0-3.472.652-6.787 1.816-9.851l4.232 1.447-4.454-9.084C5.774 14.513 1 21.999 1 32c0 17.121 13.879 31 31 31a30.848 30.848 0 0 0 16.169-4.549l-2.324-2.324zM32 1a30.848 30.848 0 0 0-15.669 4.255l2.328 2.328A27.696 27.696 0 0 1 32 4.18c15.365 0 27.82 12.456 27.82 27.82 0 3.041-.49 5.967-1.392 8.706l-4.954-1.544 4.699 8.736S63 43.444 63 32.001C63 14.879 49.121 1 32 1z"/><path fill-rule="evenodd" clip-rule="evenodd" fill="#E89021" d="M42.745 22.152c0-5.948-4.811-10.77-10.746-10.77-5.935 0-10.745 4.822-10.745 10.77 0 5.046 3.463 9.281 8.136 10.449v18.782c0 .68.555 1.236 1.233 1.236h2.753c.678 0 1.232-.556 1.232-1.236v-1.681h4.779v-3.92H36.97v-3.86h2.418v-3.92h-4.779v-5.4a10.77 10.77 0 0 0 8.136-10.45zM32 24.558a4.818 4.818 0 0 1-3.37-1.399 4.838 4.838 0 0 1-1.396-3.378c0-1.251.513-2.494 1.396-3.378A4.814 4.814 0 0 1 32 15.004c1.248 0 2.488.515 3.371 1.399a4.84 4.84 0 0 1 1.396 3.378 4.84 4.84 0 0 1-1.396 3.378A4.826 4.826 0 0 1 32 24.558z"/></svg>