<svg xmlns="http://www.w3.org/2000/svg" width="64" height="64"><path fill-rule="evenodd" clip-rule="evenodd" fill="#E89021" d="M2.935 32.521H15.39v-1.673H2.935v1.673zm0 5.053H15.39v-1.673H2.935v1.673zm44.375-6.726v1.673h12.454v-1.673H47.31zm0 6.726h12.454v-1.673H47.31v1.673z"/><g fill="#CAE8F4"><path d="M21.852 35.207l1.534.232c-.299.83-.749 1.466-1.347 1.904-.599.439-1.3.658-2.104.658-.905 0-1.612-.272-2.122-.817s-.764-1.335-.764-2.371c0-.841.17-1.61.512-2.308.342-.697.815-1.231 1.42-1.602s1.265-.555 1.978-.555c.8 0 1.448.214 1.942.643.495.429.786 1.014.873 1.754l-1.458.141c-.081-.431-.236-.742-.467-.936s-.538-.29-.921-.29c-.42 0-.813.128-1.178.384-.365.255-.657.654-.875 1.198a4.32 4.32 0 0 0-.328 1.627c0 .592.142 1.05.426 1.372.284.323.638.484 1.062.484.394 0 .754-.128 1.082-.383.328-.255.573-.634.735-1.135zM25.504 30.475h1.519l-.838 4.015-.207.989a1.445 1.445 0 0 0-.021.237c0 .293.107.534.32.724.214.19.524.285.931.285.367 0 .669-.068.908-.207.239-.138.424-.343.555-.615.131-.272.264-.735.398-1.388l.848-4.041h1.519l-.842 4.045c-.179.852-.384 1.502-.616 1.953-.232.45-.583.817-1.055 1.1-.471.283-1.066.424-1.786.424-.861 0-1.521-.211-1.978-.633-.458-.422-.687-.965-.687-1.627 0-.139.012-.288.036-.449.013-.108.072-.414.176-.919l.82-3.893zM32.937 37.871h-1.523l1.549-7.396h3.008c.534 0 .957.063 1.269.188.312.127.558.335.739.626s.272.639.272 1.042c0 .373-.072.736-.217 1.089s-.322.636-.532.848a2.263 2.263 0 0 1-.679.481c-.242.109-.568.193-.979.25-.238.034-.686.051-1.342.051h-.974l-.591 2.821zm.842-4.047h.47c.804 0 1.34-.05 1.609-.151.269-.101.48-.262.636-.484.154-.221.232-.465.232-.731 0-.178-.04-.324-.119-.438s-.189-.198-.333-.25c-.143-.052-.462-.078-.956-.078h-1.09l-.449 2.132zM38.542 35.475l1.448-.076c.021.461.1.772.237.934.222.263.633.394 1.231.394.497 0 .857-.089 1.079-.268.223-.178.333-.394.333-.646a.699.699 0 0 0-.272-.555c-.128-.111-.479-.291-1.052-.54s-.992-.457-1.256-.623c-.265-.167-.472-.383-.623-.648s-.228-.577-.228-.933c0-.622.226-1.139.676-1.549.451-.41 1.104-.615 1.958-.615.868 0 1.54.203 2.016.61.477.406.737.948.785 1.624l-1.459.066c-.037-.354-.164-.624-.383-.813s-.542-.283-.969-.283c-.421 0-.721.074-.901.223a.693.693 0 0 0-.27.56c0 .212.082.387.247.525.165.14.53.333 1.095.58.852.366 1.393.664 1.625.893.347.337.52.769.52 1.297 0 .652-.258 1.21-.774 1.673-.517.462-1.235.693-2.157.693-.636 0-1.187-.106-1.652-.32s-.794-.511-.986-.891c-.192-.381-.281-.818-.268-1.312z"/></g><path fill="#CAE8F4" d="M61.075 9.145h-9.817V5.042c0-1.694-1.176-3.072-2.623-3.072h-9.787c-1.446 0-2.623 1.378-2.623 3.072v4.103h-33.3C1.863 9.145 1 9.858 1 10.733c0 .876.863 1.588 1.925 1.588h33.301v4.009c0 1.694.786 3.075 2.233 3.075l10.177-.003c1.446 0 2.623-1.378 2.623-3.072v-4.009h9.817c1.061 0 1.925-.712 1.925-1.588-.001-.875-.865-1.588-1.926-1.588zm-13.107 5.846a.52.52 0 0 1-.519.524h-7.413a.522.522 0 0 1-.52-.524v-8.61c0-.29.233-.524.52-.524h7.413c.287 0 .519.235.519.524v8.61zM9.396 58.775H2.938c-1.427 0-1.938.647-1.938 1.446 0 .799.511 1.447 1.938 1.447h6.458c1.427 0 1.938-.648 1.938-1.447-.001-.799-.511-1.446-1.938-1.446zm42.625.361h-7.75l-9.688-6.148H24.25c-1.427 0-1.937.648-1.937 1.447s.511 1.447 1.937 1.447H32l9.688 6.148h10.333c1.427 0 1.938-.648 1.938-1.447-.001-.799-.511-1.447-1.938-1.447z"/><path fill-rule="evenodd" clip-rule="evenodd" fill="#E89021" d="M61.397 52.988H46.854c-1.427 0-1.938.65-1.938 1.452s.511 1.452 1.938 1.452h12.939v1.452c0 .802.718 1.452 1.603 1.452S63 58.145 63 57.343V54.44c0-.802-.718-1.452-1.603-1.452zm-30.689 6.148h-7.75l-9.688-6.148H2.938c-1.427 0-1.938.648-1.938 1.447s.511 1.447 1.938 1.447h7.75l9.688 6.148h10.333c1.427 0 1.938-.648 1.938-1.447-.001-.799-.512-1.447-1.939-1.447z"/></svg>