<svg xmlns="http://www.w3.org/2000/svg" viewBox="-1.2 -1.1 58.1 58.2"><path opacity=".4" fill="#299BD7" d="M28 0c15.5 0 28 12.5 28 28S43.5 56 28 56 0 43.5 0 28 12.5 0 28 0z"/><path fill="#299BD7" d="M28 6c12.2 0 22 9.9 22 22s-9.8 22-22 22S6 40.1 6 28 15.9 6 28 6z"/><path fill="#FFF" d="M34.5 42c-3.3 0-6-2.7-6-6s2.7-6 6-6 6 2.7 6 6-2.7 6-6 6zm3.5-8.3c-.4-.4-1.1-.3-1.4.1L33.9 37l-2-1.5c-.3-.3-.9-.1-1.2.4-.3.5-.3 1.1 0 1.3l2.5 1.8c.1.1.3.1.4.1.4.3 1 .2 1.3-.2l3.2-3.8c.4-.4.4-1-.1-1.4zm-11.5 2.8c0 .5.1 1 .1 1.5h-9.1c-1.1 0-2-.9-2-2V16c0-1.1.9-2 2-2h13v5c0 1.1.9 2 2 2h4v7.1c-.5 0-1-.1-1.5-.1-4.7 0-8.5 3.8-8.5 8.5zm-2-14.5h-2v8h2v-8zm3.9 0h-2.9v8h1.8v-2.8h.9c.9 0 1.7-.2 2.4-.7.6-.5.9-1.2.9-2 0-1.7-1-2.5-3.1-2.5zm-.3 3.9h-.8v-2.6h.8c1 0 1.6.4 1.6 1.3-.1.9-.6 1.3-1.6 1.3zM31.5 14h5v6h-5v-6z"/></svg>