<svg id="组_4" xmlns="http://www.w3.org/2000/svg" viewBox="0 0 50 50"><style>.st1{fill:#cdcfd1}</style><circle id="椭圆_3_拷贝" cx="25" cy="25" r="23.8" fill="#165079"/><path class="st1" d="M27.5 23.4c1 0 1.5.4 1.5 1.2 0 .8-.5 1.2-1.5 1.2h-.7v-2.5l.7.1zM35.5 16.4c0-1.1-.9-1.9-1.9-1.9h-2.9v5.7h4.8v-3.8z"/><path class="st1" d="M31.7 21.2c-1.1 0-1.9-.9-1.9-1.9v-4.8H17.4c-1.1 0-1.9.9-1.9 1.9v19.1c0 1.1.9 1.9 1.9 1.9h8.7c-.1-.5-.1-.9-.1-1.4 0-4.5 3.6-8.1 8.1-8.1.5 0 1 .1 1.4.1v-6.8h-3.8zm-7.6 8.6h-1.9v-7.6h1.9v7.6zm5.7-3.4c-.6.5-1.4.7-2.2.7h-.9v2.7H25v-7.6h2.7c2 0 3 .8 3 2.4 0 .7-.3 1.4-.9 1.8z"/><path class="st1" d="M33.6 29.8c-3.2 0-5.7 2.6-5.7 5.7s2.6 5.7 5.7 5.7c3.2 0 5.7-2.6 5.7-5.7s-2.6-5.7-5.7-5.7zm1.9 6.6h-3.8c-.5 0-1-.4-1-1 0-.5.4-1 1-1h3.8c.5 0 1 .4 1 1-.1.6-.5 1-1 1z"/></svg>