<svg xmlns="http://www.w3.org/2000/svg" width="64" height="64"><path fill-rule="evenodd" clip-rule="evenodd" fill="#CAE8F4" d="M59.168 9.247H4.834C2.72 9.247 1 10.984 1 13.117v37.766c0 2.134 1.72 3.87 3.834 3.87h54.334c2.113 0 3.832-1.736 3.832-3.87V13.117c0-2.133-1.719-3.87-3.832-3.87zM4.834 11.306h54.334c.989 0 1.793.813 1.793 1.811v2.434H3.04v-2.434c0-.999.804-1.811 1.794-1.811zM3.04 27.696V17.609h44.534l-5.466 10.087H3.04zm46.859-10.087h3.323l-5.711 10.087h-3.079l5.467-10.087zm5.672 0h5.389v10.087h-11.1l5.711-10.087zm3.597 35.085H4.834c-.99 0-1.795-.813-1.795-1.812V29.754H60.96v21.128a1.804 1.804 0 0 1-1.792 1.812z"/><path fill-rule="evenodd" clip-rule="evenodd" fill="#E89021" d="M23.474 31.69l.223.691a8.912 8.912 0 0 1 2.157-.268c.865 0 1.696.136 2.487.365l.223-.691a9.628 9.628 0 0 0-2.71-.402 9.683 9.683 0 0 0-2.38.305zm-5.243 4.666l-.585-.428c-.241.38-.453.78-.642 1.192h.811c.132-.259.263-.519.416-.764zm12.718-3.491a9.844 9.844 0 0 0-1.361-.715l-.224.693c.388.166.759.362 1.118.577l.467-.555zm-8.286-.156l-.224-.693a9.78 9.78 0 0 0-4.161 3.026l.584.427a9.062 9.062 0 0 1 3.801-2.76zm7.918 16.206a9.158 9.158 0 0 1-1.32.693l.224.693a9.88 9.88 0 0 0 1.631-.871l-.535-.515zm-4.726 1.381a8.922 8.922 0 0 1-2.049-.24l-.224.692c.73.176 1.489.275 2.272.275a9.64 9.64 0 0 0 2.603-.37l-.223-.691a8.893 8.893 0 0 1-2.379.334zm-6.808-3.127l-.588.43a9.795 9.795 0 0 0 4.085 2.835l.224-.694a9.065 9.065 0 0 1-3.721-2.571zm-2.377-2.654a9.831 9.831 0 0 0 1.125 2.222l.584-.427a8.69 8.69 0 0 1-.914-1.795h-.795z"/><path fill-rule="evenodd" clip-rule="evenodd" fill="#E89022" d="M35.432 31.755l.222.691a8.896 8.896 0 0 1 2.489-.367c.745 0 1.467.097 2.159.269l.223-.691a9.59 9.59 0 0 0-2.381-.305c-.945 0-1.85.15-2.712.403zm-.8 1.058l-.223-.694c-.476.201-.926.449-1.362.718l.466.555c.359-.216.73-.413 1.119-.579zm10.505 2.636l.583-.427a9.779 9.779 0 0 0-4.161-3.037l-.223.693a9.045 9.045 0 0 1 3.801 2.771zm1.862 1.671c-.19-.419-.404-.824-.647-1.21l-.583.428c.157.251.291.516.423.782h.807zm-.702 7.963a8.7 8.7 0 0 1-.681 1.239l.588.431c.352-.52.637-1.086.887-1.67h-.794zm-5.069 4.678l.227.704a9.791 9.791 0 0 0 4.085-2.846l-.592-.434a9.063 9.063 0 0 1-3.72 2.576zm-8.349-.304a9.77 9.77 0 0 0 1.633.875l.226-.703a9.152 9.152 0 0 1-1.319-.694l-.54.522zm5.264.861a8.88 8.88 0 0 1-2.378-.335l-.226.701c.83.234 1.699.372 2.604.372.784 0 1.544-.099 2.274-.276l-.226-.703a8.871 8.871 0 0 1-2.048.241z"/><path fill-rule="evenodd" clip-rule="evenodd" fill="#E89021" d="M34.891 38.566H29.11a8.535 8.535 0 0 0-.479 1.873h6.74a8.665 8.665 0 0 0-.48-1.873zm-.922-1.873h-3.938c-.233.382-.458.802-.661 1.248h5.26a11.597 11.597 0 0 0-.661-1.248zM32 48.583s.493-.463 1.106-1.252h-2.212A11.834 11.834 0 0 0 32 48.583zm0-14.393s-.758.715-1.562 1.877h3.123C32.758 34.905 32 34.19 32 34.19zm-1.562 12.516h3.123c.257-.371.516-.793.759-1.248h-4.642c.244.455.504.876.76 1.248zm4.986-5.64h-6.849c-.005.107-.017.212-.017.321 0 .321.024.637.066.947h6.752c.042-.31.066-.625.066-.947 0-.109-.012-.214-.018-.321zm-6.054 3.766h5.26c.265-.58.481-1.211.626-1.873h-6.513c.146.662.362 1.293.627 1.873z"/><g fill="#CAE8F4"><path d="M18.083 43.784h-.893l-.136-2.565c-.04-.828-.087-1.768-.08-2.524h-.024a35.286 35.286 0 0 1-.677 2.27l-.908 2.765h-.693l-.836-2.708a25.285 25.285 0 0 1-.613-2.326H13.2a79.077 79.077 0 0 1-.111 2.572l-.135 2.518h-.86l.414-6.102h1.147l.86 2.685c.223.748.406 1.426.558 2.095h.024c.151-.653.342-1.347.581-2.103l.884-2.677h1.155l.366 6.1zM22.214 42.74c0 .375.008.757.063 1.044h-.836l-.063-.51h-.024c-.247.342-.677.597-1.227.597-.82 0-1.291-.604-1.291-1.282 0-1.091.948-1.633 2.453-1.633 0-.326 0-.979-.884-.979-.391 0-.789.119-1.067.303l-.191-.613c.311-.199.829-.366 1.418-.366 1.291 0 1.649.853 1.649 1.784v1.655zm-.9-1.163c-.725 0-1.561.136-1.561.916 0 .486.303.701.646.701.501 0 .916-.382.916-.892v-.725zM25.559 40.224a1.606 1.606 0 0 0-.836-.247c-.414 0-.637.239-.637.534 0 .302.199.453.733.685.725.295 1.107.693 1.107 1.33 0 .845-.645 1.346-1.641 1.346-.462 0-.9-.119-1.195-.294l.207-.686c.223.136.629.295 1.003.295.494 0 .733-.239.733-.573 0-.335-.183-.518-.709-.741-.78-.311-1.123-.748-1.123-1.258 0-.733.598-1.314 1.521-1.314.43 0 .804.119 1.043.255l-.206.668zM27.007 38.599l.916-.287v1.084h1.043v.692h-1.043v2.223c0 .541.167.805.558.805.183 0 .295-.024.406-.056l.032.708c-.159.064-.406.104-.717.104-.366 0-.677-.119-.868-.334-.223-.239-.327-.605-.327-1.179v-2.271h-.621v-.692h.621v-.797zM32.972 43.608c-.311.144-.796.263-1.394.263-1.322 0-2.087-.884-2.087-2.222 0-1.307.733-2.35 1.976-2.35 1.234 0 1.729 1.027 1.729 2.11 0 .151-.008.279-.024.391h-2.787c.023.987.637 1.362 1.33 1.362.486 0 .82-.088 1.107-.207l.15.653zm-.653-2.468c.008-.525-.207-1.179-.916-1.179-.677 0-.964.669-1.012 1.179h1.928zM36.292 40.208a1.287 1.287 0 0 0-.271-.024c-.621 0-1.012.51-1.012 1.274v2.326h-.924v-3.051c0-.51-.008-.932-.032-1.338h.805l.032.804h.031c.199-.557.661-.899 1.14-.899.087 0 .151.008.23.023v.885zM40.999 43.616c-.255.128-.773.255-1.435.255-1.696 0-2.835-1.123-2.835-3.066 0-2.07 1.306-3.201 2.995-3.201.7 0 1.131.15 1.298.238l-.199.757a2.515 2.515 0 0 0-1.067-.223c-1.179 0-2.055.796-2.055 2.381 0 1.498.78 2.334 2.039 2.334.414 0 .836-.088 1.099-.215l.16.74zM44.94 42.74c0 .375.008.757.063 1.044h-.837l-.063-.51h-.023c-.247.342-.678.597-1.227.597-.82 0-1.291-.604-1.291-1.282 0-1.091.948-1.633 2.454-1.633 0-.326 0-.979-.885-.979-.39 0-.788.119-1.067.303l-.191-.613c.312-.199.829-.366 1.418-.366 1.291 0 1.649.853 1.649 1.784v1.655zm-.9-1.163c-.725 0-1.562.136-1.562.916 0 .486.303.701.646.701.502 0 .916-.382.916-.892v-.725zM48.309 40.208a1.3 1.3 0 0 0-.271-.024c-.621 0-1.012.51-1.012 1.274v2.326h-.924v-3.051c0-.51-.008-.932-.031-1.338h.804l.032.804h.032c.199-.557.661-.899 1.139-.899.088 0 .151.008.231.023v.885zM52.688 42.613c0 .398.016.868.031 1.171h-.813l-.048-.686h-.023c-.231.446-.709.772-1.33.772-.996 0-1.752-.884-1.752-2.237 0-1.49.852-2.334 1.831-2.334.566 0 .973.255 1.163.589h.017v-2.493h.924v5.218zm-.923-1.441c0-.718-.454-1.14-.972-1.14-.709 0-1.1.701-1.1 1.569 0 .86.382 1.521 1.083 1.521.598 0 .988-.526.988-1.14v-.81z"/></g></svg>