<svg xmlns="http://www.w3.org/2000/svg" viewBox="-0.6 -0.5 58.1 58"><path fill="#122430" stroke="#1E3C50" d="M28.5.5c15.5 0 28 12.5 28 28s-12.5 28-28 28-28-12.5-28-28S13 .5 28.5.5z"/><path fill="#FFF" d="M35 42.5c-3.3 0-6-2.7-6-6s2.7-6 6-6 6 2.7 6 6-2.7 6-6 6zm2-7h-4c-.6 0-1 .4-1 1s.4 1 1 1h4c.6 0 1-.4 1-1s-.4-1-1-1zM27 37c0 .5.1 1 .1 1.5H18c-1.1 0-2-.9-2-2v-20c0-1.1.9-2 2-2h13v5c0 1.1.9 2 2 2h4v7.1c-.5-.1-1-.1-1.5-.1-4.7 0-8.5 3.8-8.5 8.5zm-2-14.5h-2v8h2v-8zm3.9 0H26v8h1.8v-2.8h.9c.9 0 1.7-.2 2.4-.7.6-.5.9-1.2.9-2 0-1.7-1-2.5-3.1-2.5zm-.3 3.9h-.8v-2.6h.8c1 0 1.6.4 1.6 1.3-.1.9-.6 1.3-1.6 1.3zM32 14.5h5v6h-5v-6z"/></svg>