<svg xmlns="http://www.w3.org/2000/svg" width="42" height="36"><path fill-rule="evenodd" fill="#00BB9C" d="M35.874 29.874c-6.834 6.834-17.914 6.834-24.748 0-.126-.125-.233-.262-.354-.391v.038l-9.899-9.9a2.998 2.998 0 0 1 0-4.242l9.899-9.9v.038c.121-.129.228-.266.354-.391 6.834-6.835 17.914-6.835 24.748 0 6.834 6.834 6.834 17.914 0 24.748z"/><path fill-rule="evenodd" fill="#010203" d="M28 10h2v16h-2V10zM25 10h2v16h-2V10z"/><path fill-rule="evenodd" fill="#010203" d="M25.009 17.51l-7.018 7.5v-15l7.018 7.5z"/></svg>