<svg xmlns="http://www.w3.org/2000/svg" width="64" height="64" viewBox="0 0 50 50"><path fill="#DDDDDE" d="M28.562.842H4.159A2.899 2.899 0 0 0 1.26 3.74v42.52c0 1.6 1.298 2.898 2.899 2.898h24.403a2.899 2.899 0 0 0 2.899-2.898V3.74c0-1.6-1.298-2.898-2.9-2.898zM4.275 6.882h24.163v6.04H4.275v-6.04zm9.064 39.256H7.3V43.12h6.04v3.018zm12.08 0h-6.04V43.12h6.04v3.018zm-9.059-7.731a4.348 4.348 0 1 1 0-8.696 4.348 4.348 0 0 1 0 8.696zm12.082-16.424H4.279v-6.04h24.163v6.04z"/><path fill="#96B7DD" d="M28.133.842H3.73A2.899 2.899 0 0 0 .831 3.74v42.52c0 1.6 1.298 2.898 2.9 2.898h24.402a2.899 2.899 0 0 0 2.899-2.898V3.74c0-1.6-1.298-2.898-2.899-2.898zM3.847 6.882H28.01v6.04H3.847v-6.04zm9.064 39.256H6.87V43.12h6.04v3.018zm12.08 0h-6.04V43.12h6.04v3.018zm-9.06-7.731a4.348 4.348 0 1 1 0-8.696 4.348 4.348 0 0 1 0 8.696zm12.082-16.424H3.85v-6.04h24.163v6.04z"/><path fill="#DDDDDE" d="M45.771 38.639c-.826 0-1.556.332-2.144.82l-5.18-3.697c.328-.677.528-1.42.528-2.22a5.066 5.066 0 0 0-.949-2.944l6.059-6.063c.504.295 1.059.511 1.686.511a3.396 3.396 0 0 0 3.398-3.398 3.396 3.396 0 0 0-3.398-3.398 3.396 3.396 0 0 0-3.398 3.398c0 .627.216 1.181.511 1.686l-6.059 6.063a5.04 5.04 0 0 0-2.947-.952c-1.945 0-3.617 1.105-4.476 2.711l-4.092-1.367c-.166-.763-.813-1.344-1.627-1.344a1.698 1.698 0 1 0 0 3.398c.429 0 .811-.173 1.109-.435l4.068 1.357c-.04.255-.08.511-.08.776a5.098 5.098 0 0 0 8.691 3.614l5.147 3.673c-.146.378-.246.78-.246 1.208a3.398 3.398 0 1 0 3.399-3.397zm0 0"/><path fill="#F5A557" d="M45.308 38.639c-.826 0-1.556.332-2.144.82l-5.18-3.697c.328-.677.528-1.42.528-2.22a5.066 5.066 0 0 0-.949-2.944l6.059-6.063c.504.295 1.059.511 1.686.511a3.396 3.396 0 0 0 3.398-3.398 3.396 3.396 0 0 0-3.398-3.398 3.396 3.396 0 0 0-3.398 3.398c0 .627.216 1.181.511 1.686l-6.059 6.063a5.04 5.04 0 0 0-2.947-.952c-1.945 0-3.617 1.105-4.476 2.711l-4.092-1.367c-.166-.763-.813-1.344-1.627-1.344a1.698 1.698 0 1 0 0 3.398c.429 0 .811-.173 1.109-.435l4.068 1.357c-.04.255-.08.511-.08.776a5.098 5.098 0 0 0 8.691 3.614l5.147 3.673c-.146.378-.246.78-.246 1.208a3.398 3.398 0 1 0 3.399-3.397zm0 0"/></svg>