<svg xmlns="http://www.w3.org/2000/svg" width="64" height="64" viewBox="0 0 50 50"><path fill="#DDDDDE" d="M46.732 4.772H26.299a2.427 2.427 0 0 0-2.427 2.427V42.8a2.427 2.427 0 0 0 2.427 2.427h20.433a2.427 2.427 0 0 0 2.427-2.427V7.2a2.427 2.427 0 0 0-2.427-2.427zM26.397 9.83h20.232v5.057H26.397V9.83zm7.59 32.87h-5.058v-2.528h5.057V42.7zm10.114 0h-5.058v-2.528h5.058V42.7zm-7.585-6.474a3.64 3.64 0 1 1 0-7.281 3.64 3.64 0 0 1 0 7.28zm10.116-13.753H26.4v-5.057h20.232v5.057z"/><path fill="#96B7DD" d="M46.373 4.772H25.94a2.427 2.427 0 0 0-2.427 2.427V42.8a2.427 2.427 0 0 0 2.427 2.427h20.433a2.427 2.427 0 0 0 2.427-2.427V7.2a2.427 2.427 0 0 0-2.427-2.427zM26.038 9.83H46.27v5.057H26.038V9.83zm7.59 32.87H28.57v-2.528h5.057V42.7zm10.114 0h-5.058v-2.528h5.058V42.7zm-7.585-6.474a3.64 3.64 0 1 1 0-7.281 3.64 3.64 0 0 1 0 7.28zm10.116-13.753H26.04v-5.057h20.232v5.057z"/><path fill="#E0E0E0" d="M20.487 23.264h-5.143v-1.997c0-1.098-.579-1.997-1.286-1.997H8.915c-.707 0-1.286.899-1.286 1.997v1.997H2.486c-.708 0-1.286.898-1.286 1.996v17.971c0 1.098.579 1.997 1.286 1.997h18.001c.708 0 1.286-.899 1.286-1.997v-17.97c0-1.099-.578-1.997-1.286-1.997zM8.915 21.27l.002-.004h5.14l.002.004v1.993H8.915V21.27zm11.572 9.98h-2.571v2.995c0 .549-.29.998-.643.998h-1.286c-.354 0-.643-.449-.643-.998V31.25H7.629v2.995c0 .549-.29.998-.643.998H5.7c-.353 0-.643-.449-.643-.998V31.25H2.486v-1.997h18.001v1.997z"/><path fill="#F5A557" d="M20.128 23.264h-5.143v-1.997c0-1.098-.579-1.997-1.286-1.997H8.556c-.707 0-1.286.899-1.286 1.997v1.997H2.127c-.708 0-1.286.898-1.286 1.996v17.971c0 1.098.579 1.997 1.286 1.997h18.001c.708 0 1.286-.899 1.286-1.997v-17.97c0-1.099-.578-1.997-1.286-1.997zM8.556 21.27l.002-.004h5.14l.002.004v1.993H8.556V21.27zm11.572 9.98h-2.571v2.995c0 .549-.29.998-.643.998h-1.286c-.354 0-.643-.449-.643-.998V31.25H7.27v2.995c0 .549-.29.998-.643.998H5.341c-.353 0-.643-.449-.643-.998V31.25H2.127v-1.997h18.001v1.997z"/></svg>