<svg xmlns="http://www.w3.org/2000/svg" width="64" height="64"><path fill="#E89021" d="M2.29 31.875h12.454v-1.673H2.29v1.673zm0 5.053h12.454v-1.673H2.29v1.673zm44.374-6.726v1.673h12.454v-1.673H46.664zm0 6.726h12.454v-1.673H46.664v1.673z"/><g fill="#CAE8F4"><path d="M16.176 34.822l1.448-.075c.02.461.099.771.237.933.222.263.632.394 1.231.394.498 0 .858-.089 1.08-.267.222-.179.333-.394.333-.646a.699.699 0 0 0-.272-.555c-.128-.111-.479-.291-1.052-.54-.574-.249-.992-.456-1.256-.623a1.823 1.823 0 0 1-.623-.648 1.86 1.86 0 0 1-.227-.934c0-.622.225-1.139.676-1.549.451-.411 1.104-.616 1.958-.616.868 0 1.54.204 2.016.61.476.407.737.949.785 1.625l-1.458.065c-.037-.353-.165-.624-.383-.813-.219-.188-.542-.282-.969-.282-.42 0-.721.074-.901.222a.695.695 0 0 0-.27.56c0 .212.082.387.247.525.165.141.53.335 1.095.58.851.366 1.393.664 1.625.893.346.337.52.77.52 1.297 0 .653-.258 1.21-.774 1.673-.517.463-1.235.693-2.157.693-.636 0-1.187-.106-1.652-.32-.466-.213-.794-.51-.986-.891-.195-.379-.284-.817-.271-1.311zM23.316 34.317c0-.437.065-.897.197-1.382a4.957 4.957 0 0 1 .784-1.69 3.793 3.793 0 0 1 1.33-1.132c.535-.278 1.143-.417 1.826-.417.914 0 1.654.284 2.217.853.564.569.846 1.322.846 2.261 0 .78-.184 1.535-.551 2.265-.365.73-.863 1.292-1.492 1.686s-1.34.591-2.135.591c-.689 0-1.268-.157-1.736-.47-.467-.313-.798-.7-.993-1.163a3.566 3.566 0 0 1-.293-1.402zm1.502-.03c0 .509.156.934.465 1.277.311.343.717.515 1.221.515.41 0 .805-.136 1.184-.406.379-.271.691-.682.939-1.231.246-.55.369-1.086.369-1.607 0-.582-.156-1.039-.469-1.37-.313-.332-.711-.497-1.195-.497-.744 0-1.348.347-1.814 1.04a4.004 4.004 0 0 0-.7 2.279zM35.718 35.584h-2.932l-.888 1.635h-1.564l4.183-7.396h1.69l1.201 7.396h-1.443l-.247-1.635zm-.187-1.23l-.429-2.977-1.786 2.977h2.215zM39.854 37.219h-1.523l1.549-7.396h3.007c.535 0 .958.063 1.27.189.311.126.558.334.739.625s.272.638.272 1.042c0 .374-.072.737-.218 1.09-.145.353-.321.635-.532.847-.21.212-.437.373-.679.482s-.568.192-.979.249c-.238.034-.687.051-1.342.051h-.974l-.59 2.821zm.843-4.046h.469c.805 0 1.341-.051 1.61-.151a1.33 1.33 0 0 0 .636-.484c.154-.222.231-.466.231-.732a.758.758 0 0 0-.118-.439.679.679 0 0 0-.333-.25c-.144-.052-.462-.078-.956-.078h-1.09l-.449 2.134z"/></g><path fill="#CAE8F4" d="M61.075 9.145h-9.817V5.042c0-1.694-1.176-3.072-2.623-3.072h-9.787c-1.446 0-2.623 1.378-2.623 3.072v4.103h-33.3C1.863 9.145 1 9.858 1 10.733c0 .876.863 1.588 1.925 1.588h33.301v4.009c0 1.694.786 3.076 2.233 3.076l10.177-.003c1.446 0 2.623-1.378 2.623-3.072v-4.009h9.817c1.061 0 1.925-.713 1.925-1.588-.001-.877-.865-1.589-1.926-1.589zm-13.107 5.846a.52.52 0 0 1-.519.524h-7.413a.522.522 0 0 1-.52-.524v-8.61c0-.29.233-.524.52-.524h7.413c.287 0 .519.235.519.524v8.61zM9.396 58.775H2.938c-1.427 0-1.938.647-1.938 1.446 0 .799.511 1.447 1.938 1.447h6.458c1.427 0 1.938-.648 1.938-1.447-.001-.799-.511-1.446-1.938-1.446zm42.625.361h-7.75l-9.688-6.148H24.25c-1.427 0-1.937.648-1.937 1.447s.511 1.447 1.937 1.447H32l9.688 6.148h10.333c1.427 0 1.938-.648 1.938-1.447s-.511-1.447-1.938-1.447z"/><path fill-rule="evenodd" clip-rule="evenodd" fill="#E89021" d="M61.397 52.988H46.854c-1.427 0-1.938.65-1.938 1.452 0 .802.511 1.452 1.938 1.452h12.939v1.452c0 .802.718 1.452 1.603 1.452S63 58.145 63 57.343V54.44c0-.802-.718-1.452-1.603-1.452zm-30.689 6.148h-7.75l-9.688-6.148H2.938c-1.427 0-1.938.648-1.938 1.447s.511 1.447 1.938 1.447h7.75l9.688 6.148h10.333c1.427 0 1.938-.648 1.938-1.447s-.512-1.447-1.939-1.447z"/></svg>