<svg xmlns="http://www.w3.org/2000/svg" width="16" height="16"><path fill-rule="evenodd" fill="#2589CE" d="M8 0a8 8 0 1 1 0 16A8 8 0 0 1 8 0z"/><path fill-rule="evenodd" fill="#E4E4E4" d="M12.426 9.387L14 9.176l-.006-2.383-1.575-.204c-.437-.056-.575-.388-.308-.738l.963-1.262-1.69-1.681-1.257.97c-.348.269-.681.132-.74-.304L9.176 2l-2.383.006-.203 1.576c-.056.436-.389.575-.738.308l-1.263-.964-1.681 1.689.971 1.258c.269.349.132.682-.304.74L2 6.825l.006 2.382 1.576.203c.436.057.575.389.308.739l-.964 1.263 1.689 1.68 1.258-.97c.349-.269.682-.132.74.304L6.825 14l2.383-.006.203-1.576c.056-.436.388-.575.738-.308l1.263.964 1.68-1.69-.97-1.257c-.269-.349-.132-.682.304-.74zM8 10.334a2.334 2.334 0 1 1 0-4.668 2.334 2.334 0 0 1 0 4.668z"/></svg>