<svg xmlns="http://www.w3.org/2000/svg" width="64" height="64"><path fill="#CAE8F4" d="M60.934 53.352H41.355a7.573 7.573 0 0 0-5.248-5.208c.015-.099.03-.198.03-.302v-6.199a2.066 2.066 0 0 0-4.132 0v6.199c0 .103.016.203.03.302a7.573 7.573 0 0 0-5.248 5.208H7.898a2.066 2.066 0 0 0 0 4.132h18.889c.9 3.179 3.817 5.51 7.284 5.51s6.384-2.332 7.284-5.51h19.578a2.066 2.066 0 0 0 .001-4.132zM34.072 60.24a4.821 4.821 0 1 1 0-9.642 4.821 4.821 0 0 1 0 9.642zM9.724 28.761v3.87l4.459-4.498v-3.871l-4.459 4.499zm0 8.654l4.459-4.499v-3.871l-4.459 4.498v3.872z"/><path fill="#E89022" d="M5.404 23.663L1 28.219h3.791l4.404-4.556H5.404zm4.683 0l-4.404 4.556h3.79l4.404-4.556h-3.79z"/><g fill="#CAE8F4"><path d="M19.657 34.172h-1.625l1.377-6.57h-2.314l.274-1.318h6.215l-.275 1.318h-2.281l-1.371 6.57zM27.303 32.428h-3.126l-.947 1.744h-1.668l4.46-7.889h1.803l1.281 7.889h-1.539l-.264-1.744zm-.199-1.313l-.457-3.175-1.905 3.175h2.362zM36.402 34.172H34.89l-2.131-5.3-1.108 5.3h-1.512l1.646-7.889h1.517l2.137 5.279 1.103-5.279h1.507l-1.647 7.889zM38.081 34.172l1.652-7.889h2.125c.592 0 .971.009 1.136.027.326.032.618.099.874.199.257.101.49.241.7.422s.391.399.543.654c.152.255.271.548.353.88.083.332.124.695.124 1.09 0 .85-.162 1.604-.487 2.263-.324.658-.732 1.181-1.224 1.569-.377.301-.863.523-1.459.667-.337.079-.855.118-1.555.118h-2.782zm1.889-1.27h.823c.596 0 1.027-.037 1.294-.11.268-.073.513-.21.735-.412.319-.291.588-.678.807-1.162s.328-1.055.328-1.711c0-.56-.091-.98-.271-1.262-.182-.282-.404-.469-.67-.563-.187-.064-.519-.097-.995-.097h-.942l-1.109 5.317zM46.013 34.172l1.646-7.889h5.85l-.274 1.318H49.01l-.376 1.792h4.084l-.274 1.318H48.36l-.495 2.142h4.59l-.28 1.318h-6.162zM57.899 34.172H56.36l-.285-6.592-1.254 6.592h-1.463l1.646-7.889h2.313l.242 5.526 2.69-5.526h2.341l-1.652 7.889H59.46l1.556-6.543-3.117 6.543z"/></g><path fill="#CAE8F4" d="M55.424 1.005H13.408a6.199 6.199 0 1 0 0 12.398h42.015c3.424 0 6.199-2.775 6.199-6.199s-2.775-6.199-6.198-6.199zm-.345 10.332H13.753a3.788 3.788 0 0 1 0-7.576h41.326a3.788 3.788 0 0 1 0 7.576z"/><circle fill="#E89022" cx="14.442" cy="7.549" r="2.411"/><path fill="#CAE8F4" d="M34.072 11.337a2.066 2.066 0 0 0-2.066 2.066v6.199a2.066 2.066 0 0 0 4.132 0v-6.199a2.066 2.066 0 0 0-2.066-2.066z"/></svg>