<svg xmlns="http://www.w3.org/2000/svg" width="111" height="36"><path fill-rule="evenodd" fill="#00BB9C" d="M18 0h75c9.941 0 18 8.059 18 18s-8.059 18-18 18H18C8.059 36 0 27.941 0 18S8.059 0 18 0z"/><path fill-rule="evenodd" fill="#010203" d="M24.5 24a2.5 2.5 0 1 1-2.5 2.5c0-.106.018-.208.031-.311l-6.669-4.735A3.476 3.476 0 0 1 13.5 22a3.5 3.5 0 1 1 0-7c.626 0 1.206.178 1.714.466l4.891-4.288A2.45 2.45 0 0 1 20 10.5a2.5 2.5 0 1 1 2.5 2.5c-.406 0-.784-.106-1.122-.277l-4.777 4.187c.247.479.399 1.014.399 1.59 0 .514-.117.999-.317 1.439l6.374 4.526A2.474 2.474 0 0 1 24.5 24z"/><text fill="#010203" font-size="14" x="30" y="22">完整拓扑图</text></svg>