<svg xmlns="http://www.w3.org/2000/svg" width="64" height="64"><path fill-rule="evenodd" clip-rule="evenodd" fill="#CAE8F4" d="M59.168 9.247H4.834C2.72 9.247 1 10.984 1 13.117v37.766c0 2.134 1.72 3.87 3.834 3.87h54.334c2.113 0 3.832-1.736 3.832-3.87V13.117c0-2.133-1.719-3.87-3.832-3.87zM4.834 11.306h54.334c.989 0 1.793.813 1.793 1.811v2.434H3.04v-2.434c0-.999.804-1.811 1.794-1.811zM3.04 27.696V17.609h44.534l-5.466 10.087H3.04zm46.859-10.087h3.323l-5.711 10.087h-3.079l5.467-10.087zm5.672 0h5.389v10.087h-11.1l5.711-10.087zm3.597 35.085H4.834c-.99 0-1.795-.813-1.795-1.812V29.754H60.96v21.128a1.804 1.804 0 0 1-1.792 1.812z"/><path fill="#CAE8F4" d="M35.017 38.315c.445-1.434 4.466-.693 4.841-.312l.469-2.577s-6.991-2.258-8.745 2.733c-1.28 3.642 5.076 4.349 4.763 6.09-.411 2.287-5.743.732-5.856.312l-.468 2.733s8.061 2.665 9.682-2.655c1.319-4.332-5.332-4.24-4.686-6.324zm-10.62 9.447h3.279l2.186-12.649h-3.357l-2.108 12.649zM21.43 35.113l-3.357 8.589h-.234l-1.484-7.418h-3.592l3.201 11.478h3.514l5.466-12.649H21.43zm27.797 0h-2.811s-1.036-.042-1.484 1.015-5.152 11.634-5.152 11.634h3.514l.703-1.874h4.529l.39 1.874h3.201l-2.89-12.649zm-4.216 8.199l1.874-4.841 1.093 4.841h-2.967z"/><path fill-rule="evenodd" clip-rule="evenodd" fill="#E89022" d="M16.355 36.284c-.23-1.078-1.249-1.171-1.249-1.171H9.172v.156c6.108 1.312 8.277 6.481 8.277 6.481s-.864-4.387-1.094-5.466z"/></svg>