<svg xmlns="http://www.w3.org/2000/svg" width="64" height="64"><path fill="#E89021" d="M2.935 31.875H15.39v-1.673H2.935v1.673zm0 5.053H15.39v-1.673H2.935v1.673zm44.375-6.726v1.673h12.454v-1.673H47.31zm0 6.726h12.454v-1.673H47.31v1.673z"/><g fill="#CAE8F4"><path d="M19.615 38.623h-2.46l4.081-4.68-2.295-4.566h1.986l.902 1.734.618 1.28c.025.042.053.099.082.17a67.25 67.25 0 0 1 1.293-1.539l1.457-1.646h2.39l-4.232 4.869 2.277 4.377h-2.145l-.693-1.394c-.362-.735-.602-1.264-.719-1.583-.164.248-.586.761-1.268 1.539l-1.274 1.439zM32.008 38.623h-1.804l-.335-7.726-1.469 7.726h-1.715l1.93-9.246h2.711l.284 6.477 3.153-6.477h2.744l-1.937 9.246h-1.734l1.822-7.669-3.65 7.669zM37.501 38.623l1.937-9.246h1.898l-1.608 7.701h4.705l-.322 1.545h-6.61z"/></g><path fill="#CAE8F4" d="M61.075 9.145h-9.817V5.042c0-1.694-1.176-3.072-2.623-3.072h-9.787c-1.446 0-2.623 1.378-2.623 3.072v4.103h-33.3C1.863 9.145 1 9.858 1 10.733c0 .876.863 1.588 1.925 1.588h33.301v4.009c0 1.694.786 3.076 2.233 3.076l10.177-.003c1.446 0 2.623-1.378 2.623-3.072v-4.009h9.817c1.061 0 1.925-.713 1.925-1.588-.001-.877-.865-1.589-1.926-1.589zm-13.107 5.846a.52.52 0 0 1-.519.524h-7.413a.522.522 0 0 1-.52-.524v-8.61c0-.29.233-.524.52-.524h7.413c.287 0 .519.235.519.524v8.61zM9.396 58.775H2.938c-1.427 0-1.938.647-1.938 1.446 0 .799.511 1.447 1.938 1.447h6.458c1.427 0 1.938-.648 1.938-1.447-.001-.799-.511-1.446-1.938-1.446zm42.625.361h-7.75l-9.688-6.148H24.25c-1.427 0-1.937.648-1.937 1.447s.511 1.447 1.937 1.447H32l9.688 6.148h10.333c1.427 0 1.938-.648 1.938-1.447s-.511-1.447-1.938-1.447z"/><path fill-rule="evenodd" clip-rule="evenodd" fill="#E89021" d="M61.397 52.988H46.854c-1.427 0-1.938.65-1.938 1.452 0 .802.511 1.452 1.938 1.452h12.939v1.452c0 .802.718 1.452 1.603 1.452S63 58.145 63 57.343V54.44c0-.802-.718-1.452-1.603-1.452zm-30.689 6.148h-7.75l-9.688-6.148H2.938c-1.427 0-1.938.648-1.938 1.447s.511 1.447 1.938 1.447h7.75l9.688 6.148h10.333c1.427 0 1.938-.648 1.938-1.447s-.512-1.447-1.939-1.447z"/></svg>