<?xml version="1.0" encoding="utf-8"?>
<!-- Generator: Adobe Illustrator 21.0.0, SVG Export Plug-In . SVG Version: 6.00 Build 0)  -->
<svg version="1.1" id="图层_1" xmlns="http://www.w3.org/2000/svg" xmlns:xlink="http://www.w3.org/1999/xlink" x="0px" y="0px"
	 viewBox="0 0 40 40" style="enable-background:new 0 0 40 40;" xml:space="preserve">
<style type="text/css">
	.st0{fill:#4DBAAD;}
</style>
<g>
	<path class="st0" d="M11,11h13c0.6,0,1,0.4,1,1v0.6c0,0.6-0.4,1-1,1H11c-0.6,0-1-0.4-1-1V12C10,11.4,10.5,11,11,11z"/>
	<path class="st0" d="M11,18.7h13c0.6,0,1,0.4,1,1v0.6c0,0.6-0.4,1-1,1H11c-0.6,0-1-0.4-1-1v-0.6C10,19.2,10.5,18.7,11,18.7z"/>
	<path class="st0" d="M11,26.4h13c0.6,0,1,0.4,1,1V28c0,0.6-0.4,1-1,1H11c-0.6,0-1-0.4-1-1v-0.6C10,26.9,10.5,26.4,11,26.4z"/>
	<path class="st0" d="M28.8,11c0.7,0,1.3,0.6,1.3,1.3c0,0.7-0.6,1.3-1.3,1.3s-1.3-0.6-1.3-1.3C27.5,11.6,28.1,11,28.8,11z"/>
	<path class="st0" d="M28.8,18.7c0.7,0,1.3,0.6,1.3,1.3s-0.6,1.3-1.3,1.3s-1.3-0.6-1.3-1.3S28.1,18.7,28.8,18.7z"/>
	<path class="st0" d="M28.8,26.4c0.7,0,1.3,0.6,1.3,1.3c0,0.7-0.6,1.3-1.3,1.3s-1.3-0.6-1.3-1.3C27.5,27,28.1,26.4,28.8,26.4z"/>
</g>
</svg>
