<?xml version="1.0" encoding="utf-8"?>
<!-- Generator: Adobe Illustrator 18.0.0, SVG Export Plug-In . SVG Version: 6.00 Build 0)  -->
<!DOCTYPE svg PUBLIC "-//W3C//DTD SVG 1.1//EN" "http://www.w3.org/Graphics/SVG/1.1/DTD/svg11.dtd">
<svg version="1.1" id="图层_1" xmlns="http://www.w3.org/2000/svg" xmlns:xlink="http://www.w3.org/1999/xlink" x="0px" y="0px"
	 viewBox="0 0 47.99 48" enable-background="new 0 0 47.99 48" xml:space="preserve">
<g>
	<path fill="#18E6D3" d="M47.99,24.097C48.042,37.26,37.575,47.951,24.588,48C10.628,48.052,0.119,37.739,0.113,23.983
		C0.108,10.808,10.758,0.165,23.972,0.14C37.37,0.115,47.937,10.655,47.99,24.097z M2.204,23.929
		c-0.018,12.428,9.698,22.123,22.122,22.074c11.82-0.046,21.562-9.844,21.61-21.733C45.985,12.06,36.26,2.247,24.095,2.229
		C12.052,2.212,2.221,11.956,2.204,23.929z"/>
	<g>
		<path fill="#18E6D3" d="M30.38,12.495c-0.095-0.052-0.199-0.125-0.311-0.201c-0.368-0.252-0.786-0.538-1.241-0.538
			c-0.226,0-0.645,0.078-0.92,0.595c-0.174,0.326-0.207,0.635-0.099,0.916c0.188,0.487,0.721,0.681,1.148,0.835
			c0.152,0.056,0.302,0.105,0.413,0.171c4.392,2.62,6.302,7.38,4.984,12.424c-1.162,4.453-5.562,7.638-10.674,7.744
			c-3.935-0.112-7.05-2.036-9.009-5.562c-2.99-5.381-1.177-11.586,4.312-14.754c0.081-0.046,0.182-0.087,0.285-0.131
			c0.358-0.151,0.804-0.338,0.97-0.775c0.064-0.171,0.107-0.447-0.059-0.794c-0.266-0.555-0.648-0.671-0.924-0.671
			c-0.388,0-0.719,0.238-0.985,0.429c-0.09,0.065-0.175,0.13-0.253,0.168c-4.924,2.407-7.619,8.051-6.555,13.726
			c1.114,5.949,5.972,10.133,12.087,10.409c0.18,0.009,0.358,0.013,0.537,0.013c5.511-0.001,10.776-3.884,12.247-9.033
			C38.029,21.541,35.579,15.384,30.38,12.495z"/>
		<path fill="#18E6D3" d="M23.972,24.45l0.074,0.002c0.358,0,0.576-0.144,0.696-0.265c0.291-0.293,0.288-0.696,0.285-0.99v-0.104
			c0.011-1.208,0.01-2.417,0.009-3.626l-0.001-1.448l0.001-0.782c0.002-1.43,0.004-2.86-0.002-4.307
			c-0.002-0.33-0.007-1.206-0.914-1.284l-0.106-0.005c-0.231,0-0.984,0.088-0.987,1.219c-0.013,3.431-0.016,6.862-0.012,10.293
			C23.018,24.185,23.537,24.427,23.972,24.45z"/>
	</g>
</g>
</svg>
