<svg 
 xmlns="http://www.w3.org/2000/svg"
 xmlns:xlink="http://www.w3.org/1999/xlink"
 width="26px" height="26px">
<path fill-rule="evenodd"  fill="rgb(77, 186, 173)"
 d="M13.282,25.120 C6.024,25.146 0.560,19.834 0.557,12.748 C0.554,5.962 6.091,0.480 12.962,0.467 C19.928,0.454 25.422,5.883 25.449,12.807 C25.477,19.588 20.034,25.095 13.282,25.120 ZM13.026,1.543 C6.764,1.534 1.653,6.553 1.644,12.721 C1.635,19.122 6.687,24.116 13.146,24.091 C19.292,24.067 24.357,19.020 24.382,12.896 C24.407,6.607 19.351,1.552 13.026,1.543 ZM19.563,14.062 C20.298,14.975 19.883,15.715 19.516,16.368 C19.468,16.452 19.421,16.537 19.375,16.624 C19.065,17.204 18.556,17.877 17.376,17.736 C16.353,17.617 15.555,18.072 15.194,18.989 C14.747,20.124 13.856,20.136 13.069,20.146 C13.069,20.146 12.736,20.150 12.736,20.150 C11.974,20.150 11.213,20.011 10.806,19.006 C10.433,18.083 9.583,17.605 8.550,17.745 C7.323,17.913 6.861,17.078 6.489,16.422 C6.109,15.752 5.678,14.993 6.416,14.082 C7.096,13.243 7.105,12.340 6.442,11.540 C5.646,10.579 6.138,9.730 6.497,9.110 C6.847,8.507 7.282,7.757 8.141,7.757 C8.283,7.757 8.434,7.778 8.590,7.820 C9.695,7.858 10.450,7.427 10.823,6.529 C11.298,5.388 12.238,5.381 13.068,5.374 C13.068,5.374 13.125,5.374 13.125,5.374 C13.928,5.374 14.728,5.512 15.149,6.512 C15.557,7.482 16.346,7.933 17.400,7.793 C18.630,7.627 19.101,8.446 19.477,9.089 C19.860,9.745 20.336,10.560 19.546,11.515 C18.882,12.319 18.888,13.224 19.563,14.062 ZM18.535,10.949 C18.868,10.470 18.778,10.139 18.481,9.660 C18.145,9.117 17.911,8.898 17.366,8.942 C15.927,9.056 14.788,8.415 14.190,7.163 C13.929,6.617 13.567,6.513 12.948,6.504 C12.947,6.504 12.947,6.504 12.946,6.504 C12.348,6.504 12.050,6.686 11.807,7.173 C11.224,8.343 10.173,8.963 8.769,8.963 C8.628,8.960 8.540,8.958 8.460,8.958 C7.943,8.958 7.916,8.977 7.514,9.646 C7.203,10.162 7.119,10.497 7.479,11.006 C8.291,12.150 8.276,13.467 7.436,14.618 C7.089,15.093 7.235,15.427 7.516,15.920 C7.778,16.379 8.033,16.637 8.570,16.599 C8.663,16.594 8.755,16.591 8.845,16.591 C10.234,16.591 11.274,17.253 11.853,18.505 C12.079,18.995 12.432,19.030 12.985,19.031 C12.985,19.031 12.986,19.031 12.986,19.031 C13.542,19.031 13.884,19.006 14.114,18.514 C14.738,17.182 15.903,16.496 17.399,16.601 C17.977,16.650 18.177,16.374 18.515,15.832 C18.515,15.832 18.549,15.777 18.549,15.777 C18.836,15.319 18.839,15.032 18.564,14.641 C17.722,13.444 17.712,12.133 18.535,10.949 ZM13.004,15.741 C13.004,15.741 12.968,15.741 12.968,15.741 C11.308,15.721 10.018,14.411 10.032,12.757 C10.046,11.097 11.315,9.845 12.983,9.845 C14.686,9.862 15.986,11.160 15.974,12.801 C15.964,14.423 14.631,15.741 13.004,15.741 ZM13.004,15.484 C13.004,15.484 13.004,15.481 13.004,15.481 C13.004,15.481 13.004,15.481 13.004,15.481 C13.004,15.481 13.004,15.484 13.004,15.484 ZM13.048,10.984 C13.048,10.984 12.985,10.983 12.985,10.983 C11.964,10.983 11.185,11.745 11.172,12.756 C11.160,13.745 11.935,14.549 12.936,14.587 C12.936,14.587 13.003,14.589 13.003,14.589 C13.003,14.589 13.003,14.589 13.003,14.589 C13.985,14.589 14.797,13.783 14.815,12.792 C14.833,11.792 14.073,11.015 13.048,10.984 Z"/>
</svg>