<?xml version="1.0" encoding="utf-8"?>
<!-- Generator: Adobe Illustrator 18.0.0, SVG Export Plug-In . SVG Version: 6.00 Build 0)  -->
<!DOCTYPE svg PUBLIC "-//W3C//DTD SVG 1.1//EN" "http://www.w3.org/Graphics/SVG/1.1/DTD/svg11.dtd">
<svg version="1.1" id="图层_1" xmlns="http://www.w3.org/2000/svg" xmlns:xlink="http://www.w3.org/1999/xlink" x="0px" y="0px"
	 viewBox="0 0 40 40" enable-background="new 0 0 40 40" xml:space="preserve">
<g>
	<g>
		<polygon fill="#4DBAAD" points="15.555,25.308 14.699,29.239 18.722,29.222 		"/>
		<path fill="#4DBAAD" d="M29.164,20.752l1.611-1.303c0.287-0.232,0.331-0.657,0.099-0.943l-2.314-2.859
			c-0.232-0.287-0.657-0.331-0.943-0.099l-1.611,1.303L29.164,20.752z"/>
		<path fill="#4DBAAD" d="M25.325,17.401l-9.128,7.388l3.157,3.901l9.128-7.388L25.325,17.401z M18.279,24.664
			c-0.152,0.123-0.377,0.099-0.5-0.053c-0.123-0.152-0.099-0.377,0.053-0.5l6.489-5.252c0.152-0.123,0.377-0.099,0.5,0.053
			c0.123,0.152,0.099,0.377-0.053,0.5L18.279,24.664z"/>
	</g>
	<g>
		<path fill="#4DBAAD" d="M17.79,22.017l-1.417-1.055c0.235-0.501,0.377-1.054,0.377-1.644c0-0.504-0.103-0.983-0.278-1.425
			l6.148-4.837c0.4,0.251,0.87,0.402,1.377,0.402c1.439,0,2.605-1.166,2.605-2.605s-1.166-2.605-2.605-2.605
			c-1.439,0-2.605,1.166-2.605,2.605c0,0.287,0.058,0.559,0.144,0.817l-6.072,4.777c-0.69-0.625-1.596-1.016-2.599-1.016
			c-2.146,0-3.886,1.74-3.886,3.886c0,2.146,1.74,3.886,3.886,3.886c0.918,0,1.75-0.332,2.415-0.864l0.992,0.834L17.79,22.017z"/>
		<path fill="#4DBAAD" d="M25.309,26.485c-0.516,0-0.994,0.154-1.401,0.411l-0.47-0.37l-1.154,1.331l0.539,0.425
			c-0.089,0.264-0.149,0.543-0.149,0.837c0,1.455,1.179,2.634,2.634,2.634c1.455,0,2.634-1.179,2.634-2.634
			C27.943,27.664,26.763,26.485,25.309,26.485z"/>
	</g>
	<path fill="#4DBAAD" d="M16.783,23.479l1.403-1.135l-1.769-1.393c0.232-0.499,0.372-1.05,0.372-1.638
		c0-0.485-0.1-0.945-0.262-1.374l6.272-4.935c0.372,0.212,0.796,0.343,1.254,0.343c1.408,0,2.55-1.142,2.55-2.55
		c0-1.408-1.142-2.55-2.55-2.55c-1.408,0-2.55,1.142-2.55,2.55c0,0.304,0.062,0.591,0.16,0.862l-6.118,4.814
		c-0.697-0.651-1.626-1.058-2.655-1.058c-2.153,0-3.899,1.746-3.899,3.899s1.746,3.899,3.899,3.899c0.928,0,1.769-0.338,2.438-0.879
		L16.783,23.479z"/>
	<path fill="#4DBAAD" d="M25.365,26.483c-0.515,0-0.993,0.155-1.396,0.416l-0.693-0.546l-1.403,1.135l1.039,0.819
		c-0.074,0.24-0.125,0.49-0.125,0.755c0,1.424,1.154,2.578,2.578,2.578c1.424,0,2.578-1.154,2.578-2.578
		S26.788,26.483,25.365,26.483z"/>
</g>
</svg>
