<svg 
 xmlns="http://www.w3.org/2000/svg"
 xmlns:xlink="http://www.w3.org/1999/xlink"
 width="4.233mm" height="4.233mm">
<path fill-rule="evenodd"  fill="rgb(239, 239, 239)"
 d="M12.005,10.437 C12.005,10.437 7.549,5.986 7.549,5.986 C7.549,5.986 11.985,1.556 11.985,1.556 C11.985,1.556 10.438,0.010 10.438,0.010 C10.438,0.010 6.002,4.441 6.002,4.441 C6.002,4.441 1.566,0.010 1.566,0.010 C1.566,0.010 -0.001,1.576 -0.001,1.576 C-0.001,1.576 4.434,6.007 4.434,6.007 C4.434,6.007 -0.001,10.437 -0.001,10.437 C-0.001,10.437 1.546,11.982 1.546,11.982 C1.546,11.982 5.981,7.552 5.981,7.552 C5.981,7.552 10.438,12.003 10.438,12.003 C10.438,12.003 12.005,10.437 12.005,10.437 Z"/>
</svg>