<svg 
 xmlns="http://www.w3.org/2000/svg"
 xmlns:xlink="http://www.w3.org/1999/xlink"
 width="36px" height="34px">
<path fill-rule="evenodd"  fill="rgb(47, 190, 178)"
 d="M3.000,0.000 C3.000,0.000 33.000,0.000 33.000,0.000 C34.657,0.000 36.000,1.343 36.000,3.000 C36.000,3.000 36.000,31.000 36.000,31.000 C36.000,32.657 34.657,34.000 33.000,34.000 C33.000,34.000 3.000,34.000 3.000,34.000 C1.343,34.000 -0.000,32.657 -0.000,31.000 C-0.000,31.000 -0.000,3.000 -0.000,3.000 C-0.000,1.343 1.343,0.000 3.000,0.000 Z"/>
<path fill-rule="evenodd"  fill="rgb(8, 17, 26)"
 d="M26.420,27.997 C26.420,27.997 24.542,27.997 24.542,27.997 C24.542,27.997 24.850,23.183 24.850,23.183 C24.850,23.183 24.044,27.997 24.044,27.997 C24.044,27.997 20.277,27.997 20.277,27.997 C20.277,27.997 20.702,23.229 20.702,23.229 C20.702,23.229 19.723,27.997 19.723,27.997 C19.723,27.997 16.037,27.997 16.037,27.997 C16.037,27.997 16.613,23.321 16.613,23.321 C16.613,23.321 15.517,27.997 15.517,27.997 C15.517,27.997 11.977,27.997 11.977,27.997 C11.977,27.997 12.807,23.275 12.807,23.275 C12.807,23.275 11.031,27.997 11.031,27.997 C11.031,27.997 8.786,27.997 8.786,27.997 C6.416,27.997 6.735,25.458 7.806,24.539 C9.500,23.086 9.061,21.914 9.061,20.170 C9.061,20.044 9.087,19.941 9.104,19.829 C9.104,19.829 27.501,19.829 27.501,19.829 C27.554,19.940 27.603,20.053 27.634,20.170 C27.634,20.170 28.912,25.050 28.912,25.050 C29.323,26.619 28.215,27.997 26.420,27.997 ZM10.394,14.476 C10.580,13.806 11.371,13.281 12.160,13.281 C12.160,13.281 16.136,13.281 16.136,13.281 C16.136,13.281 16.136,7.475 16.136,7.475 C16.136,6.667 16.819,6.005 17.653,6.005 C17.653,6.005 18.854,6.005 18.854,6.005 C19.689,6.005 20.371,6.667 20.371,7.475 C20.371,7.475 20.371,13.281 20.371,13.281 C20.371,13.281 24.347,13.281 24.347,13.281 C25.136,13.281 25.927,13.806 26.113,14.476 C26.113,14.476 27.394,19.086 27.394,19.086 C27.394,19.086 9.113,19.086 9.113,19.086 C9.113,19.086 10.394,14.476 10.394,14.476 Z"/>
</svg>