<svg 
 xmlns="http://www.w3.org/2000/svg"
 xmlns:xlink="http://www.w3.org/1999/xlink"
 width="31px" height="31px">
<defs>
<linearGradient id="PSgrad_0" x1="0%" x2="0%" y1="100%" y2="0%">
  <stop offset="0%" stop-color="rgb(9,40,64)" stop-opacity="1" />
  <stop offset="100%" stop-color="rgb(12,47,74)" stop-opacity="1" />
</linearGradient>

</defs><path fill-rule="evenodd"  stroke="rgb(18, 191, 231)" stroke-width="2px" stroke-linecap="butt" stroke-linejoin="miter" fill="none"
 d="M15.000,1.000 C22.732,1.000 29.000,7.268 29.000,15.000 C29.000,22.732 22.732,29.000 15.000,29.000 C7.268,29.000 1.000,22.732 1.000,15.000 C1.000,7.268 7.268,1.000 15.000,1.000 Z"/>
<path fill-rule="evenodd"  fill="rgb(18, 191, 231)"
 d="M9.000,14.000 C9.000,14.000 21.000,14.000 21.000,14.000 C21.552,14.000 22.000,14.448 22.000,15.000 C22.000,15.552 21.552,16.000 21.000,16.000 C21.000,16.000 9.000,16.000 9.000,16.000 C8.448,16.000 8.000,15.552 8.000,15.000 C8.000,14.448 8.448,14.000 9.000,14.000 Z"/>
<path fill-rule="evenodd"  fill="rgb(18, 191, 231)"
 d="M15.000,8.000 C15.552,8.000 16.000,8.448 16.000,9.000 C16.000,9.000 16.000,21.000 16.000,21.000 C16.000,21.552 15.552,22.000 15.000,22.000 C14.448,22.000 14.000,21.552 14.000,21.000 C14.000,21.000 14.000,9.000 14.000,9.000 C14.000,8.448 14.448,8.000 15.000,8.000 Z"/>
</svg>