<?xml version="1.0" encoding="utf-8"?>
<!-- Generator: Adobe Illustrator 18.0.0, SVG Export Plug-In . SVG Version: 6.00 Build 0)  -->
<!DOCTYPE svg PUBLIC "-//W3C//DTD SVG 1.1//EN" "http://www.w3.org/Graphics/SVG/1.1/DTD/svg11.dtd">
<svg version="1.1" id="图层_1" xmlns="http://www.w3.org/2000/svg" xmlns:xlink="http://www.w3.org/1999/xlink" x="0px" y="0px"
	 viewBox="0 0 47.99 48" enable-background="new 0 0 47.99 48" xml:space="preserve">
<path fill="#18E6D3" d="M47.933,24.027C47.986,37.19,37.518,47.881,24.531,47.93C10.572,47.982,0.062,37.668,0.056,23.912
	C0.052,10.738,10.701,0.095,23.915,0.07C37.314,0.045,47.881,10.584,47.933,24.027z M2.148,23.858
	C2.13,36.286,11.846,45.981,24.27,45.933c11.82-0.046,21.562-9.844,21.61-21.733c0.049-12.21-9.676-22.024-21.841-22.041
	C11.995,2.142,2.165,11.886,2.148,23.858z"/>
<g>
	
		<polygon fill="none" stroke="#18E6D3" stroke-width="2" stroke-linecap="round" stroke-linejoin="round" stroke-miterlimit="10" points="
		20.176,22.535 12.659,22.746 12.659,16.597 20.176,15.35 	"/>
	
		<polygon fill="none" stroke="#18E6D3" stroke-width="2" stroke-linecap="round" stroke-linejoin="round" stroke-miterlimit="10" points="
		35.331,22.109 23.315,22.447 23.315,14.83 35.331,12.837 	"/>
	
		<polygon fill="none" stroke="#18E6D3" stroke-width="2" stroke-linecap="round" stroke-linejoin="round" stroke-miterlimit="10" points="
		35.331,35.163 23.315,33.17 23.315,25.553 35.331,25.891 	"/>
	
		<polygon fill="none" stroke="#18E6D3" stroke-width="2" stroke-linecap="round" stroke-linejoin="round" stroke-miterlimit="10" points="
		20.176,32.65 12.659,31.403 12.659,25.254 20.176,25.465 	"/>
</g>
</svg>
