<?xml version="1.0" encoding="utf-8"?>
<!-- Generator: Adobe Illustrator 18.0.0, SVG Export Plug-In . SVG Version: 6.00 Build 0)  -->
<!DOCTYPE svg PUBLIC "-//W3C//DTD SVG 1.1//EN" "http://www.w3.org/Graphics/SVG/1.1/DTD/svg11.dtd">
<svg version="1.1" xmlns="http://www.w3.org/2000/svg" xmlns:xlink="http://www.w3.org/1999/xlink" x="0px" y="0px"
	 viewBox="0 0 48 48" enable-background="new 0 0 48 48" xml:space="preserve">
<g id="网格" display="none">
	<g display="inline">
		<rect fill="none" stroke="#040000" stroke-width="0.1" stroke-miterlimit="10" width="48" height="48"/>
		<rect x="1" y="9" fill="none" stroke="#040000" stroke-width="0.1" stroke-miterlimit="10" width="46" height="30"/>
		<rect x="9" y="1" fill="none" stroke="#040000" stroke-width="0.1" stroke-miterlimit="10" width="30" height="46"/>
		<rect x="5" y="5" fill="none" stroke="#040000" stroke-width="0.1" stroke-miterlimit="10" width="38" height="38"/>
		<circle fill="none" stroke="#040000" stroke-width="0.1" stroke-miterlimit="10" cx="24" cy="24" r="9"/>
		<rect x="15" fill="none" stroke="#040000" stroke-width="0.1" stroke-miterlimit="10" width="18" height="48"/>
		<rect y="15" fill="none" stroke="#040000" stroke-width="0.1" stroke-miterlimit="10" width="48" height="18"/>
		<line fill="none" stroke="#040000" stroke-width="0.1" stroke-miterlimit="10" x1="0" y1="24" x2="48" y2="24"/>
		<line fill="none" stroke="#040000" stroke-width="0.1" stroke-miterlimit="10" x1="24" y1="0" x2="24" y2="48"/>
	</g>
</g>
<g id="导航栏图标">
	<g>
		<path fill="#4DB1A5" d="M41.7,20.6c2.1-2.6,0.8-4.8-0.2-6.6c-1-1.8-2.3-4-5.6-3.5c-2.9,0.4-5-0.9-6.1-3.5
			c-1.1-2.7-3.3-3.1-5.5-3.1l-0.2,0c-2.2,0-4.8,0-6.1,3.2c-1,2.5-3.1,3.6-6.1,3.5c-0.4-0.1-0.8-0.2-1.2-0.2c-2.3,0-3.5,2.1-4.5,3.7
			c-1,1.7-2.3,4-0.1,6.6c1.8,2.2,1.8,4.7-0.1,7c-2,2.5-0.8,4.6,0.2,6.4c1,1.8,2.3,4.1,5.6,3.6c2.8-0.4,5.1,0.9,6.1,3.4
			c1.1,2.8,3.2,3.1,5.2,3.1l0.9,0c2.1,0,4.5-0.1,5.8-3.2c1-2.5,3.1-3.8,5.9-3.4c3.2,0.4,4.6-1.5,5.4-3c0.1-0.2,0.3-0.5,0.4-0.7
			c1-1.8,2.1-3.8,0.1-6.3C40,25.3,39.9,22.8,41.7,20.6z M8.9,29.1c2.3-3.1,2.3-6.8,0.1-9.9c-1-1.4-0.7-2.3,0.1-3.7
			c1.1-1.8,1.2-1.9,2.6-1.9c0.2,0,0.5,0,0.8,0c3.8,0,6.6-1.7,8.2-4.9c0.7-1.3,1.5-1.8,3.1-1.8c0,0,0,0,0,0c1.7,0,2.7,0.3,3.4,1.8
			c1.6,3.4,4.7,5.2,8.6,4.9c1.5-0.1,2.1,0.5,3,2c0.8,1.3,1,2.2,0.1,3.5c-2.2,3.2-2.2,6.8,0.1,10.1c0.7,1.1,0.7,1.9,0,3.1L39,32.4
			c-0.9,1.5-1.5,2.2-3,2.1c-4.1-0.3-7.2,1.6-8.9,5.2c-0.6,1.3-1.5,1.4-3.1,1.4h0c-1.5,0-2.5-0.1-3.1-1.4c-1.6-3.4-4.4-5.2-8.1-5.2
			c-0.2,0-0.5,0-0.7,0c-1.5,0.1-2.1-0.6-2.9-1.9C8.4,31.3,8,30.4,8.9,29.1z"/>
		<path fill="#4DB1A5" d="M23.9,32.1L23.9,32.1c4.5,0,8.1-3.6,8.1-8c0-4.5-3.5-8-8.1-8.1c-4.5,0-8,3.4-8,8
			C15.9,28.5,19.4,32.1,23.9,32.1z M19.1,24c0-2.8,2.1-4.8,4.9-4.8l0.2,0c2.8,0.1,4.8,2.2,4.8,4.9c0,2.7-2.2,4.9-4.9,4.9h0l-0.2,0
			C21.1,28.9,19,26.7,19.1,24z M24,31.4L24,31.4L24,31.4L24,31.4z"/>
	</g>
</g>
<g id="图标操作">
	<g id="图层_4">
	</g>
</g>
</svg>
