<svg 
 xmlns="http://www.w3.org/2000/svg"
 xmlns:xlink="http://www.w3.org/1999/xlink"
 width="31px" height="31px">
<defs>
<linearGradient id="PSgrad_0" x1="0%" x2="0%" y1="100%" y2="0%">
  <stop offset="0%" stop-color="rgb(9,40,64)" stop-opacity="1" />
  <stop offset="100%" stop-color="rgb(12,47,74)" stop-opacity="1" />
</linearGradient>

</defs><path fill-rule="evenodd"  stroke="rgb(18, 191, 231)" stroke-width="2px" stroke-linecap="butt" stroke-linejoin="miter" fill="none"
 d="M15.000,1.000 C22.732,1.000 29.000,7.268 29.000,15.000 C29.000,22.732 22.732,29.000 15.000,29.000 C7.268,29.000 1.000,22.732 1.000,15.000 C1.000,7.268 7.268,1.000 15.000,1.000 Z"/>
<path fill-rule="evenodd"  fill="rgb(18, 191, 231)"
 d="M18.285,22.012 C18.285,22.012 10.715,22.012 10.715,22.012 C9.210,22.012 7.987,20.708 7.987,19.104 C7.987,19.104 7.987,10.331 7.987,10.331 C7.987,9.045 8.968,7.998 10.176,7.998 C10.176,7.998 13.456,7.998 13.456,7.998 C13.456,7.998 13.456,9.942 13.456,9.942 C13.456,9.942 10.176,9.942 10.176,9.942 C9.974,9.942 9.811,10.117 9.811,10.331 C9.811,10.331 9.811,19.104 9.811,19.104 C9.811,19.635 10.216,20.068 10.715,20.068 C10.715,20.068 18.285,20.068 18.285,20.068 C18.784,20.068 20.190,19.635 20.190,19.104 C20.190,19.104 20.190,15.346 20.190,15.346 C20.190,15.346 22.014,15.346 22.014,15.346 C22.014,15.346 22.014,19.104 22.014,19.104 C22.014,20.708 19.788,22.012 18.285,22.012 ZM19.000,18.000 C19.000,18.000 11.996,17.985 11.996,17.985 C11.996,17.985 12.000,11.000 12.000,11.000 C12.000,11.000 14.426,13.426 14.426,13.426 C14.426,13.426 18.853,9.004 18.853,9.004 C18.853,9.004 20.989,11.136 20.989,11.136 C20.989,11.136 16.560,15.560 16.560,15.560 C16.560,15.560 19.000,18.000 19.000,18.000 Z"/>
</svg>