<svg 
 xmlns="http://www.w3.org/2000/svg"
 xmlns:xlink="http://www.w3.org/1999/xlink"
 width="20px" height="18px">
<path fill-rule="evenodd"  fill="rgb(77, 186, 173)"
 d="M1.000,0.000 C1.000,0.000 14.000,0.000 14.000,0.000 C14.552,0.000 15.000,0.448 15.000,1.000 C15.000,1.000 15.000,1.562 15.000,1.562 C15.000,2.115 14.552,2.562 14.000,2.562 C14.000,2.562 1.000,2.562 1.000,2.562 C0.448,2.562 -0.000,2.115 -0.000,1.562 C-0.000,1.562 -0.000,1.000 -0.000,1.000 C-0.000,0.448 0.448,0.000 1.000,0.000 Z"/>
<path fill-rule="evenodd"  fill="rgb(77, 186, 173)"
 d="M1.000,7.719 C1.000,7.719 14.000,7.719 14.000,7.719 C14.552,7.719 15.000,8.166 15.000,8.719 C15.000,8.719 15.000,9.281 15.000,9.281 C15.000,9.834 14.552,10.281 14.000,10.281 C14.000,10.281 1.000,10.281 1.000,10.281 C0.448,10.281 -0.000,9.834 -0.000,9.281 C-0.000,9.281 -0.000,8.719 -0.000,8.719 C-0.000,8.166 0.448,7.719 1.000,7.719 Z"/>
<path fill-rule="evenodd"  fill="rgb(77, 186, 173)"
 d="M1.000,15.438 C1.000,15.438 14.000,15.438 14.000,15.438 C14.552,15.438 15.000,15.885 15.000,16.438 C15.000,16.438 15.000,17.000 15.000,17.000 C15.000,17.552 14.552,18.000 14.000,18.000 C14.000,18.000 1.000,18.000 1.000,18.000 C0.448,18.000 -0.000,17.552 -0.000,17.000 C-0.000,17.000 -0.000,16.438 -0.000,16.438 C-0.000,15.885 0.448,15.438 1.000,15.438 Z"/>
<path fill-rule="evenodd"  fill="rgb(77, 186, 173)"
 d="M18.750,0.000 C19.440,0.000 20.000,0.574 20.000,1.281 C20.000,1.989 19.440,2.562 18.750,2.562 C18.060,2.562 17.500,1.989 17.500,1.281 C17.500,0.574 18.060,0.000 18.750,0.000 Z"/>
<path fill-rule="evenodd"  fill="rgb(77, 186, 173)"
 d="M18.750,7.719 C19.440,7.719 20.000,8.292 20.000,9.000 C20.000,9.708 19.440,10.281 18.750,10.281 C18.060,10.281 17.500,9.708 17.500,9.000 C17.500,8.292 18.060,7.719 18.750,7.719 Z"/>
<path fill-rule="evenodd"  fill="rgb(77, 186, 173)"
 d="M18.750,15.438 C19.440,15.438 20.000,16.011 20.000,16.719 C20.000,17.426 19.440,18.000 18.750,18.000 C18.060,18.000 17.500,17.426 17.500,16.719 C17.500,16.011 18.060,15.438 18.750,15.438 Z"/>
</svg>