<?xml version="1.0" encoding="utf-8"?>
<!-- Generator: Adobe Illustrator 18.0.0, SVG Export Plug-In . SVG Version: 6.00 Build 0)  -->
<!DOCTYPE svg PUBLIC "-//W3C//DTD SVG 1.1//EN" "http://www.w3.org/Graphics/SVG/1.1/DTD/svg11.dtd">
<svg version="1.1" id="图层_1" xmlns="http://www.w3.org/2000/svg" xmlns:xlink="http://www.w3.org/1999/xlink" x="0px" y="0px"
	 viewBox="0 0 48 48" enable-background="new 0 0 48 48" xml:space="preserve">
<path fill="#65C2C2" d="M45.745,24.024c0.048,11.964-9.461,21.682-21.258,21.726C11.806,45.797,2.26,36.423,2.254,23.92
	C2.25,11.946,11.924,2.273,23.927,2.25C36.098,2.227,45.697,11.806,45.745,24.024z M4.154,23.871
	c-0.016,11.296,8.81,20.108,20.095,20.063c10.738-0.042,19.587-8.947,19.63-19.753c0.044-11.098-8.79-20.017-19.84-20.033
	C13.099,4.133,4.17,12.989,4.154,23.871z"/>
<g>
	<circle fill="#65C2C2" cx="15.517" cy="17.259" r="1.23"/>
	<path fill="#65C2C2" d="M32.483,18.187H19.042c-0.51,0-0.928-0.417-0.928-0.928v0c0-0.51,0.417-0.928,0.928-0.928h13.441
		c0.51,0,0.928,0.417,0.928,0.928v0C33.411,17.769,32.993,18.187,32.483,18.187z"/>
</g>
<g>
	<circle fill="#65C2C2" cx="15.517" cy="24.188" r="1.23"/>
	<path fill="#65C2C2" d="M32.483,25.116H19.042c-0.51,0-0.928-0.417-0.928-0.928v0c0-0.51,0.417-0.928,0.928-0.928h13.441
		c0.51,0,0.928,0.417,0.928,0.928v0C33.411,24.698,32.993,25.116,32.483,25.116z"/>
</g>
<g>
	<circle fill="#65C2C2" cx="15.517" cy="31.117" r="1.23"/>
	<path fill="#65C2C2" d="M32.483,32.045H19.042c-0.51,0-0.928-0.417-0.928-0.928v0c0-0.51,0.417-0.928,0.928-0.928h13.441
		c0.51,0,0.928,0.417,0.928,0.928v0C33.411,31.627,32.993,32.045,32.483,32.045z"/>
</g>
</svg>
