<?xml version="1.0" encoding="utf-8"?>
<!-- Generator: Adobe Illustrator 18.0.0, SVG Export Plug-In . SVG Version: 6.00 Build 0)  -->
<!DOCTYPE svg PUBLIC "-//W3C//DTD SVG 1.1//EN" "http://www.w3.org/Graphics/SVG/1.1/DTD/svg11.dtd">
<svg version="1.1" id="图层_1" xmlns="http://www.w3.org/2000/svg" xmlns:xlink="http://www.w3.org/1999/xlink" x="0px" y="0px"
	 viewBox="0 0 47.99 48" enable-background="new 0 0 47.99 48" xml:space="preserve">
<path fill="#18E6D3" d="M47.99,24.027C48.042,37.228,37.575,47.951,24.588,48C10.628,48.052,0.119,37.708,0.113,23.912
	C0.108,10.699,10.758,0.025,23.972,0C37.37-0.026,47.937,10.545,47.99,24.027z M2.204,23.858
	c-0.018,12.465,9.698,22.188,22.122,22.139c11.82-0.046,21.562-9.873,21.61-21.796C45.985,11.955,36.26,2.112,24.095,2.095
	C12.052,2.078,2.221,11.85,2.204,23.858z"/>
<g>
	<circle fill="#18E6D3" cx="25.595" cy="18.329" r="1.665"/>
	<circle fill="#18E6D3" cx="18.478" cy="23.739" r="2.484"/>
	<circle fill="#18E6D3" cx="26.433" cy="30.005" r="1.684"/>
	<line fill="none" stroke="#18E6D3" stroke-width="2" stroke-miterlimit="10" x1="18.478" y1="23.739" x2="26.433" y2="30.005"/>
	<line fill="none" stroke="#18E6D3" stroke-width="2" stroke-miterlimit="10" x1="18.478" y1="23.928" x2="25.595" y2="18.329"/>
</g>
<circle fill="none" stroke="#18E6D3" stroke-width="2" stroke-miterlimit="10" cx="22.9" cy="22.904" r="11.884"/>
<line fill="none" stroke="#18E6D3" stroke-width="2" stroke-linecap="round" stroke-miterlimit="10" x1="31.223" y1="32.106" x2="34.615" y2="36.418"/>
</svg>
