<?xml version="1.0" encoding="utf-8"?>
<!-- Generator: Adobe Illustrator 18.0.0, SVG Export Plug-In . SVG Version: 6.00 Build 0)  -->
<!DOCTYPE svg PUBLIC "-//W3C//DTD SVG 1.1//EN" "http://www.w3.org/Graphics/SVG/1.1/DTD/svg11.dtd">
<svg version="1.1" xmlns="http://www.w3.org/2000/svg" xmlns:xlink="http://www.w3.org/1999/xlink" x="0px" y="0px"
	 viewBox="0 0 48 48" enable-background="new 0 0 48 48" xml:space="preserve">
<g id="网格" display="none">
	<g display="inline">
		<rect fill="none" stroke="#040000" stroke-width="0.1" stroke-miterlimit="10" width="48" height="48"/>
		<rect x="1" y="9" fill="none" stroke="#040000" stroke-width="0.1" stroke-miterlimit="10" width="46" height="30"/>
		<rect x="9" y="1" fill="none" stroke="#040000" stroke-width="0.1" stroke-miterlimit="10" width="30" height="46"/>
		<rect x="5" y="5" fill="none" stroke="#040000" stroke-width="0.1" stroke-miterlimit="10" width="38" height="38"/>
		<circle fill="none" stroke="#040000" stroke-width="0.1" stroke-miterlimit="10" cx="24" cy="24" r="9"/>
		<rect x="15" fill="none" stroke="#040000" stroke-width="0.1" stroke-miterlimit="10" width="18" height="48"/>
		<rect y="15" fill="none" stroke="#040000" stroke-width="0.1" stroke-miterlimit="10" width="48" height="18"/>
		<line fill="none" stroke="#040000" stroke-width="0.1" stroke-miterlimit="10" x1="0" y1="24" x2="48" y2="24"/>
		<line fill="none" stroke="#040000" stroke-width="0.1" stroke-miterlimit="10" x1="24" y1="0" x2="24" y2="48"/>
	</g>
</g>
<g id="导航栏图标">
	<g>
		<path fill="none" stroke="#4DB1A5" stroke-width="3" stroke-linecap="round" stroke-linejoin="round" stroke-miterlimit="10" d="
			M23.9,38.9H6.8c-0.6,0-1-0.5-1-1V9.7c0-0.6,0.5-1,1-1h31.5c0.6,0,1,0.5,1,1v12"/>
		<g>
			
				<line fill="none" stroke="#4DB1A5" stroke-width="3" stroke-linecap="round" stroke-linejoin="round" stroke-miterlimit="10" x1="15.4" y1="5.6" x2="15.4" y2="12"/>
			
				<line fill="none" stroke="#4DB1A5" stroke-width="3" stroke-linecap="round" stroke-linejoin="round" stroke-miterlimit="10" x1="29.6" y1="5.6" x2="29.6" y2="12"/>
		</g>
		
			<line fill="none" stroke="#4DB1A5" stroke-width="3" stroke-linecap="round" stroke-linejoin="round" stroke-miterlimit="10" x1="5.7" y1="16" x2="39.3" y2="16"/>
		<g>
			<rect x="11" y="20.8" fill="#4DB1A5" width="3.9" height="3.9"/>
			<rect x="20.5" y="20.8" fill="#4DB1A5" width="3.9" height="3.9"/>
			<rect x="30" y="20.8" fill="#4DB1A5" width="3.9" height="3.9"/>
		</g>
		<g>
			<rect x="11" y="28.5" fill="#4DB1A5" width="3.9" height="3.9"/>
			<rect x="20.5" y="28.5" fill="#4DB1A5" width="3.9" height="3.9"/>
		</g>
		<path fill="none" stroke="#4DB1A5" stroke-width="3" stroke-linecap="round" stroke-miterlimit="10" d="M43,37.6
			c-1.1,3.3-4.2,5.7-7.9,5.7c-4.6,0-8.3-3.7-8.3-8.3c0-3.6,2.3-6.7,5.5-7.9"/>
		<path fill="none" stroke="#4DB1A5" stroke-width="3" stroke-miterlimit="10" d="M45.3,33.9c0-5.1-4.1-9.3-9.3-9.3v9.3H45.3z"/>
	</g>
</g>
<g id="图标操作">
	<g id="图层_4">
	</g>
</g>
</svg>
