<svg 
 xmlns="http://www.w3.org/2000/svg"
 xmlns:xlink="http://www.w3.org/1999/xlink"
 width="26px" height="26px">
<path fill-rule="evenodd"  fill="rgb(77, 186, 173)"
 d="M13.281,25.327 C6.024,25.354 0.560,20.042 0.557,12.956 C0.555,6.170 6.091,0.688 12.961,0.675 C19.927,0.662 25.420,6.091 25.448,13.015 C25.475,19.795 20.033,25.302 13.281,25.327 ZM13.025,1.751 C6.764,1.742 1.653,6.761 1.645,12.928 C1.635,19.330 6.687,24.324 13.145,24.298 C19.291,24.275 24.355,19.228 24.380,13.104 C24.405,6.815 19.349,1.760 13.025,1.751 ZM17.244,16.978 C17.244,16.978 18.903,19.061 18.903,19.061 C19.081,19.284 19.042,19.607 18.816,19.783 C18.721,19.856 18.607,19.892 18.495,19.892 C18.341,19.892 18.188,19.825 18.086,19.696 C18.086,19.696 16.481,17.681 16.481,17.681 C15.301,18.577 13.896,19.056 12.408,19.056 C10.338,19.056 8.418,18.135 7.139,16.530 C4.856,13.662 5.360,9.493 8.263,7.237 C9.456,6.311 10.886,5.821 12.400,5.821 C14.470,5.821 16.390,6.741 17.669,8.347 C18.775,9.736 19.267,11.468 19.055,13.223 C18.882,14.657 18.235,15.951 17.244,16.978 ZM16.851,8.982 C15.771,7.626 14.149,6.848 12.400,6.848 C11.121,6.848 9.913,7.262 8.906,8.045 C6.454,9.950 6.028,13.472 7.957,15.895 C9.037,17.251 10.659,18.029 12.408,18.029 C13.687,18.029 14.895,17.614 15.903,16.831 C17.091,15.909 17.844,14.584 18.022,13.101 C18.202,11.618 17.786,10.156 16.851,8.982 ZM14.241,16.950 C13.757,16.950 13.365,16.563 13.365,16.085 C13.365,16.077 13.370,16.070 13.370,16.061 C13.370,16.061 10.698,13.983 10.698,13.983 C10.518,14.076 10.323,14.143 10.105,14.143 C9.392,14.143 8.814,13.572 8.814,12.867 C8.814,12.163 9.392,11.592 10.105,11.592 C10.352,11.592 10.570,11.678 10.766,11.797 C10.766,11.797 12.942,10.105 12.942,10.105 C12.942,10.099 12.939,10.094 12.939,10.089 C12.939,9.616 13.327,9.233 13.805,9.233 C14.283,9.233 14.671,9.616 14.671,10.089 C14.671,10.561 14.283,10.944 13.805,10.944 C13.731,10.944 13.666,10.919 13.598,10.902 C13.598,10.902 11.352,12.648 11.352,12.648 C11.365,12.722 11.397,12.790 11.397,12.867 C11.397,12.975 11.360,13.070 11.335,13.170 C11.335,13.170 14.025,15.263 14.025,15.263 C14.096,15.245 14.164,15.220 14.241,15.220 C14.724,15.220 15.116,15.607 15.116,16.085 C15.116,16.563 14.724,16.950 14.241,16.950 Z"/>
</svg>