<?xml version="1.0" encoding="utf-8"?>
<!-- Generator: Adobe Illustrator 18.0.0, SVG Export Plug-In . SVG Version: 6.00 Build 0)  -->
<!DOCTYPE svg PUBLIC "-//W3C//DTD SVG 1.1//EN" "http://www.w3.org/Graphics/SVG/1.1/DTD/svg11.dtd">
<svg version="1.1" id="图层_1" xmlns="http://www.w3.org/2000/svg" xmlns:xlink="http://www.w3.org/1999/xlink" x="0px" y="0px"
	 viewBox="0 0 47.99 48" enable-background="new 0 0 47.99 48" xml:space="preserve">
<g>
	<path fill="#18E6D3" d="M47.99,24.027C48.042,37.228,37.55,47.951,24.532,48C10.54,48.052,0.006,37.708,0,23.912
		C-0.005,10.699,10.67,0.025,23.915,0C37.345-0.026,47.937,10.545,47.99,24.027z M2.096,23.858
		C2.078,36.323,11.817,46.046,24.27,45.997c11.848-0.046,21.613-9.873,21.661-21.796C45.98,11.955,36.232,2.112,24.038,2.095
		C11.967,2.078,2.113,11.85,2.096,23.858z"/>
	<g>
		<path fill="#18E6D3" d="M36.609,21.512c1.522-1.86,0.604-3.448-0.134-4.724c-0.724-1.253-1.633-2.847-4.005-2.524
			c-2.031,0.273-3.553-0.606-4.338-2.494c-0.811-1.948-2.355-2.216-3.902-2.216l-0.111,0c-1.599,0.012-3.412,0.026-4.327,2.249
			c-0.72,1.748-2.176,2.587-4.307,2.513c-0.3-0.081-0.59-0.122-0.864-0.122c-1.657,0-2.496,1.461-3.17,2.635
			c-0.693,1.207-1.641,2.86-0.106,4.732c1.278,1.558,1.26,3.315-0.05,4.95c-1.423,1.774-0.593,3.252,0.139,4.556
			c0.718,1.277,1.61,2.902,3.974,2.575c1.992-0.271,3.631,0.658,4.35,2.455c0.784,1.958,2.251,2.228,3.72,2.228l0.643-0.009
			c1.516-0.02,3.234-0.042,4.095-2.253c0.696-1.785,2.236-2.67,4.207-2.439c2.275,0.275,3.257-1.035,3.854-2.166
			c0.088-0.168,0.18-0.334,0.272-0.499c0.707-1.271,1.508-2.712,0.091-4.49C35.34,24.837,35.328,23.076,36.609,21.512z
			 M13.262,27.553c1.619-2.242,1.65-4.806,0.084-7.034c-0.695-0.99-0.533-1.643,0.066-2.648c0.776-1.302,0.827-1.339,1.825-1.339
			c0.153,0,0.323,0.003,0.595,0.009c2.707,0,4.732-1.206,5.857-3.485c0.468-0.949,1.044-1.302,2.197-1.302c0.001,0,0.002,0,0.002,0
			c1.195,0.017,1.893,0.22,2.395,1.282c1.154,2.438,3.35,3.686,6.123,3.464c1.051-0.085,1.503,0.341,2.151,1.398
			c0.572,0.933,0.745,1.578,0.103,2.511c-1.586,2.305-1.566,4.858,0.057,7.188c0.531,0.762,0.524,1.32-0.028,2.212l-0.066,0.107
			c-0.652,1.056-1.039,1.593-2.153,1.498c-2.884-0.205-5.13,1.132-6.332,3.725c-0.444,0.959-1.102,1.008-2.176,1.008h0
			c-1.067-0.002-1.747-0.071-2.184-1.025c-1.115-2.438-3.121-3.727-5.799-3.727c-0.174,0-0.351,0.006-0.53,0.017
			c-1.035,0.072-1.526-0.428-2.031-1.323C12.875,29.127,12.594,28.478,13.262,27.553z"/>
		<path fill="#18E6D3" d="M23.927,29.739h0.069c3.138,0,5.706-2.567,5.727-5.724c0.023-3.195-2.483-5.723-5.767-5.756
			c-3.217,0-5.662,2.437-5.69,5.669C18.24,27.149,20.726,29.7,23.927,29.739z M20.466,23.927c0.024-1.968,1.527-3.452,3.495-3.452
			l0.121,0.002c1.977,0.06,3.441,1.574,3.407,3.521c-0.034,1.928-1.601,3.498-3.493,3.498h0l-0.13-0.003
			C21.935,27.419,20.442,25.852,20.466,23.927z M23.996,29.232L23.996,29.232l0.001,0.006L23.996,29.232z"/>
	</g>
</g>
</svg>
