<?xml version="1.0" encoding="utf-8"?>
<!-- Generator: Adobe Illustrator 21.0.0, SVG Export Plug-In . SVG Version: 6.00 Build 0)  -->
<svg version="1.1" id="图层_1" xmlns="http://www.w3.org/2000/svg" xmlns:xlink="http://www.w3.org/1999/xlink" x="0px" y="0px"
	 viewBox="0 0 47.99 48" enable-background="new 0 0 47.99 48" xml:space="preserve">
<path fill="#18E6D3" d="M47.933,24.027C47.986,37.228,37.518,47.951,24.531,48C10.572,48.052,0.062,37.708,0.056,23.912
	C0.052,10.699,10.701,0.025,23.915,0C37.314-0.026,47.881,10.545,47.933,24.027z M2.148,23.858
	C2.13,36.323,11.846,46.046,24.27,45.997c11.82-0.046,21.562-9.873,21.61-21.796c0.049-12.246-9.676-22.088-21.841-22.106
	C11.995,2.078,2.165,11.85,2.148,23.858z"/>
<path fill="none" stroke="#18E6D3" stroke-width="2" stroke-linecap="round" stroke-miterlimit="10" d="M23.995,37.249
	c-7.317,0-13.249-5.932-13.249-13.249s5.932-13.249,13.249-13.249S37.244,16.683,37.244,24"/>
<polyline fill="none" stroke="#18E6D3" stroke-width="2" stroke-linecap="round" stroke-linejoin="round" stroke-miterlimit="10" points="
	23.94,16.798 23.94,25.361 30.326,21.954 "/>
<circle fill="#18E6D3" cx="36.737" cy="27.953" r="0.984"/>
<circle fill="#18E6D3" cx="35.133" cy="31.813" r="0.984"/>
<circle fill="#18E6D3" cx="32.525" cy="34.867" r="0.984"/>
<circle fill="#18E6D3" cx="28.546" cy="36.836" r="0.984"/>
<polyline fill="none" stroke="#18E6D3" stroke-width="2" stroke-linecap="round" stroke-linejoin="round" stroke-miterlimit="10" points="
	39.177,22.555 37.669,24.82 35.404,23.313 "/>
</svg>
