<svg 
 xmlns="http://www.w3.org/2000/svg"
 xmlns:xlink="http://www.w3.org/1999/xlink"
 width="215.5px" height="115.5px">
<path fill-rule="evenodd"  stroke="rgb(11, 11, 11)" stroke-width="5px" stroke-linecap="butt" stroke-linejoin="miter" fill="rgb(6, 19, 30)"
 d="M12.500,7.500 C12.500,7.500 200.500,7.500 200.500,7.500 C203.261,7.500 205.500,9.739 205.500,12.500 C205.500,12.500 205.500,100.500 205.500,100.500 C205.500,103.261 203.261,105.500 200.500,105.500 C200.500,105.500 12.500,105.500 12.500,105.500 C9.739,105.500 7.500,103.261 7.500,100.500 C7.500,100.500 7.500,12.500 7.500,12.500 C7.500,9.739 9.739,7.500 12.500,7.500 Z"/>
<path fill-rule="evenodd"  stroke="rgb(9, 59, 73)" stroke-width="1px" stroke-linecap="butt" stroke-linejoin="miter" fill="rgb(6, 19, 30)"
 d="M12.500,7.500 C12.500,7.500 200.500,7.500 200.500,7.500 C203.261,7.500 205.500,9.739 205.500,12.500 C205.500,12.500 205.500,100.500 205.500,100.500 C205.500,103.261 203.261,105.500 200.500,105.500 C200.500,105.500 12.500,105.500 12.500,105.500 C9.739,105.500 7.500,103.261 7.500,100.500 C7.500,100.500 7.500,12.500 7.500,12.500 C7.500,9.739 9.739,7.500 12.500,7.500 Z"/>
<path fill-rule="evenodd"  stroke="rgb(9, 59, 73)" stroke-width="1px" stroke-linecap="butt" stroke-linejoin="miter" fill="rgb(6, 19, 30)"
 d="M168.500,18.500 C178.993,18.500 187.500,27.007 187.500,37.500 C187.500,47.993 178.993,56.500 168.500,56.500 C158.007,56.500 149.500,47.993 149.500,37.500 C149.500,27.007 158.007,18.500 168.500,18.500 Z"/>
<path fill-rule="evenodd"  fill="rgb(9, 58, 72)"
 d="M177.000,39.500 C177.000,39.500 170.500,39.500 170.500,39.500 C170.500,39.500 170.500,45.000 170.500,45.000 C170.500,45.828 169.828,46.500 169.000,46.500 C168.172,46.500 167.500,45.828 167.500,45.000 C167.500,45.000 167.500,39.500 167.500,39.500 C167.500,39.500 161.000,39.500 161.000,39.500 C160.172,39.500 159.500,38.828 159.500,38.000 C159.500,37.172 160.172,36.500 161.000,36.500 C161.000,36.500 167.500,36.500 167.500,36.500 C167.500,36.500 167.500,31.000 167.500,31.000 C167.500,30.172 168.172,29.500 169.000,29.500 C169.828,29.500 170.500,30.172 170.500,31.000 C170.500,31.000 170.500,36.500 170.500,36.500 C170.500,36.500 177.000,36.500 177.000,36.500 C177.828,36.500 178.500,37.172 178.500,38.000 C178.500,38.828 177.828,39.500 177.000,39.500 Z"/>
<path fill-rule="evenodd"  fill="rgb(12, 31, 46)"
 d="M117.500,57.500 C117.500,57.500 33.500,57.500 33.500,57.500 C31.843,57.500 30.500,56.157 30.500,54.500 C30.500,52.843 31.843,51.500 33.500,51.500 C33.500,51.500 117.500,51.500 117.500,51.500 C119.157,51.500 120.500,52.843 120.500,54.500 C120.500,56.157 119.157,57.500 117.500,57.500 ZM117.500,38.500 C117.500,38.500 33.500,38.500 33.500,38.500 C31.843,38.500 30.500,37.157 30.500,35.500 C30.500,33.843 31.843,32.500 33.500,32.500 C33.500,32.500 117.500,32.500 117.500,32.500 C119.157,32.500 120.500,33.843 120.500,35.500 C120.500,37.157 119.157,38.500 117.500,38.500 ZM33.500,70.500 C33.500,70.500 117.500,70.500 117.500,70.500 C119.157,70.500 120.500,71.843 120.500,73.500 C120.500,75.157 119.157,76.500 117.500,76.500 C117.500,76.500 33.500,76.500 33.500,76.500 C31.843,76.500 30.500,75.157 30.500,73.500 C30.500,71.843 31.843,70.500 33.500,70.500 Z"/>
</svg>