<?xml version="1.0" encoding="utf-8"?>
<!-- Generator: Adobe Illustrator 21.0.2, SVG Export Plug-In . SVG Version: 6.00 Build 0)  -->
<svg version="1.1" id="图层_1" xmlns="http://www.w3.org/2000/svg" xmlns:xlink="http://www.w3.org/1999/xlink" x="0px" y="0px"
	 viewBox="0 0 93.5 136.5" style="enable-background:new 0 0 93.5 136.5;" xml:space="preserve">
<style type="text/css">
	.st0{fill:#030B12;enable-background:new    ;}
	.st1{fill:#051521;stroke:#0D8BA4;enable-background:new    ;}
	.st2{fill:#465C6C;}
	.st3{font-family:'MicrosoftYaHei-Bold';}
	.st4{font-size:11.3557px;}
	.st5{fill:#102D42;enable-background:new    ;}
	.st6{opacity:0.71;fill:#030B12;enable-background:new    ;}
</style>
<path class="st0" d="M27,106.4c-13,0-23.6-10.6-23.6-23.6C3.4,69.7,14,59.1,27,59.1c13,0,23.6,10.6,23.6,23.6
	C50.6,95.8,40,106.4,27,106.4z M27.3,72.6c-5.8,0-10.5,4.7-10.5,10.5c0,5.8,4.7,10.5,10.5,10.5c5.8,0,10.5-4.7,10.5-10.5
	C37.8,77.3,33.1,72.6,27.3,72.6z"/>
<path class="st1" d="M81.8,88.6H24.7c-1.1,0-2-0.9-2-2V16c0-1.1,0.9-2,2-2h2.8v-2.7c0-1.2,0.9-2.1,2.1-2.1h0.6
	c1.2,0,2.1,0.9,2.1,2.1V14h10.7v-2.7c0-1.2,0.9-2.1,2.1-2.1h0.6c1.2,0,2.1,0.9,2.1,2.1V14h11.3v-2.7c0-1.2,0.9-2.1,2.1-2.1h0.6
	c1.2,0,2.1,0.9,2.1,2.1V14h9.6v-2.7c0-1.2,0.9-2.1,2.1-2.1h0.6c1.2,0,2.1,0.9,2.1,2.1V14h3.3c1.1,0,2,0.9,2,2v70.6
	C83.8,87.7,82.9,88.6,81.8,88.6z"/>
<text transform="matrix(0.9983 0 0 1 30.0034 127.0258)" class="st2 st3 st4">暂无内容 !</text>
<path class="st5" d="M77.1,55.3H30.5c-0.8,0-1.4-0.6-1.4-1.4v-0.4c0-0.8,0.6-1.4,1.4-1.4h46.5c0.8,0,1.4,0.6,1.4,1.4V54
	C78.5,54.7,77.8,55.3,77.1,55.3z M77.1,43.6H30.5c-0.8,0-1.4-0.6-1.4-1.4v-0.4c0-0.8,0.6-1.4,1.4-1.4h46.5c0.8,0,1.4,0.6,1.4,1.4
	v0.4C78.5,43,77.8,43.6,77.1,43.6z M76.8,31.9H30.6c-0.8,0-1.4-0.6-1.4-1.4v-0.4c0-0.8,0.6-1.4,1.4-1.4h46.2c0.8,0,1.4,0.6,1.4,1.4
	v0.4C78.2,31.3,77.5,31.9,76.8,31.9z M36.1,74.2c0,0-1.7,3.5-2.1,7c-0.4,3.3,0.3,6.5,0,6.4c-8.6-2.5-9.6-13.4-9.6-13.4
	s3,0.5,5.9,0.5C33.2,74.7,36.1,74.2,36.1,74.2z"/>
<path class="st6" d="M49.7,89.1c0.6-2,0.9-4.1,0.9-6.4C50.6,69.7,40,59.1,27,59.1c-1.6,0-3.2,0.2-4.8,0.5v14.3
	c1.5-0.8,3.2-1.3,5.1-1.3c5.8,0,10.5,4.7,10.5,10.5c0,2.3-0.7,4.4-2,6.1H49.7z"/>
<path class="st1" d="M51.5,105.1l-2.6,2.7c-0.9,0.9-2.3,1-3.2,0.2l-9-8.6c-2.8,1.7-6.1,2.6-9.6,2.6c-10.5,0-19-8.5-19-19
	s8.5-19,19-19s19,8.5,19,19c0,4-1.2,7.7-3.3,10.7l8.7,8.2C52.4,102.8,52.4,104.2,51.5,105.1z M27.2,69.1c-7.7,0-13.9,6.2-13.9,13.9
	c0,7.7,6.2,13.9,13.9,13.9S41.1,90.7,41.1,83C41.1,75.3,34.9,69.1,27.2,69.1z"/>
</svg>
