<svg 
 xmlns="http://www.w3.org/2000/svg"
 xmlns:xlink="http://www.w3.org/1999/xlink"
 width="12px" height="10px">
<path fill-rule="evenodd"  fill="rgb(242, 242, 242)"
 d="M5.991,9.014 C5.991,9.014 11.990,3.585 11.990,3.585 C11.990,3.585 -0.008,3.585 -0.008,3.585 C-0.008,3.585 5.991,9.014 5.991,9.014 Z"/>
<path fill-rule="evenodd"  fill="rgb(242, 242, 242)"
 d="M3.687,-0.000 C3.687,-0.000 8.313,-0.000 8.313,-0.000 C8.313,-0.000 8.313,4.500 8.313,4.500 C8.313,4.500 3.687,4.500 3.687,4.500 C3.687,4.500 3.687,-0.000 3.687,-0.000 Z"/>
<path fill-rule="evenodd"  fill="rgb(242, 242, 242)"
 d="M-0.000,9.000 C-0.000,9.000 12.000,9.000 12.000,9.000 C12.000,9.000 12.000,10.000 12.000,10.000 C12.000,10.000 -0.000,10.000 -0.000,10.000 C-0.000,10.000 -0.000,9.000 -0.000,9.000 Z"/>
</svg>