<?xml version="1.0" encoding="utf-8"?>
<!-- Generator: Adobe Illustrator 18.0.0, SVG Export Plug-In . SVG Version: 6.00 Build 0)  -->
<!DOCTYPE svg PUBLIC "-//W3C//DTD SVG 1.1//EN" "http://www.w3.org/Graphics/SVG/1.1/DTD/svg11.dtd">
<svg version="1.1" id="图层_1" xmlns="http://www.w3.org/2000/svg" xmlns:xlink="http://www.w3.org/1999/xlink" x="0px" y="0px"
	 viewBox="0 0 47.99 48" enable-background="new 0 0 47.99 48" xml:space="preserve">
<path fill="#2BB3EC" d="M30.813,18.833l11-10.962l-0.038,6.212c-0.015,0.515,0.401,0.97,0.917,0.955h0.659
	c0.515-0.015,0.947-0.318,0.955-0.841l0.03-9.25c0-0.008,0.015-0.492,0.015-0.492c0.008-0.258-0.053-0.492-0.22-0.659
	c-0.167-0.167-0.394-0.273-0.659-0.265l-0.47,0.008c-0.008,0-0.015,0-0.023,0.008l-9.174-0.038c-0.515,0.015-0.947,0.44-0.955,0.962
	v0.659c0.076,0.614,0.561,0.97,1.076,0.955l6.046,0.015l-10.97,10.924c-0.5,0.5-0.5,1.311,0,1.811
	C29.502,19.341,30.313,19.341,30.813,18.833L30.813,18.833z M16.949,29.167L5.941,40.091l0.038-6.182
	c0.015-0.515-0.402-0.969-0.917-0.955H4.365c-0.515,0.015-0.947,0.318-0.955,0.841l-0.03,9.258c0,0.008-0.015,0.492-0.015,0.492
	c-0.008,0.258,0.053,0.492,0.22,0.659c0.167,0.167,0.394,0.273,0.659,0.265l0.47-0.008c0.008,0,0.015,0,0.023-0.008l9.212,0.038
	c0.515-0.015,0.947-0.439,0.955-0.962v-0.659c-0.076-0.614-0.561-0.97-1.076-0.955l-6.046-0.015l10.962-10.924
	c0.5-0.5,0.5-1.311,0-1.811C18.252,28.659,17.449,28.659,16.949,29.167L16.949,29.167z M44.336,43.053l-0.023-9.258
	c-0.015-0.515-0.44-0.826-0.955-0.841h-0.659c-0.515-0.015-0.924,0.44-0.917,0.955l0.038,6.212L30.813,29.167
	c-0.5-0.5-1.311-0.5-1.811,0c-0.5,0.5-0.5,1.311,0,1.811l10.962,10.924l-6.046,0.015c-0.515-0.015-0.992,0.349-1.076,0.955v0.659
	c0.015,0.515,0.44,0.947,0.955,0.962l9.174-0.038c0.008,0,0.015,0.008,0.023,0.008l0.47,0.008c0.257,0.008,0.492-0.091,0.659-0.265
	c0.167-0.167,0.227-0.401,0.22-0.659C44.343,43.546,44.336,43.061,44.336,43.053L44.336,43.053L44.336,43.053z M7.79,6.098
	l6.046-0.015c0.515,0.015,0.992-0.349,1.076-0.955V4.469c-0.015-0.515-0.439-0.947-0.955-0.962l-9.22,0.038
	c-0.008,0-0.015-0.008-0.023-0.008L4.244,3.53C3.987,3.522,3.752,3.621,3.585,3.795c-0.167,0.167-0.227,0.401-0.22,0.659
	c0,0,0.015,0.485,0.015,0.492l0.023,9.258c0.008,0.515,0.44,0.826,0.955,0.841h0.697c0.515,0.015,0.924-0.439,0.917-0.955
	l-0.03-6.182l11,10.932c0.5,0.5,1.31,0.5,1.81,0c0.5-0.5,0.5-1.311,0-1.811L7.79,6.098L7.79,6.098z"/>
</svg>
