<svg 
 xmlns="http://www.w3.org/2000/svg"
 xmlns:xlink="http://www.w3.org/1999/xlink"
 width="12px" height="10px">
<path fill-rule="evenodd"  fill="rgb(242, 242, 242)"
 d="M5.991,0.986 C5.991,0.986 11.990,6.415 11.990,6.415 C11.990,6.415 -0.008,6.415 -0.008,6.415 C-0.008,6.415 5.991,0.986 5.991,0.986 Z"/>
<path fill-rule="evenodd"  fill="rgb(242, 242, 242)"
 d="M3.687,5.500 C3.687,5.500 8.313,5.500 8.313,5.500 C8.313,5.500 8.313,10.000 8.313,10.000 C8.313,10.000 3.687,10.000 3.687,10.000 C3.687,10.000 3.687,5.500 3.687,5.500 Z"/>
<path fill-rule="evenodd"  fill="rgb(242, 242, 242)"
 d="M-0.000,-0.000 C-0.000,-0.000 12.000,-0.000 12.000,-0.000 C12.000,-0.000 12.000,1.000 12.000,1.000 C12.000,1.000 -0.000,1.000 -0.000,1.000 C-0.000,1.000 -0.000,-0.000 -0.000,-0.000 Z"/>
</svg>