<svg 
 xmlns="http://www.w3.org/2000/svg"
 xmlns:xlink="http://www.w3.org/1999/xlink"
 width="19px" height="19px">
<path fill-rule="evenodd"  fill="rgb(93, 93, 93)"
 d="M9.500,-0.000 C14.747,-0.000 19.000,4.253 19.000,9.500 C19.000,14.747 14.747,19.000 9.500,19.000 C4.253,19.000 -0.000,14.747 -0.000,9.500 C-0.000,4.253 4.253,-0.000 9.500,-0.000 Z"/>
<path fill-rule="evenodd"  fill="rgb(209, 209, 209)"
 d="M7.680,3.167 C7.680,3.167 7.920,11.530 7.920,11.530 C7.920,11.530 10.615,11.530 10.615,11.530 C10.615,11.530 10.868,3.167 10.868,3.167 C10.868,3.167 7.680,3.167 7.680,3.167 ZM8.433,13.433 C8.143,13.727 7.999,14.084 7.999,14.503 C7.999,14.911 8.143,15.261 8.433,15.555 C8.723,15.848 9.076,15.995 9.492,15.995 C9.907,15.995 10.263,15.848 10.558,15.555 C10.853,15.261 11.001,14.911 11.001,14.503 C11.001,14.084 10.853,13.727 10.558,13.433 C10.263,13.140 9.907,12.993 9.492,12.993 C9.076,12.993 8.723,13.140 8.433,13.433 Z"/>
</svg>