<?xml version="1.0" encoding="utf-8"?>
<!-- Generator: Adobe Illustrator 18.0.0, SVG Export Plug-In . SVG Version: 6.00 Build 0)  -->
<!DOCTYPE svg PUBLIC "-//W3C//DTD SVG 1.1//EN" "http://www.w3.org/Graphics/SVG/1.1/DTD/svg11.dtd">
<svg version="1.1" id="图层_1" xmlns="http://www.w3.org/2000/svg" xmlns:xlink="http://www.w3.org/1999/xlink" x="0px" y="0px"
	 viewBox="0 0 48 48" enable-background="new 0 0 48 48" xml:space="preserve">
<path fill="#2BC7C7" d="M4,25.9v1.6c0,2.4,1.9,4.3,4.3,4.3h6l10.2,8.6c2,1.2,3.7,0.2,3.7-2.1V9.7c0-2.4-1.7-3.3-3.7-2.1l-10.2,8.6
	h-6c-2.4,0-4.3,1.9-4.3,4.3v1.6V25.9z"/>
<path fill="none" stroke="#2BC7C7" stroke-width="2" stroke-linecap="round" stroke-miterlimit="10" d="M33.1,31.3
	c2-1.6,3.3-4.3,3.3-7.3s-1.3-5.7-3.3-7.3"/>
<path fill="none" stroke="#2BC7C7" stroke-width="2" stroke-linecap="round" stroke-miterlimit="10" d="M38.1,37.1
	C41.7,34.3,44,29.5,44,24s-2.3-10.3-5.9-13.1"/>
</svg>
