<?xml version="1.0" encoding="utf-8"?>
<!-- Generator: Adobe Illustrator 21.0.2, SVG Export Plug-In . SVG Version: 6.00 Build 0)  -->
<svg version="1.1" id="矩形_24_1_" xmlns="http://www.w3.org/2000/svg" xmlns:xlink="http://www.w3.org/1999/xlink" x="0px"
	 y="0px" viewBox="0 0 22.5 20.2" style="enable-background:new 0 0 22.5 20.2;" xml:space="preserve">
<style type="text/css">
	.st0{fill-rule:evenodd;clip-rule:evenodd;fill:#2EE6E6;}
</style>
<g id="矩形_24">
	<g>
		<polygon class="st0" points="20.2,13.5 20.2,9 11.2,9 11.2,6.7 13.5,6.7 13.5,0 8.2,0 8.2,6.7 10.5,6.7 10.5,9 2.2,9 2.2,13.5 
			0,13.5 0,20.2 5.2,20.2 5.2,13.5 3,13.5 3,9.7 10.5,9.7 10.5,13.5 8.2,13.5 8.2,20.2 13.5,20.2 13.5,13.5 11.2,13.5 11.2,9.7 
			19.5,9.7 19.5,13.5 17.2,13.5 17.2,20.2 22.5,20.2 22.5,13.5 		"/>
	</g>
</g>
</svg>
