<svg 
 xmlns="http://www.w3.org/2000/svg"
 xmlns:xlink="http://www.w3.org/1999/xlink"
 width="52.5px" height="44.5px" viewBox="0 0 52.5 44.5">
<path fill-rule="evenodd"  stroke="rgb(255, 255, 255)" stroke-width="3px" stroke-linecap="butt" stroke-linejoin="miter" fill="none"
 d="M44.500,31.500 C44.500,31.500 35.500,31.500 35.500,31.500 C35.500,31.500 35.500,33.500 35.500,33.500 C35.500,33.500 16.500,33.500 16.500,33.500 C16.500,33.500 16.500,31.500 16.500,31.500 C16.500,31.500 6.500,31.500 6.500,31.500 C3.739,31.500 1.500,29.261 1.500,26.500 C1.500,26.500 1.500,6.500 1.500,6.500 C1.500,3.739 3.739,1.500 6.500,1.500 C6.500,1.500 44.500,1.500 44.500,1.500 C47.261,1.500 49.500,3.739 49.500,6.500 C49.500,6.500 49.500,26.500 49.500,26.500 C49.500,29.261 47.261,31.500 44.500,31.500 ZM14.500,35.500 C14.500,35.500 37.500,35.500 37.500,35.500 C39.157,35.500 40.500,36.843 40.500,38.500 C40.500,40.157 39.157,41.500 37.500,41.500 C37.500,41.500 14.500,41.500 14.500,41.500 C12.843,41.500 11.500,40.157 11.500,38.500 C11.500,36.843 12.843,35.500 14.500,35.500 Z"/>
<path fill-rule="evenodd"  fill="rgb(255, 255, 255)"
 d="M33.000,14.500 C32.829,14.500 32.662,14.483 32.501,14.450 C32.367,14.423 32.240,14.379 32.116,14.331 C32.090,14.321 32.063,14.317 32.038,14.307 C31.742,14.183 31.476,14.004 31.250,13.783 C31.250,13.783 25.355,17.058 25.355,17.058 C25.440,17.359 25.500,17.671 25.500,18.000 C25.500,18.631 25.320,19.214 25.028,19.726 C25.028,19.726 28.986,22.216 28.986,22.216 C30.182,21.617 31.645,22.059 32.294,23.241 C32.959,24.451 32.516,25.971 31.306,26.636 C30.096,27.300 28.576,26.858 27.911,25.647 C27.583,25.050 27.527,24.377 27.698,23.768 C27.698,23.768 23.520,21.140 23.520,21.140 C23.058,21.363 22.547,21.500 22.000,21.500 C20.067,21.500 18.500,19.933 18.500,18.000 C18.500,16.067 20.067,14.500 22.000,14.500 C22.877,14.500 23.668,14.834 24.282,15.366 C24.282,15.366 30.509,11.906 30.509,11.906 C30.509,11.906 30.509,11.906 30.509,11.906 C30.535,11.239 30.817,10.639 31.266,10.205 C31.278,10.193 31.292,10.184 31.304,10.173 C31.405,10.079 31.511,9.990 31.627,9.913 C31.666,9.887 31.711,9.870 31.752,9.846 C31.847,9.791 31.940,9.734 32.042,9.692 C32.120,9.659 32.205,9.640 32.287,9.616 C32.359,9.594 32.428,9.565 32.503,9.550 C32.663,9.518 32.830,9.500 33.000,9.500 C34.381,9.500 35.500,10.619 35.500,12.000 C35.500,13.381 34.381,14.500 33.000,14.500 Z"/>
</svg>