<?xml version="1.0" encoding="utf-8"?>
<!-- Generator: Adobe Illustrator 18.0.0, SVG Export Plug-In . SVG Version: 6.00 Build 0)  -->
<!DOCTYPE svg PUBLIC "-//W3C//DTD SVG 1.1//EN" "http://www.w3.org/Graphics/SVG/1.1/DTD/svg11.dtd">
<svg version="1.1" id="图层_1" xmlns="http://www.w3.org/2000/svg" xmlns:xlink="http://www.w3.org/1999/xlink" x="0px" y="0px"
	 viewBox="-0.6 -0.5 58.1 58" enable-background="new -0.6 -0.5 58.1 58" xml:space="preserve">
<path fill="#122430" stroke="#1E3C50" d="M28.5,0.5c15.5,0,28,12.5,28,28s-12.5,28-28,28s-28-12.5-28-28S13,0.5,28.5,0.5z"/>
<path fill="#FFFFFF" d="M35,42.5c-3.3,0-6-2.7-6-6s2.7-6,6-6s6,2.7,6,6S38.3,42.5,35,42.5z M37,35.5h-4c-0.6,0-1,0.4-1,1s0.4,1,1,1
	h4c0.6,0,1-0.4,1-1S37.6,35.5,37,35.5z M27,37c0,0.5,0.1,1,0.1,1.5H18c-1.1,0-2-0.9-2-2v-20c0-1.1,0.9-2,2-2h13v5c0,1.1,0.9,2,2,2h4
	v7.1c-0.5-0.1-1-0.1-1.5-0.1C30.8,28.5,27,32.3,27,37z M25,22.5h-2v8h2V22.5z M28.9,22.5H26v8h1.8v-2.8h0.9c0.9,0,1.7-0.2,2.4-0.7
	c0.6-0.5,0.9-1.2,0.9-2C32,23.3,31,22.5,28.9,22.5z M28.6,26.4h-0.8v-2.6h0.8c1,0,1.6,0.4,1.6,1.3C30.1,26,29.6,26.4,28.6,26.4z
	 M32,14.5h5v6h-5V14.5z"/>
</svg>
