<?xml version="1.0" encoding="utf-8"?>
<!-- Generator: Adobe Illustrator 18.0.0, SVG Export Plug-In . SVG Version: 6.00 Build 0)  -->
<!DOCTYPE svg PUBLIC "-//W3C//DTD SVG 1.1//EN" "http://www.w3.org/Graphics/SVG/1.1/DTD/svg11.dtd">
<svg version="1.1" id="图层_1" xmlns="http://www.w3.org/2000/svg" xmlns:xlink="http://www.w3.org/1999/xlink" x="0px" y="0px"
	 viewBox="-1.2 -1.1 58.1 58.2" enable-background="new -1.2 -1.1 58.1 58.2" xml:space="preserve">
<path opacity="0.4" fill="#299BD7" enable-background="new    " d="M28,0c15.5,0,28,12.5,28,28S43.5,56,28,56S0,43.5,0,28
	S12.5,0,28,0z"/>
<path fill="#299BD7" d="M28,6c12.2,0,22,9.9,22,22s-9.8,22-22,22S6,40.1,6,28S15.9,6,28,6z"/>
<path fill="#FFFFFF" d="M34.5,42c-3.3,0-6-2.7-6-6s2.7-6,6-6s6,2.7,6,6S37.8,42,34.5,42z M38,33.7c-0.4-0.4-1.1-0.3-1.4,0.1L33.9,37
	l-2-1.5c-0.3-0.3-0.9-0.1-1.2,0.4c-0.3,0.5-0.3,1.1,0,1.3l2.5,1.8c0.1,0.1,0.3,0.1,0.4,0.1c0.4,0.3,1,0.2,1.3-0.2l3.2-3.8
	C38.5,34.7,38.5,34.1,38,33.7z M26.5,36.5c0,0.5,0.1,1,0.1,1.5h-9.1c-1.1,0-2-0.9-2-2V16c0-1.1,0.9-2,2-2h13v5c0,1.1,0.9,2,2,2h4
	v7.1C36,28.1,35.5,28,35,28C30.3,28,26.5,31.8,26.5,36.5z M24.5,22h-2v8h2V22z M28.4,22h-2.9v8h1.8v-2.8h0.9c0.9,0,1.7-0.2,2.4-0.7
	c0.6-0.5,0.9-1.2,0.9-2C31.5,22.8,30.5,22,28.4,22z M28.1,25.9h-0.8v-2.6h0.8c1,0,1.6,0.4,1.6,1.3C29.6,25.5,29.1,25.9,28.1,25.9z
	 M31.5,14h5v6h-5V14z"/>
</svg>
