<?xml version="1.0" encoding="utf-8"?>
<!-- Generator: Adobe Illustrator 21.0.2, SVG Export Plug-In . SVG Version: 6.00 Build 0)  -->
<svg version="1.1" id="矩形_24_1_" xmlns="http://www.w3.org/2000/svg" xmlns:xlink="http://www.w3.org/1999/xlink" x="0px"
	 y="0px" viewBox="0 0 22.5 20.2" style="enable-background:new 0 0 22.5 20.2;" xml:space="preserve">
<style type="text/css">
	.st0{fill-rule:evenodd;clip-rule:evenodd;fill:#2EE6E6;}
</style>
<g>
	<path class="st0" d="M3.8,1.1H1.6c-0.8,0-1.5,0.7-1.5,1.5c0,0.8,0.7,1.5,1.5,1.5h2.2c0.8,0,1.5-0.7,1.5-1.5
		C5.3,1.8,4.6,1.1,3.8,1.1z"/>
	<path class="st0" d="M21,1.1H9c-0.8,0-1.5,0.7-1.5,1.5c0,0.8,0.7,1.5,1.5,1.5h12c0.8,0,1.5-0.7,1.5-1.5C22.5,1.8,21.8,1.1,21,1.1z"
		/>
</g>
<g>
	<path class="st0" d="M3.8,8.6H1.6c-0.8,0-1.5,0.7-1.5,1.5c0,0.8,0.7,1.5,1.5,1.5h2.2c0.8,0,1.5-0.7,1.5-1.5
		C5.3,9.3,4.6,8.6,3.8,8.6z"/>
	<path class="st0" d="M21,8.6H9c-0.8,0-1.5,0.7-1.5,1.5c0,0.8,0.7,1.5,1.5,1.5h12c0.8,0,1.5-0.7,1.5-1.5C22.5,9.3,21.8,8.6,21,8.6z"
		/>
</g>
<g>
	<path class="st0" d="M3.8,16.1H1.6c-0.8,0-1.5,0.7-1.5,1.5c0,0.8,0.7,1.5,1.5,1.5h2.2c0.8,0,1.5-0.7,1.5-1.5
		C5.3,16.8,4.6,16.1,3.8,16.1z"/>
	<path class="st0" d="M21,16.1H9c-0.8,0-1.5,0.7-1.5,1.5c0,0.8,0.7,1.5,1.5,1.5h12c0.8,0,1.5-0.7,1.5-1.5
		C22.5,16.8,21.8,16.1,21,16.1z"/>
</g>
</svg>
