<svg 
 xmlns="http://www.w3.org/2000/svg"
 xmlns:xlink="http://www.w3.org/1999/xlink"
 width="91.5px" height="92.5px" viewBox="0 0 91.5 91.5">
<path fill-rule="evenodd"  stroke="rgb(24, 65, 95)" stroke-width="1px" stroke-linecap="butt" stroke-linejoin="miter" opacity="0.451" fill="none"
 d="M45.500,0.500 C70.353,0.500 90.500,20.871 90.500,46.000 C90.500,71.129 70.353,91.500 45.500,91.500 C20.647,91.500 0.500,71.129 0.500,46.000 C0.500,20.871 20.647,0.500 45.500,0.500 Z"/>
<path fill-rule="evenodd"  opacity="0.541" fill="rgb(255, 255, 255)"
 d="M88.500,59.500 C88.500,59.500 84.567,76.919 64.500,83.500 C45.543,89.717 45.003,81.691 48.500,80.500 C56.272,77.852 71.410,81.320 83.500,61.500 C88.113,53.938 90.498,48.056 88.500,59.500 Z"/>
<path fill-rule="evenodd"  opacity="0.541" fill="rgb(255, 255, 255)"
 d="M40.077,79.646 C42.235,80.117 43.696,81.817 43.341,83.442 C42.986,85.067 40.948,86.002 38.790,85.530 C36.632,85.058 35.170,83.358 35.526,81.733 C35.881,80.108 37.918,79.174 40.077,79.646 Z"/>
<path fill-rule="evenodd"  opacity="0.949" fill="rgb(255, 255, 255)"
 d="M34.911,7.159 C39.851,5.631 44.529,6.248 45.360,8.537 C46.191,10.826 42.860,13.921 37.921,15.449 C32.981,16.978 28.303,16.361 27.472,14.072 C26.641,11.782 29.972,8.688 34.911,7.159 Z"/>
<path fill-rule="evenodd"  opacity="0.722" fill="rgb(255, 255, 255)"
 d="M26.750,17.646 C27.518,17.957 27.805,19.039 27.390,20.063 C26.976,21.087 26.017,21.665 25.249,21.354 C24.482,21.043 24.195,19.961 24.610,18.937 C25.024,17.913 25.983,17.335 26.750,17.646 Z"/>
</svg>