<svg 
 xmlns="http://www.w3.org/2000/svg"
 xmlns:xlink="http://www.w3.org/1999/xlink"
 width="73px" height="73px" viewBox="0 0 73 73">
<path fill-rule="evenodd"  fill="rgb(32, 45, 58)"
 d="M36.000,4.000 C53.673,4.000 68.000,18.327 68.000,36.000 C68.000,53.673 53.673,68.000 36.000,68.000 C18.327,68.000 4.000,53.673 4.000,36.000 C4.000,18.327 18.327,4.000 36.000,4.000 Z"/>
<path fill-rule="evenodd"  fill="rgb(140, 167, 194)"
 d="M59.989,29.753 C59.989,29.753 44.999,42.510 44.999,42.510 C44.999,42.510 44.999,35.000 44.999,35.000 C44.999,35.000 30.750,35.000 30.750,35.000 C30.750,35.000 30.750,25.250 30.750,25.250 C30.750,25.250 44.999,25.250 44.999,25.250 C44.999,25.250 44.999,16.995 44.999,16.995 C44.999,16.995 59.989,29.753 59.989,29.753 ZM41.250,38.750 C41.250,38.750 41.250,48.500 41.250,48.500 C41.250,48.500 27.001,48.500 27.001,48.500 C27.001,48.500 27.001,56.010 27.001,56.010 C27.001,56.010 12.011,43.253 12.011,43.253 C12.011,43.253 27.001,30.495 27.001,30.495 C27.001,30.495 27.001,38.750 27.001,38.750 C27.001,38.750 41.250,38.750 41.250,38.750 Z"/>
</svg>