<?xml version="1.0" encoding="utf-8"?>
<!-- Generator: Adobe Illustrator 18.0.0, SVG Export Plug-In . SVG Version: 6.00 Build 0)  -->
<!DOCTYPE svg PUBLIC "-//W3C//DTD SVG 1.1//EN" "http://www.w3.org/Graphics/SVG/1.1/DTD/svg11.dtd">
<svg version="1.1" id="图层_1" xmlns="http://www.w3.org/2000/svg" xmlns:xlink="http://www.w3.org/1999/xlink" x="0px" y="0px"
	 viewBox="0 0 47.99 48" enable-background="new 0 0 47.99 48" xml:space="preserve">
<g>
	<path fill="#2BB3EC" d="M40.922,41.068L40.922,41.068c-0.51,0.51-1.346,0.51-1.856,0L7.068,9.071c-0.51-0.51-0.51-1.346,0-1.856
		l0,0c0.51-0.51,1.346-0.51,1.856,0l31.997,31.997C41.432,39.722,41.432,40.558,40.922,41.068z"/>
	<path fill="#2BB3EC" d="M7.068,41.068L7.068,41.068c-0.51-0.51-0.51-1.346,0-1.856L39.065,7.215c0.51-0.51,1.346-0.51,1.856,0l0,0
		c0.51,0.51,0.51,1.346,0,1.856L8.925,41.068C8.414,41.579,7.579,41.579,7.068,41.068z"/>
</g>
</svg>
