<?xml version="1.0" encoding="utf-8"?>
<!-- Generator: Adobe Illustrator 18.0.0, SVG Export Plug-In . SVG Version: 6.00 Build 0)  -->
<!DOCTYPE svg PUBLIC "-//W3C//DTD SVG 1.1//EN" "http://www.w3.org/Graphics/SVG/1.1/DTD/svg11.dtd">
<svg version="1.1" id="图层_1" xmlns="http://www.w3.org/2000/svg" xmlns:xlink="http://www.w3.org/1999/xlink" x="0px" y="0px"
	 viewBox="0 0 47.99 48" enable-background="new 0 0 47.99 48" xml:space="preserve">
<path fill="#2BB3EC" d="M42.166,3.888l-11,10.962l0.038-6.212c0.015-0.515-0.401-0.97-0.917-0.955h-0.659
	c-0.515,0.015-0.947,0.318-0.955,0.841l-0.03,9.25c0,0.008-0.015,0.492-0.015,0.492c-0.008,0.258,0.053,0.492,0.22,0.659
	c0.167,0.167,0.394,0.273,0.659,0.265l0.47-0.008c0.008,0,0.015,0,0.023-0.008l9.174,0.038c0.515-0.015,0.947-0.44,0.955-0.962
	v-0.659c-0.076-0.614-0.561-0.97-1.076-0.955l-6.046-0.015l10.97-10.924c0.5-0.5,0.5-1.311,0-1.811
	C43.476,3.38,42.666,3.38,42.166,3.888L42.166,3.888z"/>
<path fill="#2BB3EC" d="M5.535,44.112l11.008-10.925l-0.038,6.182c-0.015,0.515,0.402,0.969,0.917,0.955h0.697
	c0.515-0.015,0.947-0.318,0.955-0.841l0.03-9.258c0-0.008,0.015-0.492,0.015-0.492c0.008-0.258-0.053-0.492-0.22-0.659
	c-0.167-0.167-0.394-0.273-0.659-0.265l-0.47,0.008c-0.008,0-0.015,0-0.023,0.008l-9.212-0.038
	c-0.515,0.015-0.947,0.439-0.955,0.962v0.659c0.076,0.614,0.561,0.97,1.076,0.955l6.046,0.015L3.74,42.301
	c-0.5,0.5-0.5,1.311,0,1.811C4.232,44.62,5.035,44.62,5.535,44.112L5.535,44.112z"/>
<path fill="#2BB3EC" d="M28.635,30.231l0.023,9.258c0.015,0.515,0.44,0.826,0.955,0.841h0.659c0.515,0.015,0.924-0.44,0.917-0.955
	l-0.038-6.212l11.008,10.955c0.5,0.5,1.311,0.5,1.811,0c0.5-0.5,0.5-1.311,0-1.811L33.007,31.383l6.046-0.015
	c0.515,0.015,0.992-0.349,1.076-0.955v-0.659c-0.015-0.515-0.44-0.947-0.955-0.962l-9.174,0.038c-0.008,0-0.015-0.008-0.023-0.008
	l-0.47-0.008c-0.257-0.008-0.492,0.091-0.659,0.265c-0.167,0.167-0.227,0.401-0.22,0.659C28.628,29.739,28.635,30.224,28.635,30.231
	L28.635,30.231L28.635,30.231z"/>
<path fill="#2BB3EC" d="M16.509,14.818L5.578,3.856c-0.5-0.5-1.311-0.5-1.811,0c-0.5,0.5-0.5,1.311,0,1.81l10.932,11l-6.182-0.03
	c-0.515-0.008-0.97,0.401-0.955,0.917v0.697c0.015,0.515,0.326,0.947,0.841,0.955l9.258,0.023c0.008,0,0.492,0.015,0.492,0.015
	c0.258,0.008,0.492-0.053,0.659-0.22c0.174-0.167,0.273-0.401,0.265-0.659l-0.008-0.47c0-0.008-0.008-0.015-0.008-0.023l0.038-9.22
	c-0.015-0.515-0.447-0.939-0.962-0.955h-0.659c-0.606,0.083-0.97,0.561-0.955,1.076L16.509,14.818L16.509,14.818z"/>
</svg>
