<svg id="图层_1" data-name="图层 1" xmlns="http://www.w3.org/2000/svg" viewBox="0 0 28 28">
    <defs>
        <style>.cls-1{fill:#fff;}</style>
        <!--<style>.cls-1{fill:#040000;}</style>-->
    </defs>
    <title>未标题-1</title>
    <path class="cls-1"
          d="M14.37,24.53c-3.88-.15-7.79.68-11.6-.53A3.44,3.44,0,0,1,1.2,21.33c-.15-5.39-.11-10.79-.06-16.18A2.83,2.83,0,0,1,4.24,2C9,2,13.72,2,18.47,2A2.63,2.63,0,0,1,21.4,4.5c.19,2.42,0,4.86,0,7.28,0,.2-.2.39-.32.61-.23-.08-.53-.12-.53-.18-.1-2.17-1.62-2-3.14-2-4.33,0-8.66.05-13,0-1.55,0-2.24.44-2.19,2.14.11,4.37-.3,3.91,3.94,3.94,2,0,3.91,0,5.87,0,.54,0,1.09.11,1.63.16l.06.56a8.24,8.24,0,0,1-1.65.37c-2.55,0-5.1.1-7.65,0-1.74-.07-2.39.62-2.18,2.29.05.41,0,.83,0,1.24.07,1.83.65,2.46,2.49,2.5,2.67,0,5.34,0,8,0a8.15,8.15,0,0,1,1.67.38ZM11.16,9.11h0c2.31,0,4.62-.07,6.92,0,1.69.07,2.44-.55,2.24-2.26a7,7,0,0,1,0-1.24c.11-1.7-.67-2.54-2.39-2.54H4.61A2.06,2.06,0,0,0,2.28,5.53c0,.59,0,1.18,0,1.77-.07,1.27.49,1.84,1.78,1.81C6.43,9.08,8.8,9.11,11.16,9.11Z"/>
    <path class="cls-1"
          d="M26.09,26.63c-.26.07-.44.15-.47.12-1.35-1.79-3.14-1.54-5.11-1.46-3.18.13-5.54-2.9-5.16-6.11a5.52,5.52,0,0,1,6.45-4.63A5.4,5.4,0,0,1,26,21.4C25.16,24.18,25.16,24.18,26.09,26.63Zm-5.25-2.45a4.38,4.38,0,0,0,4.33-4.25,4.62,4.62,0,0,0-4.44-4.41A4.36,4.36,0,0,0,16.48,20,4.21,4.21,0,0,0,20.84,24.17Z"/>
    <path class="cls-1" d="M20.32,17.47,18.54,20.3C17.87,18.55,18.25,17.92,20.32,17.47Z"/>
</svg>