<?xml version="1.0" encoding="utf-8"?>
<!-- Generator: Adobe Illustrator 17.0.0, SVG Export Plug-In . SVG Version: 6.00 Build 0)  -->
<!DOCTYPE svg PUBLIC "-//W3C//DTD SVG 1.1//EN" "http://www.w3.org/Graphics/SVG/1.1/DTD/svg11.dtd">
<svg version="1.1" id="图层_1" xmlns="http://www.w3.org/2000/svg" xmlns:xlink="http://www.w3.org/1999/xlink" x="0px" y="0px"
	 width="64px" height="64px" viewBox="0 0 64 64" enable-background="new 0 0 64 64" xml:space="preserve">
<g>
	<g id="形状_1_拷贝_2_">
		<g>
			<path fill-rule="evenodd" clip-rule="evenodd" fill="#CAE8F4" d="M32,56.832H8.12c-2.731,0-4.944-2.246-4.944-5.016V8.677
				c0-2.77,2.214-5.016,4.944-5.016h21.911L46.684,20.76v10.029h2.175V19.985L30.541,1.49H6.439C3.435,1.49,1,3.919,1,6.916v46.661
				c0,2.996,2.435,5.426,5.439,5.426H32V56.832z"/>
		</g>
	</g>
	<g id="圆角矩形_2_6_">
		<g>
			<path fill="#CAE8F4" d="M29.825,3.661l16.86,17.362H34.175c-3.004,0-4.351-0.801-4.351-3.798V3.661 M29.824,1.2
				c-0.311,0-0.625,0.059-0.925,0.181c-0.928,0.377-1.536,1.278-1.536,2.28v13.564c0,6.259,5.127,6.259,6.812,6.259h12.509
				c0.989,0,1.882-0.592,2.267-1.503c0.385-0.911,0.188-1.963-0.501-2.673L31.59,1.946C31.117,1.459,30.477,1.2,29.824,1.2
				L29.824,1.2z"/>
		</g>
	</g>
	<g id="椭圆_1_拷贝_2_">
		<g>
			<path fill-rule="evenodd" clip-rule="evenodd" fill="#C7E7F3" d="M11.713,19.938h9.574c0.51,0,0.923-0.413,0.923-0.922V18.69
				c0-0.509-0.413-0.922-0.923-0.922h-9.574c-0.51,0-0.923,0.413-0.923,0.922v0.326C10.789,19.525,11.203,19.938,11.713,19.938z
				 M11.713,25.906h9.574c0.51,0,0.923-0.413,0.923-0.922v-0.326c0-0.509-0.413-0.922-0.923-0.922h-9.574
				c-0.51,0-0.923,0.413-0.923,0.922v0.326C10.789,25.493,11.203,25.906,11.713,25.906z M11.713,31.874H24.55
				c0.51,0,0.923-0.413,0.923-0.922v-0.326c0-0.509-0.413-0.922-0.923-0.922H11.713c-0.51,0-0.923,0.413-0.923,0.922v0.326
				C10.789,31.461,11.203,31.874,11.713,31.874z M25.474,36.92v-0.326c0-0.509-0.413-0.922-0.923-0.922H11.713
				c-0.51,0-0.923,0.413-0.923,0.922v0.326c0,0.509,0.413,0.922,0.923,0.922H24.55C25.06,37.842,25.474,37.429,25.474,36.92z
				 M29.989,41.64H22.59c-0.51,0-0.923,0.413-0.923,0.922v0.326c0,0.509,0.413,0.922,0.923,0.922h7.399
				c0.51,0,0.923-0.413,0.923-0.922v-0.326C30.912,42.053,30.499,41.64,29.989,41.64z M29.989,47.609H22.59
				c-0.51,0-0.923,0.413-0.923,0.922v0.326c0,0.509,0.413,0.922,0.923,0.922h7.399c0.51,0,0.923-0.413,0.923-0.922v-0.326
				C30.912,48.021,30.499,47.609,29.989,47.609z"/>
		</g>
	</g>
	<g id="椭圆_1_2_">
		<g>
			<path fill-rule="evenodd" clip-rule="evenodd" fill="#E89022" d="M21.287,9.629h-9.574c-0.51,0-0.923,0.413-0.923,0.922v2.496
				c0,0.509,0.413,0.922,0.923,0.922h9.574c0.51,0,0.923-0.413,0.923-0.922v-2.496C22.211,10.042,21.797,9.629,21.287,9.629z
				 M30.096,29.704h-1.088c-0.451,0-0.816,0.364-0.816,0.814v6.511c0,0.45,0.365,0.814,0.816,0.814h1.088
				c0.451,0,0.816-0.364,0.816-0.814v-6.511C30.912,30.068,30.547,29.704,30.096,29.704z M18.024,41.64h-6.311
				c-0.51,0-0.923,0.413-0.923,0.922v6.294c0,0.509,0.413,0.922,0.923,0.922h6.311c0.51,0,0.923-0.413,0.923-0.922v-6.294
				C18.947,42.053,18.534,41.64,18.024,41.64z"/>
		</g>
	</g>
	<g id="圆角矩形_5">
		<g>
			<path fill-rule="evenodd" clip-rule="evenodd" fill="#E89022" d="M39.614,43.521c0,1.358,1.102,2.46,2.462,2.46h12.479
				c1.36,0,2.462-1.101,2.462-2.46V37.3H39.614V43.521z M51.035,40.085c0-0.34,0.276-0.615,0.616-0.615h2.032
				c0.34,0,0.616,0.275,0.616,0.615v3.111c0,0.34-0.276,0.615-0.616,0.615h-2.032c-0.34,0-0.616-0.275-0.616-0.615V40.085z
				 M57.018,32.417H36.895c-1.802,0-3.263,1.458-3.263,3.255v23.873c0,1.798,1.461,3.255,3.263,3.255h22.842
				c1.802,0,3.263-1.457,3.263-3.255v-21.16L57.018,32.417z M61.368,59.002c0,1.199-0.974,2.17-2.175,2.17H37.439
				c-1.201,0-2.175-0.972-2.175-2.17V36.215c0-1.199,0.974-2.17,2.175-2.17h19.035l4.895,4.883V59.002z M40.086,55.747h-2.032
				c-0.34,0-0.616,0.275-0.616,0.615v2.026c0,0.34,0.276,0.615,0.616,0.615h2.032c0.34,0,0.616-0.275,0.616-0.615v-2.026
				C40.702,56.022,40.426,55.747,40.086,55.747z"/>
		</g>
	</g>
</g>
</svg>
