<?xml version="1.0" encoding="utf-8"?>
<!-- Generator: Adobe Illustrator 18.0.0, SVG Export Plug-In . SVG Version: 6.00 Build 0)  -->
<!DOCTYPE svg PUBLIC "-//W3C//DTD SVG 1.1//EN" "http://www.w3.org/Graphics/SVG/1.1/DTD/svg11.dtd">
<svg version="1.1" id="图层_1" xmlns="http://www.w3.org/2000/svg" xmlns:xlink="http://www.w3.org/1999/xlink" x="0px" y="0px"
	 viewBox="0 0 32 32" enable-background="new 0 0 32 32" xml:space="preserve">
<g>
	<g>
		<polygon fill="#E0E7E7" points="10.958,22.033 9.985,26.5 14.557,26.48 		"/>
		<path fill="#E0E7E7" d="M26.423,16.854l1.83-1.481c0.326-0.264,0.377-0.746,0.113-1.072l-2.629-3.249
			c-0.264-0.326-0.746-0.377-1.072-0.113l-1.83,1.481L26.423,16.854z"/>
		<path fill="#E0E7E7" d="M22.061,13.047l-10.374,8.396l3.588,4.434l10.374-8.396L22.061,13.047z M14.054,21.3
			c-0.173,0.14-0.428,0.113-0.568-0.06c-0.14-0.173-0.113-0.428,0.06-0.568l7.375-5.968c0.173-0.14,0.428-0.113,0.568,0.06
			s0.113,0.428-0.06,0.568L14.054,21.3z"/>
	</g>
	<g>
		<path fill="#E0E7E7" d="M13.498,18.292l-1.61-1.199c0.267-0.569,0.428-1.198,0.428-1.868c0-0.573-0.117-1.117-0.316-1.619
			l6.986-5.496c0.455,0.285,0.989,0.457,1.565,0.457c1.635,0,2.961-1.326,2.961-2.961s-1.326-2.961-2.961-2.961
			s-2.961,1.326-2.961,2.961c0,0.326,0.066,0.635,0.163,0.929l-6.9,5.429c-0.784-0.71-1.813-1.154-2.954-1.154
			c-2.439,0-4.416,1.977-4.416,4.416c0,2.439,1.977,4.416,4.416,4.416c1.043,0,1.989-0.377,2.745-0.982l1.127,0.948L13.498,18.292z"
			/>
		<path fill="#E0E7E7" d="M22.042,23.37c-0.587,0-1.13,0.175-1.592,0.467l-0.534-0.421l-1.311,1.513l0.613,0.483
			c-0.101,0.301-0.169,0.617-0.169,0.952c0,1.653,1.34,2.993,2.993,2.993c1.653,0,2.993-1.34,2.993-2.993
			C25.036,24.71,23.696,23.37,22.042,23.37z"/>
	</g>
	<path fill="#E0E7E7" d="M12.353,19.954l1.594-1.29l-2.01-1.583c0.264-0.567,0.422-1.194,0.422-1.861
		c0-0.552-0.113-1.074-0.297-1.561L19.19,8.05c0.422,0.241,0.904,0.389,1.425,0.389c1.6,0,2.898-1.297,2.898-2.898
		c0-1.6-1.297-2.898-2.898-2.898c-1.6,0-2.898,1.297-2.898,2.898c0,0.345,0.071,0.672,0.182,0.979l-6.953,5.47
		c-0.792-0.74-1.848-1.202-3.017-1.202c-2.447,0-4.431,1.984-4.431,4.431s1.984,4.431,4.431,4.431c1.055,0,2.01-0.384,2.771-0.999
		L12.353,19.954z"/>
	<path fill="#E0E7E7" d="M22.106,23.368c-0.586,0-1.129,0.176-1.586,0.472l-0.788-0.621l-1.594,1.29l1.181,0.93
		c-0.084,0.273-0.142,0.557-0.142,0.858c0,1.618,1.312,2.93,2.93,2.93c1.618,0,2.93-1.312,2.93-2.93S23.724,23.368,22.106,23.368z"
		/>
</g>
</svg>
