<?xml version="1.0" encoding="utf-8"?>
<!-- Generator: Adobe Illustrator 18.0.0, SVG Export Plug-In . SVG Version: 6.00 Build 0)  -->
<!DOCTYPE svg PUBLIC "-//W3C//DTD SVG 1.1//EN" "http://www.w3.org/Graphics/SVG/1.1/DTD/svg11.dtd">
<svg version="1.1" id="图层_1" xmlns="http://www.w3.org/2000/svg" xmlns:xlink="http://www.w3.org/1999/xlink" x="0px" y="0px"
	 viewBox="0 0 128.008 128" enable-background="new 0 0 128.008 128" xml:space="preserve">
<g>
	<path fill="#5EC3DF" d="M102.755,61.415c-1.039,0-2.021,0.237-2.904,0.65L66.281,34.413c0.792-1.494,1.006-3.293,0.445-5.029
		c-1.1-3.407-4.755-5.277-8.162-4.176c-3.008,0.972-4.815,3.936-4.439,6.962L33.07,38.971c-1.558-2.392-4.572-3.55-7.418-2.631
		c-3.407,1.101-5.277,4.755-4.176,8.162c0.71,2.197,2.484,3.749,4.567,4.283L24.14,89.737c-3.265,0.533-5.759,3.359-5.759,6.775
		c0,3.796,3.077,6.873,6.873,6.873c3.695,0,6.7-2.917,6.858-6.573l31.663-6.556c0.932,1.745,2.749,2.946,4.866,2.946
		c3.058,0,5.538-2.479,5.538-5.538c0-0.414-0.053-0.814-0.139-1.203l23.429-13.785c1.26,1.517,3.161,2.484,5.288,2.484
		c3.795,0,6.873-3.077,6.873-6.873S106.55,61.415,102.755,61.415L102.755,61.415z M59.513,65.576
		c-0.175-3.539-2.355-6.547-5.436-7.903l6.022-19.833c0.806,0.058,1.635-0.031,2.451-0.295c0.833-0.269,1.572-0.692,2.2-1.225
		l33.043,27.22c-0.85,0.888-1.464,2.002-1.742,3.245L59.513,65.576L59.513,65.576z M28.643,90.537
		c-0.631-0.359-1.321-0.623-2.057-0.767l1.897-40.838c0.385-0.051,0.771-0.132,1.154-0.255c0.582-0.188,1.114-0.455,1.599-0.778
		l11.829,12.713c-1.121,1.516-1.792,3.386-1.792,5.416c0,2.339,0.886,4.465,2.332,6.08L28.643,90.537L28.643,90.537z M57.735,37.207
		l-6.011,19.798c-0.432-0.063-0.87-0.106-1.319-0.106c-2.129,0-4.082,0.734-5.635,1.956L32.979,46.183
		c0.968-1.408,1.375-3.18,1.021-4.942l20.878-6.744C55.537,35.7,56.548,36.632,57.735,37.207L57.735,37.207z M31.786,94.382
		c-0.275-0.843-0.707-1.615-1.264-2.28l14.942-18.4c1.425,0.92,3.119,1.459,4.941,1.459c1.661,0,3.214-0.451,4.555-1.225
		l9.185,10.516c-0.65,0.908-1.043,2.012-1.043,3.214c0,0.079,0.02,0.151,0.023,0.228L31.786,94.382L31.786,94.382z M72.97,84.252
		c-1.014-1.285-2.567-2.125-4.331-2.125c-0.969,0-1.866,0.271-2.659,0.709l-9.078-10.394c1.182-1.198,2.032-2.722,2.41-4.425
		l36.641,1.212c0.062,0.455,0.169,0.895,0.315,1.316L72.97,84.252L72.97,84.252z M72.97,84.252"/>
</g>
</svg>
