<?xml version="1.0" encoding="utf-8"?>
<!-- Generator: Adobe Illustrator 18.0.0, SVG Export Plug-In . SVG Version: 6.00 Build 0)  -->
<!DOCTYPE svg PUBLIC "-//W3C//DTD SVG 1.1//EN" "http://www.w3.org/Graphics/SVG/1.1/DTD/svg11.dtd">
<svg version="1.1" id="图层_1" xmlns="http://www.w3.org/2000/svg" xmlns:xlink="http://www.w3.org/1999/xlink" x="0px" y="0px"
	 viewBox="0 0 128.008 128" enable-background="new 0 0 128.008 128" xml:space="preserve">
<g>
	<path fill="#5EC3DF" d="M77.911,45.399c0.266-0.533,0.266-1.599,0-2.399c-0.533-1.066-1.866-1.333-3.732-1.333h-0.266H42.725
		h-1.333c-2.666,0-3.998,1.333-3.998,2.665c0,0.8,0.533,1.599,1.333,2.132c0.8,0.267,1.599,0.8,2.666,0.8h32.787
		C76.045,47.265,77.378,46.465,77.911,45.399L77.911,45.399L77.911,45.399L77.911,45.399z M37.394,55.528
		c0,0.8,0.533,1.866,1.333,2.132c0.8,0.266,1.599,0.533,2.666,0.533h25.324l0.533-0.533l2.399-2.399l3.199-2.666H41.392
		C38.726,52.862,37.394,54.195,37.394,55.528L37.394,55.528L37.394,55.528L37.394,55.528z M92.039,53.129
		c0.8,0.267,1.599,0.8,2.399,1.333l2.399,1.333V31.004c0-4.531-3.998-5.864-6.664-5.864l0,0h-59.71l0,0
		c-2.666,0-7.731,1.599-7.731,5.864v65.575c0,4.265,5.065,5.864,7.731,5.864l0,0h59.71c4.798,0,6.664-3.465,6.664-5.864v-5.865
		l-3.465-2.932l-2.399,1.066v7.731c0,0,0,0.266-0.266,0.533c-0.266,0.266-0.266,0-0.8,0H30.463c-0.267,0-1.866,0.533-1.866-0.533
		V31.004c0-0.267,0.8-0.267,1.866-0.267h59.71c0.267,0,1.066-0.533,1.066,0.267v21.858L92.039,53.129L92.039,53.129L92.039,53.129
		L92.039,53.129z M105.101,86.983l-10.129-9.596c1.599-2.399,2.399-5.065,2.399-7.997c0-8.53-7.197-15.194-16.261-15.194
		S64.85,61.126,64.85,69.39c0,8.53,7.197,15.194,16.26,15.194c3.998,0,7.464-1.333,10.129-3.465l9.863,9.33
		c0.533,0.533,1.333,0.533,1.866,0l1.866-1.866C105.367,88.316,105.367,87.516,105.101,86.983L105.101,86.983L105.101,86.983
		L105.101,86.983L105.101,86.983z M69.381,69.656c0-6.131,5.331-11.196,11.729-11.196c6.398,0,11.729,5.065,11.729,11.196
		S87.508,80.852,81.11,80.852C74.446,80.585,69.381,75.787,69.381,69.656L69.381,69.656L69.381,69.656L69.381,69.656L69.381,69.656z
		 M69.381,69.656"/>
</g>
</svg>
