<?xml version="1.0" encoding="utf-8"?>
<!-- Generator: Adobe Illustrator 18.0.0, SVG Export Plug-In . SVG Version: 6.00 Build 0)  -->
<!DOCTYPE svg PUBLIC "-//W3C//DTD SVG 1.1//EN" "http://www.w3.org/Graphics/SVG/1.1/DTD/svg11.dtd">
<svg version="1.1" id="图层_1" xmlns="http://www.w3.org/2000/svg" xmlns:xlink="http://www.w3.org/1999/xlink" x="0px" y="0px"
	 viewBox="0 0 128.008 128" enable-background="new 0 0 128.008 128" xml:space="preserve">
<g>
	<path fill="#5EC3DF" d="M87.145,42.431h10.68c0.983,0,1.78-0.796,1.78-1.78c0-0.984-0.797-1.78-1.78-1.78h-6.383l11.202-11.202
		c0.322-0.321,0.521-0.767,0.521-1.258c0-0.982-0.797-1.78-1.78-1.78c-0.491,0-0.936,0.2-1.258,0.522L88.925,36.354v-6.383
		c0-0.984-0.797-1.78-1.78-1.78c-0.982,0-1.78,0.796-1.78,1.78v10.68C85.365,41.635,86.162,42.431,87.145,42.431 M36.567,38.871
		h-6.383c-0.982,0-1.78,0.796-1.78,1.78c0,0.984,0.798,1.78,1.78,1.78h10.68c0.983,0,1.78-0.796,1.78-1.78v-10.68
		c0-0.984-0.797-1.78-1.78-1.78c-0.982,0-1.78,0.796-1.78,1.78v6.383L27.882,25.153c-0.322-0.322-0.767-0.522-1.258-0.522
		c-0.982,0-1.78,0.798-1.78,1.78c0,0.492,0.2,0.937,0.522,1.258L36.567,38.871L36.567,38.871z M64.004,42.431
		c-11.798,0-21.36,9.562-21.36,21.36c0,11.796,9.562,21.36,21.36,21.36c11.796,0,21.36-9.564,21.36-21.36
		C85.365,51.994,75.8,42.431,64.004,42.431 M55.535,48.128c-0.522,0.826-0.994,1.74-1.428,2.707
		c-0.471-0.259-0.911-0.535-1.317-0.827C53.648,49.306,54.552,48.66,55.535,48.128 M50.306,52.469
		c0.772,0.605,1.651,1.147,2.593,1.641c-0.716,2.395-1.184,5.041-1.325,7.857h-5.247C46.693,58.372,48.133,55.107,50.306,52.469
		 M46.327,65.621h5.247c0.141,2.813,0.608,5.458,1.325,7.854c-0.942,0.494-1.821,1.036-2.593,1.641
		C48.133,72.476,46.695,69.212,46.327,65.621 M52.79,77.576c0.406-0.292,0.846-0.566,1.317-0.825
		c0.434,0.966,0.906,1.879,1.428,2.707C54.552,78.924,53.648,78.277,52.79,77.576 M62.178,81.215
		c-1.931-0.81-3.616-2.901-4.854-5.786c1.485-0.447,3.113-0.758,4.854-0.883V81.215L62.178,81.215z M62.178,70.988
		c-2.127,0.143-4.129,0.532-5.967,1.118c-0.519-1.98-0.885-4.153-1.004-6.486h6.971V70.988L62.178,70.988z M62.178,61.967h-6.971
		c0.119-2.336,0.484-4.509,1.004-6.489c1.837,0.586,3.84,0.975,5.966,1.118V61.967L62.178,61.967z M62.178,53.04
		c-1.741-0.127-3.37-0.44-4.853-0.885c1.237-2.886,2.921-4.977,4.853-5.787V53.04L62.178,53.04z M81.684,61.967h-5.25
		c-0.14-2.816-0.609-5.462-1.324-7.857c0.941-0.494,1.823-1.036,2.594-1.641C79.875,55.107,81.315,58.372,81.684,61.967
		 M75.219,50.007c-0.406,0.292-0.846,0.568-1.318,0.827c-0.434-0.966-0.906-1.881-1.427-2.707
		C73.456,48.66,74.36,49.306,75.219,50.007 M65.832,46.369c1.932,0.81,3.614,2.901,4.851,5.787
		c-1.483,0.445-3.112,0.758-4.851,0.885V46.369L65.832,46.369z M65.832,56.595c2.126-0.142,4.13-0.532,5.963-1.118
		c0.522,1.98,0.885,4.153,1.006,6.489h-6.969V56.595L65.832,56.595z M65.832,81.215v-6.67c1.739,0.125,3.368,0.437,4.851,0.883
		C69.446,78.313,67.764,80.405,65.832,81.215 M65.832,70.988v-5.368h6.969c-0.121,2.333-0.484,4.506-1.006,6.486
		C69.962,71.52,67.958,71.131,65.832,70.988 M72.474,79.458c0.521-0.828,0.992-1.74,1.427-2.707
		c0.472,0.259,0.912,0.534,1.318,0.825C74.36,78.279,73.456,78.924,72.474,79.458 M77.704,75.115
		c-0.771-0.604-1.652-1.147-2.594-1.641c0.716-2.396,1.184-5.041,1.324-7.854h5.25C81.315,69.212,79.875,72.476,77.704,75.115
		 M40.864,85.152h-10.68c-0.982,0-1.78,0.796-1.78,1.78c0,0.984,0.798,1.78,1.78,1.78h6.383L25.365,99.914
		c-0.322,0.323-0.522,0.768-0.522,1.258c0,0.984,0.798,1.78,1.78,1.78c0.491,0,0.936-0.198,1.258-0.521l11.202-11.202v6.383
		c0,0.984,0.798,1.78,1.78,1.78c0.983,0,1.78-0.796,1.78-1.78v-10.68C42.644,85.949,41.847,85.152,40.864,85.152 M91.442,88.712
		h6.383c0.983,0,1.78-0.796,1.78-1.78c0-0.984-0.797-1.78-1.78-1.78h-10.68c-0.982,0-1.78,0.796-1.78,1.78v10.68
		c0,0.984,0.798,1.78,1.78,1.78c0.983,0,1.78-0.796,1.78-1.78v-6.383l11.202,11.202c0.322,0.323,0.767,0.521,1.258,0.521
		c0.983,0,1.78-0.796,1.78-1.78c0-0.49-0.199-0.935-0.521-1.258L91.442,88.712L91.442,88.712z M91.442,88.712"/>
</g>
</svg>
