<?xml version="1.0" encoding="utf-8"?>
<!-- Generator: Adobe Illustrator 18.0.0, SVG Export Plug-In . SVG Version: 6.00 Build 0)  -->
<!DOCTYPE svg PUBLIC "-//W3C//DTD SVG 1.1//EN" "http://www.w3.org/Graphics/SVG/1.1/DTD/svg11.dtd">
<svg version="1.1" id="图层_1" xmlns="http://www.w3.org/2000/svg" xmlns:xlink="http://www.w3.org/1999/xlink" x="0px" y="0px"
	 viewBox="0 0 128.008 128" enable-background="new 0 0 128.008 128" xml:space="preserve">
<g>
	<path fill="#5EC3DF" d="M76.879,30.267v9.201c0,2.761,2.239,5,5,5h20.75c1.084,0,2,0.916,2,2v49.348c0,1.084-0.916,2-2,2h-77.25
		c-1.084,0-2-0.916-2-2V46.468c0-1.084,0.916-2,2-2h20.75c2.761,0,5-2.239,5-5v-9.201H76.879 M76.879,25.267h-25.75
		c-2.75,0-5,2.25-5,5v9.201h-20.75c-3.85,0-7,3.15-7,7v49.348c0,3.85,3.15,7,7,7h77.25c3.85,0,7-3.15,7-7V46.468c0-3.85-3.15-7-7-7
		h-20.75v-9.201C81.879,27.517,79.629,25.267,76.879,25.267L76.879,25.267z"/>
	<g>
		<path fill="#5EC3DF" d="M36.379,35.017h-13c-1.381,0-2.5-1.119-2.5-2.5c0-1.381,1.119-2.5,2.5-2.5h13c1.381,0,2.5,1.119,2.5,2.5
			C38.879,33.898,37.76,35.017,36.379,35.017z"/>
	</g>
	<path fill="#5EC3DF" d="M64.879,53.767c9.19,0,16.667,7.477,16.667,16.667c0,9.19-7.477,16.667-16.667,16.667
		s-16.667-7.477-16.667-16.667C48.212,61.244,55.689,53.767,64.879,53.767 M64.879,49.767c-11.414,0-20.667,9.253-20.667,20.667
		c0,11.414,9.253,20.667,20.667,20.667c11.414,0,20.667-9.253,20.667-20.667C85.546,59.02,76.293,49.767,64.879,49.767
		L64.879,49.767z"/>
	<g>
		<path fill="#5EC3DF" d="M60.99,83.072c-0.219,0-0.441-0.037-0.66-0.113c-5.204-1.818-8.7-6.747-8.7-12.263c0-1.104,0.896-2,2-2
			s2,0.896,2,2c0,3.817,2.419,7.229,6.021,8.487c1.042,0.364,1.593,1.505,1.228,2.548C62.589,82.555,61.816,83.072,60.99,83.072z"/>
	</g>
	<circle fill="#5EC3DF" cx="68.614" cy="82.158" r="2.141"/>
</g>
</svg>
