<svg 
 xmlns="http://www.w3.org/2000/svg"
 xmlns:xlink="http://www.w3.org/1999/xlink"
 width="42px" height="36px"  viewBox="0 0 42 36">
<path fill-rule="evenodd"  fill="rgb(0, 187, 156)"
 d="M36.721,30.701 C29.726,37.724 18.384,37.724 11.388,30.701 C11.260,30.571 11.150,30.431 11.026,30.299 C11.026,30.299 11.026,30.337 11.026,30.337 C11.026,30.337 0.893,20.164 0.893,20.164 C-0.306,18.960 -0.306,17.008 0.893,15.804 C0.893,15.804 11.026,5.631 11.026,5.631 C11.026,5.631 11.026,5.669 11.026,5.669 C11.150,5.537 11.260,5.397 11.388,5.267 C18.384,-1.756 29.726,-1.756 36.721,5.267 C43.717,12.291 43.717,23.677 36.721,30.701 Z"/>
<path fill-rule="evenodd"  fill="rgb(1, 2, 3)"
 d="M15.769,10.113 C16.079,9.803 16.679,9.900 17.108,10.332 C17.108,10.332 31.116,24.394 31.116,24.394 C31.545,24.826 31.643,25.428 31.333,25.739 C31.023,26.049 30.424,25.952 29.994,25.520 C29.994,25.520 15.987,11.458 15.987,11.458 C15.557,11.026 15.460,10.424 15.769,10.113 Z"/>
<path fill-rule="evenodd"  fill="rgb(1, 2, 3)"
 d="M31.537,10.474 C31.856,10.794 31.756,11.412 31.314,11.856 C31.314,11.856 16.913,26.314 16.913,26.314 C16.471,26.758 15.854,26.858 15.536,26.538 C15.218,26.219 15.318,25.600 15.760,25.156 C15.760,25.156 30.161,10.698 30.161,10.698 C30.602,10.255 31.219,10.154 31.537,10.474 Z"/>
</svg>