<svg 
 xmlns="http://www.w3.org/2000/svg"
 xmlns:xlink="http://www.w3.org/1999/xlink"
 width="158.5px" height="158.5px" viewBox="0 0 158.5 158.5">
<path fill-rule="evenodd"  fill="rgb(36, 154, 179)"
 d="M149.051,79.388 C149.051,79.388 149.051,77.623 149.051,77.623 C149.051,77.623 156.992,77.623 156.992,77.623 C156.992,77.623 156.992,79.388 156.992,79.388 C156.992,79.388 149.051,79.388 149.051,79.388 ZM148.708,71.493 C148.708,71.493 156.619,70.802 156.619,70.802 C156.619,70.802 156.772,72.561 156.772,72.561 C156.772,72.561 148.861,73.251 148.861,73.251 C148.861,73.251 148.708,71.493 148.708,71.493 ZM147.836,65.431 C147.836,65.431 155.657,64.057 155.657,64.057 C155.657,64.057 155.963,65.795 155.963,65.795 C155.963,65.795 148.141,67.169 148.141,67.169 C148.141,67.169 147.836,65.431 147.836,65.431 ZM146.419,59.390 C146.419,59.390 154.089,57.335 154.089,57.335 C154.089,57.335 154.546,59.039 154.546,59.039 C154.546,59.039 146.875,61.095 146.875,61.095 C146.875,61.095 146.419,59.390 146.419,59.390 ZM144.501,53.558 C144.501,53.558 151.964,50.843 151.964,50.843 C151.964,50.843 152.567,52.502 152.567,52.502 C152.567,52.502 145.104,55.216 145.104,55.216 C145.104,55.216 144.501,53.558 144.501,53.558 ZM142.090,47.928 C142.090,47.928 149.289,44.576 149.289,44.576 C149.289,44.576 150.034,46.176 150.034,46.176 C150.034,46.176 142.835,49.528 142.835,49.528 C142.835,49.528 142.090,47.928 142.090,47.928 ZM139.158,42.460 C139.158,42.460 146.035,38.489 146.035,38.489 C146.035,38.489 146.917,40.017 146.917,40.017 C146.917,40.017 140.040,43.988 140.040,43.988 C140.040,43.988 139.158,42.460 139.158,42.460 ZM135.796,37.323 C135.796,37.323 142.302,32.769 142.302,32.769 C142.302,32.769 143.314,34.215 143.314,34.215 C143.314,34.215 136.808,38.769 136.808,38.769 C136.808,38.769 135.796,37.323 135.796,37.323 ZM132.011,32.509 C132.011,32.509 138.097,27.408 138.097,27.408 C138.097,27.408 139.231,28.761 139.231,28.761 C139.231,28.761 133.144,33.862 133.144,33.862 C133.144,33.862 132.011,32.509 132.011,32.509 ZM127.763,27.986 C127.763,27.986 133.378,22.370 133.378,22.370 C133.378,22.370 134.626,23.618 134.626,23.618 C134.626,23.618 129.011,29.234 129.011,29.234 C129.011,29.234 127.763,27.986 127.763,27.986 ZM123.187,23.894 C123.187,23.894 128.292,17.811 128.292,17.811 C128.292,17.811 129.644,18.946 129.644,18.946 C129.644,18.946 124.538,25.029 124.538,25.029 C124.538,25.029 123.187,23.894 123.187,23.894 ZM118.284,20.224 C118.284,20.224 122.844,13.722 122.844,13.722 C122.844,13.722 124.289,14.735 124.289,14.735 C124.289,14.735 119.729,21.238 119.729,21.238 C119.729,21.238 118.284,20.224 118.284,20.224 ZM113.011,16.955 C113.011,16.955 116.982,10.076 116.982,10.076 C116.982,10.076 118.510,10.959 118.510,10.959 C118.510,10.959 114.540,17.837 114.540,17.837 C114.540,17.837 113.011,16.955 113.011,16.955 ZM107.532,14.187 C107.532,14.187 110.889,6.990 110.889,6.990 C110.889,6.990 112.489,7.736 112.489,7.736 C112.489,7.736 109.131,14.934 109.131,14.934 C109.131,14.934 107.532,14.187 107.532,14.187 ZM112.425,149.307 C112.425,149.307 110.825,150.051 110.825,150.051 C110.825,150.051 107.474,142.851 107.474,142.851 C107.474,142.851 109.073,142.106 109.073,142.106 C109.073,142.106 112.425,149.307 112.425,149.307 ZM101.847,11.912 C101.847,11.912 104.568,4.450 104.568,4.450 C104.568,4.450 106.226,5.055 106.226,5.055 C106.226,5.055 103.505,12.517 103.505,12.517 C103.505,12.517 101.847,11.912 101.847,11.912 ZM106.159,151.982 C106.159,151.982 104.500,152.585 104.500,152.585 C104.500,152.585 101.786,145.121 101.786,145.121 C101.786,145.121 103.444,144.518 103.444,144.518 C103.444,144.518 106.159,151.982 106.159,151.982 ZM95.908,146.893 C95.908,146.893 97.612,146.437 97.612,146.437 C97.612,146.437 99.667,154.108 99.667,154.108 C99.667,154.108 97.963,154.565 97.963,154.565 C97.963,154.565 95.908,146.893 95.908,146.893 ZM95.908,10.118 C95.908,10.118 97.963,2.447 97.963,2.447 C97.963,2.447 99.667,2.903 99.667,2.903 C99.667,2.903 97.612,10.575 97.612,10.575 C97.612,10.575 95.908,10.118 95.908,10.118 ZM89.899,8.864 C89.899,8.864 91.279,1.042 91.279,1.042 C91.279,1.042 93.017,1.349 93.017,1.349 C93.017,1.349 91.636,9.171 91.636,9.171 C91.636,9.171 89.899,8.864 89.899,8.864 ZM92.947,155.676 C92.947,155.676 91.209,155.981 91.209,155.981 C91.209,155.981 89.836,148.158 89.836,148.158 C89.836,148.158 91.574,147.853 91.574,147.853 C91.574,147.853 92.947,155.676 92.947,155.676 ZM83.819,8.137 C83.819,8.137 84.516,0.226 84.516,0.226 C84.516,0.226 86.274,0.381 86.274,0.381 C86.274,0.381 85.577,8.293 85.577,8.293 C85.577,8.293 83.819,8.137 83.819,8.137 ZM86.202,156.638 C86.202,156.638 84.444,156.791 84.444,156.791 C84.444,156.791 83.754,148.879 83.754,148.879 C83.754,148.879 85.512,148.726 85.512,148.726 C85.512,148.726 86.202,156.638 86.202,156.638 ZM77.618,149.069 C77.618,149.069 79.382,149.069 79.382,149.069 C79.382,149.069 79.382,157.012 79.382,157.012 C79.382,157.012 77.618,157.012 77.618,157.012 C77.618,157.012 77.618,149.069 77.618,149.069 ZM77.618,-0.000 C77.618,-0.000 79.382,-0.000 79.382,-0.000 C79.382,-0.000 79.382,7.942 79.382,7.942 C79.382,7.942 77.618,7.942 77.618,7.942 C77.618,7.942 77.618,-0.000 77.618,-0.000 ZM70.798,0.374 C70.798,0.374 72.556,0.220 72.556,0.220 C72.556,0.220 73.247,8.133 73.247,8.133 C73.247,8.133 71.489,8.286 71.489,8.286 C71.489,8.286 70.798,0.374 70.798,0.374 ZM73.183,148.874 C73.183,148.874 72.486,156.786 72.486,156.786 C72.486,156.786 70.728,156.631 70.728,156.631 C70.728,156.631 71.425,148.719 71.425,148.719 C71.425,148.719 73.183,148.874 73.183,148.874 ZM64.055,1.336 C64.055,1.336 65.793,1.031 65.793,1.031 C65.793,1.031 67.166,8.853 67.166,8.853 C67.166,8.853 65.428,9.159 65.428,9.159 C65.428,9.159 64.055,1.336 64.055,1.336 ZM67.102,148.148 C67.102,148.148 65.722,155.969 65.722,155.969 C65.722,155.969 63.984,155.663 63.984,155.663 C63.984,155.663 65.365,147.841 65.365,147.841 C65.365,147.841 67.102,148.148 67.102,148.148 ZM57.332,154.108 C57.332,154.108 59.388,146.437 59.388,146.437 C59.388,146.437 61.092,146.893 61.092,146.893 C61.092,146.893 59.037,154.565 59.037,154.565 C59.037,154.565 57.332,154.108 57.332,154.108 ZM57.332,2.903 C57.332,2.903 59.037,2.447 59.037,2.447 C59.037,2.447 61.092,10.118 61.092,10.118 C61.092,10.118 59.388,10.575 59.388,10.575 C59.388,10.575 57.332,2.903 57.332,2.903 ZM50.842,5.030 C50.842,5.030 52.501,4.427 52.501,4.427 C52.501,4.427 55.215,11.891 55.215,11.891 C55.215,11.891 53.557,12.494 53.557,12.494 C53.557,12.494 50.842,5.030 50.842,5.030 ZM55.155,145.100 C55.155,145.100 52.434,152.561 52.434,152.561 C52.434,152.561 50.776,151.956 50.776,151.956 C50.776,151.956 53.497,144.495 53.497,144.495 C53.497,144.495 55.155,145.100 55.155,145.100 ZM44.577,7.705 C44.577,7.705 46.177,6.960 46.177,6.960 C46.177,6.960 49.528,14.161 49.528,14.161 C49.528,14.161 47.928,14.906 47.928,14.906 C47.928,14.906 44.577,7.705 44.577,7.705 ZM49.469,142.824 C49.469,142.824 46.111,150.022 46.111,150.022 C46.111,150.022 44.512,149.276 44.512,149.276 C44.512,149.276 47.870,142.078 47.870,142.078 C47.870,142.078 49.469,142.824 49.469,142.824 ZM38.490,146.053 C38.490,146.053 42.460,139.174 42.460,139.174 C42.460,139.174 43.989,140.057 43.989,140.057 C43.989,140.057 40.018,146.935 40.018,146.935 C40.018,146.935 38.490,146.053 38.490,146.053 ZM38.490,10.959 C38.490,10.959 40.018,10.076 40.018,10.076 C40.018,10.076 43.989,16.955 43.989,16.955 C43.989,16.955 42.460,17.837 42.460,17.837 C42.460,17.837 38.490,10.959 38.490,10.959 ZM37.324,21.200 C37.324,21.200 32.771,14.693 32.771,14.693 C32.771,14.693 34.217,13.681 34.217,13.681 C34.217,13.681 38.770,20.188 38.770,20.188 C38.770,20.188 37.324,21.200 37.324,21.200 ZM32.512,24.987 C32.512,24.987 27.412,18.899 27.412,18.899 C27.412,18.899 28.765,17.766 28.765,17.766 C28.765,17.766 33.865,23.853 33.865,23.853 C33.865,23.853 32.512,24.987 32.512,24.987 ZM27.989,29.234 C27.989,29.234 22.374,23.618 22.374,23.618 C22.374,23.618 23.622,22.370 23.622,22.370 C23.622,22.370 29.237,27.986 29.237,27.986 C29.237,27.986 27.989,29.234 27.989,29.234 ZM23.898,33.812 C23.898,33.812 17.816,28.705 17.816,28.705 C17.816,28.705 18.951,27.353 18.951,27.353 C18.951,27.353 25.033,32.460 25.033,32.460 C25.033,32.460 23.898,33.812 23.898,33.812 ZM20.230,38.715 C20.230,38.715 13.728,34.155 13.728,34.155 C13.728,34.155 14.741,32.710 14.741,32.710 C14.741,32.710 21.243,37.270 21.243,37.270 C21.243,37.270 20.230,38.715 20.230,38.715 ZM16.960,43.988 C16.960,43.988 10.083,40.017 10.083,40.017 C10.083,40.017 10.965,38.489 10.965,38.489 C10.965,38.489 17.842,42.460 17.842,42.460 C17.842,42.460 16.960,43.988 16.960,43.988 ZM14.193,49.469 C14.193,49.469 6.997,46.111 6.997,46.111 C6.997,46.111 7.743,44.512 7.743,44.512 C7.743,44.512 14.939,47.870 14.939,47.870 C14.939,47.870 14.193,49.469 14.193,49.469 ZM11.919,55.155 C11.919,55.155 4.459,52.434 4.459,52.434 C4.459,52.434 5.063,50.776 5.063,50.776 C5.063,50.776 12.523,53.497 12.523,53.497 C12.523,53.497 11.919,55.155 11.919,55.155 ZM10.124,61.095 C10.124,61.095 2.454,59.039 2.454,59.039 C2.454,59.039 2.911,57.335 2.911,57.335 C2.911,57.335 10.581,59.390 10.581,59.390 C10.581,59.390 10.124,61.095 10.124,61.095 ZM8.871,67.106 C8.871,67.106 1.051,65.725 1.051,65.725 C1.051,65.725 1.357,63.987 1.357,63.987 C1.357,63.987 9.177,65.368 9.177,65.368 C9.177,65.368 8.871,67.106 8.871,67.106 ZM8.145,73.187 C8.145,73.187 0.235,72.489 0.235,72.489 C0.235,72.489 0.390,70.731 0.390,70.731 C0.390,70.731 8.300,71.429 8.300,71.429 C8.300,71.429 8.145,73.187 8.145,73.187 ZM7.949,79.388 C7.949,79.388 0.008,79.388 0.008,79.388 C0.008,79.388 0.008,77.623 0.008,77.623 C0.008,77.623 7.949,77.623 7.949,77.623 C7.949,77.623 7.949,79.388 7.949,79.388 ZM8.293,85.519 C8.293,85.519 0.382,86.209 0.382,86.209 C0.382,86.209 0.229,84.451 0.229,84.451 C0.229,84.451 8.140,83.761 8.140,83.761 C8.140,83.761 8.293,85.519 8.293,85.519 ZM9.166,91.581 C9.166,91.581 1.345,92.955 1.345,92.955 C1.345,92.955 1.039,91.216 1.039,91.216 C1.039,91.216 8.861,89.842 8.861,89.842 C8.861,89.842 9.166,91.581 9.166,91.581 ZM10.581,97.621 C10.581,97.621 2.911,99.677 2.911,99.677 C2.911,99.677 2.454,97.972 2.454,97.972 C2.454,97.972 10.124,95.917 10.124,95.917 C10.124,95.917 10.581,97.621 10.581,97.621 ZM12.500,103.454 C12.500,103.454 5.037,106.169 5.037,106.169 C5.037,106.169 4.434,104.510 4.434,104.510 C4.434,104.510 11.897,101.795 11.897,101.795 C11.897,101.795 12.500,103.454 12.500,103.454 ZM14.912,109.084 C14.912,109.084 7.713,112.435 7.713,112.435 C7.713,112.435 6.968,110.835 6.968,110.835 C6.968,110.835 14.167,107.483 14.167,107.483 C14.167,107.483 14.912,109.084 14.912,109.084 ZM17.842,114.552 C17.842,114.552 10.965,118.523 10.965,118.523 C10.965,118.523 10.083,116.995 10.083,116.995 C10.083,116.995 16.960,113.023 16.960,113.023 C16.960,113.023 17.842,114.552 17.842,114.552 ZM21.205,119.689 C21.205,119.689 14.699,124.243 14.699,124.243 C14.699,124.243 13.687,122.797 13.687,122.797 C13.687,122.797 20.193,118.243 20.193,118.243 C20.193,118.243 21.205,119.689 21.205,119.689 ZM24.991,124.503 C24.991,124.503 18.905,129.604 18.905,129.604 C18.905,129.604 17.771,128.251 17.771,128.251 C17.771,128.251 23.858,123.150 23.858,123.150 C23.858,123.150 24.991,124.503 24.991,124.503 ZM29.237,129.026 C29.237,129.026 23.622,134.642 23.622,134.642 C23.622,134.642 22.374,133.394 22.374,133.394 C22.374,133.394 27.989,127.778 27.989,127.778 C27.989,127.778 29.237,129.026 29.237,129.026 ZM33.814,133.118 C33.814,133.118 28.709,139.201 28.709,139.201 C28.709,139.201 27.357,138.066 27.357,138.066 C27.357,138.066 32.463,131.983 32.463,131.983 C32.463,131.983 33.814,133.118 33.814,133.118 ZM38.717,136.787 C38.717,136.787 34.158,143.290 34.158,143.290 C34.158,143.290 32.713,142.277 32.713,142.277 C32.713,142.277 37.273,135.774 37.273,135.774 C37.273,135.774 38.717,136.787 38.717,136.787 ZM118.510,146.053 C118.510,146.053 116.982,146.935 116.982,146.935 C116.982,146.935 113.011,140.057 113.011,140.057 C113.011,140.057 114.540,139.174 114.540,139.174 C114.540,139.174 118.510,146.053 118.510,146.053 ZM119.677,135.811 C119.677,135.811 124.230,142.318 124.230,142.318 C124.230,142.318 122.784,143.331 122.784,143.331 C122.784,143.331 118.231,136.823 118.231,136.823 C118.231,136.823 119.677,135.811 119.677,135.811 ZM124.490,132.025 C124.490,132.025 129.590,138.112 129.590,138.112 C129.590,138.112 128.237,139.246 128.237,139.246 C128.237,139.246 123.137,133.158 123.137,133.158 C123.137,133.158 124.490,132.025 124.490,132.025 ZM129.011,127.778 C129.011,127.778 134.626,133.394 134.626,133.394 C134.626,133.394 133.378,134.642 133.378,134.642 C133.378,134.642 127.763,129.026 127.763,129.026 C127.763,129.026 129.011,127.778 129.011,127.778 ZM133.103,123.200 C133.103,123.200 139.185,128.306 139.185,128.306 C139.185,128.306 138.050,129.658 138.050,129.658 C138.050,129.658 131.968,124.552 131.968,124.552 C131.968,124.552 133.103,123.200 133.103,123.200 ZM136.772,118.296 C136.772,118.296 143.274,122.856 143.274,122.856 C143.274,122.856 142.261,124.301 142.261,124.301 C142.261,124.301 135.759,119.741 135.759,119.741 C135.759,119.741 136.772,118.296 136.772,118.296 ZM140.040,113.023 C140.040,113.023 146.917,116.995 146.917,116.995 C146.917,116.995 146.035,118.523 146.035,118.523 C146.035,118.523 139.158,114.552 139.158,114.552 C139.158,114.552 140.040,113.023 140.040,113.023 ZM142.808,107.542 C142.808,107.542 150.004,110.901 150.004,110.901 C150.004,110.901 149.258,112.500 149.258,112.500 C149.258,112.500 142.062,109.142 142.062,109.142 C142.062,109.142 142.808,107.542 142.808,107.542 ZM145.083,101.856 C145.083,101.856 152.543,104.578 152.543,104.578 C152.543,104.578 151.939,106.236 151.939,106.236 C151.939,106.236 144.478,103.514 144.478,103.514 C144.478,103.514 145.083,101.856 145.083,101.856 ZM146.875,95.917 C146.875,95.917 154.546,97.972 154.546,97.972 C154.546,97.972 154.089,99.677 154.089,99.677 C154.089,99.677 146.419,97.621 146.419,97.621 C146.419,97.621 146.875,95.917 146.875,95.917 ZM148.130,89.906 C148.130,89.906 155.950,91.287 155.950,91.287 C155.950,91.287 155.644,93.025 155.644,93.025 C155.644,93.025 147.824,91.644 147.824,91.644 C147.824,91.644 148.130,89.906 148.130,89.906 ZM148.857,83.825 C148.857,83.825 156.767,84.522 156.767,84.522 C156.767,84.522 156.612,86.280 156.612,86.280 C156.612,86.280 148.702,85.583 148.702,85.583 C148.702,85.583 148.857,83.825 148.857,83.825 Z"/>
<path fill-rule="evenodd"  fill="rgb(36, 154, 179)"
 d="M149.021,76.256 C149.021,76.256 148.943,74.493 148.943,74.493 C148.943,74.493 156.876,74.140 156.876,74.140 C156.876,74.140 156.954,75.903 156.954,75.903 C156.954,75.903 149.021,76.256 149.021,76.256 ZM148.328,68.383 C148.328,68.383 156.200,67.343 156.200,67.343 C156.200,67.343 156.432,69.092 156.432,69.092 C156.432,69.092 148.559,70.133 148.559,70.133 C148.559,70.133 148.328,68.383 148.328,68.383 ZM147.188,62.366 C147.188,62.366 154.940,60.646 154.940,60.646 C154.940,60.646 155.322,62.369 155.322,62.369 C155.322,62.369 147.570,64.089 147.570,64.089 C147.570,64.089 147.188,62.366 147.188,62.366 ZM145.504,56.394 C145.504,56.394 153.076,54.000 153.076,54.000 C153.076,54.000 153.607,55.683 153.607,55.683 C153.607,55.683 146.036,58.077 146.036,58.077 C146.036,58.077 145.504,56.394 145.504,56.394 ZM143.329,50.653 C143.329,50.653 150.664,47.609 150.664,47.609 C150.664,47.609 151.340,49.240 151.340,49.240 C151.340,49.240 144.005,52.283 144.005,52.283 C144.005,52.283 143.329,50.653 143.329,50.653 ZM140.671,45.135 C140.671,45.135 147.714,41.468 147.714,41.468 C147.714,41.468 148.529,43.033 148.529,43.033 C148.529,43.033 141.486,46.701 141.486,46.701 C141.486,46.701 140.671,45.135 140.671,45.135 ZM137.499,39.803 C137.499,39.803 144.193,35.530 144.193,35.530 C144.193,35.530 145.142,37.018 145.142,37.018 C145.142,37.018 138.448,41.291 138.448,41.291 C138.448,41.291 137.499,39.803 137.499,39.803 ZM133.912,34.820 C133.912,34.820 140.210,29.982 140.210,29.982 C140.210,29.982 141.285,31.381 141.285,31.381 C141.285,31.381 134.987,36.220 134.987,36.220 C134.987,36.220 133.912,34.820 133.912,34.820 ZM129.917,30.179 C129.917,30.179 135.771,24.813 135.771,24.813 C135.771,24.813 136.964,26.114 136.964,26.114 C136.964,26.114 131.109,31.480 131.109,31.480 C131.109,31.480 129.917,30.179 129.917,30.179 ZM125.473,25.849 C125.473,25.849 130.834,19.989 130.834,19.989 C130.834,19.989 132.136,21.181 132.136,21.181 C132.136,21.181 126.775,27.040 126.775,27.040 C126.775,27.040 125.473,25.849 125.473,25.849 ZM120.720,21.964 C120.720,21.964 125.550,15.661 125.550,15.661 C125.550,15.661 126.951,16.734 126.951,16.734 C126.951,16.734 122.120,23.038 122.120,23.038 C122.120,23.038 120.720,21.964 120.720,21.964 ZM115.659,18.516 C115.659,18.516 119.926,11.817 119.926,11.817 C119.926,11.817 121.414,12.765 121.414,12.765 C121.414,12.765 117.148,19.464 117.148,19.464 C117.148,19.464 115.659,18.516 115.659,18.516 ZM110.247,15.484 C110.247,15.484 113.908,8.436 113.908,8.436 C113.908,8.436 115.474,9.250 115.474,9.250 C115.474,9.250 111.812,16.297 111.812,16.297 C111.812,16.297 110.247,15.484 110.247,15.484 ZM104.650,12.962 C104.650,12.962 107.685,5.623 107.685,5.623 C107.685,5.623 109.315,6.297 109.315,6.297 C109.315,6.297 106.280,13.637 106.280,13.637 C106.280,13.637 104.650,12.962 104.650,12.962 ZM115.533,147.731 C115.533,147.731 113.968,148.546 113.968,148.546 C113.968,148.546 110.300,141.501 110.300,141.501 C110.300,141.501 111.866,140.686 111.866,140.686 C111.866,140.686 115.533,147.731 115.533,147.731 ZM98.870,10.941 C98.870,10.941 101.257,3.366 101.257,3.366 C101.257,3.366 102.940,3.897 102.940,3.897 C102.940,3.897 100.553,11.472 100.553,11.472 C100.553,11.472 98.870,10.941 98.870,10.941 ZM109.392,150.682 C109.392,150.682 107.762,151.358 107.762,151.358 C107.762,151.358 104.719,144.022 104.719,144.022 C104.719,144.022 106.349,143.346 106.349,143.346 C106.349,143.346 109.392,150.682 109.392,150.682 ZM98.925,146.053 C98.925,146.053 100.608,145.521 100.608,145.521 C100.608,145.521 103.001,153.094 103.001,153.094 C103.001,153.094 101.319,153.626 101.319,153.626 C101.319,153.626 98.925,146.053 98.925,146.053 ZM92.856,9.413 C92.856,9.413 94.569,1.658 94.569,1.658 C94.569,1.658 96.292,2.038 96.292,2.038 C96.292,2.038 94.579,9.794 94.579,9.794 C94.579,9.794 92.856,9.413 92.856,9.413 ZM86.798,8.426 C86.798,8.426 87.830,0.551 87.830,0.551 C87.830,0.551 89.580,0.781 89.580,0.781 C89.580,0.781 88.547,8.656 88.547,8.656 C88.547,8.656 86.798,8.426 86.798,8.426 ZM96.357,154.958 C96.357,154.958 94.635,155.340 94.635,155.340 C94.635,155.340 92.915,147.586 92.915,147.586 C92.915,147.586 94.638,147.204 94.638,147.204 C94.638,147.204 96.357,154.958 96.357,154.958 ZM80.692,7.971 C80.692,7.971 81.037,0.036 81.037,0.036 C81.037,0.036 82.800,0.113 82.800,0.113 C82.800,0.113 82.455,8.048 82.455,8.048 C82.455,8.048 80.692,7.971 80.692,7.971 ZM89.662,156.219 C89.662,156.219 87.913,156.450 87.913,156.450 C87.913,156.450 86.872,148.576 86.872,148.576 C86.872,148.576 88.621,148.345 88.621,148.345 C88.621,148.345 89.662,156.219 89.662,156.219 ZM80.750,149.039 C80.750,149.039 82.513,148.961 82.513,148.961 C82.513,148.961 82.865,156.895 82.865,156.895 C82.865,156.895 81.102,156.974 81.102,156.974 C81.102,156.974 80.750,149.039 80.750,149.039 ZM74.135,0.116 C74.135,0.116 75.898,0.038 75.898,0.038 C75.898,0.038 76.251,7.973 76.251,7.973 C76.251,7.973 74.488,8.051 74.488,8.051 C74.488,8.051 74.135,0.116 74.135,0.116 ZM67.339,0.793 C67.339,0.793 69.089,0.561 69.089,0.561 C69.089,0.561 70.130,8.435 70.130,8.435 C70.130,8.435 68.380,8.667 68.380,8.667 C68.380,8.667 67.339,0.793 67.339,0.793 ZM76.311,149.041 C76.311,149.041 75.965,156.976 75.965,156.976 C75.965,156.976 74.202,156.899 74.202,156.899 C74.202,156.899 74.548,148.964 74.548,148.964 C74.548,148.964 76.311,149.041 76.311,149.041 ZM60.645,2.053 C60.645,2.053 62.368,1.671 62.368,1.671 C62.368,1.671 64.087,9.425 64.087,9.425 C64.087,9.425 62.364,9.807 62.364,9.807 C62.364,9.807 60.645,2.053 60.645,2.053 ZM70.204,148.585 C70.204,148.585 69.172,156.460 69.172,156.460 C69.172,156.460 67.422,156.231 67.422,156.231 C67.422,156.231 68.454,148.356 68.454,148.356 C68.454,148.356 70.204,148.585 70.204,148.585 ZM60.708,154.973 C60.708,154.973 62.421,147.218 62.421,147.218 C62.421,147.218 64.144,147.599 64.144,147.599 C64.144,147.599 62.431,155.354 62.431,155.354 C62.431,155.354 60.708,154.973 60.708,154.973 ZM53.999,3.917 C53.999,3.917 55.682,3.385 55.682,3.385 C55.682,3.385 58.075,10.958 58.075,10.958 C58.075,10.958 56.393,11.490 56.393,11.490 C56.393,11.490 53.999,3.917 53.999,3.917 ZM47.610,6.330 C47.610,6.330 49.240,5.654 49.240,5.654 C49.240,5.654 52.282,12.990 52.282,12.990 C52.282,12.990 50.652,13.666 50.652,13.666 C50.652,13.666 47.610,6.330 47.610,6.330 ZM58.133,146.070 C58.133,146.070 55.746,153.645 55.746,153.645 C55.746,153.645 54.063,153.115 54.063,153.115 C54.063,153.115 56.450,145.540 56.450,145.540 C56.450,145.540 58.133,146.070 58.133,146.070 ZM41.470,9.281 C41.470,9.281 43.035,8.465 43.035,8.465 C43.035,8.465 46.702,15.510 46.702,15.510 C46.702,15.510 45.137,16.325 45.137,16.325 C45.137,16.325 41.470,9.281 41.470,9.281 ZM52.352,144.050 C52.352,144.050 49.317,151.389 49.317,151.389 C49.317,151.389 47.686,150.714 47.686,150.714 C47.686,150.714 50.721,143.375 50.721,143.375 C50.721,143.375 52.352,144.050 52.352,144.050 ZM41.527,147.762 C41.527,147.762 45.188,140.714 45.188,140.714 C45.188,140.714 46.754,141.528 46.754,141.528 C46.754,141.528 43.092,148.576 43.092,148.576 C43.092,148.576 41.527,147.762 41.527,147.762 ZM35.532,12.802 C35.532,12.802 37.020,11.852 37.020,11.852 C37.020,11.852 41.292,18.547 41.292,18.547 C41.292,18.547 39.804,19.497 39.804,19.497 C39.804,19.497 35.532,12.802 35.532,12.802 ZM34.823,23.084 C34.823,23.084 29.985,16.786 29.985,16.786 C29.985,16.786 31.384,15.711 31.384,15.711 C31.384,15.711 36.222,22.009 36.222,22.009 C36.222,22.009 34.823,23.084 34.823,23.084 ZM30.183,27.081 C30.183,27.081 24.818,21.226 24.818,21.226 C24.818,21.226 26.119,20.033 26.119,20.033 C26.119,20.033 31.484,25.888 31.484,25.888 C31.484,25.888 30.183,27.081 30.183,27.081 ZM25.853,31.525 C25.853,31.525 19.994,26.163 19.994,26.163 C19.994,26.163 21.185,24.861 21.185,24.861 C21.185,24.861 27.044,30.222 27.044,30.222 C27.044,30.222 25.853,31.525 25.853,31.525 ZM21.969,36.280 C21.969,36.280 15.667,31.448 15.667,31.448 C15.667,31.448 16.740,30.047 16.740,30.047 C16.740,30.047 23.043,34.879 23.043,34.879 C23.043,34.879 21.969,36.280 21.969,36.280 ZM18.522,41.341 C18.522,41.341 11.824,37.074 11.824,37.074 C11.824,37.074 12.772,35.585 12.772,35.585 C12.772,35.585 19.470,39.852 19.470,39.852 C19.470,39.852 18.522,41.341 18.522,41.341 ZM15.489,46.754 C15.489,46.754 8.443,43.092 8.443,43.092 C8.443,43.092 9.256,41.526 9.256,41.526 C9.256,41.526 16.303,45.188 16.303,45.188 C16.303,45.188 15.489,46.754 15.489,46.754 ZM12.968,52.352 C12.968,52.352 5.630,49.317 5.630,49.317 C5.630,49.317 6.305,47.686 6.305,47.686 C6.305,47.686 13.643,50.721 13.643,50.721 C13.643,50.721 12.968,52.352 12.968,52.352 ZM10.948,58.134 C10.948,58.134 3.375,55.746 3.375,55.746 C3.375,55.746 3.905,54.063 3.905,54.063 C3.905,54.063 11.479,56.450 11.479,56.450 C11.479,56.450 10.948,58.134 10.948,58.134 ZM9.419,64.147 C9.419,64.147 1.665,62.434 1.665,62.434 C1.665,62.434 2.046,60.711 2.046,60.711 C2.046,60.711 9.800,62.424 9.800,62.424 C9.800,62.424 9.419,64.147 9.419,64.147 ZM8.434,70.208 C8.434,70.208 0.560,69.175 0.560,69.175 C0.560,69.175 0.789,67.425 0.789,67.425 C0.789,67.425 8.663,68.458 8.663,68.458 C8.663,68.458 8.434,70.208 8.434,70.208 ZM7.979,76.315 C7.979,76.315 0.045,75.969 0.045,75.969 C0.045,75.969 0.122,74.206 0.122,74.206 C0.122,74.206 8.055,74.552 8.055,74.552 C8.055,74.552 7.979,76.315 7.979,76.315 ZM8.058,82.519 C8.058,82.519 0.125,82.872 0.125,82.872 C0.125,82.872 0.046,81.108 0.046,81.108 C0.046,81.108 7.979,80.756 7.979,80.756 C7.979,80.756 8.058,82.519 8.058,82.519 ZM8.674,88.628 C8.674,88.628 0.801,89.669 0.801,89.669 C0.801,89.669 0.570,87.919 0.570,87.919 C0.570,87.919 8.442,86.878 8.442,86.878 C8.442,86.878 8.674,88.628 8.674,88.628 ZM9.815,94.645 C9.815,94.645 2.062,96.365 2.062,96.365 C2.062,96.365 1.680,94.642 1.680,94.642 C1.680,94.642 9.433,92.922 9.433,92.922 C9.433,92.922 9.815,94.645 9.815,94.645 ZM11.497,100.617 C11.497,100.617 3.925,103.011 3.925,103.011 C3.925,103.011 3.393,101.329 3.393,101.329 C3.393,101.329 10.965,98.934 10.965,98.934 C10.965,98.934 11.497,100.617 11.497,100.617 ZM13.672,106.359 C13.672,106.359 6.337,109.402 6.337,109.402 C6.337,109.402 5.661,107.772 5.661,107.772 C5.661,107.772 12.996,104.729 12.996,104.729 C12.996,104.729 13.672,106.359 13.672,106.359 ZM16.332,111.876 C16.332,111.876 9.288,115.544 9.288,115.544 C9.288,115.544 8.473,113.978 8.473,113.978 C8.473,113.978 15.517,110.310 15.517,110.310 C15.517,110.310 16.332,111.876 16.332,111.876 ZM19.502,117.209 C19.502,117.209 12.807,121.481 12.807,121.481 C12.807,121.481 11.858,119.993 11.858,119.993 C11.858,119.993 18.552,115.721 18.552,115.721 C18.552,115.721 19.502,117.209 19.502,117.209 ZM23.089,122.192 C23.089,122.192 16.792,127.030 16.792,127.030 C16.792,127.030 15.717,125.630 15.717,125.630 C15.717,125.630 22.014,120.792 22.014,120.792 C22.014,120.792 23.089,122.192 23.089,122.192 ZM27.085,126.832 C27.085,126.832 21.231,132.199 21.231,132.199 C21.231,132.199 20.039,130.898 20.039,130.898 C20.039,130.898 25.893,125.531 25.893,125.531 C25.893,125.531 27.085,126.832 27.085,126.832 ZM31.527,131.163 C31.527,131.163 26.167,137.023 26.167,137.023 C26.167,137.023 24.865,135.831 24.865,135.831 C24.865,135.831 30.225,129.971 30.225,129.971 C30.225,129.971 31.527,131.163 31.527,131.163 ZM36.282,135.047 C36.282,135.047 31.451,141.351 31.451,141.351 C31.451,141.351 30.050,140.277 30.050,140.277 C30.050,140.277 34.881,133.974 34.881,133.974 C34.881,133.974 36.282,135.047 36.282,135.047 ZM41.343,138.495 C41.343,138.495 37.077,145.194 37.077,145.194 C37.077,145.194 35.588,144.246 35.588,144.246 C35.588,144.246 39.855,137.547 39.855,137.547 C39.855,137.547 41.343,138.495 41.343,138.495 ZM121.468,144.210 C121.468,144.210 119.981,145.160 119.981,145.160 C119.981,145.160 115.709,138.464 115.709,138.464 C115.709,138.464 117.196,137.515 117.196,137.515 C117.196,137.515 121.468,144.210 121.468,144.210 ZM122.179,133.927 C122.179,133.927 127.016,140.226 127.016,140.226 C127.016,140.226 125.617,141.301 125.617,141.301 C125.617,141.301 120.780,135.002 120.780,135.002 C120.780,135.002 122.179,133.927 122.179,133.927 ZM126.819,129.931 C126.819,129.931 132.185,135.786 132.185,135.786 C132.185,135.786 130.884,136.978 130.884,136.978 C130.884,136.978 125.518,131.123 125.518,131.123 C125.518,131.123 126.819,129.931 126.819,129.931 ZM131.148,125.487 C131.148,125.487 137.007,130.849 137.007,130.849 C137.007,130.849 135.815,132.151 135.815,132.151 C135.815,132.151 129.957,126.789 129.957,126.789 C129.957,126.789 131.148,125.487 131.148,125.487 ZM135.032,120.732 C135.032,120.732 141.335,125.564 141.335,125.564 C141.335,125.564 140.261,126.965 140.261,126.965 C140.261,126.965 133.959,122.133 133.959,122.133 C133.959,122.133 135.032,120.732 135.032,120.732 ZM138.480,115.671 C138.480,115.671 145.178,119.937 145.178,119.937 C145.178,119.937 144.230,121.426 144.230,121.426 C144.230,121.426 137.532,117.159 137.532,117.159 C137.532,117.159 138.480,115.671 138.480,115.671 ZM141.511,110.258 C141.511,110.258 148.558,113.920 148.558,113.920 C148.558,113.920 147.744,115.486 147.744,115.486 C147.744,115.486 140.698,111.824 140.698,111.824 C140.698,111.824 141.511,110.258 141.511,110.258 ZM144.033,104.659 C144.033,104.659 151.371,107.695 151.371,107.695 C151.371,107.695 150.697,109.326 150.697,109.326 C150.697,109.326 143.359,106.290 143.359,106.290 C143.359,106.290 144.033,104.659 144.033,104.659 ZM146.054,98.878 C146.054,98.878 153.628,101.265 153.628,101.265 C153.628,101.265 153.097,102.949 153.097,102.949 C153.097,102.949 145.523,100.561 145.523,100.561 C145.523,100.561 146.054,98.878 146.054,98.878 ZM147.581,92.864 C147.581,92.864 155.335,94.578 155.335,94.578 C155.335,94.578 154.954,96.301 154.954,96.301 C154.954,96.301 147.200,94.588 147.200,94.588 C147.200,94.588 147.581,92.864 147.581,92.864 ZM148.568,86.804 C148.568,86.804 156.441,87.837 156.441,87.837 C156.441,87.837 156.212,89.587 156.212,89.587 C156.212,89.587 148.338,88.554 148.338,88.554 C148.338,88.554 148.568,86.804 148.568,86.804 ZM149.024,80.696 C149.024,80.696 156.957,81.042 156.957,81.042 C156.957,81.042 156.880,82.806 156.880,82.806 C156.880,82.806 148.947,82.460 148.947,82.460 C148.947,82.460 149.024,80.696 149.024,80.696 Z"/>
<path fill-rule="evenodd"  stroke="rgb(77, 215, 244)" stroke-width="3px" stroke-linecap="butt" stroke-linejoin="miter" fill="none"
 d="M79.000,10.000 C117.108,10.000 148.000,40.892 148.000,79.000 C148.000,117.108 117.108,148.000 79.000,148.000 C40.892,148.000 10.000,117.108 10.000,79.000 C10.000,40.892 40.892,10.000 79.000,10.000 Z"/>
<path fill-rule="evenodd"  stroke="rgb(77, 215, 244)" stroke-width="3px" stroke-linecap="round" stroke-linejoin="miter" fill="none"
 d="M99.000,24.777 C120.630,33.036 136.000,53.968 136.000,78.500 C136.000,81.711 135.724,84.856 135.218,87.923 M21.908,88.632 C21.323,85.341 21.000,81.959 21.000,78.500 C21.000,53.590 36.843,32.385 59.000,24.398 M115.344,122.637 C105.365,130.976 92.521,136.000 78.500,136.000 C64.739,136.000 52.111,131.160 42.214,123.097 "/>
<path fill-rule="evenodd"  fill="rgb(77, 215, 244)"
 d="M39.832,55.458 C39.832,55.458 34.170,45.270 34.170,45.270 C34.170,45.270 28.178,55.649 28.178,55.649 C28.178,55.649 39.832,55.458 39.832,55.458 Z"/>
<path fill-rule="evenodd"  fill="rgb(77, 215, 244)"
 d="M78.700,124.998 C78.700,124.998 72.991,134.683 72.991,134.683 C72.991,134.683 84.989,135.014 84.989,135.014 C84.989,135.014 78.700,124.998 78.700,124.998 Z"/>
<path fill-rule="evenodd"  fill="rgb(77, 215, 244)"
 d="M119.027,56.189 C119.027,56.189 130.269,56.291 130.269,56.291 C130.269,56.291 124.557,45.735 124.557,45.735 C124.557,45.735 119.027,56.189 119.027,56.189 Z"/>
<path fill-rule="evenodd"  fill="rgb(77, 215, 244)"
 d="M79.001,1.000 C79.001,1.000 84.993,10.997 84.993,10.997 C84.993,10.997 73.009,10.997 73.009,10.997 C73.009,10.997 79.001,1.000 79.001,1.000 Z"/>
<path fill-rule="evenodd"  fill="rgb(77, 215, 244)"
 d="M146.354,117.883 C146.354,117.883 135.022,118.069 135.022,118.069 C135.022,118.069 140.849,107.977 140.849,107.977 C140.849,107.977 146.354,117.883 146.354,117.883 Z"/>
<path fill-rule="evenodd"  fill="rgb(77, 215, 244)"
 d="M11.646,117.929 C11.646,117.929 17.151,108.022 17.151,108.022 C17.151,108.022 22.978,118.114 22.978,118.114 C22.978,118.114 11.646,117.929 11.646,117.929 Z"/>
</svg>