<svg 
 xmlns="http://www.w3.org/2000/svg"
 xmlns:xlink="http://www.w3.org/1999/xlink"
 width="97.5px" height="101.5px">
<defs>
<radialGradient id="PSgrad_0">
  <stop offset="0%" stop-color="rgb(28,114,118)" stop-opacity="1" />
  <stop offset="100%" stop-color="rgb(11,39,45)" stop-opacity="1" />
</radialGradient>

</defs><path fill-rule="evenodd"  opacity="0.6" fill="rgb(7, 27, 43)"
 d="M65.385,100.500 C65.385,100.500 70.240,95.438 70.240,95.438 C70.240,95.438 60.462,95.478 60.462,95.478 C60.462,95.478 55.458,100.500 55.458,100.500 C55.458,100.500 31.762,100.500 31.762,100.500 C31.762,100.500 36.765,95.438 36.765,95.438 C36.765,95.438 27.578,95.438 27.578,95.438 C27.578,95.438 21.480,100.500 21.480,100.500 C21.480,100.500 8.495,100.500 8.495,100.500 C8.495,100.500 0.500,94.473 0.500,94.473 C0.500,94.473 0.500,7.087 0.500,7.087 C0.500,7.087 8.495,1.060 8.495,1.060 C8.495,1.060 15.490,1.060 15.490,1.060 C15.490,1.060 16.454,4.632 16.454,4.632 C16.454,4.632 76.643,4.492 76.643,4.492 C76.643,4.492 77.488,1.168 77.488,1.168 C77.488,1.168 88.443,1.060 88.443,1.060 C88.443,1.060 96.437,7.087 96.437,7.087 C96.437,7.087 96.499,92.464 96.499,92.464 C96.499,92.464 88.443,100.500 88.443,100.500 C88.443,100.500 65.385,100.500 65.385,100.500 Z"/>
<path stroke="rgb(77, 215, 244)" stroke-width="1px" stroke-linecap="butt" stroke-linejoin="miter" fill="url(#PSgrad_0)"
 d="M65.385,100.500 C65.385,100.500 70.240,95.438 70.240,95.438 C70.240,95.438 60.462,95.478 60.462,95.478 C60.462,95.478 55.458,100.500 55.458,100.500 C55.458,100.500 31.762,100.500 31.762,100.500 C31.762,100.500 36.765,95.438 36.765,95.438 C36.765,95.438 27.578,95.438 27.578,95.438 C27.578,95.438 21.480,100.500 21.480,100.500 C21.480,100.500 8.495,100.500 8.495,100.500 C8.495,100.500 0.500,94.473 0.500,94.473 C0.500,94.473 0.500,7.087 0.500,7.087 C0.500,7.087 8.495,1.060 8.495,1.060 C8.495,1.060 15.490,1.060 15.490,1.060 C15.490,1.060 16.454,4.632 16.454,4.632 C16.454,4.632 76.643,4.492 76.643,4.492 C76.643,4.492 77.488,1.168 77.488,1.168 C77.488,1.168 88.443,1.060 88.443,1.060 C88.443,1.060 96.437,7.087 96.437,7.087 C96.437,7.087 96.499,92.464 96.499,92.464 C96.499,92.464 88.443,100.500 88.443,100.500 C88.443,100.500 65.385,100.500 65.385,100.500 Z"/>
</svg>