<svg 
 xmlns="http://www.w3.org/2000/svg"
 xmlns:xlink="http://www.w3.org/1999/xlink"
 width="97.5px" height="107.5px">
<defs>
<radialGradient id="PSgrad_0">
  <stop offset="0%" stop-color="rgb(28,114,118)" stop-opacity="1" />
  <stop offset="100%" stop-color="rgb(11,39,45)" stop-opacity="1" />
</radialGradient>

</defs><path fill-rule="evenodd"  opacity="0.6" fill="rgb(7, 27, 43)"
 d="M78.284,5.540 C78.284,5.540 80.433,0.500 80.433,0.500 C80.433,0.500 88.500,0.500 88.500,0.500 C88.500,0.500 96.500,6.500 96.500,6.500 C96.500,6.500 96.500,93.500 96.500,93.500 C96.500,93.500 88.500,99.500 88.500,99.500 C88.500,99.500 78.539,99.393 78.539,99.393 C78.539,99.393 76.693,106.039 76.693,106.039 C76.693,106.039 18.465,105.900 18.465,105.900 C18.465,105.900 16.500,99.500 16.500,99.500 C16.500,99.500 8.500,99.500 8.500,99.500 C8.500,99.500 0.500,93.500 0.500,93.500 C0.500,93.500 0.500,6.500 0.500,6.500 C0.500,6.500 8.500,0.500 8.500,0.500 C8.500,0.500 14.500,0.500 14.500,0.500 C14.500,0.500 16.500,5.500 16.500,5.500 C16.500,5.500 78.284,5.540 78.284,5.540 Z"/>
<path stroke="rgb(77, 215, 244)" stroke-width="1px" stroke-linecap="butt" stroke-linejoin="miter" fill="url(#PSgrad_0)"
 d="M78.284,5.540 C78.284,5.540 80.433,0.500 80.433,0.500 C80.433,0.500 88.500,0.500 88.500,0.500 C88.500,0.500 96.500,6.500 96.500,6.500 C96.500,6.500 96.500,93.500 96.500,93.500 C96.500,93.500 88.500,99.500 88.500,99.500 C88.500,99.500 78.539,99.393 78.539,99.393 C78.539,99.393 76.693,106.039 76.693,106.039 C76.693,106.039 18.465,105.900 18.465,105.900 C18.465,105.900 16.500,99.500 16.500,99.500 C16.500,99.500 8.500,99.500 8.500,99.500 C8.500,99.500 0.500,93.500 0.500,93.500 C0.500,93.500 0.500,6.500 0.500,6.500 C0.500,6.500 8.500,0.500 8.500,0.500 C8.500,0.500 14.500,0.500 14.500,0.500 C14.500,0.500 16.500,5.500 16.500,5.500 C16.500,5.500 78.284,5.540 78.284,5.540 Z"/>
</svg>