<?xml version="1.0" encoding="utf-8"?>
<!-- Generator: Adobe Illustrator 22.1.0, SVG Export Plug-In . SVG Version: 6.00 Build 0)  -->
<svg version="1.1" id="图层_1" xmlns="http://www.w3.org/2000/svg" xmlns:xlink="http://www.w3.org/1999/xlink" x="0px" y="0px"
	 viewBox="0 0 421.4 348" style="enable-background:new 0 0 421.4 348;" xml:space="preserve">
<style type="text/css">
	.st0{fill:#42BCCE;}
	.st1{fill:#04131E;stroke:#094B59;stroke-miterlimit:10;}
</style>
<g>
	<g>
		
			<image style="overflow:visible;opacity:0.5;enable-background:new    ;" width="424" height="428" xlink:href="75946630.png"  transform="matrix(0.2344 0 0 0.2344 -19.6844 -16.5479)">
		</image>
		<g>
			<path class="st0" d="M49.6,13.3H30.3c-11,0-20,9-20,20v20.3L49.6,13.3z"/>
		</g>
	</g>
	<g>
		
			<image style="overflow:visible;opacity:0.5;enable-background:new    ;" width="419" height="428" xlink:href="75946631.png"  transform="matrix(0.2358 0 0 0.2358 341.1289 -16.8417)">
		</image>
		<g>
			<path class="st0" d="M370.8,13.3h19.3c11,0,20,9,20,20v20.3L370.8,13.3z"/>
		</g>
	</g>
	<g>
		
			<image style="overflow:visible;opacity:0.5;enable-background:new    ;" width="418" height="426" xlink:href="75946637.png"  transform="matrix(0.236 0 0 0.236 -19.3352 269.9926)">
		</image>
		<g>
			<path class="st0" d="M49.6,340.3H30.3c-11,0-20-9-20-20V300L49.6,340.3z"/>
		</g>
	</g>
	<g>
		
			<image style="overflow:visible;opacity:0.5;enable-background:new    ;" width="422" height="426" xlink:href="75946632.png"  transform="matrix(0.2349 0 0 0.2349 340.941 270.228)">
		</image>
		<g>
			<path class="st0" d="M370.8,340.3h19.3c11,0,20-9,20-20V300L370.8,340.3z"/>
		</g>
	</g>
	<path class="st1" d="M383.1,333.3h-345c-11,0-20-9-20-20v-273c0-11,9-20,20-20h345c11,0,20,9,20,20v273
		C403.1,324.3,394.1,333.3,383.1,333.3z"/>
</g>
</svg>
