<?xml version="1.0" standalone="no"?><!DOCTYPE svg PUBLIC "-//W3C//DTD SVG 1.1//EN" "http://www.w3.org/Graphics/SVG/1.1/DTD/svg11.dtd"><svg t="1522636993648" class="icon" style="" viewBox="0 0 1024 1024" version="1.1" xmlns="http://www.w3.org/2000/svg" p-id="994" xmlns:xlink="http://www.w3.org/1999/xlink" width="200" height="200"><defs><style type="text/css"></style></defs><path d="M422.4 486.4c-12.8 12.8-12.8 32 0 44.79999999L825.6 940.8c12.8 12.8 32 12.8 44.8 0 19.2-12.8 19.2-32 6.4-44.8l-384-384 384-384c12.8-12.8 12.8-32 0-44.8-12.8-12.8-32-12.8-44.8 0l-409.6 403.2zM601.6 896l-384-384 384-384c12.8-12.8 12.8-32 0-44.8-12.8-12.8-32-12.8-44.8 0l-409.6 409.6c-12.8 12.8-12.8 32 0 44.8L556.8 940.8c12.8 12.8 32 12.8 44.8 0 12.8-12.8 12.8-32 0-44.8z" p-id="995" fill="#3acfc3"></path></svg>