<?xml version="1.0" encoding="utf-8"?>
<!-- Generator: Adobe Illustrator 18.0.0, SVG Export Plug-In . SVG Version: 6.00 Build 0)  -->
<!DOCTYPE svg PUBLIC "-//W3C//DTD SVG 1.1//EN" "http://www.w3.org/Graphics/SVG/1.1/DTD/svg11.dtd">
<svg version="1.1" id="图层_1" xmlns="http://www.w3.org/2000/svg" xmlns:xlink="http://www.w3.org/1999/xlink" x="0px" y="0px"
	 viewBox="0 0 43.993 43.993" enable-background="new 0 0 43.993 43.993" xml:space="preserve">
<g>
	
		<radialGradient id="SVGID_1_" cx="-153.8489" cy="-240.8477" r="7.0031" gradientTransform="matrix(2.501 0 0 -2.501 407.23 -579.7611)" gradientUnits="userSpaceOnUse">
		<stop  offset="0" style="stop-color:#B84C2B"/>
		<stop  offset="1" style="stop-color:#722F25"/>
	</radialGradient>
	<path fill="url(#SVGID_1_)" d="M22.448,40.124c-9.658,0-17.516-7.857-17.516-17.515c0-9.658,7.857-17.516,17.516-17.516
		c9.657,0,17.515,7.857,17.515,17.516C39.963,32.267,32.105,40.124,22.448,40.124z"/>
	<path fill="#1A0C0C" d="M22.448,7.595c8.279,0,15.015,6.736,15.015,15.015c0,8.279-6.736,15.015-15.015,15.015
		c-8.279,0-15.015-6.736-15.015-15.015C7.433,14.33,14.168,7.595,22.448,7.595 M22.448,2.595c-11.036,0-20.015,8.979-20.015,20.015
		s8.979,20.015,20.015,20.015s20.015-8.979,20.015-20.015S33.484,2.595,22.448,2.595L22.448,2.595z"/>
</g>
<path fill="#CEC6C2" d="M29.232,24.735l2.412-0.324l-0.009-3.653l-2.414-0.311c-0.669-0.086-0.881-0.596-0.472-1.132l1.477-1.935
	l-2.59-2.576l-1.928,1.487c-0.534,0.412-1.044,0.202-1.134-0.466l-0.324-2.412l-3.652,0.009l-0.312,2.415
	c-0.086,0.669-0.596,0.881-1.132,0.472l-1.936-1.478l-2.575,2.589l1.488,1.928c0.412,0.534,0.202,1.044-0.466,1.134l-2.414,0.324
	l0.01,3.652l2.416,0.312c0.669,0.086,0.881,0.596,0.472,1.132l-1.477,1.936l2.589,2.576l1.928-1.487
	c0.534-0.412,1.044-0.202,1.134,0.466l0.324,2.413l3.652-0.01l0.312-2.415c0.086-0.669,0.596-0.881,1.132-0.472l1.935,1.477
	l2.576-2.589l-1.487-1.927C28.353,25.336,28.563,24.825,29.232,24.735z M22.448,26.186c-1.975,0-3.577-1.601-3.577-3.577
	s1.601-3.577,3.577-3.577c1.975,0,3.577,1.601,3.577,3.577S24.423,26.186,22.448,26.186z"/>
</svg>
