<svg 
 xmlns="http://www.w3.org/2000/svg"
 xmlns:xlink="http://www.w3.org/1999/xlink"
 width="28px" height="28px">
<path fill-rule="evenodd"  fill="rgb(18, 191, 231)"
 d="M14.000,-0.000 C21.732,-0.000 28.000,6.268 28.000,14.000 C28.000,21.732 21.732,28.000 14.000,28.000 C6.268,28.000 -0.000,21.732 -0.000,14.000 C-0.000,6.268 6.268,-0.000 14.000,-0.000 Z"/>
<path fill-rule="evenodd"  fill="rgb(8, 17, 26)"
 d="M8.000,13.000 C8.000,13.000 20.000,13.000 20.000,13.000 C20.552,13.000 21.000,13.448 21.000,14.000 C21.000,14.552 20.552,15.000 20.000,15.000 C20.000,15.000 8.000,15.000 8.000,15.000 C7.448,15.000 7.000,14.552 7.000,14.000 C7.000,13.448 7.448,13.000 8.000,13.000 Z"/>
<path fill-rule="evenodd"  fill="rgb(8, 17, 26)"
 d="M14.000,7.000 C14.552,7.000 15.000,7.448 15.000,8.000 C15.000,8.000 15.000,20.000 15.000,20.000 C15.000,20.552 14.552,21.000 14.000,21.000 C13.448,21.000 13.000,20.552 13.000,20.000 C13.000,20.000 13.000,8.000 13.000,8.000 C13.000,7.448 13.448,7.000 14.000,7.000 Z"/>
</svg>