<svg 
 xmlns="http://www.w3.org/2000/svg"
 xmlns:xlink="http://www.w3.org/1999/xlink"
 width="9px" height="12px" viewBox="0 0 9 12">
<path fill-rule="evenodd"  fill="rgb(34, 114, 110)"
 d="M-0.000,-0.000 C-0.000,-0.000 3.000,-0.000 3.000,-0.000 C3.000,-0.000 3.000,12.000 3.000,12.000 C3.000,12.000 -0.000,12.000 -0.000,12.000 C-0.000,12.000 -0.000,-0.000 -0.000,-0.000 Z"/>
<path fill-rule="evenodd"  fill="rgb(45, 148, 143)"
 d="M3.000,-0.000 C3.000,-0.000 6.000,-0.000 6.000,-0.000 C6.000,-0.000 6.000,12.000 6.000,12.000 C6.000,12.000 3.000,12.000 3.000,12.000 C3.000,12.000 3.000,-0.000 3.000,-0.000 Z"/>
<path fill-rule="evenodd"  fill="rgb(58, 185, 179)"
 d="M6.000,-0.000 C6.000,-0.000 9.000,-0.000 9.000,-0.000 C9.000,-0.000 9.000,12.000 9.000,12.000 C9.000,12.000 6.000,12.000 6.000,12.000 C6.000,12.000 6.000,-0.000 6.000,-0.000 Z"/>
</svg>