<svg 
 xmlns="http://www.w3.org/2000/svg"
 xmlns:xlink="http://www.w3.org/1999/xlink"
 width="28px" height="28px">
<path fill-rule="evenodd"  fill="rgb(232, 240, 242)"
 d="M26.813,15.557 C26.700,15.605 26.620,15.659 26.552,15.732 C26.486,15.800 26.485,15.869 26.493,15.915 C26.502,15.961 26.531,16.026 26.613,16.063 C26.913,16.202 27.295,16.410 27.584,16.796 C27.818,17.108 28.071,17.639 27.937,18.390 C27.848,18.887 27.666,19.618 27.107,20.244 C26.529,20.885 25.770,21.121 24.983,20.928 C24.677,20.853 24.403,20.725 24.326,20.855 C24.286,20.925 24.334,21.100 24.351,21.139 C24.753,22.024 24.450,23.034 23.616,23.595 C23.023,23.991 22.361,24.240 21.645,24.333 C21.558,24.344 21.472,24.349 21.388,24.349 C20.633,24.349 19.968,23.904 19.619,23.138 C19.519,22.918 19.504,22.793 19.345,22.782 C19.149,22.768 19.075,23.057 19.057,23.104 C18.696,24.012 17.767,24.494 16.763,24.308 C15.912,24.152 15.230,23.859 14.679,23.413 C14.245,23.062 13.998,22.659 13.920,22.177 C13.849,21.744 13.963,21.384 14.055,21.152 C14.104,21.027 14.150,20.903 14.147,20.829 C14.016,20.840 13.804,20.882 13.563,20.936 C12.755,21.120 12.010,20.848 11.516,20.207 C11.034,19.581 10.761,18.872 10.705,18.099 C10.641,17.186 11.069,16.468 11.882,16.132 C12.110,16.036 12.242,15.925 12.232,15.835 C12.210,15.659 12.055,15.659 12.039,15.650 C10.905,15.261 10.529,14.089 10.757,13.138 C10.887,12.590 11.089,11.954 11.582,11.397 C12.287,10.604 13.077,10.676 13.488,10.789 C13.763,10.867 13.904,10.896 14.013,10.903 C14.159,10.909 14.221,10.841 14.253,10.782 C14.281,10.729 14.270,10.675 14.267,10.624 C14.265,10.562 14.236,10.458 14.236,10.458 C14.210,10.370 14.196,10.297 14.175,10.214 C13.989,9.458 14.232,8.764 14.878,8.251 C15.455,7.793 16.181,7.517 17.095,7.412 C17.927,7.318 18.613,7.703 18.986,8.471 C19.066,8.640 19.115,8.755 19.196,8.803 C19.400,8.922 19.551,8.738 19.576,8.681 C19.668,8.474 19.807,8.274 19.962,8.078 C20.369,7.562 20.996,7.311 21.656,7.419 C22.177,7.493 22.948,7.653 23.607,8.189 C23.840,8.378 24.340,8.778 24.487,9.478 C24.578,9.934 24.448,10.303 24.360,10.548 C24.321,10.657 24.308,10.740 24.315,10.826 C24.321,10.886 24.423,10.951 24.489,10.951 C24.615,10.951 24.733,10.927 24.860,10.876 C25.754,10.507 26.634,10.763 27.211,11.547 C27.648,12.141 27.901,12.839 27.987,13.678 C28.071,14.494 27.632,15.196 26.813,15.557 ZM26.115,17.870 C26.068,17.810 25.936,17.743 25.840,17.699 C25.245,17.424 24.819,16.885 24.697,16.252 C24.576,15.621 24.770,14.963 25.220,14.494 C25.454,14.248 25.743,14.048 26.075,13.906 C26.116,13.347 25.973,12.936 25.731,12.607 C25.731,12.607 25.646,12.499 25.646,12.499 C25.646,12.499 25.556,12.543 25.556,12.543 C25.176,12.698 24.783,12.751 24.383,12.755 C23.414,12.721 22.584,11.944 22.495,10.987 C22.464,10.634 22.511,10.298 22.636,9.952 C22.636,9.952 22.691,9.778 22.691,9.778 C22.682,9.772 22.505,9.633 22.448,9.586 C22.206,9.388 21.892,9.275 21.391,9.205 C21.326,9.284 21.265,9.379 21.220,9.471 C20.924,10.067 20.346,10.493 19.671,10.611 C19.027,10.721 18.391,10.541 17.930,10.105 C17.625,9.816 17.451,9.492 17.332,9.243 C16.736,9.270 16.329,9.414 16.024,9.658 C15.988,9.941 16.010,10.114 16.028,10.289 C16.028,10.289 16.047,10.646 16.047,10.646 C16.047,10.646 16.017,10.944 16.017,10.944 C15.949,11.921 15.191,12.640 14.130,12.705 C13.721,12.735 13.377,12.635 13.097,12.557 C12.772,12.795 12.649,13.075 12.534,13.553 C12.534,13.558 12.465,13.888 12.668,13.958 C13.104,14.108 13.422,14.433 13.650,14.697 C14.120,15.247 14.200,15.970 13.869,16.632 C13.611,17.152 13.123,17.468 12.590,17.796 C12.573,17.806 12.543,17.836 12.535,17.854 C12.523,17.881 12.529,17.972 12.529,17.972 C12.558,18.388 12.708,18.772 12.970,19.114 C13.031,19.192 13.047,19.204 13.159,19.176 C13.447,19.112 13.752,19.051 14.087,19.051 C14.201,19.051 14.315,19.058 14.428,19.072 C15.281,19.185 15.931,19.888 15.971,20.743 C15.992,21.164 15.874,21.510 15.760,21.802 C15.760,21.802 15.705,21.902 15.705,21.902 C15.705,21.902 15.835,22.017 15.835,22.017 C16.147,22.269 16.549,22.433 17.097,22.536 C17.315,22.567 17.338,22.488 17.354,22.446 C17.511,22.054 17.774,21.721 18.134,21.453 C18.748,21.000 19.459,20.914 20.139,21.213 C20.649,21.441 21.033,21.839 21.286,22.400 C21.331,22.497 21.376,22.541 21.388,22.548 C21.843,22.486 22.231,22.341 22.589,22.102 C22.623,22.079 22.736,21.993 22.684,21.878 C22.529,21.539 22.470,21.164 22.500,20.729 C22.552,19.946 23.213,19.218 24.003,19.079 C24.530,18.987 25.003,19.072 25.433,19.179 C25.519,19.202 25.587,19.218 25.738,19.047 C25.933,18.830 26.056,18.531 26.138,18.078 C26.138,18.078 26.138,18.078 26.138,18.078 C26.163,17.935 26.135,17.896 26.115,17.870 ZM19.346,20.094 C19.346,20.094 19.300,20.094 19.300,20.094 C18.173,20.094 17.108,19.662 16.299,18.873 C15.473,18.069 15.017,16.997 15.014,15.855 C15.007,13.512 16.890,11.651 19.301,11.619 C20.447,11.607 21.540,12.037 22.363,12.834 C23.187,13.630 23.646,14.699 23.655,15.837 C23.675,18.162 21.741,20.071 19.346,20.094 ZM21.083,14.122 C20.617,13.671 20.005,13.424 19.357,13.424 C19.357,13.424 19.325,13.424 19.325,13.424 C17.929,13.442 16.839,14.508 16.842,15.851 C16.843,16.507 17.106,17.124 17.583,17.588 C18.052,18.048 18.646,18.347 19.328,18.289 C20.719,18.277 21.840,17.182 21.828,15.851 C21.822,15.196 21.558,14.582 21.083,14.122 ZM6.669,17.480 C6.385,17.480 6.155,17.253 6.155,16.972 C6.155,16.972 6.155,11.896 6.155,11.896 C6.155,10.677 6.546,9.519 7.286,8.546 C7.457,8.323 7.778,8.277 8.007,8.445 C8.234,8.613 8.279,8.930 8.108,9.156 C7.503,9.951 7.183,10.898 7.183,11.896 C7.183,11.896 7.183,16.972 7.183,16.972 C7.183,17.253 6.954,17.480 6.669,17.480 ZM17.579,6.400 C16.333,5.076 14.760,4.278 13.032,4.094 C10.880,3.867 8.818,4.530 7.199,5.964 C5.532,7.440 4.577,9.560 4.577,11.783 C4.577,11.783 4.586,13.084 4.586,13.084 C4.600,14.785 4.620,17.113 4.522,18.537 C4.411,20.155 3.670,21.537 2.951,22.521 C2.951,22.521 11.053,22.521 11.053,22.521 C11.558,22.521 11.967,22.925 11.967,23.423 C11.967,23.922 11.558,24.326 11.053,24.326 C11.053,24.326 0.913,24.326 0.913,24.326 C0.531,24.326 0.188,24.090 0.056,23.735 C-0.076,23.381 0.029,22.981 0.322,22.736 C0.343,22.717 2.531,20.846 2.698,18.414 C2.792,17.059 2.773,14.771 2.758,13.100 C2.758,13.100 2.749,11.783 2.749,11.783 C2.749,9.049 3.925,6.439 5.978,4.621 C7.091,3.634 8.379,2.954 9.757,2.581 C9.757,2.581 9.757,2.457 9.757,2.457 C9.757,1.101 10.857,-0.000 12.210,-0.000 C13.563,-0.000 14.662,1.101 14.662,2.457 C14.662,2.457 14.662,2.587 14.662,2.587 C16.259,3.034 17.737,3.917 18.918,5.173 C19.262,5.538 19.241,6.109 18.869,6.447 C18.502,6.788 17.923,6.768 17.579,6.400 ZM12.210,1.805 C11.932,1.805 11.699,2.008 11.621,2.275 C12.010,2.251 12.402,2.252 12.799,2.276 C12.721,2.009 12.488,1.805 12.210,1.805 ZM12.720,26.195 C13.521,26.195 14.185,25.672 14.431,24.961 C14.431,24.961 16.317,24.961 16.317,24.961 C16.036,26.676 14.533,28.000 12.720,28.000 C10.908,28.000 9.404,26.676 9.124,24.961 C9.124,24.961 11.010,24.961 11.010,24.961 C11.256,25.672 11.920,26.195 12.720,26.195 Z"/>
</svg>