<svg 
 xmlns="http://www.w3.org/2000/svg"
 xmlns:xlink="http://www.w3.org/1999/xlink"
 width="26.5px" height="24.5px">
<path fill-rule="evenodd"  stroke="rgb(51, 213, 200)" stroke-width="1px" stroke-linecap="butt" stroke-linejoin="miter" fill="none"
 d="M3.406,12.500 C3.406,12.500 6.031,12.500 6.031,12.500 C6.584,12.500 7.031,12.948 7.031,13.500 C7.031,13.500 7.031,21.500 7.031,21.500 C7.031,22.052 6.584,22.500 6.031,22.500 C6.031,22.500 3.406,22.500 3.406,22.500 C2.854,22.500 2.406,22.052 2.406,21.500 C2.406,21.500 2.406,13.500 2.406,13.500 C2.406,12.948 2.854,12.500 3.406,12.500 Z"/>
<path fill-rule="evenodd"  stroke="rgb(51, 213, 200)" stroke-width="1px" stroke-linecap="butt" stroke-linejoin="miter" fill="none"
 d="M11.687,8.500 C11.687,8.500 14.313,8.500 14.313,8.500 C14.865,8.500 15.313,8.948 15.313,9.500 C15.313,9.500 15.313,21.500 15.313,21.500 C15.313,22.052 14.865,22.500 14.313,22.500 C14.313,22.500 11.687,22.500 11.687,22.500 C11.135,22.500 10.687,22.052 10.687,21.500 C10.687,21.500 10.687,9.500 10.687,9.500 C10.687,8.948 11.135,8.500 11.687,8.500 Z"/>
<path fill-rule="evenodd"  stroke="rgb(51, 213, 200)" stroke-width="1px" stroke-linecap="butt" stroke-linejoin="miter" fill="none"
 d="M19.969,1.500 C19.969,1.500 22.594,1.500 22.594,1.500 C23.146,1.500 23.594,1.948 23.594,2.500 C23.594,2.500 23.594,21.500 23.594,21.500 C23.594,22.052 23.146,22.500 22.594,22.500 C22.594,22.500 19.969,22.500 19.969,22.500 C19.416,22.500 18.969,22.052 18.969,21.500 C18.969,21.500 18.969,2.500 18.969,2.500 C18.969,1.948 19.416,1.500 19.969,1.500 Z"/>
</svg>