<?xml version="1.0" encoding="utf-8"?>
<!-- Generator: Adobe Illustrator 18.0.0, SVG Export Plug-In . SVG Version: 6.00 Build 0)  -->
<!DOCTYPE svg PUBLIC "-//W3C//DTD SVG 1.1//EN" "http://www.w3.org/Graphics/SVG/1.1/DTD/svg11.dtd">
<svg version="1.1" id="图层_1" xmlns="http://www.w3.org/2000/svg" xmlns:xlink="http://www.w3.org/1999/xlink" x="0px" y="0px"
	 viewBox="0 0 128.008 128" enable-background="new 0 0 128.008 128" xml:space="preserve">
<g>
	<path fill="#5EC3DF" d="M64.004,29.046c19.296,0,34.995,15.699,34.995,34.995S83.301,99.037,64.004,99.037
		c-19.296,0-34.995-15.699-34.995-34.995S44.708,29.046,64.004,29.046 M64.004,24.046c-22.089,0-39.995,17.906-39.995,39.995
		c0,22.089,17.906,39.995,39.995,39.995s39.995-17.906,39.995-39.995C103.999,41.953,86.093,24.046,64.004,24.046L64.004,24.046z"/>
	<g>
		<g>
			<path fill="#5EC3DF" d="M89.534,61.298H38.475c-1.381,0-2.5-1.119-2.5-2.5s1.119-2.5,2.5-2.5h43.522l-3.413-2.545
				c-1.107-0.825-1.335-2.392-0.51-3.498c0.823-1.106,2.392-1.337,3.498-0.51l9.455,7.049c0.864,0.644,1.218,1.769,0.879,2.791
				C91.567,60.608,90.611,61.298,89.534,61.298z"/>
		</g>
		<g>
			<path fill="#5EC3DF" d="M47.928,78.833c-0.52,0-1.044-0.161-1.492-0.495l-9.455-7.048c-0.864-0.645-1.218-1.77-0.879-2.792
				c0.34-1.022,1.296-1.713,2.373-1.713h51.059c1.381,0,2.5,1.119,2.5,2.5s-1.119,2.5-2.5,2.5H46.012l3.412,2.543
				c1.107,0.825,1.335,2.392,0.511,3.499C49.444,78.486,48.691,78.833,47.928,78.833z"/>
		</g>
	</g>
</g>
</svg>
