<?xml version="1.0" encoding="utf-8"?>
<!-- Generator: Adobe Illustrator 18.0.0, SVG Export Plug-In . SVG Version: 6.00 Build 0)  -->
<!DOCTYPE svg PUBLIC "-//W3C//DTD SVG 1.1//EN" "http://www.w3.org/Graphics/SVG/1.1/DTD/svg11.dtd">
<svg version="1.1" id="图层_1" xmlns="http://www.w3.org/2000/svg" xmlns:xlink="http://www.w3.org/1999/xlink" x="0px" y="0px"
	 viewBox="0 0 32 32" enable-background="new 0 0 32 32" xml:space="preserve">
<g>
	<path fill="#61ADE6" d="M25.405,15.841c0,3.999,0.017,7.585-0.01,11.171c-0.009,1.231-0.815,1.776-1.944,1.78
		c-5.921,0.021-11.841,0.03-17.762-0.006c-1.273-0.008-1.87-0.796-1.869-2.072c0.007-6.319,0.002-12.639-0.001-18.959
		C3.818,6.35,4.609,5.66,5.918,5.643c3.525-0.044,7.052-0.021,10.577-0.009c0.362,0.001,0.889-0.156,0.985,0.385
		c0.094,0.528-0.319,0.903-0.75,1.043c-0.491,0.158-1.042,0.169-1.567,0.172C12.435,7.249,9.707,7.273,6.98,7.223
		C5.935,7.204,5.415,7.417,5.426,8.634c0.053,5.72,0.039,11.442,0.006,17.162c-0.006,1.013,0.307,1.414,1.366,1.407
		c5.189-0.037,10.378-0.042,15.567,0.006c1.171,0.01,1.47-0.459,1.445-1.538c-0.057-2.46,0.033-4.924-0.039-7.383
		C23.739,17.222,24.168,16.597,25.405,15.841z"/>
	<path fill="#61ADE6" d="M29.44,7.204c0.064,0.754-0.721,1.549-1.439,2.285c-3.137,3.218-6.362,6.35-9.495,9.574
		c-1.922,1.977-4.582,2.194-6.962,3.034c-0.789,0.278-1.21-0.328-0.965-1.497c0.834-3.967,2.877-7.027,5.952-9.62
		c2.297-1.937,4.285-4.238,6.446-6.34c1.077-1.047,2.348-1.924,3.888-1.159C28.171,4.128,29.339,5.064,29.44,7.204z M27.758,6.816
		c0.155-0.851-0.55-1.281-1.105-1.673c-0.624-0.44-1.386-0.442-1.995,0.161c-3.618,3.582-7.276,7.124-10.803,10.794
		c-0.662,0.69-0.847,1.877-1.138,2.869c-0.177,0.603,0.178,1.208,0.836,0.876c1.098-0.556,2.405-0.531,3.367-1.506
		c3.214-3.254,6.525-6.412,9.749-9.656C27.146,8.201,27.779,7.7,27.758,6.816z"/>
</g>
</svg>
