<?xml version="1.0" encoding="utf-8"?>
<!-- Generator: Adobe Illustrator 18.0.0, SVG Export Plug-In . SVG Version: 6.00 Build 0)  -->
<!DOCTYPE svg PUBLIC "-//W3C//DTD SVG 1.1//EN" "http://www.w3.org/Graphics/SVG/1.1/DTD/svg11.dtd">
<svg version="1.1" id="图层_1" xmlns="http://www.w3.org/2000/svg" xmlns:xlink="http://www.w3.org/1999/xlink" x="0px" y="0px"
	 viewBox="83 95.5 405 66" enable-background="new 83 95.5 405 66" xml:space="preserve">
<path fill="#4DD7F4" d="M167.7,113.6h9.9l-6.2,17.9c0,0-1,4,2.2,4.1c3.2,0.1,4.9,0,4.9,0s2.3-0.4,3.6-3.7s5.9-18.3,5.9-18.3h13.3
	l5.8,7.9l7.8-7.9h12.4L213,129.8l10.8,14h-13l-4.7-6.7l-6.7,6.7h-12.8l13.6-15l-5-6.8l-4.1,12.7c0,0-3.7,9.7-13.3,9.7
	c-9.5,0-18.5-1.6-16.4-10.1C163.5,125.8,167.7,113.6,167.7,113.6z"/>
<path fill="none" stroke="#FFFFFF" stroke-miterlimit="10" d="M254.6,113.6"/>
<polygon fill="#4DD7F4" points="254.6,113.6 264.7,113.6 254.6,144.4 244.4,144.4 "/>
<path fill="#4DD7F4" d="M267.2,113.6h6.8l6.5,14l5.4-14h9.6c0,0-14.2,9.8-7.1,22.9l-2.6,7.9h-8.1l-6.1-12l-4.4,12h-10.3L267.2,113.6
	z"/>
<path fill="#4DD7F4" d="M159.6,145h70.8c0,0,7.3-5.5,2.9-11.8c-4.4-6.2-12-15.9,0.4-23.1h86.8v2.5l-82.2,0.2c0,0-7.1,4.2,0.7,12.5
	c7.8,8.3,3.3,18.7-3.6,22.4h-75.6L159.6,145L159.6,145z"/>
<path fill="#4DD7F4" d="M303.5,113.2c-8.7,0-15.7,7-15.7,15.7c0,8.7,7,15.7,15.7,15.7s15.7-7,15.7-15.7
	C319.1,120.2,312.1,113.2,303.5,113.2z M303.5,135.5c-3.6,0-6.6-2.9-6.6-6.6s2.9-6.6,6.6-6.6s6.6,2.9,6.6,6.6
	C310,132.5,307.1,135.5,303.5,135.5z"/>
<text transform="matrix(1 0 0 1 326.6094 143.7129)" fill="#FFFFFF" font-family="'KaiTi'" font-size="26.245">业务监控系统</text>
<path fill="#4DD7F4" d="M349,117.3h-14c-3.4,0-6.2-2.8-6.2-6.2l0,0c0-3.4,2.8-6.2,6.2-6.2h14c3.4,0,6.2,2.8,6.2,6.2l0,0
	C355.1,114.6,352.3,117.3,349,117.3z"/>
<g enable-background="new    ">
	<path d="M335.5,113.8h-0.3l-2.4-6.6h0.5l1.9,5.4c0.1,0.3,0.2,0.4,0.2,0.6l0,0c0-0.2,0.1-0.3,0.2-0.6l2-5.3h0.5L335.5,113.8z"/>
	<path d="M344.7,107.2v4.5h1v0.3h-1v1.7h-0.4v-1.7h-3.1v-0.4c0.3-0.3,0.6-0.7,0.9-1c0.3-0.3,0.6-0.8,0.9-1.1
		c0.3-0.3,0.5-0.8,0.8-1.1c0.3-0.3,0.4-0.7,0.6-1L344.7,107.2L344.7,107.2z M341.6,111.7h2.7V108c-0.3,0.3-0.4,0.8-0.7,1.1
		c-0.3,0.3-0.5,0.7-0.7,1c-0.3,0.3-0.4,0.6-0.7,0.9C341.9,111.3,341.8,111.5,341.6,111.7z"/>
	<path d="M347,113.9c-0.1,0-0.2,0-0.3-0.1c-0.1-0.1-0.1-0.2-0.1-0.3c0-0.1,0-0.2,0.1-0.3c0.1-0.1,0.2-0.1,0.3-0.1s0.2,0,0.3,0.1
		c0.1,0.1,0.1,0.2,0.1,0.3c0,0.1,0,0.2-0.1,0.3C347.1,113.9,347.1,113.9,347,113.9z"/>
	<path d="M350.4,107v6.8H350v-6.1c-0.2,0.2-0.4,0.3-0.7,0.5c-0.3,0.2-0.6,0.3-0.9,0.4v-0.3c0.2-0.1,0.3-0.2,0.5-0.3s0.3-0.2,0.4-0.3
		c0.2-0.1,0.3-0.2,0.4-0.3c0.2-0.1,0.3-0.3,0.4-0.3L350.4,107L350.4,107z"/>
</g>
<path fill="#FFFFFF" d="M135.3,142.5c-3,0-5.5-2.4-5.5-5.4c0-2.9,2.4-5.4,5.5-5.4c2.8,0,5,2,5.4,4.6c0-0.1,0-0.1,0-0.2
	c0-4-3.2-7.1-7.2-7.1c-4,0-7.2,3.2-7.2,7.1c0,4,3.2,7.1,7.2,7.1c1.6,0,3.2-0.5,4.4-1.5C137.1,142.2,136.3,142.5,135.3,142.5z"/>
<path fill="#FFFFFF" d="M132.6,148c-7.5,0-13.4-6.1-13.4-13.5s6-13.5,13.4-13.5c7.1,0,12.9,5.5,13.4,12.6c0-0.3,0-0.4,0-0.7
	c0-10-8.1-18.1-18-18.1c-10,0-18,8.1-18,18.1c0,10,8.1,18.1,18,18.1c5.8,0,10.9-2.8,14.2-7C139.8,146.5,136.5,148,132.6,148z"/>
<path fill="#FFFFFF" d="M123.8,157.2c-14.5,0-26.3-11.7-26.3-26.3c0-14.6,11.7-26.3,26.3-26.3c14.2,0,25.8,11.4,26.2,25.6
	c0-0.3,0-0.5,0-0.8c0-15.9-12.9-28.9-28.9-28.9s-28.9,12.9-28.9,28.9s12.9,28.9,28.9,28.9c5.9,0,11.3-1.5,15.9-4.5
	C133.1,156.2,128.7,157.2,123.8,157.2z"/>
<path fill="#FFFFFF" d="M134.6,142.7c-3.4,0-6.1-2.8-6.1-6.1s2.8-6.1,6.1-6.1c3,0,5.6,2.3,6.1,5.2c0-0.1,0-0.1,0-0.2
	c0-4.5-3.6-8.1-8.1-8.1c-4.4,0-8.1,3.6-8.1,8.1c0,4.4,3.6,8.1,8.1,8.1c1.9,0,3.6-0.6,4.9-1.7C136.7,142.4,135.7,142.7,134.6,142.7z"
	/>
<path fill="#FFFFFF" d="M131.4,148.8c-8.1,0-14.6-6.6-14.6-14.6s6.6-14.6,14.6-14.6c7.7,0,14,6,14.6,13.6c0-0.3,0-0.5,0-0.8
	c0-10.8-8.8-19.6-19.6-19.6c-10.8,0-19.6,8.8-19.6,19.6s8.8,19.6,19.6,19.6c6.3,0,11.9-2.9,15.5-7.5
	C139.2,147.1,135.5,148.8,131.4,148.8z"/>
<path fill="#FFFFFF" d="M122.2,158.1c-15.3,0-27.8-12.5-27.8-27.8s12.5-27.8,27.8-27.8c15.2,0,27.5,12,27.8,27.1c0-0.3,0-0.5,0-0.8
	c0-16.9-13.7-30.6-30.6-30.6s-30.6,13.7-30.6,30.6s13.7,30.6,30.6,30.6c6.3,0,12.1-1.9,17-5.1C132.2,156.7,127.4,158.1,122.2,158.1z
	"/>
<g>
	<path fill="#268ABC" d="M135,142.6c-3.2,0-5.7-2.6-5.7-5.7c0-3.2,2.6-5.7,5.7-5.7c2.9,0,5.3,2.2,5.7,4.9c0-0.1,0-0.1,0-0.2
		c0-4.2-3.4-7.6-7.6-7.6c-4.2,0-7.6,3.4-7.6,7.6s3.4,7.6,7.6,7.6c1.7,0,3.4-0.6,4.7-1.6C136.9,142.3,136,142.6,135,142.6z"/>
	<path fill="#CA2120" d="M131.9,148.5c-7.9,0-14.2-6.3-14.2-14.2S124,120,131.9,120c7.5,0,13.6,5.8,14.2,13.2c0-0.3,0-0.5,0-0.8
		c0-10.5-8.5-19.1-19.1-19.1c-10.5,0-19.1,8.5-19.1,19.1s8.5,19.1,19.1,19.1c6.1,0,11.5-2.9,15-7.4
		C139.5,146.8,135.8,148.5,131.9,148.5z"/>
	<path fill="#268ABC" d="M122.9,157.8c-14.9,0-27-12.1-27-27s12.1-27,27-27c14.7,0,26.7,11.7,27,26.3c0-0.3,0-0.5,0-0.8
		c0-16.5-13.3-29.7-29.7-29.7s-29.7,13.3-29.7,29.7c0,16.4,13.3,29.7,29.7,29.7c6.2,0,11.8-1.8,16.6-5
		C132.7,156.4,128,157.8,122.9,157.8z"/>
</g>
</svg>
