<?xml version="1.0" encoding="utf-8"?>
<!-- Generator: Adobe Illustrator 18.0.0, SVG Export Plug-In . SVG Version: 6.00 Build 0)  -->
<!DOCTYPE svg PUBLIC "-//W3C//DTD SVG 1.1//EN" "http://www.w3.org/Graphics/SVG/1.1/DTD/svg11.dtd">
<svg version="1.1" id="图层_1" xmlns="http://www.w3.org/2000/svg" xmlns:xlink="http://www.w3.org/1999/xlink" x="0px" y="0px"
	 viewBox="0 0 120 120" enable-background="new 0 0 120 120" xml:space="preserve">
<g>
	<path fill="#FFFFFF" d="M86.2,83.3c-4.9,0-9-4-9-8.8c0-4.9,4-8.8,9-8.8c4.5,0,8.2,3.3,8.9,7.6c0-0.1,0-0.2,0-0.2
		c0-6.5-5.3-11.7-11.9-11.7c-6.6,0-11.9,5.3-11.9,11.7c0,6.5,5.3,11.7,11.9,11.7c2.7,0,5.3-0.9,7.3-2.5C89.2,83,87.7,83.3,86.2,83.3
		z"/>
	<path fill="#FFFFFF" d="M81.8,92.5c-12.2,0-22.1-9.9-22.1-22.2c0-12.3,9.9-22.2,22.1-22.2c11.7,0,21.2,9.1,22,20.6
		c0-0.4,0-0.8,0-1.2c0-16.4-13.2-29.7-29.6-29.7c-16.3,0-29.6,13.3-29.6,29.7s13.2,29.7,29.6,29.7c9.5,0,17.9-4.5,23.4-11.5
		C93.6,89.9,88,92.5,81.8,92.5z"/>
	<path fill="#FFFFFF" d="M67.2,107.6c-23.8,0-43.1-19.3-43.1-43.1s19.3-43.1,43.1-43.1c23.4,0,42.5,18.7,43.1,41.9
		c0-0.4,0-0.8,0-1.2c0-26.2-21.2-47.4-47.4-47.4c-26.2,0-47.4,21.2-47.4,47.4c0,26.2,21.2,47.4,47.4,47.4c9.7,0,18.5-2.4,26-7.4
		C82.5,105.9,75.3,107.6,67.2,107.6z"/>
	<path fill="#FFFFFF" d="M85.1,83.7c-5.5,0-10-4.5-10-10c0-5.5,4.5-10,10-10c5,0,9.2,3.7,9.9,8.6c0-0.1,0-0.2,0-0.3
		c0-7.3-6-13.3-13.3-13.3c-7.3,0-13.3,6-13.3,13.3s6,13.3,13.3,13.3c3.1,0,5.9-1,8.2-2.8C88.5,83.3,86.9,83.7,85.1,83.7z"/>
	<path fill="#FFFFFF" d="M79.8,93.7c-13.3,0-24.1-10.8-24.1-24.1c0-13.3,10.8-24.1,24.1-24.1c12.7,0,23.1,9.8,24,22.3
		c0-0.4,0-0.8,0-1.3c0-17.8-14.4-32.2-32.2-32.2c-17.8,0-32.2,14.4-32.2,32.2s14.4,32.2,32.2,32.2c10.3,0,19.6-4.9,25.5-12.5
		C92.7,91,86.6,93.7,79.8,93.7z"/>
	<path fill="#FFFFFF" d="M64.6,109.1c-25.3,0-45.8-20.5-45.8-45.8c0-25.3,20.5-45.8,45.8-45.8c24.9,0,45.1,19.8,45.7,44.5
		c0-0.4,0-0.9,0-1.3c0-27.8-22.5-50.3-50.3-50.3C32.2,10.5,9.7,33,9.7,60.8s22.5,50.3,50.3,50.3c10.3,0,19.9-3.1,27.9-8.5
		C81.1,106.7,73.1,109.1,64.6,109.1z"/>
	<g>
		<path fill="#288BBD" d="M85.7,83.5c-5.2,0-9.4-4.2-9.4-9.4s4.2-9.4,9.4-9.4c4.8,0,8.7,3.5,9.3,8.1c0-0.1,0-0.2,0-0.3
			c0-6.9-5.6-12.5-12.5-12.5c-6.9,0-12.5,5.6-12.5,12.5C70,79.4,75.6,85,82.5,85c2.9,0,5.6-1,7.7-2.6C88.9,83.1,87.3,83.5,85.7,83.5
			z"/>
		<path fill="#CB2220" d="M80.5,93.3c-12.9,0-23.4-10.5-23.4-23.4c0-12.9,10.5-23.4,23.4-23.4c12.3,0,22.4,9.6,23.3,21.7
			c0-0.4,0-0.8,0-1.2c0-17.3-14-31.3-31.3-31.3c-17.3,0-31.3,14-31.3,31.3s14,31.3,31.3,31.3c10,0,19-4.7,24.7-12.1
			C93,90.6,87.1,93.3,80.5,93.3z"/>
		<path fill="#288BBD" d="M65.9,108.6c-24.6,0-44.5-19.9-44.5-44.5c0-24.6,19.9-44.5,44.5-44.5C90,19.7,109.7,39,110.3,63
			c0-0.4,0-0.8,0-1.3c0-27-21.9-48.9-48.9-48.9c-27,0-48.9,21.9-48.9,48.9s21.9,48.9,48.9,48.9c10,0,19.4-3,27.1-8.2
			C81.9,106.3,74.2,108.6,65.9,108.6z"/>
	</g>
</g>
</svg>
