<?xml version="1.0" encoding="utf-8"?>
<!-- Generator: Adobe Illustrator 21.0.0, SVG Export Plug-In . SVG Version: 6.00 Build 0)  -->
<svg version="1.1" id="图层_1" xmlns="http://www.w3.org/2000/svg" xmlns:xlink="http://www.w3.org/1999/xlink" x="0px" y="0px"
	 viewBox="0 0 28 28" style="enable-background:new 0 0 28 28;" xml:space="preserve">
<style type="text/css">
	.st0{fill:#E0E7E7;}
</style>
<g>
	<g>
		<path class="st0" d="M22.8,4.3c0,0.3,0,0.7,0,1c0,3.7-5.4,6.9-8,8.7c2.6,1.7,8,5,8,8.7c0,0.3,0,0.7,0,1H5.2c0-0.3,0-0.7,0-1
			c0-3.7,5.4-6.9,8-8.7c-2.6-1.7-8-5-8-8.7c0-0.3,0-0.7,0-1H22.8 M24,3h-1.2H5.2H4L3.9,4.2c0,0.4,0,0.8,0,1.1c0,3.7,4,6.7,7,8.7
			c-3,2-7,5-7,8.7c0,0.4,0,0.7,0,1.1L4,25h1.2h17.6H24l0.1-1.2c0-0.4,0-0.8,0-1.1c0-3.7-4-6.7-7-8.7c3-2,7-5,7-8.7
			c0-0.4,0-0.7,0-1.1L24,3L24,3z"/>
	</g>
	<path class="st0" d="M19.6,9.7H8.4c1.3,1.5,3.6,2.7,5,3.5c0.2,0.1,0.2,0.2,0.2,0.4v9.5h0.7v-9.5c0-0.2,0.1-0.3,0.2-0.4
		C16,12.5,18.3,11.2,19.6,9.7z"/>
	<path class="st0" d="M21.9,23.1H6.1v-0.3c0-1.5,1.2-2.7,2.7-2.7h10.6c1.5,0,2.7,1.2,2.7,2.7V23.1z"/>
</g>
</svg>
