<svg 
 xmlns="http://www.w3.org/2000/svg"
 xmlns:xlink="http://www.w3.org/1999/xlink"
 width="17px" height="17px">
<path fill-rule="evenodd"  fill="rgb(190, 226, 235)"
 d="M14.705,17.000 C14.705,17.000 2.295,17.000 2.295,17.000 C1.027,17.000 -0.000,15.972 -0.000,14.705 C-0.000,14.705 -0.000,3.570 -0.000,3.570 C-0.000,2.302 1.027,1.275 2.295,1.275 C2.295,1.275 5.100,1.275 5.100,1.275 C5.100,1.275 5.100,0.637 5.100,0.637 C5.100,0.285 5.385,-0.000 5.737,-0.000 C6.090,-0.000 6.375,0.285 6.375,0.637 C6.375,0.637 6.375,1.275 6.375,1.275 C6.375,1.275 10.540,1.275 10.540,1.275 C10.540,1.275 10.540,0.637 10.540,0.637 C10.540,0.285 10.825,-0.000 11.177,-0.000 C11.530,-0.000 11.815,0.285 11.815,0.637 C11.815,0.637 11.815,1.275 11.815,1.275 C11.815,1.275 14.705,1.275 14.705,1.275 C15.972,1.275 17.000,2.302 17.000,3.570 C17.000,3.570 17.000,14.705 17.000,14.705 C17.000,15.972 15.972,17.000 14.705,17.000 ZM15.725,3.655 C15.725,3.045 15.230,2.550 14.620,2.550 C14.620,2.550 11.815,2.550 11.815,2.550 C11.815,2.550 11.815,3.187 11.815,3.187 C11.815,3.540 11.530,3.825 11.177,3.825 C10.825,3.825 10.540,3.540 10.540,3.187 C10.540,3.187 10.540,2.550 10.540,2.550 C10.540,2.550 6.375,2.550 6.375,2.550 C6.375,2.550 6.375,3.187 6.375,3.187 C6.375,3.540 6.090,3.825 5.737,3.825 C5.385,3.825 5.100,3.540 5.100,3.187 C5.100,3.187 5.100,2.550 5.100,2.550 C5.100,2.550 2.380,2.550 2.380,2.550 C1.770,2.550 1.275,3.045 1.275,3.655 C1.275,3.655 1.275,4.675 1.275,4.675 C1.275,4.675 15.725,4.675 15.725,4.675 C15.725,4.675 15.725,3.655 15.725,3.655 ZM15.725,5.950 C15.725,5.950 1.275,5.950 1.275,5.950 C1.275,5.950 1.275,14.620 1.275,14.620 C1.275,15.230 1.770,15.725 2.380,15.725 C2.380,15.725 14.620,15.725 14.620,15.725 C15.230,15.725 15.725,15.230 15.725,14.620 C15.725,14.620 15.725,5.950 15.725,5.950 ZM12.750,14.025 C12.046,14.025 11.475,13.454 11.475,12.750 C11.475,12.046 12.046,11.475 12.750,11.475 C13.454,11.475 14.025,12.046 14.025,12.750 C14.025,13.454 13.454,14.025 12.750,14.025 ZM12.750,12.325 C12.515,12.325 12.325,12.515 12.325,12.750 C12.325,12.985 12.515,13.175 12.750,13.175 C12.985,13.175 13.175,12.985 13.175,12.750 C13.175,12.515 12.985,12.325 12.750,12.325 ZM12.750,10.200 C12.046,10.200 11.475,9.629 11.475,8.925 C11.475,8.221 12.046,7.650 12.750,7.650 C13.454,7.650 14.025,8.221 14.025,8.925 C14.025,9.629 13.454,10.200 12.750,10.200 ZM12.750,8.500 C12.515,8.500 12.325,8.690 12.325,8.925 C12.325,9.160 12.515,9.350 12.750,9.350 C12.985,9.350 13.175,9.160 13.175,8.925 C13.175,8.690 12.985,8.500 12.750,8.500 ZM8.500,14.025 C7.796,14.025 7.225,13.454 7.225,12.750 C7.225,12.046 7.796,11.475 8.500,11.475 C9.204,11.475 9.775,12.046 9.775,12.750 C9.775,13.454 9.204,14.025 8.500,14.025 ZM8.500,12.325 C8.265,12.325 8.075,12.515 8.075,12.750 C8.075,12.985 8.265,13.175 8.500,13.175 C8.735,13.175 8.925,12.985 8.925,12.750 C8.925,12.515 8.735,12.325 8.500,12.325 ZM8.500,10.200 C7.796,10.200 7.225,9.629 7.225,8.925 C7.225,8.221 7.796,7.650 8.500,7.650 C9.204,7.650 9.775,8.221 9.775,8.925 C9.775,9.629 9.204,10.200 8.500,10.200 ZM8.500,8.500 C8.265,8.500 8.075,8.690 8.075,8.925 C8.075,9.160 8.265,9.350 8.500,9.350 C8.735,9.350 8.925,9.160 8.925,8.925 C8.925,8.690 8.735,8.500 8.500,8.500 ZM4.250,14.025 C3.546,14.025 2.975,13.454 2.975,12.750 C2.975,12.046 3.546,11.475 4.250,11.475 C4.954,11.475 5.525,12.046 5.525,12.750 C5.525,13.454 4.954,14.025 4.250,14.025 ZM4.250,12.325 C4.015,12.325 3.825,12.515 3.825,12.750 C3.825,12.985 4.015,13.175 4.250,13.175 C4.485,13.175 4.675,12.985 4.675,12.750 C4.675,12.515 4.485,12.325 4.250,12.325 ZM4.250,10.200 C3.546,10.200 2.975,9.629 2.975,8.925 C2.975,8.221 3.546,7.650 4.250,7.650 C4.954,7.650 5.525,8.221 5.525,8.925 C5.525,9.629 4.954,10.200 4.250,10.200 ZM4.250,8.500 C4.015,8.500 3.825,8.690 3.825,8.925 C3.825,9.160 4.015,9.350 4.250,9.350 C4.485,9.350 4.675,9.160 4.675,8.925 C4.675,8.690 4.485,8.500 4.250,8.500 Z"/>
</svg>