<?xml version="1.0" encoding="utf-8"?>
<!-- Generator: Adobe Illustrator 18.0.0, SVG Export Plug-In . SVG Version: 6.00 Build 0)  -->
<!DOCTYPE svg PUBLIC "-//W3C//DTD SVG 1.1//EN" "http://www.w3.org/Graphics/SVG/1.1/DTD/svg11.dtd">
<svg version="1.1" id="图层_1" xmlns="http://www.w3.org/2000/svg" xmlns:xlink="http://www.w3.org/1999/xlink" x="0px" y="0px"
	 viewBox="0 0 32 32" enable-background="new 0 0 32 32" xml:space="preserve">
<g>
	<path fill="#E0E7E7" d="M15.87,28.861c-1.899-0.001-3.797-0.024-5.695,0.008c-1.009,0.017-1.383-0.466-1.508-1.418
		c-0.868-6.6-1.776-13.195-2.661-19.793c-0.07-0.526-0.169-0.961-0.832-0.964C4.743,6.693,4.319,6.557,4.374,6.04
		c0.063-0.598,0.606-0.56,1.037-0.563C7.53,5.464,9.649,5.45,11.768,5.476c0.946,0.012,1.672-0.121,1.659-1.315
		C13.42,3.54,13.888,3.365,14.429,3.36c0.883-0.008,1.767,0.02,2.648-0.02c0.987-0.045,1.738,0.072,1.755,1.351
		c0.011,0.787,0.729,0.766,1.305,0.769c2.075,0.012,4.15-0.001,6.225,0.015c0.463,0.004,1.123-0.148,1.247,0.453
		c0.151,0.73-0.576,0.611-1.004,0.725c-0.526,0.14-0.645,0.537-0.707,0.998c-0.799,5.986-1.667,11.965-2.373,17.962
		c-0.365,3.104-0.372,3.25-3.418,3.249C18.696,28.862,17.283,28.863,15.87,28.861z M16.068,6.608c-2.513,0-5.027,0.005-7.54-0.003
		c-0.732-0.002-1.143,0.153-1.02,1.068c0.84,6.24,1.649,12.485,2.428,18.733c0.125,1.003,0.587,1.341,1.556,1.33
		c2.998-0.034,5.997-0.027,8.995-0.005c0.9,0.007,1.33-0.294,1.451-1.267c0.388-3.101,0.885-6.189,1.327-9.284
		c0.436-3.051,0.827-6.108,1.3-9.152c0.182-1.17-0.28-1.462-1.355-1.439C20.831,6.64,18.45,6.605,16.068,6.608z"/>
	<path fill="#E0E7E7" d="M21.354,11.379c-0.325,4.129-0.664,8.474-1.011,12.818c-0.039,0.482-0.05,1.063-0.742,1.018
		c-0.513-0.034-0.56-0.503-0.533-0.912c0.301-4.524,0.61-9.047,0.92-13.569c0.015-0.219,0.053-0.438,0.095-0.654
		c0.072-0.366,0.214-0.718,0.649-0.707c0.431,0.011,0.582,0.362,0.614,0.735C21.377,10.458,21.354,10.812,21.354,11.379z"/>
	<path fill="#E0E7E7" d="M10.799,12.559c-0.058-0.762-0.119-1.463-0.162-2.165c-0.028-0.457-0.004-0.97,0.577-1.003
		c0.498-0.028,0.599,0.445,0.638,0.85c0.18,1.837,0.459,3.674,0.492,5.514c0.044,2.513,0.338,4.999,0.547,7.495
		c0.029,0.349,0.019,0.705-0.002,1.055c-0.024,0.402-0.068,0.857-0.572,0.91c-0.608,0.063-0.66-0.445-0.751-0.88
		c-0.451-2.169-0.236-4.385-0.46-6.575C10.93,16.019,10.596,14.271,10.799,12.559z"/>
	<path fill="#E0E7E7" d="M16.647,17.356c0.001,2.248,0.011,4.497-0.008,6.745c-0.004,0.45,0.109,1.122-0.607,1.088
		c-0.586-0.028-0.508-0.635-0.509-1.057c-0.009-4.497-0.011-8.994,0.002-13.49c0.001-0.453-0.12-1.141,0.541-1.158
		c0.68-0.017,0.567,0.676,0.571,1.126C16.658,12.859,16.646,15.107,16.647,17.356z"/>
</g>
</svg>
