<?xml version="1.0" encoding="utf-8"?>
<!-- Generator: Adobe Illustrator 18.0.0, SVG Export Plug-In . SVG Version: 6.00 Build 0)  -->
<!DOCTYPE svg PUBLIC "-//W3C//DTD SVG 1.1//EN" "http://www.w3.org/Graphics/SVG/1.1/DTD/svg11.dtd">
<svg version="1.1" id="图层_1" xmlns="http://www.w3.org/2000/svg" xmlns:xlink="http://www.w3.org/1999/xlink" x="0px" y="0px"
	 viewBox="0 0 612 792" enable-background="new 0 0 612 792" xml:space="preserve">
<g>
	<path fill="#727575" d="M303.5,642c-36.3,0-72.6-0.5-108.9,0.2c-19.3,0.3-26.4-8.9-28.8-27.1c-16.6-126.2-34-252.4-50.9-378.5
		c-1.3-10.1-3.2-18.4-15.9-18.4c-8.2,0-16.4-2.6-15.3-12.5c1.2-11.4,11.6-10.7,19.8-10.8c40.5-0.2,81.1-0.5,121.6,0
		c18.1,0.2,32-2.3,31.7-25.1c-0.1-11.9,8.8-15.2,19.2-15.3c16.9-0.2,33.8,0.4,50.6-0.4c18.9-0.9,33.2,1.4,33.6,25.8
		c0.2,15.1,13.9,14.6,25,14.7c39.7,0.2,79.4,0,119.1,0.3c8.9,0.1,21.5-2.8,23.8,8.7c2.9,14-11,11.7-19.2,13.9
		c-10.1,2.7-12.3,10.3-13.5,19.1c-15.3,114.5-31.9,228.8-45.4,343.5c-7,59.4-7.1,62.2-65.4,62.1C357.6,642,330.5,642,303.5,642z
		 M307.3,216.4c-48.1,0-96.1,0.1-144.2-0.1c-14,0-21.9,2.9-19.5,20.4C159.7,356.1,175.1,475.5,190,595c2.4,19.2,11.2,25.6,29.8,25.4
		c57.3-0.7,114.7-0.5,172-0.1c17.2,0.1,25.4-5.6,27.8-24.2c7.4-59.3,16.9-118.4,25.4-177.6c8.3-58.4,15.8-116.8,24.9-175
		c3.5-22.4-5.4-28-25.9-27.5C398.4,217,352.9,216.3,307.3,216.4z"/>
	<path fill="#727575" d="M408.4,307.6c-6.2,79-12.7,162.1-19.3,245.1c-0.7,9.2-1,20.3-14.2,19.5c-9.8-0.7-10.7-9.6-10.2-17.4
		c5.8-86.5,11.7-173,17.6-259.5c0.3-4.2,1-8.4,1.8-12.5c1.4-7,4.1-13.7,12.4-13.5c8.2,0.2,11.1,6.9,11.7,14.1
		C408.8,290,408.4,296.8,408.4,307.6z"/>
	<path fill="#727575" d="M206.5,330.2c-1.1-14.6-2.3-28-3.1-41.4c-0.5-8.7-0.1-18.6,11-19.2c9.5-0.5,11.5,8.5,12.2,16.3
		c3.4,35.1,8.8,70.3,9.4,105.5c0.8,48.1,6.5,95.6,10.5,143.3c0.6,6.7,0.4,13.5,0,20.2c-0.5,7.7-1.3,16.4-10.9,17.4
		c-11.6,1.2-12.6-8.5-14.4-16.8c-8.6-41.5-4.5-83.9-8.8-125.7C209,396.4,202.6,362.9,206.5,330.2z"/>
	<path fill="#727575" d="M318.4,421.9c0,43,0.2,86-0.2,129c-0.1,8.6,2.1,21.5-11.6,20.8c-11.2-0.5-9.7-12.1-9.7-20.2
		c-0.2-86-0.2-172,0-258c0-8.7-2.3-21.8,10.3-22.1c13-0.3,10.8,12.9,10.9,21.5C318.6,335.9,318.4,378.9,318.4,421.9z"/>
</g>
</svg>
