<?xml version="1.0" encoding="utf-8"?>
<!-- Generator: Adobe Illustrator 18.0.0, SVG Export Plug-In . SVG Version: 6.00 Build 0)  -->
<!DOCTYPE svg PUBLIC "-//W3C//DTD SVG 1.1//EN" "http://www.w3.org/Graphics/SVG/1.1/DTD/svg11.dtd">
<svg version="1.1" id="图层_1" xmlns="http://www.w3.org/2000/svg" xmlns:xlink="http://www.w3.org/1999/xlink" x="0px" y="0px"
	 viewBox="0 0 47.99 48" enable-background="new 0 0 47.99 48" xml:space="preserve">
<g>
	<g>
		<rect x="7.495" y="7.496" fill="#153B56" width="33" height="33.008"/>
		<path fill="#1E6BA2" d="M39.995,7.996v32.007h-32V7.996H39.995 M40.995,6.996h-34v34.007h34V6.996L40.995,6.996z"/>
	</g>
	<g>
		<polyline fill="none" stroke="#2BB3EC" stroke-width="2" stroke-miterlimit="10" points="12.995,7.996 7.995,7.996 7.995,13 		"/>
		<polyline fill="none" stroke="#2BB3EC" stroke-width="2" stroke-miterlimit="10" points="7.995,35 7.995,40.004 12.995,40.004 		
			"/>
	</g>
	<g>
		<polyline fill="none" stroke="#2BB3EC" stroke-width="2" stroke-miterlimit="10" points="34.995,7.996 39.995,7.996 39.995,13 		
			"/>
		<polyline fill="none" stroke="#2BB3EC" stroke-width="2" stroke-miterlimit="10" points="40.045,35 40.045,40.004 35.045,40.004 
					"/>
	</g>
</g>
<path fill="#4DBAAD" d="M33.835,23.667c0.046,0.538-0.514,1.104-1.026,1.629c-2.237,2.295-4.537,4.528-6.771,6.827
	c-1.37,1.41-3.268,1.564-4.965,2.163c-0.563,0.198-0.863-0.234-0.688-1.068c0.595-2.829,2.052-5.011,4.244-6.86
	c1.638-1.382,3.055-3.022,4.596-4.521c0.768-0.747,1.674-1.372,2.773-0.827C32.93,21.473,33.763,22.141,33.835,23.667z"/>
<g>
	<circle fill="#4DBAAD" cx="29.834" cy="14.353" r="2.747"/>
	<circle fill="#4DBAAD" cx="18.093" cy="23.28" r="4.098"/>
	<circle fill="#4DBAAD" cx="31.217" cy="33.617" r="2.778"/>
	<line fill="none" stroke="#4DBAAD" stroke-width="2" stroke-miterlimit="10" x1="27.865" y1="30.977" x2="31.217" y2="33.617"/>
	<line fill="none" stroke="#4DBAAD" stroke-width="2" stroke-miterlimit="10" x1="18.093" y1="23.28" x2="22.962" y2="27.114"/>
	<line fill="none" stroke="#4DBAAD" stroke-width="2" stroke-miterlimit="10" x1="18.093" y1="23.591" x2="29.834" y2="14.353"/>
</g>
</svg>
