<?xml version="1.0" encoding="utf-8"?>
<!-- Generator: Adobe Illustrator 21.0.2, SVG Export Plug-In . SVG Version: 6.00 Build 0)  -->
<svg version="1.1" id="图标_2_" xmlns="http://www.w3.org/2000/svg" xmlns:xlink="http://www.w3.org/1999/xlink" x="0px" y="0px"
	 viewBox="0 0 31 31" style="enable-background:new 0 0 31 31;" xml:space="preserve">
<style type="text/css">
	.st0{fill-rule:evenodd;clip-rule:evenodd;fill:#575757;}
	.st1{fill-rule:evenodd;clip-rule:evenodd;fill:#C6C6C6;}
</style>
<g id="圆">
	<g>
		<circle class="st0" cx="15.5" cy="15.5" r="15.5"/>
	</g>
</g>
<g id="图标">
	<g>
		<path class="st1" d="M7,12h18V9H15V6H6v17h7v-1H7V12z M7,7h7v3h10v1H7V7z M26,16v-3h-4v1h-2v4h-1v-3h-5v7h5v-3h1v4h2v1h4v-3h-4v1
			h-1v-7h1v1H26z M23,14h2v1h-2V14z M18,21h-3v-5h3V21z M23,22h2v1h-2V22z"/>
	</g>
</g>
</svg>
