<?xml version="1.0" encoding="utf-8"?>
<!-- Generator: Adobe Illustrator 21.0.0, SVG Export Plug-In . SVG Version: 6.00 Build 0)  -->
<svg version="1.1" id="图层_1" xmlns="http://www.w3.org/2000/svg" xmlns:xlink="http://www.w3.org/1999/xlink" x="0px" y="0px"
	 viewBox="0 0 48 48" style="enable-background:new 0 0 48 48;" xml:space="preserve">
<style type="text/css">
	.st0{display:none;}
	.st1{display:inline;fill:none;stroke:#000000;stroke-width:0.1;stroke-miterlimit:10;}
	.st2{fill:#575652;}
	.st3{fill:#CAC7C1;}
</style>
<g class="st0">
	<rect class="st1" width="48" height="48"/>
	<rect x="1" y="9" class="st1" width="46" height="30"/>
	<rect x="9" y="1" class="st1" width="30" height="46"/>
	<rect x="5" y="5" class="st1" width="38" height="38"/>
	<circle class="st1" cx="24" cy="24" r="9"/>
	<rect x="15" class="st1" width="18" height="48"/>
	<rect y="15" class="st1" width="48" height="18"/>
	<line class="st1" x1="0" y1="24" x2="48" y2="24"/>
	<line class="st1" x1="24" y1="0" x2="24" y2="48"/>
</g>
<circle class="st2" cx="25.1" cy="21.8" r="21"/>
<g>
	<g>
		<g>
			<rect x="19.3" y="22.8" class="st3" width="3.6" height="5.7"/>
			<path class="st3" d="M23.7,29.3h-5.2v-7.2h5.2V29.3z M20.1,27.7h2.1v-4.1h-2.1V27.7z"/>
		</g>
		<polygon class="st3" points="27.2,32.6 25.7,32.6 25.7,19.9 31.2,19.9 31.2,21.5 27.2,21.5 		"/>
		<rect x="23.2" y="25.1" class="st3" width="2.7" height="1.5"/>
		<rect x="27.1" y="31" class="st3" width="4.2" height="1.6"/>
		<g>
			<rect x="31.7" y="19.4" class="st3" width="3" height="2.5"/>
			<path class="st3" d="M35.3,22.5H31v-3.4h4.3V22.5z M32.2,21.6H34v-1.3h-1.8V21.6z"/>
		</g>
		<g>
			<rect x="31.6" y="30.4" class="st3" width="3" height="2.5"/>
			<path class="st3" d="M35.3,33.5H31v-3.4h4.3V33.5z M32.3,32.6h1.8v-1.3h-1.8V32.6z"/>
		</g>
		<g>
			<path class="st3" d="M13.7,35.1L13.7,35.1c-0.4,0-0.7-0.5-0.7-1V13.9c0-0.6,0.3-1,0.7-1l0,0c0.4,0,0.7,0.5,0.7,1v20.2
				C14.4,34.7,14.1,35.1,13.7,35.1z"/>
			<path class="st3" d="M13.7,35.7c-0.7,0-1.2-0.7-1.2-1.6V13.9c0-0.9,0.5-1.6,1.2-1.6c0.6,0,1.2,0.6,1.3,1.5V34
				C14.9,35,14.4,35.7,13.7,35.7z M13.7,13.5c0,0.1-0.1,0.2-0.1,0.4v20.2c0,0.2,0.1,0.4,0.1,0.4c0.1-0.1,0.1-0.2,0.2-0.5V13.9
				C13.9,13.7,13.8,13.6,13.7,13.5z"/>
		</g>
		<g>
			<path class="st3" d="M20.7,34.6L20.7,34.6c0,0.4-0.3,0.6-0.6,0.6h-6.2c-0.4,0-0.6-0.3-0.6-0.6l0,0c0-0.4,0.3-0.6,0.6-0.6h6.2
				C20.5,33.9,20.7,34.2,20.7,34.6z"/>
			<path class="st3" d="M20.1,35.7h-6.2c-0.6,0-1.2-0.5-1.2-1.2s0.5-1.2,1.2-1.2h6.2c0.6,0,1.2,0.5,1.2,1.2S20.7,35.7,20.1,35.7z
				 M13.9,34.5c-0.1,0-0.1,0.1-0.1,0.1l0.1,0.1h6.2c0.1,0,0.1-0.1,0.1-0.1l-0.1-0.1H13.9z"/>
		</g>
	</g>
	<g>
		<path class="st3" d="M24.1,12.5v-0.9c0-0.3-0.4-0.6-0.9-0.6H14c-0.5,0-0.9,0.3-0.9,0.6v2.1c0,0.3,0.4,0.6,0.9,0.6h8.6h1.5h10
			c0.5,0,0.9-0.3,0.9-0.6l0,0c0-0.3-0.4-0.6-0.9-0.6h-9C24.5,13.1,24.1,12.8,24.1,12.5z"/>
		<path class="st3" d="M34,14.9H14c-0.9,0-1.5-0.5-1.5-1.2v-2.1c0-0.7,0.7-1.2,1.5-1.2h9.1c0.9,0,1.5,0.5,1.5,1.2v0.9
			c0.1,0,0.2,0.1,0.3,0.1h9c0.9,0,1.5,0.5,1.5,1.2S34.9,14.9,34,14.9z M13.8,13.6c0.1,0,0.2,0.1,0.3,0.1h10.4c-0.6-0.2-1-0.6-1-1.1
			v-0.9c-0.1,0-0.2-0.1-0.3-0.1H14c-0.1,0-0.2,0-0.3,0.1v1.9H13.8z"/>
	</g>
</g>
</svg>
