<?xml version="1.0" encoding="utf-8"?>
<!-- Generator: Adobe Illustrator 18.0.0, SVG Export Plug-In . SVG Version: 6.00 Build 0)  -->
<!DOCTYPE svg PUBLIC "-//W3C//DTD SVG 1.1//EN" "http://www.w3.org/Graphics/SVG/1.1/DTD/svg11.dtd">
<svg version="1.1" id="图层_1" xmlns="http://www.w3.org/2000/svg" xmlns:xlink="http://www.w3.org/1999/xlink" x="0px" y="0px"
	 viewBox="0 0 48.339 48.339" enable-background="new 0 0 48.339 48.339" xml:space="preserve">
<path fill="#8E8638" d="M41.399,12.91c-2.71,0-4.906-2.197-4.906-4.906c0-0.262,0.038-0.513,0.077-0.763
	c-3.478-2.552-7.756-4.078-12.401-4.078c-11.601,0-21.006,9.405-21.006,21.006s9.405,21.006,21.006,21.006
	s21.006-9.405,21.006-21.006c0-4.166-1.228-8.039-3.32-11.305C41.703,12.879,41.555,12.91,41.399,12.91z"/>
<circle fill="#E4552E" cx="41.399" cy="8.004" r="3.777"/>
<g>
	<path fill="#DBE5E7" d="M25.347,28.148l1.729-13.892c0-1.559-1.264-2.823-2.823-2.823c-1.559,0-2.823,1.264-2.823,2.823
		l1.729,13.892H25.347z"/>
	<circle fill="#DBE5E7" cx="24.253" cy="33.11" r="2.5"/>
</g>
</svg>
