<svg 
 xmlns="http://www.w3.org/2000/svg"
 xmlns:xlink="http://www.w3.org/1999/xlink"
 width="30px" height="25px">
<path fill-rule="evenodd"  fill="rgb(232, 240, 242)"
 d="M29.011,17.273 C28.917,17.312 28.849,17.358 28.792,17.418 C28.737,17.476 28.735,17.533 28.743,17.571 C28.750,17.610 28.774,17.664 28.843,17.695 C29.095,17.811 29.416,17.985 29.659,18.307 C29.855,18.567 30.068,19.010 29.955,19.637 C29.880,20.051 29.728,20.662 29.258,21.184 C28.773,21.720 28.135,21.916 27.475,21.755 C27.217,21.692 26.987,21.586 26.923,21.694 C26.889,21.753 26.929,21.899 26.944,21.931 C27.281,22.670 27.026,23.513 26.326,23.980 C25.829,24.311 25.273,24.519 24.671,24.597 C24.598,24.606 24.526,24.610 24.455,24.610 C23.821,24.610 23.263,24.238 22.970,23.599 C22.886,23.416 22.873,23.311 22.740,23.302 C22.575,23.291 22.513,23.532 22.498,23.571 C22.195,24.329 21.414,24.731 20.572,24.576 C19.857,24.445 19.284,24.201 18.821,23.829 C18.457,23.536 18.250,23.199 18.184,22.798 C18.124,22.436 18.220,22.136 18.298,21.942 C18.338,21.837 18.377,21.734 18.374,21.672 C18.265,21.681 18.086,21.716 17.884,21.762 C17.205,21.915 16.580,21.689 16.165,21.153 C15.760,20.631 15.531,20.040 15.484,19.394 C15.430,18.632 15.790,18.033 16.472,17.752 C16.664,17.673 16.775,17.580 16.766,17.505 C16.748,17.358 16.617,17.358 16.604,17.351 C15.652,17.025 15.336,16.047 15.528,15.254 C15.637,14.797 15.806,14.266 16.220,13.801 C16.812,13.139 17.476,13.199 17.821,13.294 C18.052,13.358 18.170,13.383 18.262,13.389 C18.385,13.394 18.437,13.337 18.464,13.288 C18.487,13.243 18.477,13.198 18.476,13.156 C18.473,13.104 18.449,13.017 18.449,13.017 C18.428,12.944 18.415,12.883 18.398,12.814 C18.242,12.183 18.446,11.603 18.989,11.175 C19.473,10.793 20.083,10.563 20.851,10.475 C21.549,10.397 22.125,10.718 22.438,11.359 C22.505,11.500 22.546,11.596 22.615,11.636 C22.786,11.735 22.912,11.582 22.934,11.534 C23.011,11.362 23.127,11.194 23.258,11.031 C23.600,10.600 24.126,10.391 24.680,10.481 C25.118,10.543 25.766,10.677 26.319,11.124 C26.515,11.281 26.935,11.615 27.058,12.199 C27.134,12.580 27.025,12.888 26.951,13.092 C26.918,13.183 26.908,13.252 26.914,13.325 C26.918,13.375 27.004,13.429 27.059,13.429 C27.166,13.429 27.265,13.409 27.371,13.366 C28.122,13.058 28.861,13.272 29.345,13.926 C29.713,14.422 29.925,15.005 29.997,15.705 C30.068,16.386 29.699,16.971 29.011,17.273 ZM28.425,19.203 C28.386,19.153 28.275,19.097 28.194,19.060 C27.694,18.831 27.336,18.381 27.234,17.853 C27.132,17.326 27.296,16.777 27.674,16.386 C27.870,16.180 28.113,16.014 28.391,15.895 C28.426,15.428 28.306,15.086 28.102,14.810 C28.102,14.810 28.031,14.721 28.031,14.721 C28.031,14.721 27.955,14.757 27.955,14.757 C27.636,14.887 27.306,14.931 26.971,14.934 C26.157,14.906 25.460,14.257 25.385,13.459 C25.359,13.164 25.398,12.883 25.503,12.595 C25.503,12.595 25.550,12.449 25.550,12.449 C25.542,12.445 25.394,12.329 25.346,12.289 C25.142,12.124 24.878,12.030 24.458,11.971 C24.403,12.038 24.352,12.117 24.314,12.193 C24.066,12.691 23.580,13.047 23.013,13.145 C22.472,13.236 21.938,13.086 21.552,12.723 C21.296,12.482 21.149,12.211 21.050,12.004 C20.549,12.026 20.207,12.146 19.951,12.349 C19.921,12.586 19.939,12.730 19.954,12.876 C19.954,12.876 19.970,13.175 19.970,13.175 C19.970,13.175 19.945,13.423 19.945,13.423 C19.888,14.238 19.251,14.838 18.360,14.893 C18.017,14.918 17.728,14.834 17.492,14.769 C17.220,14.968 17.116,15.202 17.020,15.600 C17.020,15.605 16.962,15.880 17.133,15.939 C17.499,16.064 17.765,16.334 17.957,16.555 C18.352,17.014 18.419,17.617 18.141,18.170 C17.924,18.604 17.515,18.867 17.067,19.141 C17.053,19.150 17.028,19.174 17.021,19.189 C17.011,19.212 17.016,19.288 17.016,19.288 C17.040,19.635 17.166,19.956 17.386,20.241 C17.437,20.306 17.451,20.316 17.545,20.293 C17.786,20.240 18.043,20.188 18.324,20.188 C18.420,20.189 18.516,20.194 18.611,20.206 C19.327,20.300 19.873,20.887 19.906,21.600 C19.924,21.952 19.825,22.241 19.729,22.485 C19.729,22.485 19.683,22.568 19.683,22.568 C19.683,22.568 19.792,22.664 19.792,22.664 C20.054,22.874 20.392,23.011 20.852,23.097 C21.035,23.123 21.054,23.057 21.068,23.022 C21.200,22.695 21.420,22.417 21.723,22.193 C22.238,21.815 22.835,21.743 23.406,21.993 C23.835,22.183 24.157,22.515 24.370,22.983 C24.407,23.064 24.445,23.101 24.456,23.107 C24.838,23.055 25.163,22.935 25.464,22.735 C25.493,22.716 25.587,22.643 25.544,22.548 C25.413,22.265 25.364,21.952 25.390,21.589 C25.433,20.936 25.987,20.328 26.652,20.212 C27.094,20.135 27.491,20.206 27.852,20.296 C27.924,20.315 27.981,20.328 28.109,20.185 C28.272,20.004 28.375,19.754 28.444,19.376 C28.465,19.257 28.441,19.225 28.425,19.203 ZM22.741,21.059 C22.741,21.059 22.702,21.059 22.702,21.059 C21.756,21.059 20.861,20.699 20.182,20.040 C19.488,19.369 19.105,18.474 19.103,17.521 C19.097,15.566 20.678,14.013 22.703,13.986 C23.665,13.976 24.583,14.335 25.274,15.000 C25.966,15.665 26.352,16.556 26.359,17.507 C26.375,19.447 24.752,21.040 22.741,21.059 ZM24.199,16.075 C23.808,15.699 23.294,15.493 22.750,15.493 C22.750,15.493 22.723,15.493 22.723,15.493 C21.550,15.507 20.635,16.397 20.638,17.518 C20.639,18.066 20.859,18.580 21.260,18.967 C21.654,19.351 22.153,19.601 22.726,19.553 C23.893,19.542 24.835,18.629 24.824,17.518 C24.820,16.971 24.598,16.459 24.199,16.075 ZM17.443,12.797 C17.368,12.780 17.279,12.757 17.160,12.724 C16.769,12.617 16.016,12.549 15.345,13.299 C15.306,13.342 15.280,13.388 15.246,13.432 C15.246,13.432 14.702,12.588 14.702,12.588 C14.702,12.588 13.495,16.545 13.495,16.545 C13.495,16.545 11.236,11.781 11.236,11.781 C11.236,11.781 10.677,10.985 10.677,10.985 C10.677,10.985 9.629,13.181 9.629,13.181 C9.629,13.181 6.399,14.157 6.399,14.157 C5.964,14.288 5.507,14.048 5.373,13.624 C5.240,13.199 5.483,12.749 5.917,12.617 C5.917,12.617 8.451,11.852 8.451,11.852 C8.451,11.852 10.403,7.759 10.403,7.759 C10.403,7.759 12.694,11.040 12.694,11.040 C12.694,11.040 13.162,12.024 13.162,12.024 C13.162,12.024 14.163,8.740 14.163,8.740 C14.163,8.740 16.131,11.791 16.131,11.791 C16.131,11.791 18.795,6.922 18.795,6.922 C18.795,6.922 20.595,9.527 20.595,9.527 C19.725,9.627 19.034,9.888 18.485,10.321 C17.885,10.795 17.656,11.432 17.809,12.127 C17.809,12.127 17.443,12.797 17.443,12.797 ZM28.061,11.347 C27.614,11.274 27.312,10.860 27.385,10.421 C27.446,10.057 27.469,9.687 27.452,9.325 C27.514,6.197 26.243,4.014 23.450,2.402 C21.251,1.132 18.978,1.386 16.697,3.157 C15.195,4.320 13.907,4.302 12.389,3.092 C11.299,2.224 10.193,1.765 9.011,1.692 C6.245,1.513 3.675,3.167 2.324,5.991 C1.033,8.687 1.605,11.855 3.746,13.874 C5.880,15.888 8.131,17.863 10.307,19.773 C11.564,20.875 12.819,21.977 14.062,23.094 C14.461,23.451 14.577,23.514 15.132,23.017 C15.467,22.719 15.985,22.740 16.292,23.068 C16.597,23.397 16.574,23.907 16.240,24.206 C15.658,24.727 15.093,24.987 14.534,24.988 C14.004,24.988 13.480,24.752 12.955,24.282 C11.717,23.169 10.465,22.071 9.213,20.974 C7.026,19.054 4.764,17.069 2.608,15.035 C-0.040,12.536 -0.751,8.627 0.838,5.307 C2.482,1.870 5.650,-0.144 9.115,0.085 C10.629,0.179 12.078,0.770 13.423,1.842 C14.344,2.574 14.786,2.585 15.679,1.893 C18.508,-0.299 21.483,-0.602 24.282,1.014 C27.594,2.925 29.167,5.637 29.092,9.304 C29.114,9.726 29.084,10.208 29.004,10.684 C28.931,11.122 28.513,11.424 28.061,11.347 Z"/>
</svg>