<svg 
 xmlns="http://www.w3.org/2000/svg"
 xmlns:xlink="http://www.w3.org/1999/xlink"
 width="25.333px" height="26.333px">
<path fill-rule="evenodd"  stroke="rgb(17, 199, 185)" stroke-width="1.333px" stroke-linecap="butt" stroke-linejoin="miter" fill="none"
 d="M2.000,13.000 C2.000,13.000 7.000,1.000 7.000,1.000 C7.000,1.000 10.000,19.000 10.000,19.000 C10.000,19.000 14.000,7.000 14.000,7.000 C14.000,7.000 18.000,16.000 18.000,16.000 C18.000,16.000 22.000,8.000 22.000,8.000 "/>
<path fill-rule="evenodd"  fill="rgb(17, 199, 185)"
 d="M2.000,12.000 C3.105,12.000 4.000,12.895 4.000,14.000 C4.000,15.105 3.105,16.000 2.000,16.000 C0.895,16.000 -0.000,15.105 -0.000,14.000 C-0.000,12.895 0.895,12.000 2.000,12.000 Z"/>
<path fill-rule="evenodd"  fill="rgb(17, 199, 185)"
 d="M7.000,-0.000 C8.105,-0.000 9.000,0.895 9.000,2.000 C9.000,3.105 8.105,4.000 7.000,4.000 C5.895,4.000 5.000,3.105 5.000,2.000 C5.000,0.895 5.895,-0.000 7.000,-0.000 Z"/>
<path fill-rule="evenodd"  fill="rgb(17, 199, 185)"
 d="M10.000,19.000 C11.105,19.000 12.000,19.895 12.000,21.000 C12.000,22.105 11.105,23.000 10.000,23.000 C8.895,23.000 8.000,22.105 8.000,21.000 C8.000,19.895 8.895,19.000 10.000,19.000 Z"/>
<path fill-rule="evenodd"  fill="rgb(17, 199, 185)"
 d="M14.000,6.000 C15.105,6.000 16.000,6.895 16.000,8.000 C16.000,9.105 15.105,10.000 14.000,10.000 C12.895,10.000 12.000,9.105 12.000,8.000 C12.000,6.895 12.895,6.000 14.000,6.000 Z"/>
<path fill-rule="evenodd"  fill="rgb(17, 199, 185)"
 d="M22.000,6.000 C23.105,6.000 24.000,6.895 24.000,8.000 C24.000,9.105 23.105,10.000 22.000,10.000 C20.895,10.000 20.000,9.105 20.000,8.000 C20.000,6.895 20.895,6.000 22.000,6.000 Z"/>
<path fill-rule="evenodd"  fill="rgb(17, 199, 185)"
 d="M18.000,15.000 C19.105,15.000 20.000,15.895 20.000,17.000 C20.000,18.105 19.105,19.000 18.000,19.000 C16.895,19.000 16.000,18.105 16.000,17.000 C16.000,15.895 16.895,15.000 18.000,15.000 Z"/>
</svg>