<svg 
 xmlns="http://www.w3.org/2000/svg"
 xmlns:xlink="http://www.w3.org/1999/xlink"
 width="16px" height="16px">
<path fill-rule="evenodd"  fill="rgb(220, 52, 54)"
 d="M8.000,-0.000 C12.418,-0.000 16.000,3.582 16.000,8.000 C16.000,12.418 12.418,16.000 8.000,16.000 C3.582,16.000 -0.000,12.418 -0.000,8.000 C-0.000,3.582 3.582,-0.000 8.000,-0.000 Z"/>
<path fill-rule="evenodd"  fill="rgb(238, 238, 238)"
 d="M2.994,4.996 C2.994,4.996 4.996,2.994 4.996,2.994 C4.996,2.994 13.006,11.004 13.006,11.004 C13.006,11.004 11.004,13.006 11.004,13.006 C11.004,13.006 2.994,4.996 2.994,4.996 Z"/>
<path fill-rule="evenodd"  fill="rgb(238, 238, 238)"
 d="M2.994,11.004 C2.994,11.004 11.004,2.994 11.004,2.994 C11.004,2.994 13.006,4.996 13.006,4.996 C13.006,4.996 4.996,13.006 4.996,13.006 C4.996,13.006 2.994,11.004 2.994,11.004 Z"/>
</svg>