<?xml version="1.0" encoding="utf-8"?>
<!-- Generator: Adobe Illustrator 17.0.0, SVG Export Plug-In . SVG Version: 6.00 Build 0)  -->
<!DOCTYPE svg PUBLIC "-//W3C//DTD SVG 1.1//EN" "http://www.w3.org/Graphics/SVG/1.1/DTD/svg11.dtd">
<svg version="1.1" id="图层_1" xmlns="http://www.w3.org/2000/svg" xmlns:xlink="http://www.w3.org/1999/xlink" x="0px" y="0px"
	 width="50px" height="50px" viewBox="0 0 50 50" enable-background="new 0 0 50 50" xml:space="preserve">
<g>
	<g>
		<path fill="#FFFFFF" d="M39.266,43.281l-0.364-0.344c-1.01-0.958-2.332-1.485-3.721-1.485c-1.381,0-2.706,0.527-3.723,1.488
			l-0.364,0.342L30.629,43.1c-1.235-0.478-2.381-1.146-3.409-1.98l-0.384-0.312l0.114-0.483c0.319-1.361,0.114-2.777-0.582-3.993
			c-0.693-1.208-1.81-2.097-3.146-2.505l-0.473-0.144l-0.077-0.49c-0.106-0.668-0.161-1.334-0.161-1.98
			c0-0.646,0.055-1.312,0.161-1.98l0.077-0.49l0.473-0.144c1.317-0.401,2.463-1.314,3.144-2.503
			c0.696-1.208,0.901-2.626,0.584-3.995l-0.111-0.483l0.384-0.312c1.027-0.837,2.176-1.503,3.409-1.98l0.465-0.181l0.364,0.342
			c1.017,0.958,2.339,1.488,3.723,1.488c1.389,0,2.711-0.527,3.721-1.485l0.364-0.344l0.468,0.181
			c1.235,0.478,2.381,1.144,3.411,1.98l0.384,0.312l-0.111,0.483c-0.317,1.369-0.111,2.787,0.582,3.995
			c0.693,1.208,1.81,2.097,3.146,2.505l0.475,0.143l0.077,0.49c0.106,0.671,0.158,1.337,0.158,1.978
			c0,0.641-0.055,1.307-0.158,1.978l-0.077,0.49l-0.475,0.143c-1.322,0.401-2.468,1.314-3.149,2.505
			c-0.683,1.191-0.896,2.649-0.584,3.995l0.111,0.48l-0.384,0.312c-1.025,0.837-2.173,1.503-3.409,1.98L39.266,43.281L39.266,43.281
			z M28.589,40.179c0.673,0.502,1.401,0.926,2.174,1.262c0.552-0.448,1.166-0.81,1.832-1.074c0.829-0.332,1.701-0.5,2.587-0.5
			c1.621,0,3.171,0.555,4.419,1.574c0.77-0.337,1.498-0.76,2.171-1.262c-0.111-0.706-0.114-1.423-0.01-2.136
			c0.129-0.889,0.418-1.73,0.862-2.5c0.441-0.772,1.022-1.446,1.723-2.005c0.564-0.448,1.183-0.802,1.849-1.06
			c0.05-0.431,0.077-0.854,0.077-1.265c0-0.411-0.025-0.834-0.077-1.265c-0.666-0.257-1.285-0.611-1.847-1.06
			c-0.701-0.557-1.282-1.233-1.725-2.005c-0.443-0.77-0.733-1.611-0.862-2.5c-0.104-0.713-0.099-1.431,0.012-2.136
			c-0.673-0.502-1.401-0.926-2.174-1.262c-1.248,1.02-2.797,1.574-4.419,1.574c-0.886,0-1.758-0.168-2.587-0.5
			c-0.666-0.265-1.28-0.626-1.832-1.074c-0.77,0.337-1.498,0.76-2.174,1.262c0.111,0.706,0.116,1.423,0.012,2.136
			c-0.129,0.889-0.421,1.73-0.864,2.5c-0.441,0.77-1.022,1.446-1.723,2.003c-0.562,0.448-1.183,0.802-1.847,1.059
			c-0.049,0.428-0.077,0.852-0.077,1.265c0,0.413,0.025,0.837,0.077,1.265c0.663,0.257,1.285,0.611,1.847,1.059
			c0.701,0.557,1.282,1.233,1.725,2.005C28.55,36.956,28.847,38.585,28.589,40.179L28.589,40.179z M28.589,40.179"/>
		<path fill="#FFFFFF" d="M35.181,35.966c-2.622,0-4.753-2.131-4.753-4.753c0-2.621,2.131-4.753,4.753-4.753
			c2.621,0,4.753,2.131,4.753,4.753c0,0.394-0.047,0.785-0.144,1.164c-0.106,0.423-0.537,0.681-0.96,0.574
			c-0.423-0.106-0.681-0.537-0.574-0.96c0.064-0.252,0.097-0.512,0.097-0.775c0-1.748-1.421-3.169-3.169-3.169
			c-1.748,0-3.169,1.421-3.169,3.169c0,1.748,1.421,3.169,3.169,3.169c0.495,0,0.968-0.111,1.406-0.327
			c0.391-0.196,0.866-0.035,1.062,0.356c0.196,0.391,0.035,0.866-0.356,1.062C36.632,35.8,35.922,35.966,35.181,35.966
			L35.181,35.966z M35.181,35.966"/>
	</g>
	<path fill="#FFFFFF" d="M40.973,15.267H17.291v-2.308h21.374v-2.308H17.291V8.343h23.682V15.267z M40.973,15.267"/>
	<path fill="#FFFFFF" d="M25.448,21.037h-8.157v2.308h6.039C23.973,22.518,24.681,21.748,25.448,21.037z"/>
	<path fill="#FFFFFF" d="M17.291,25.653v2.308h3.383c0.32-0.798,0.691-1.567,1.111-2.308H17.291z"/>
	<path fill="#FFFFFF" d="M19.356,33.732h-2.065v2.308h2.043c-0.015-0.312-0.047-0.62-0.047-0.936
		C19.287,34.64,19.324,34.187,19.356,33.732z"/>
	<path fill="#FFFFFF" d="M17.291,39.502v2.308h3.224c-0.28-0.749-0.516-1.518-0.702-2.308H17.291z"/>
	<path fill="#FFFFFF" d="M11.619,16.081c-2.361,0-4.281-1.92-4.281-4.281c0-2.361,1.92-4.282,4.281-4.282
		c2.36,0,4.28,1.92,4.28,4.282C15.899,14.16,13.979,16.081,11.619,16.081L11.619,16.081z M11.619,9.826
		c-1.088,0-1.973,0.885-1.973,1.973c0,1.088,0.885,1.973,1.973,1.973c1.087,0,1.972-0.885,1.972-1.973
		C13.591,10.711,12.706,9.826,11.619,9.826L11.619,9.826z M11.619,9.826"/>
	<path fill="#FFFFFF" d="M11.619,28.843c-2.361,0-4.281-1.92-4.281-4.28c0-2.361,1.92-4.281,4.281-4.281
		c2.36,0,4.28,1.92,4.28,4.281C15.899,26.923,13.979,28.843,11.619,28.843L11.619,28.843z M11.619,22.588
		c-1.088,0-1.973,0.885-1.973,1.973c0,1.087,0.885,1.972,1.973,1.972c1.087,0,1.972-0.885,1.972-1.972
		C13.591,23.473,12.706,22.588,11.619,22.588L11.619,22.588z M11.619,22.588"/>
	<path fill="#FFFFFF" d="M11.619,41.691c-2.361,0-4.281-1.92-4.281-4.282c0-2.361,1.92-4.281,4.281-4.281
		c2.36,0,4.28,1.92,4.28,4.281C15.899,39.771,13.979,41.691,11.619,41.691L11.619,41.691z M11.619,35.436
		c-1.088,0-1.973,0.885-1.973,1.973c0,1.088,0.885,1.973,1.973,1.973c1.087,0,1.972-0.885,1.972-1.973
		C13.591,36.321,12.706,35.436,11.619,35.436L11.619,35.436z M11.619,35.436"/>
</g>
</svg>
