<?xml version="1.0" encoding="utf-8"?>
<!-- Generator: Adobe Illustrator 18.0.0, SVG Export Plug-In . SVG Version: 6.00 Build 0)  -->
<!DOCTYPE svg PUBLIC "-//W3C//DTD SVG 1.1//EN" "http://www.w3.org/Graphics/SVG/1.1/DTD/svg11.dtd">
<svg version="1.1" id="图层_1" xmlns="http://www.w3.org/2000/svg" xmlns:xlink="http://www.w3.org/1999/xlink" x="0px" y="0px"
	 viewBox="0 0 47.99 48" enable-background="new 0 0 47.99 48" xml:space="preserve">
<g>
	<path fill="#4DBAAD" d="M29.33,37.42c-0.19,0-0.418,0-0.608,0.038c-0.076,0.038-0.19,0.114-0.304,0.152
		c-0.152,0.038-0.228-0.038-0.266,0.038c-0.038,0.076-0.038,0.152-0.038,0.228c-0.076,0.038-0.19,0.076-0.228,0.114
		c-0.076,0.114-0.038,0.419,0,0.571c0.076,0.152,0.266,0.152,0.494,0.266c0.076,0,0.152-0.038,0.19-0.038
		c0.152-0.076,0.342-0.228,0.532-0.342c0.076-0.038,0.114-0.114,0.114-0.19c0.076-0.152,0.152-0.266,0.266-0.419
		c0-0.038,0.038-0.076,0.038-0.114c0-0.038,0-0.076,0-0.114C29.482,37.496,29.368,37.42,29.33,37.42z"/>
	<path fill="#4DBAAD" d="M36.431,32.966c-0.114-0.038-0.19-0.038-0.266-0.038c-0.19,0.152-0.266,0.229-0.418,0.419
		c-0.038,0.114-0.076,0.19-0.114,0.305c-0.038,0.076-0.038,0.152-0.076,0.266c-0.114,0.152-0.152,0.152-0.152,0.419
		c0.038,0.152,0,0.342,0,0.533c0,0.038,0.038,0.076,0.076,0.152c0.038,0.076,0.038,0.19,0.228,0.228
		c0.038,0.114,0.114,0.19,0.19,0.304c0.038,0,0.076,0,0.114-0.038l0.038-0.038c0.038-0.228,0.038-0.419,0.076-0.609
		c0.076-0.19,0.19-0.343,0.266-0.533c0-0.076,0.038-0.152,0.076-0.19c0-0.305-0.114-0.647,0.038-0.838
		c0.038-0.152-0.038-0.228-0.038-0.305C36.431,32.966,36.431,32.966,36.431,32.966z"/>
	<path fill="#4DBAAD" d="M39.697,15.151c0-0.076,0-0.152,0-0.228c0.038-0.076,0.038-0.228,0.038-0.266
		c-0.114-0.038-0.19-0.038-0.266-0.038c0,0-0.038,0.076-0.076,0.076c-0.152,0.114-0.342,0.266-0.456,0.419
		c-0.152,0.114-0.228,0.228-0.38,0.419c-0.076,0.114-0.418,0.152-0.57,0.228c0-0.038-0.038-0.038-0.038-0.038
		c-0.076-0.038-0.152-0.114-0.19-0.19c-0.114-0.381-0.152-0.533-0.494-0.533c-0.114-0.076-0.19-0.19-0.266-0.228
		c-0.076,0-0.152,0-0.228,0.038c-0.114,0-0.152-0.038-0.19-0.076c-0.076,0-0.152,0-0.228,0c-0.114,0.038-0.228,0.038-0.342,0
		c-0.038-0.076-0.038-0.152-0.038-0.228c-0.038-0.038-0.076-0.114-0.152-0.152c-0.19-0.114-0.076-0.19-0.114-0.305
		c-0.152-0.152-0.266-0.266-0.38-0.343c-0.038-0.19-0.19-0.419-0.266-0.495c-0.152-0.228-0.304-0.381-0.456-0.533
		c-0.038-0.038-0.114-0.038-0.19-0.076c-0.19-0.038-0.342,0-0.494,0c-0.076-0.076-0.228-0.114-0.304-0.114c-0.076,0-0.152,0-0.228,0
		c-0.076,0.038-0.152,0.038-0.19,0.076c-0.114,0.038-0.19,0.114-0.304,0.19c-0.19,0.038-0.342,0.152-0.494,0.152
		c-0.266,0.114-0.304,0.19-0.304,0.457c0.038,0.038,0.038,0.038,0.114,0.076c0.076,0.076,0.114,0.114,0.19,0.19
		c0,0.076,0,0.114,0,0.19c-0.076,0.076-0.114,0.19-0.114,0.305c-0.038,0.152-0.152,0.266-0.228,0.419
		c-0.038,0.152-0.038,0.343-0.038,0.571c-0.038,0.038-0.076,0.076-0.076,0.114c-0.076,0.038-0.114,0.076-0.19,0.114
		c-0.152,0.228-0.456,0.19-0.646,0.152c-0.076,0-0.152,0-0.228,0c-0.114,0.152-0.114,0.228-0.114,0.457
		c-0.038,0.076-0.076,0.152-0.114,0.266c0,0.114,0,0.19,0,0.343c-0.038,0.076-0.114,0.114-0.19,0.19c0,0.076-0.038,0.266,0.19,0.343
		c0.076-0.038,0.114-0.038,0.152-0.038c0.114-0.114,0.19-0.152,0.38-0.152c0.038,0.038,0.418,0.266,0.494,0.038
		c0-0.038,0-0.114,0-0.152c0.038,0,0.114,0,0.19,0c0-0.038,0.038-0.076,0.076-0.114c0.152-0.038,0.19,0.038,0.304,0.19
		c0.152,0.114,0.304,0.228,0.456,0.343c0.038,0.076,0.114,0.19,0.038,0.343c-0.038,0-0.076,0.038-0.114,0.038
		c-0.19,0-0.418-0.038-0.608-0.038c-0.152,0.076-0.19,0.114-0.342,0.19c-0.038,0.038-0.076,0.076-0.114,0.114
		c-0.076,0.038-0.152,0.038-0.228,0.076c-0.228,0.076-0.266,0.19-0.304,0.457c-0.114,0.114-0.228,0.19-0.38,0.228
		c-0.038,0-0.038,0.038-0.038,0.038c-0.114,0-0.19,0-0.304,0c-0.076,0.076-0.266,0.228-0.266,0.305
		c-0.076,0.038-0.152,0.152-0.19,0.228c-0.266,0.114-0.494-0.038-0.608-0.19c-0.076,0-0.152,0-0.19,0c0,0-0.038,0-0.076,0.038
		c0,0.038-0.076,0.114-0.114,0.19c-0.076,0.266-0.114,0.419,0.114,0.647c0,0.038,0.038,0.076,0.076,0.076c0,0.038,0,0.076,0,0.114
		c-0.076,0.038-0.114,0.076-0.19,0.114c-0.076,0-0.228,0.19-0.266,0.228c-0.228,0.114-0.304,0.305-0.456,0.495
		c-0.076,0-0.114,0.038-0.152,0.076c-0.114,0.038-0.266,0.038-0.304,0.114c-0.114,0-0.19,0-0.304,0
		c-0.266-0.076-0.532-0.152-0.721,0c-0.038,0-0.076,0-0.076,0.038c-0.152,0.114-0.342,0.114-0.494,0.228
		c-0.076,0.038-0.19,0.038-0.266,0.076c-0.076,0.076-0.19,0.152-0.304,0.19c-0.038,0.038-0.076,0.038-0.152,0.076
		c-0.114,0.228-0.304-0.076-0.38-0.114c-0.152-0.038-0.304-0.076-0.418-0.114c-0.076-0.038-0.114-0.076-0.152-0.114
		c-0.114,0-0.228-0.038-0.342-0.038c-0.038-0.038-0.076-0.038-0.114-0.076c-0.114-0.076-0.228-0.19-0.342-0.266
		c-0.114-0.076-0.342-0.076-0.456-0.114c-0.342,0-0.721,0-1.063,0c-0.19-0.038-0.342-0.114-0.494-0.114
		c-0.304-0.114-0.532-0.152-0.759-0.152c-0.114-0.076-0.114-0.19-0.152-0.228c0.076-0.267-0.114-0.305-0.19-0.457
		c0-0.114-0.038-0.228-0.076-0.343c-0.038-0.038-0.114-0.076-0.152-0.152c-0.342-0.076-0.494-0.266-0.721-0.495
		c-0.038-0.038-0.076-0.076-0.114-0.114c-0.19,0-0.342-0.038-0.532-0.038c-0.076-0.038-0.152-0.076-0.228-0.114
		c-0.114-0.038-0.19-0.038-0.266-0.038c-0.076-0.076-0.152-0.114-0.228-0.19c-0.038-0.076-0.076-0.228-0.076-0.228
		c0-0.038,0.038-0.076,0.038-0.114c0.076-0.076,0.152-0.152,0.228-0.228c0.076-0.19,0.038-0.457,0.038-0.571
		c-0.038-0.076-0.076-0.152-0.114-0.228H18.28c0-0.114,0-0.228-0.038-0.343c0-0.038-0.038-0.076-0.076-0.152
		c-0.076-0.038-0.152-0.114-0.228-0.152c-0.152-0.076-0.342-0.076-0.418-0.19c-0.076-0.19-0.19-0.343-0.228-0.457
		c-0.038-0.152-0.038-0.228-0.114-0.266c-0.114,0-0.228,0-0.342,0c-0.038,0.038-0.076,0.076-0.114,0.114
		c-0.038,0.076-0.038,0.114-0.076,0.19c-0.038,0-0.038,0-0.076,0c-0.228,0.038-0.342,0.038-0.532,0.152
		c-0.152,0.19-0.228,0.19-0.152,0.533c0,0.038,0,0.076,0,0.152c-0.038,0.152-0.266,0.152-0.418,0.152
		c-0.076-0.114-0.228-0.114-0.304-0.114c-0.152-0.038-0.304-0.19-0.418-0.228c-0.19,0-0.19-0.038-0.266,0.152
		c-0.114,0.152-0.19,0.19-0.228,0.419c-0.076,0.114-0.228,0.228-0.304,0.381c0,0.076,0,0.152,0,0.228
		c0.038,0,0.038,0.038,0.076,0.038c-0.038,0.038-0.076,0.038-0.076,0.076c-0.076-0.038-0.152-0.076-0.228-0.076
		c-0.19-0.038-0.342-0.076-0.494-0.114c-0.152,0-0.532,0-0.57,0c0.038,0.076-0.038,0.114,0.076,0.19c0,0.114,0,0.228-0.038,0.305
		c0,0.076,0,0.114,0,0.152c0,0.076,0.038,0.114,0.038,0.152c0,0.114,0,0.19,0,0.305c-0.038,0.076-0.076,0.152-0.114,0.228
		c-0.038,0.038-0.114,0.076-0.19,0.114c-0.038,0.114-0.114,0.228-0.152,0.343c-0.152,0.114-0.152,0.114-0.19,0.305
		c-0.114,0.038-0.19,0.076-0.266,0.152c-0.152,0.038-0.57,0.038-0.608,0.114c-0.076-0.038-0.19-0.076-0.266-0.114
		c-0.152,0.038-0.266,0.038-0.342,0.152c-0.152,0.038-0.228,0-0.342,0c-0.076,0.076-0.152,0.228-0.266,0.305
		c-0.228,0.038-0.228,0-0.304-0.152c0-0.228-0.076-0.152-0.228-0.152c-0.114,0.152-0.57,0.152-0.683,0.152
		c-0.038,0-0.076,0-0.114,0.038c-0.076,0.038-0.114,0.038-0.19,0.076c-0.038,0.076-0.076,0.19-0.152,0.267
		c-0.19,0.076-0.19,0-0.19,0.19c0.038,0.038,0.114,0.076,0.114,0.19c-0.038,0.038-0.114,0.038-0.152,0.076
		c0,0.076,0,0.19,0.038,0.305c0,0.038,0.114,0.114,0.152,0c0.076,0,0.19-0.038,0.304,0.038c0.076,0.152,0.038,0.495,0.038,0.723
		c-0.038,0.038-0.076,0.038-0.114,0.076c-0.228,0.114-0.228,0.038-0.228,0.381l0.038,0.038c0.076,0.076,0.19,0.114,0.266,0.152
		c0.114,0.076,0.266,0.19,0.304,0.381c-0.038,0.076-0.076,0.114-0.076,0.19c0,0.305-0.076,0.305,0.266,0.381
		c0.038,0.114,0.152,0.343,0.304,0.419c0.152,0,0.304-0.038,0.342,0.19c-0.038,0.038-0.038,0.038-0.038,0.076
		c0,0.114-0.076,0.266,0.076,0.381c0,0.038,0,0.076,0.076,0.076c0.038,0.038,0.114,0.114,0.228,0.152c0,0.038,0,0.038,0,0.038
		c-0.038,0.038-0.076,0.076-0.076,0.114C9.85,25.2,9.85,25.2,9.85,25.505c0.038,0.152,0.114,0.267,0.152,0.419
		c0,0.114,0.038,0.381-0.076,0.495c0,0-0.038,0-0.076,0c-0.076-0.152-0.076-0.152-0.152-0.228c-0.304,0-0.266,0.038-0.152,0.343
		c-0.038,0.152-0.038,0.305-0.038,0.457c-0.114,0.076-0.19,0.19-0.114,0.381c0.076,0.038,0.19,0.114,0.342,0.152
		c0.114,0.076,0.228,0.114,0.342,0.19c0.076,0.152,0.19,0.267,0.228,0.495c0,0.038,0.038,0.076,0.038,0.114
		c0.038,0.076,0.076,0.152,0.19,0.229c0.114,0,0.228,0,0.304,0c0.114-0.076,0.19-0.152,0.342-0.152
		c0.076,0.152,0.152,0.267,0.228,0.381c0.114,0.076,0.228,0.19,0.38,0.266c0,0.038,0.038,0.076,0.076,0.152
		c0,0.076,0.038,0.152,0.228,0.228c0.076-0.038,0.19-0.038,0.266-0.038c0.076,0.152,0,0.381,0.19,0.571
		c0.038,0.038,0.114,0.076,0.19,0.114c0,0,0.076,0,0.114,0.038c0.038,0,0.114,0.038,0.152,0.076c0.038,0.038,0.076,0.114,0.19,0.114
		c0.038,0.076,0.076,0.19,0.152,0.343c0.038,0,0.038,0.038,0.076,0.038c0.152,0,0.342,0,0.494,0c0.076,0.076,0.152,0.19,0.266,0.267
		c0,0.038,0.19,0.114,0.266,0.038c0.152-0.076,0.38-0.114,0.57-0.152c0.038,0,0.076,0.038,0.114,0.076
		c-0.038,0.076-0.076,0.152-0.114,0.228c0,0.114-0.038,0.267,0.19,0.343c0.038,0,0.076,0,0.152,0
		c0.038-0.114,0.076-0.228,0.114-0.343c0,0,0.038-0.038,0.038-0.076c0.076-0.038,0.152-0.038,0.19-0.076
		c0.114-0.19,0.304-0.114,0.456,0c0.114,0.038,0.19,0.076,0.266,0.076c0.038,0.076,0.076,0.114,0.114,0.152
		c0.076,0.038,0.19,0.038,0.304,0.038c0.038,0.076,0.038,0.114,0.076,0.19c0.038,0.038,0.114,0.114,0.228,0.152
		c-0.038,0.114-0.076,0.19-0.114,0.305c0,0.038,0,0.076,0,0.114c0.076,0.076,0.266,0.114,0.418,0.076c0.19,0,0.418,0,0.608,0.038
		c0-0.038,0.038-0.038,0.038-0.038c0.076-0.038,0.19-0.038,0.304-0.114c0.152-0.19,0.152-0.228,0.38-0.228
		c0.114-0.152,0.114-0.228,0.342-0.266c0.152-0.076,0.304-0.19,0.456-0.305c0.038,0,0.038,0,0.076,0
		c0.038,0.038,0.076,0.076,0.076,0.114c0.076,0,0.228,0.038,0.38,0.114c0,0.152,0.076,0.19,0.266,0.266c0.038,0,0.076,0,0.152,0
		c0.076-0.076,0.076-0.266,0.076-0.343c0.038-0.038,0.076-0.076,0.114-0.114c0.038,0,0.076,0,0.114,0
		c0.076,0.076,0.152,0.152,0.228,0.304c0,0.076,0,0.152,0,0.228c0.076,0.114,0.228,0.152,0.342,0.343
		c0,0.038-0.038,0.114-0.038,0.19c-0.038,0.038-0.038,0.076-0.038,0.152c-0.038,0.152,0,0.266-0.076,0.419c0,0,0,0.343-0.076,0.343
		c-0.304,0.19-0.494,0.343-0.646,0.685c0,0.228,0,0.419,0,0.609c0.038,0.076,0.076,0.076,0.228,0.076
		c0.076-0.076,0.152-0.114,0.266-0.152c0.076,0,0.114,0,0.152,0.19c0.038,0.076,0.076,0.114,0.114,0.19c0,0.038,0,0.19,0.038,0.19
		c0,0.038,0,0.076,0,0.114l0.038,0.038c0.076,0.038,0.152,0.038,0.228,0.076c0,0.038,0,0.076,0,0.152
		c0,0.038-0.038,0.076-0.038,0.114c0,0.304-0.076,0.457,0.38,0.495c0.038,0.038,0.076,0.114,0.114,0.152
		c0.038,0.038,0.076,0.114,0.152,0.19c0.038,0.038,0.114,0.038,0.152,0.076c0.038,0,0.038,0,0.038,0
		c0.114-0.038,0.228-0.152,0.304-0.228c0.038,0.038,0.076,0.038,0.114,0.076c0,0.114,0,0.19,0,0.305
		c0.114,0.076,0.228,0.152,0.342,0.228c0.038,0,0.076,0,0.114,0c0.038-0.038,0.038-0.038,0.076-0.076c0-0.038,0-0.076,0-0.114
		c-0.038-0.152-0.076-0.228-0.038-0.343c0-0.228-0.038-0.228-0.114-0.381c0-0.114-0.038-0.076,0.076-0.19
		c0.038,0,0.076,0.038,0.152,0.114c0.076,0,0.114,0,0.19,0c0.038-0.076,0.114-0.152,0.19-0.228c0.076,0,0.152,0.038,0.266,0.152
		c0.038,0,0.076,0,0.152,0c0,0,0.266-0.19,0.304-0.076c0.038,0.038,0.076,0.076,0.076,0.114c0.076,0,0.114,0,0.152,0
		c0.076-0.038,0.19-0.152,0.228-0.19c0.076,0,0.152,0,0.228,0c0.038-0.076,0.076-0.114,0.114-0.152
		c0.076-0.114,0.19-0.228,0.342-0.228c0.038,0,0.038,0,0.038,0c0.038,0.038,0.038,0.076,0.038,0.114
		c0.114,0.114,0.494,0.152,0.721,0.19c0.038,0,0.076,0.038,0.152,0.076c0,0.076-0.076,0.152-0.114,0.228c0,0.076,0,0.114,0,0.152
		c0.076,0.114,0.228,0.343,0.38,0.419c0.19,0,0.418,0.076,0.683,0.076c0.038-0.038,0.152-0.076,0.19,0c0.038,0,0.038,0,0.076,0
		c0.038-0.114,0-0.19,0.076-0.19c0.038,0.038,0,0.076,0.152,0.114c0,0.076,0.038,0.114,0.038,0.19c0.076,0,0.114,0,0.19,0
		c0.114-0.076,0.152-0.152,0.304-0.152c0,0.038,0,0.038,0,0.038c-0.152,0.076-0.114,0.19-0.114,0.343
		c0.076,0.076,0.114,0.152,0.19,0.228c0.038,0.114,0,0.19,0.152,0.343c0.114-0.038,0.228-0.038,0.342-0.114c0-0.038,0-0.114,0-0.152
		c-0.076-0.076-0.152-0.19-0.228-0.266c0.038-0.076,0.114-0.038,0.152-0.114c0.076-0.266,0.114-0.228,0.38-0.266
		c0.152-0.038,0.304-0.152,0.494-0.19c0.114,0.076,0.228,0.076,0.304-0.038c0.038-0.038,0.114-0.038,0.266-0.038
		c0.038-0.076,0.114-0.152,0.228-0.152c0.076-0.038,0.114-0.114,0.228-0.19c0.076-0.076,0.152-0.152,0.228-0.266
		c0-0.038,0-0.076,0.038-0.152c0.038,0.076,0.114,0.114,0.19,0.152c0,0,0,0,0.038,0.038c0,0,0,0.038,0,0.076
		c0.038,0,0.19,0.076,0.266,0c0.038-0.114,0-0.076,0.152-0.114c0.076-0.038,0.076-0.152,0.076-0.19c0,0.038,0.038,0.038,0.076,0.076
		c0.038,0,0.076,0,0.152,0c0-0.038,0.038-0.076,0.076-0.114c0.038,0,0.076,0.076,0.228,0.076c0.152-0.152,0.304-0.19,0.494-0.343
		c0.076-0.038,0.114-0.076,0.19-0.076c0.076-0.076,0-0.19,0-0.19c0-0.038,0-0.038,0-0.038c0.076-0.076,0.114-0.114,0.19-0.152
		c0.19-0.076,0.304-0.114,0.456-0.266c0-0.038,0-0.038,0.038-0.076c0.076-0.152,0.19-0.267,0.304-0.343c0,0,0.076,0,0.114-0.038
		c0-0.038,0-0.076,0-0.076c-0.038-0.038-0.038-0.038-0.038-0.114c0.038,0,0.114,0,0.19,0c0.038-0.038,0.076-0.038,0.114-0.076
		c0.076-0.114,0.114-0.228,0.114-0.305c0.038-0.038,0.114-0.076,0.19-0.114c0-0.038,0-0.038,0-0.076
		c-0.038,0-0.038-0.038-0.076-0.076c0.114,0,0.19,0,0.266,0c0-0.152-0.076-0.152-0.114-0.19c0-0.152,0-0.19,0.076-0.267
		c0-0.152,0-0.114,0.152-0.228v-0.038c-0.076,0-0.114-0.038-0.152-0.076c-0.038,0-0.038-0.038-0.038-0.038
		c-0.038-0.038-0.076-0.076-0.114-0.076c0.114-0.076,0.228,0.038,0.342-0.076c0.038-0.076,0.038-0.152,0.038-0.228
		c0.038-0.038,0.19-0.19,0.19-0.266c0.038-0.419,0-0.419,0.304-0.723c0.038,0.038,0.038,0.038,0.038,0.076c0.038,0,0.076,0,0.152,0
		c0.076-0.076,0.076-0.228,0.076-0.266c-0.038-0.038-0.038-0.076-0.038-0.114c0-0.114,0-0.228,0-0.343
		c-0.038-0.038-0.076-0.038-0.114-0.076c0-0.076,0.152-0.076,0.19-0.076c0.038-0.038,0.038-0.076,0.076-0.076
		c0-0.152-0.038-0.19-0.038-0.228c-0.038,0-0.076,0-0.076,0c-0.038,0-0.076,0.038-0.076,0.076c-0.038,0-0.076,0-0.114,0
		c0-0.038,0.038-0.076,0.076-0.076c0.076-0.038,0.342-0.228,0.228-0.305c-0.228-0.038-0.342-0.038-0.494-0.152
		c-0.228,0-0.19,0.038-0.342,0.152c-0.114,0.038-0.152-0.038-0.19-0.076c0,0,0,0,0.038-0.038c0.038,0,0.076-0.038,0.114-0.038
		c0.228-0.152,0.304-0.305,0.532-0.381c0.038-0.076,0.076-0.114,0.114-0.152c0-0.038,0-0.114,0-0.152
		c-0.114-0.076-0.228-0.114-0.304-0.152c0.038-0.038,0.038-0.038,0.038-0.076c0-0.152-0.152-0.152-0.19-0.152
		c-0.038-0.038-0.038-0.038-0.038-0.038c0.114,0,0.19,0,0.304,0c0-0.038,0.038-0.038,0.076-0.076c0-0.076,0-0.076-0.038-0.152
		c-0.152-0.076-0.304-0.19-0.418-0.266c-0.19-0.038-0.266-0.267-0.266-0.381c-0.076-0.114-0.152-0.228-0.19-0.305
		c-0.114-0.19-0.228-0.495-0.342-0.571c-0.114-0.038-0.266-0.152-0.266-0.19c-0.152-0.038-0.304-0.114-0.304-0.152
		c0-0.038,0-0.076,0-0.114c0-0.076,0.038-0.114,0.076-0.152c0-0.076,0-0.152,0-0.228c0.076-0.076,0.19-0.19,0.228-0.266
		c0.038-0.114,0.038-0.19,0.038-0.228c0.076-0.038,0.152-0.076,0.228-0.114c0.038-0.038,0.114-0.076,0.152-0.114
		c0.038-0.152,0.266-0.267,0.38-0.381c0.076-0.038,0.114-0.076,0.19-0.076c0.076-0.038,0.152-0.038,0.19-0.038
		c0.114-0.076,0.076-0.152,0.076-0.228c0.038-0.038,0.038-0.076,0.038-0.114c-0.038-0.038-0.038-0.076-0.076-0.076
		c-0.19,0-0.418,0-0.608,0c-0.076,0-0.152-0.038-0.228-0.076c-0.38-0.076-0.418,0.076-0.646,0.266
		c-0.038,0.114-0.114,0.228-0.152,0.305c-0.152,0-0.342-0.114-0.38-0.152c0-0.114,0-0.19,0-0.305
		c-0.076-0.076-0.114-0.114-0.114-0.152c-0.076,0-0.114,0-0.152,0c-0.266,0-0.228-0.038-0.304,0.152c0,0-0.038,0-0.076,0v-0.038
		c0-0.114-0.038-0.228-0.076-0.228c-0.114-0.19-0.228-0.343-0.114-0.495c0.152-0.114,0.304-0.114,0.494-0.19
		c0.076-0.038,0.152-0.076,0.228-0.114c0.038-0.038,0.076-0.076,0.114-0.114c0-0.038,0-0.076,0.038-0.076
		c0.114-0.19,0.19-0.381,0.38-0.495c0.114-0.076,0.228-0.266,0.266-0.381c0.076-0.076,0.19-0.228,0.266-0.266
		c0.076-0.038,0.152-0.038,0.228-0.038c0.038,0,0.152,0.114,0.266,0.228c0,0.076-0.038,0.152-0.038,0.266
		c-0.076,0.076-0.152,0.152-0.228,0.266c-0.038,0.152-0.038,0.267,0.152,0.381c0,0-0.038,0.038-0.038,0.076
		c-0.114,0.152-0.228,0.152-0.228,0.343c0.076,0.038,0.38,0.038,0.494-0.038c0.038-0.114,0.076-0.228,0.076-0.343
		c0.038-0.038,0.076-0.076,0.076-0.152c0.228-0.228,0.38-0.343,0.721-0.419c0.076-0.038,0.19-0.076,0.266-0.114
		c0-0.076,0-0.152,0-0.228c0.076-0.114,0.19-0.228,0.304-0.305c0.038-0.076,0.19-0.152,0.304-0.228
		c0.038-0.038,0.076-0.076,0.114-0.152c0.038-0.038,0.076-0.114,0.152-0.19c0.038-0.152,0.076-0.343,0.19-0.457
		c0.076-0.076,0.19,0.038,0.304,0.114c0.114,0,0.228,0,0.342,0c0.076-0.038,0.114-0.076,0.19-0.152c0-0.19-0.076-0.228-0.152-0.228
		c0-0.038,0-0.038-0.038-0.038c0-0.114,0.038-0.114,0.038-0.152c0.114,0,0.228,0,0.304-0.076c0.152-0.114,0.19-0.305,0.304-0.419
		c0-0.076,0.076-0.457,0.19-0.266c0,0.114,0,0.228,0,0.305c0.038,0.038,0.114,0.038,0.19,0c0.038,0.076,0.076,0.076,0.152,0.076
		c0.038,0,0.038-0.038,0.076-0.038c0-0.076,0-0.152,0.038-0.228c0-0.038,0.038-0.114,0.076-0.152
		c0.076-0.076,0.038-0.305,0.038-0.381c-0.076-0.152-0.076-0.266-0.076-0.343c-0.114-0.228-0.228-0.457-0.228-0.609
		c-0.266-0.305-0.076-0.266,0.114-0.457c0-0.038,0-0.038,0.038-0.076c0.038,0,0.076,0,0.152,0c0.076,0.038,0.266,0.076,0.418,0
		c0-0.038,0.038-0.076,0.076-0.114c0-0.076,0-0.152,0-0.228c0-0.114,0.038-0.19,0.038-0.305c0-0.152,0-0.343,0-0.495
		c-0.038-0.114-0.038-0.228,0.038-0.305c0.038-0.038,0.038-0.114,0.076-0.152c0-0.114,0-0.228,0-0.343
		C39.849,15.265,39.773,15.189,39.697,15.151z"/>
</g>
</svg>
