<svg 
 xmlns="http://www.w3.org/2000/svg"
 xmlns:xlink="http://www.w3.org/1999/xlink"
 width="134px" height="196px">
<path fill-rule="evenodd"  stroke="rgb(13, 139, 164)" stroke-width="1px" stroke-linecap="butt" stroke-linejoin="miter" fill="rgb(5, 21, 33)"
 d="M126.000,131.406 C126.000,131.406 32.719,131.406 32.719,131.406 C31.614,131.406 30.719,130.511 30.719,129.406 C30.719,129.406 30.719,15.156 30.719,15.156 C30.719,14.052 31.614,13.156 32.719,13.156 C32.719,13.156 38.406,13.156 38.406,13.156 C38.406,13.156 38.406,9.340 38.406,9.340 C38.406,7.219 40.125,5.500 42.246,5.500 C42.246,5.500 42.254,5.500 42.254,5.500 C44.375,5.500 46.094,7.219 46.094,9.340 C46.094,9.340 46.094,13.156 46.094,13.156 C46.094,13.156 63.156,13.156 63.156,13.156 C63.156,13.156 63.156,9.328 63.156,9.328 C63.156,7.214 64.870,5.500 66.984,5.500 C69.099,5.500 70.812,7.214 70.812,9.328 C70.812,9.328 70.812,13.156 70.812,13.156 C70.812,13.156 88.750,13.156 88.750,13.156 C88.750,13.156 88.750,9.340 88.750,9.340 C88.750,7.219 90.469,5.500 92.590,5.500 C92.590,5.500 92.597,5.500 92.597,5.500 C94.718,5.500 96.438,7.219 96.438,9.340 C96.438,9.340 96.438,13.156 96.438,13.156 C96.438,13.156 111.781,13.156 111.781,13.156 C111.781,13.156 111.781,9.340 111.781,9.340 C111.781,7.219 113.500,5.500 115.621,5.500 C115.621,5.500 115.629,5.500 115.629,5.500 C117.750,5.500 119.469,7.219 119.469,9.340 C119.469,9.340 119.469,13.156 119.469,13.156 C119.469,13.156 126.000,13.156 126.000,13.156 C127.105,13.156 128.000,14.052 128.000,15.156 C128.000,15.156 128.000,129.406 128.000,129.406 C128.000,130.511 127.105,131.406 126.000,131.406 Z"/>
<path fill-rule="evenodd"  fill="rgb(16, 45, 66)"
 d="M117.469,78.656 C117.469,78.656 42.969,78.656 42.969,78.656 C41.864,78.656 40.969,77.761 40.969,76.656 C40.969,76.656 40.969,75.563 40.969,75.563 C40.969,74.458 41.864,73.562 42.969,73.562 C42.969,73.562 117.469,73.562 117.469,73.562 C118.573,73.562 119.469,74.458 119.469,75.563 C119.469,75.563 119.469,76.656 119.469,76.656 C119.469,77.761 118.573,78.656 117.469,78.656 ZM117.469,59.938 C117.469,59.938 42.969,59.938 42.969,59.938 C41.864,59.938 40.969,59.042 40.969,57.938 C40.969,57.938 40.969,56.844 40.969,56.844 C40.969,55.739 41.864,54.844 42.969,54.844 C42.969,54.844 117.469,54.844 117.469,54.844 C118.573,54.844 119.469,55.739 119.469,56.844 C119.469,56.844 119.469,57.938 119.469,57.938 C119.469,59.042 118.573,59.938 117.469,59.938 ZM117.000,41.500 C117.000,41.500 43.000,41.500 43.000,41.500 C41.895,41.500 41.000,40.605 41.000,39.500 C41.000,39.500 41.000,38.500 41.000,38.500 C41.000,37.395 41.895,36.500 43.000,36.500 C43.000,36.500 117.000,36.500 117.000,36.500 C118.105,36.500 119.000,37.395 119.000,38.500 C119.000,38.500 119.000,39.500 119.000,39.500 C119.000,40.605 118.105,41.500 117.000,41.500 ZM52.053,108.445 C52.053,108.445 49.393,113.977 48.640,119.506 C47.936,124.672 49.157,129.864 48.640,129.715 C34.983,125.786 33.280,108.445 33.280,108.445 C33.280,108.445 38.072,109.296 42.667,109.296 C47.454,109.296 52.053,108.445 52.053,108.445 Z"/>
<path fill-rule="evenodd"  fill="rgb(8, 17, 26)"
 d="M37.547,159.500 C16.810,159.500 -0.000,142.739 -0.000,122.063 C-0.000,101.386 16.810,84.625 37.547,84.625 C58.283,84.625 75.094,101.386 75.094,122.063 C75.094,142.739 58.283,159.500 37.547,159.500 ZM37.984,105.906 C28.794,105.906 21.344,113.329 21.344,122.484 C21.344,131.640 28.794,139.063 37.984,139.063 C47.175,139.063 54.625,131.640 54.625,122.484 C54.625,113.329 47.175,105.906 37.984,105.906 Z"/>
<text font-family="Microsoft YaHei" fill="rgb(70, 92, 108)" transform="matrix( 0.85333333333333, 0, 0, 0.85078896859599,43.09712, 193.38091726447)" font-weight="bold" font-size="21.157px">&#26242;&#26080;&#20869;&#23481;&#32;&#33;</text>
<path fill-rule="evenodd"  stroke="rgb(13, 139, 164)" stroke-width="1px" stroke-linecap="butt" stroke-linejoin="miter" fill="rgb(5, 21, 33)"
 d="M76.567,157.499 C76.567,157.499 72.487,161.711 72.487,161.711 C71.079,163.165 68.830,163.297 67.464,162.007 C67.464,162.007 53.118,148.450 53.118,148.450 C48.644,151.067 43.451,152.594 37.891,152.594 C21.210,152.594 7.688,139.092 7.688,122.438 C7.688,105.783 21.210,92.281 37.891,92.281 C54.571,92.281 68.094,105.783 68.094,122.438 C68.094,128.756 66.141,134.614 62.814,139.460 C62.814,139.460 76.644,152.529 76.644,152.529 C78.009,153.819 77.975,156.044 76.567,157.499 ZM37.875,100.375 C25.673,100.375 15.781,110.253 15.781,122.438 C15.781,134.622 25.673,144.500 37.875,144.500 C50.077,144.500 59.969,134.622 59.969,122.438 C59.969,110.253 50.077,100.375 37.875,100.375 Z"/>
</svg>