<svg 
 xmlns="http://www.w3.org/2000/svg"
 xmlns:xlink="http://www.w3.org/1999/xlink"
 width="93.5px" height="136.5px">
<path fill-rule="evenodd"  fill="#010c11"
 d="M-0.000,-0.000 C-0.000,-0.000 93.000,-0.000 93.000,-0.000 C93.000,-0.000 93.000,136.000 93.000,136.000 C93.000,136.000 -0.000,136.000 -0.000,136.000 C-0.000,136.000 -0.000,-0.000 -0.000,-0.000 Z"/>
<path fill-rule="evenodd"  stroke="rgb(13, 139, 164)" stroke-width="1px" stroke-linecap="butt" stroke-linejoin="miter" opacity="0.71" fill="rgb(5, 21, 33)"
 d="M81.812,88.625 C81.812,88.625 24.719,88.625 24.719,88.625 C23.614,88.625 22.719,87.730 22.719,86.625 C22.719,86.625 22.719,16.031 22.719,16.031 C22.719,14.927 23.614,14.031 24.719,14.031 C24.719,14.031 27.563,14.031 27.563,14.031 C27.563,14.031 27.563,11.318 27.563,11.318 C27.563,10.159 28.502,9.219 29.662,9.219 C29.662,9.219 30.307,9.219 30.307,9.219 C31.466,9.219 32.406,10.159 32.406,11.318 C32.406,11.318 32.406,14.031 32.406,14.031 C32.406,14.031 43.094,14.031 43.094,14.031 C43.094,14.031 43.094,11.318 43.094,11.318 C43.094,10.159 44.034,9.219 45.193,9.219 C45.193,9.219 45.807,9.219 45.807,9.219 C46.966,9.219 47.906,10.159 47.906,11.318 C47.906,11.318 47.906,14.031 47.906,14.031 C47.906,14.031 59.156,14.031 59.156,14.031 C59.156,14.031 59.156,11.318 59.156,11.318 C59.156,10.159 60.096,9.219 61.255,9.219 C61.255,9.219 61.901,9.219 61.901,9.219 C63.060,9.219 64.000,10.159 64.000,11.318 C64.000,11.318 64.000,14.031 64.000,14.031 C64.000,14.031 73.625,14.031 73.625,14.031 C73.625,14.031 73.625,11.318 73.625,11.318 C73.625,10.159 74.565,9.219 75.724,9.219 C75.724,9.219 76.370,9.219 76.370,9.219 C77.529,9.219 78.469,10.159 78.469,11.318 C78.469,11.318 78.469,14.031 78.469,14.031 C78.469,14.031 81.812,14.031 81.812,14.031 C82.917,14.031 83.812,14.927 83.812,16.031 C83.812,16.031 83.812,86.625 83.812,86.625 C83.812,87.730 82.917,88.625 81.812,88.625 Z"/>
<path fill-rule="evenodd"  opacity="0.71" fill="rgb(16, 45, 66)"
 d="M77.076,55.344 C77.076,55.344 30.549,55.344 30.549,55.344 C29.780,55.344 29.156,54.720 29.156,53.951 C29.156,53.951 29.156,53.549 29.156,53.549 C29.156,52.780 29.780,52.156 30.549,52.156 C30.549,52.156 77.076,52.156 77.076,52.156 C77.845,52.156 78.469,52.780 78.469,53.549 C78.469,53.549 78.469,53.951 78.469,53.951 C78.469,54.720 77.845,55.344 77.076,55.344 ZM77.076,43.594 C77.076,43.594 30.549,43.594 30.549,43.594 C29.780,43.594 29.156,42.970 29.156,42.201 C29.156,42.201 29.156,41.768 29.156,41.768 C29.156,40.999 29.780,40.375 30.549,40.375 C30.549,40.375 77.076,40.375 77.076,40.375 C77.845,40.375 78.469,40.999 78.469,41.768 C78.469,41.768 78.469,42.201 78.469,42.201 C78.469,42.970 77.845,43.594 77.076,43.594 ZM76.786,31.906 C76.786,31.906 30.589,31.906 30.589,31.906 C29.832,31.906 29.219,31.293 29.219,30.536 C29.219,30.536 29.219,30.152 29.219,30.152 C29.219,29.395 29.832,28.781 30.589,28.781 C30.589,28.781 76.786,28.781 76.786,28.781 C77.543,28.781 78.156,29.395 78.156,30.152 C78.156,30.152 78.156,30.536 78.156,30.536 C78.156,31.293 77.543,31.906 76.786,31.906 ZM36.128,74.165 C36.128,74.165 34.458,77.655 33.985,81.142 C33.543,84.402 34.310,87.677 33.985,87.583 C25.410,85.105 24.341,74.165 24.341,74.165 C24.341,74.165 27.349,74.702 30.234,74.702 C33.241,74.702 36.128,74.165 36.128,74.165 Z"/>
<path fill-rule="evenodd"  opacity="0.71" fill="rgb(3, 11, 18)"
 d="M27.016,106.406 C13.994,106.406 3.437,95.822 3.437,82.766 C3.437,69.709 13.994,59.125 27.016,59.125 C40.037,59.125 50.594,69.709 50.594,82.766 C50.594,95.822 40.037,106.406 27.016,106.406 ZM27.281,72.563 C21.500,72.563 16.813,77.250 16.813,83.031 C16.813,88.813 21.500,93.500 27.281,93.500 C33.063,93.500 37.750,88.813 37.750,83.031 C37.750,77.250 33.063,72.563 27.281,72.563 Z"/>
<text font-family="Microsoft YaHei" fill="rgb(70, 92, 108)" opacity="0.71" transform="matrix( 0.5358024691358, 0, 0, 0.53673323692336,30.0034, 127.025499276925)" font-weight="bold" font-size="21.157px">&#26242;&#26080;&#20869;&#23481;&#32;&#33;</text>
<path fill-rule="evenodd"  stroke="rgb(13, 139, 164)" stroke-width="1px" stroke-linecap="butt" stroke-linejoin="miter" opacity="0.71" fill="rgb(5, 21, 33)"
 d="M51.520,105.111 C51.520,105.111 48.959,107.768 48.959,107.768 C48.074,108.686 46.662,108.769 45.805,107.955 C45.805,107.955 36.800,99.405 36.800,99.405 C33.986,101.064 30.719,102.031 27.219,102.031 C16.743,102.031 8.250,93.511 8.250,83.000 C8.250,72.489 16.743,63.969 27.219,63.969 C37.695,63.969 46.187,72.489 46.187,83.000 C46.187,86.981 44.965,90.673 42.882,93.728 C42.882,93.728 51.568,101.975 51.568,101.975 C52.426,102.790 52.405,104.194 51.520,105.111 ZM27.219,69.094 C19.556,69.094 13.344,75.313 13.344,82.984 C13.344,90.656 19.556,96.875 27.219,96.875 C34.882,96.875 41.094,90.656 41.094,82.984 C41.094,75.313 34.882,69.094 27.219,69.094 Z"/>
</svg>