<svg 
 xmlns="http://www.w3.org/2000/svg"
 xmlns:xlink="http://www.w3.org/1999/xlink"
 width="32px" height="28.5px">
<path fill-rule="evenodd"  stroke="rgb(8, 25, 41)" stroke-width="1px" stroke-linecap="butt" stroke-linejoin="miter" fill="none"
 d="M2.500,11.000 C2.500,11.000 12.500,11.000 12.500,11.000 C13.605,11.000 14.500,11.895 14.500,13.000 C14.500,13.000 14.500,22.000 14.500,22.000 C14.500,23.105 13.605,24.000 12.500,24.000 C12.500,24.000 2.500,24.000 2.500,24.000 C1.395,24.000 0.500,23.105 0.500,22.000 C0.500,22.000 0.500,13.000 0.500,13.000 C0.500,11.895 1.395,11.000 2.500,11.000 Z"/>
<path fill-rule="evenodd"  stroke="rgb(8, 25, 41)" stroke-width="1px" stroke-linecap="butt" stroke-linejoin="miter" fill="none"
 d="M12.786,11.563 C12.786,11.563 2.432,11.563 2.432,11.563 C2.384,11.231 2.344,10.895 2.344,10.547 C2.344,7.190 4.701,4.469 7.609,4.469 C10.517,4.469 12.875,7.190 12.875,10.547 C12.875,10.895 12.835,11.231 12.786,11.563 ZM7.500,14.000 C8.605,14.000 9.500,14.895 9.500,16.000 C9.500,16.738 9.095,17.376 8.500,17.723 C8.500,17.723 8.500,20.625 8.500,20.625 C8.500,20.832 8.332,21.000 8.125,21.000 C8.125,21.000 6.875,21.000 6.875,21.000 C6.668,21.000 6.500,20.832 6.500,20.625 C6.500,20.625 6.500,17.723 6.500,17.723 C5.905,17.376 5.500,16.738 5.500,16.000 C5.500,14.895 6.395,14.000 7.500,14.000 Z"/>
<path fill-rule="evenodd"  fill="rgb(15, 49, 73)"
 d="M30.212,0.308 C30.212,0.308 30.962,0.308 30.962,0.308 C30.962,0.308 30.962,27.904 30.962,27.904 C30.962,27.904 30.212,27.904 30.212,27.904 C30.212,27.904 30.212,0.308 30.212,0.308 Z"/>
</svg>