<?xml version="1.0" encoding="utf-8"?>
<!-- Generator: Adobe Illustrator 21.0.0, SVG Export Plug-In . SVG Version: 6.00 Build 0)  -->
<svg version="1.1" id="图层_1" xmlns="http://www.w3.org/2000/svg" xmlns:xlink="http://www.w3.org/1999/xlink" x="0px" y="0px"
	 viewBox="0 0 48 48" enable-background="new 0 0 48 48" xml:space="preserve">
<g>
	<circle fill="#6D9950" cx="24" cy="23.902" r="20.999"/>
	<g>
		<path fill="#E0E7E7" d="M34.773,22.743c0,3.999,0.017,7.585-0.01,11.171c-0.009,1.231-0.815,1.776-1.944,1.78
			c-5.921,0.021-11.841,0.03-17.762-0.006c-1.273-0.008-1.87-0.796-1.869-2.072c0.007-6.319,0.002-12.639-0.001-18.959
			c-0.001-1.405,0.79-2.096,2.099-2.112c3.525-0.044,7.052-0.021,10.577-0.009c0.362,0.001,0.889-0.156,0.985,0.385
			c0.094,0.528-0.319,0.903-0.75,1.043c-0.491,0.158-1.042,0.169-1.567,0.172c-2.727,0.015-5.456,0.039-8.182-0.011
			c-1.045-0.019-1.566,0.193-1.555,1.411c0.053,5.72,0.039,11.442,0.006,17.162c-0.006,1.013,0.307,1.414,1.366,1.407
			c5.189-0.037,10.378-0.042,15.567,0.006c1.171,0.01,1.47-0.459,1.445-1.538c-0.057-2.46,0.033-4.924-0.039-7.383
			C33.107,24.123,33.536,23.499,34.773,22.743z"/>
		<path fill="#E0E7E7" d="M38.809,14.105c0.064,0.754-0.721,1.549-1.439,2.285c-3.137,3.218-6.362,6.35-9.495,9.574
			c-1.922,1.977-4.582,2.194-6.962,3.034c-0.789,0.278-1.21-0.328-0.965-1.497c0.834-3.967,2.877-7.027,5.952-9.62
			c2.297-1.937,4.285-4.238,6.446-6.34c1.077-1.047,2.348-1.924,3.888-1.159C37.54,11.029,38.707,11.966,38.809,14.105z
			 M37.126,13.718c0.155-0.851-0.55-1.281-1.105-1.673c-0.624-0.44-1.386-0.442-1.995,0.161C30.408,15.788,26.75,19.33,23.223,23
			c-0.662,0.69-0.847,1.877-1.138,2.869c-0.177,0.603,0.178,1.208,0.836,0.876c1.098-0.556,2.405-0.531,3.367-1.506
			c3.214-3.254,6.525-6.412,9.749-9.656C36.515,15.103,37.147,14.602,37.126,13.718z"/>
	</g>
</g>
</svg>
