<?xml version="1.0" encoding="utf-8"?>
<!-- Generator: Adobe Illustrator 18.0.0, SVG Export Plug-In . SVG Version: 6.00 Build 0)  -->
<!DOCTYPE svg PUBLIC "-//W3C//DTD SVG 1.1//EN" "http://www.w3.org/Graphics/SVG/1.1/DTD/svg11.dtd">
<svg version="1.1" id="图层_1" xmlns="http://www.w3.org/2000/svg" xmlns:xlink="http://www.w3.org/1999/xlink" x="0px" y="0px"
	 viewBox="0 0 32 32" enable-background="new 0 0 32 32" xml:space="preserve">
<path fill="#EEEEEE" d="M18.62,20.112c0,0-0.544,0.96,0.224,1.728c0.768,0.768,4.161,4.097,4.993,4.097
	c0.832,0,3.233-2.016,5.249-4.353c0,0,0.512-0.96,0-1.472c0,0-3.681,3.297-5.213,3.329C22.492,23.47,18.62,20.112,18.62,20.112z"/>
<path fill="#EEEEEE" d="M18.62,16.367c0,0-0.544,0.96,0.224,1.728c0.768,0.768,4.161,4.097,4.993,4.097
	c0.832,0,3.233-2.016,5.249-4.353c0,0,0.512-0.96,0-1.472c0,0-3.681,3.297-5.213,3.329C22.492,19.725,18.62,16.367,18.62,16.367z"/>
<path fill="#EEEEEE" d="M27.432,8.339H4.883c-0.481,0-0.875-0.394-0.875-0.875V6.731c0-0.481,0.394-0.875,0.875-0.875h22.549
	c0.481,0,0.875,0.394,0.875,0.875v0.733C28.307,7.945,27.913,8.339,27.432,8.339z"/>
<path fill="#EEEEEE" d="M27.462,14.205H4.883c-0.481,0-0.875-0.394-0.875-0.875v-0.733c0-0.481,0.394-0.875,0.875-0.875h22.578
	c0.481,0,0.875,0.394,0.875,0.875v0.733C28.337,13.811,27.943,14.205,27.462,14.205z"/>
<path fill="#EEEEEE" d="M15.342,20.071H4.883c-0.481,0-0.875-0.394-0.875-0.875v-0.733c0-0.481,0.394-0.875,0.875-0.875h10.459
	c0.481,0,0.875,0.394,0.875,0.875v0.733C16.217,19.677,15.823,20.071,15.342,20.071z"/>
<path fill="#EEEEEE" d="M18.639,26.144L4.854,25.808c-0.481-0.012-0.865-0.415-0.853-0.896l0.018-0.733
	c0.012-0.481,0.415-0.865,0.896-0.853L18.7,23.662c0.481,0.012,0.865,0.415,0.853,0.896l-0.018,0.733
	C19.523,25.772,19.12,26.156,18.639,26.144z"/>
</svg>
