<svg 
 xmlns="http://www.w3.org/2000/svg"
 xmlns:xlink="http://www.w3.org/1999/xlink"
 width="29.5px" height="29.5px">
<path fill-rule="evenodd"  stroke="rgb(54, 193, 174)" stroke-width="1px" stroke-linecap="butt" stroke-linejoin="miter" fill="none"
 d="M14.500,0.500 C22.232,0.500 28.500,6.768 28.500,14.500 C28.500,22.232 22.232,28.500 14.500,28.500 C6.768,28.500 0.500,22.232 0.500,14.500 C0.500,6.768 6.768,0.500 14.500,0.500 Z"/>
<path fill-rule="evenodd"  fill="rgb(61, 217, 196)"
 d="M19.853,22.500 C19.853,22.500 19.853,7.500 19.853,7.500 C19.853,7.500 21.500,7.500 21.500,7.500 C21.500,7.500 21.500,22.500 21.500,22.500 C21.500,22.500 19.853,22.500 19.853,22.500 ZM16.559,14.994 C16.559,14.994 7.492,22.491 7.492,22.491 C7.492,22.491 7.492,7.491 7.492,7.491 C7.492,7.491 16.559,14.988 16.559,14.988 C16.559,14.988 16.559,7.500 16.559,7.500 C16.559,7.500 18.206,7.500 18.206,7.500 C18.206,7.500 18.206,22.500 18.206,22.500 C18.206,22.500 16.559,22.500 16.559,22.500 C16.559,22.500 16.559,14.994 16.559,14.994 Z"/>
</svg>