<?xml version="1.0" encoding="utf-8"?>
<!-- Generator: Adobe Illustrator 18.0.0, SVG Export Plug-In . SVG Version: 6.00 Build 0)  -->
<!DOCTYPE svg PUBLIC "-//W3C//DTD SVG 1.1//EN" "http://www.w3.org/Graphics/SVG/1.1/DTD/svg11.dtd">
<svg version="1.1" id="图层_1" xmlns="http://www.w3.org/2000/svg" xmlns:xlink="http://www.w3.org/1999/xlink" x="0px" y="0px"
	 viewBox="0 0 32 32" enable-background="new 0 0 32 32" xml:space="preserve">
<polyline fill="none" stroke="#E0E7E7" stroke-width="2" stroke-linecap="round" stroke-linejoin="round" stroke-miterlimit="10" points="
	9.25,14.497 14.75,19.872 25.5,8.372 "/>
<path fill="#E0E7E7" d="M25.538,12.725c0.354,1.029,0.556,2.128,0.556,3.275c0,5.565-4.528,10.094-10.094,10.094
	S5.906,21.565,5.906,16S10.434,5.906,16,5.906c2.204,0,4.24,0.718,5.902,1.922l1.372-1.468C21.246,4.827,18.732,3.906,16,3.906
	C9.332,3.906,3.906,9.331,3.906,16S9.332,28.093,16,28.093S28.094,22.669,28.094,16c0-1.742-0.378-3.395-1.044-4.893L25.538,12.725z
	"/>
</svg>
