<?xml version="1.0" encoding="utf-8"?>
<!-- Generator: Adobe Illustrator 18.0.0, SVG Export Plug-In . SVG Version: 6.00 Build 0)  -->
<!DOCTYPE svg PUBLIC "-//W3C//DTD SVG 1.1//EN" "http://www.w3.org/Graphics/SVG/1.1/DTD/svg11.dtd">
<svg version="1.1" id="图层_1" xmlns="http://www.w3.org/2000/svg" xmlns:xlink="http://www.w3.org/1999/xlink" x="0px" y="0px"
	 viewBox="0 0 32 32" enable-background="new 0 0 32 32" xml:space="preserve">
<path fill="none" stroke="#E0E7E7" stroke-width="1.5" stroke-miterlimit="10" d="M27.056,27.75H5.931c-1.1,0-2-0.9-2-2V7.788
	c0-1.1,0.9-2,2-2h21.125c1.1,0,2,0.9,2,2V25.75C29.056,26.85,28.156,27.75,27.056,27.75z"/>
<g>
	
		<line fill="none" stroke="#E0E7E7" stroke-width="1.5" stroke-linecap="round" stroke-miterlimit="10" x1="11.056" y1="3.375" x2="11.056" y2="8.625"/>
	
		<line fill="none" stroke="#E0E7E7" stroke-width="1.5" stroke-linecap="round" stroke-miterlimit="10" x1="21.931" y1="3.375" x2="21.931" y2="8.625"/>
</g>
<line fill="none" stroke="#E0E7E7" stroke-width="1.5" stroke-linecap="round" stroke-miterlimit="10" x1="3.931" y1="12.5" x2="29.056" y2="12.5"/>
<g>
	<rect x="7.65" y="15.458" fill="#E0E7E7" width="3.5" height="3.5"/>
	<rect x="14.744" y="15.458" fill="#E0E7E7" width="3.5" height="3.5"/>
	<rect x="21.838" y="15.458" fill="#E0E7E7" width="3.5" height="3.5"/>
	<rect x="7.65" y="20.882" fill="#E0E7E7" width="3.5" height="3.5"/>
	<rect x="14.744" y="20.882" fill="#E0E7E7" width="3.5" height="3.5"/>
	<rect x="21.838" y="20.882" fill="#E0E7E7" width="3.5" height="3.5"/>
</g>
</svg>
