<?xml version="1.0" encoding="utf-8"?>
<!-- Generator: Adobe Illustrator 21.0.0, SVG Export Plug-In . SVG Version: 6.00 Build 0)  -->
<svg version="1.1" id="图层_1" xmlns="http://www.w3.org/2000/svg" xmlns:xlink="http://www.w3.org/1999/xlink" x="0px" y="0px"
	 viewBox="0 0 48 48" enable-background="new 0 0 48 48" xml:space="preserve">
<circle fill="#6D5490" cx="24" cy="23.902" r="20.999"/>
<g>
	<path fill="#E0E7E7" d="M29.29,33.108c0.022-0.677-0.697-0.814-1.244-0.819c-2.719-0.026-5.439-0.017-8.158,0.003
		c-0.572,0.004-1.204,0.129-1.178,0.869c0.024,0.706,0.615,0.84,1.213,0.841c1.332,0.003,2.664,0.001,3.995,0.001
		c1.332,0,2.664,0.009,3.996-0.004C28.557,33.993,29.267,33.844,29.29,33.108z"/>
	<g>
		<path fill="#E0E7E7" d="M33.553,30.11H14.448c-1.52,0-2.755-1.235-2.755-2.754V15.802c0-1.519,1.235-2.754,2.755-2.754h19.105
			c1.519,0,2.754,1.235,2.754,2.754v11.554C36.307,28.875,35.072,30.11,33.553,30.11z M14.448,14.549
			c-0.692,0-1.255,0.563-1.255,1.254v11.554c0,0.691,0.563,1.254,1.255,1.254h19.105c0.691,0,1.254-0.563,1.254-1.254V15.802
			c0-0.691-0.563-1.254-1.254-1.254H14.448z"/>
	</g>
	<g>
		<path fill="#E0E7E7" d="M19.444,24.444h3.059c0.305,0,0.537,0.063,0.697,0.188s0.24,0.295,0.24,0.51
			c0,0.191-0.063,0.354-0.19,0.486s-0.319,0.199-0.577,0.199H18.36c-0.293,0-0.521-0.081-0.686-0.243s-0.246-0.353-0.246-0.571
			c0-0.141,0.053-0.327,0.158-0.56s0.221-0.415,0.346-0.548c0.52-0.539,0.988-1.001,1.406-1.386s0.717-0.638,0.896-0.759
			c0.32-0.227,0.587-0.454,0.8-0.683s0.375-0.463,0.486-0.703s0.167-0.476,0.167-0.706c0-0.25-0.06-0.474-0.179-0.671
			s-0.281-0.351-0.486-0.46s-0.429-0.164-0.671-0.164c-0.512,0-0.914,0.225-1.207,0.674c-0.039,0.059-0.104,0.219-0.196,0.48
			s-0.195,0.463-0.311,0.604s-0.284,0.211-0.507,0.211c-0.195,0-0.357-0.064-0.486-0.193s-0.193-0.305-0.193-0.527
			c0-0.27,0.061-0.551,0.182-0.844s0.302-0.559,0.542-0.797s0.545-0.431,0.914-0.577s0.802-0.22,1.298-0.22
			c0.598,0,1.107,0.094,1.529,0.281c0.273,0.125,0.514,0.297,0.721,0.516s0.368,0.472,0.483,0.759s0.173,0.585,0.173,0.894
			c0,0.484-0.12,0.925-0.36,1.321s-0.485,0.707-0.735,0.932s-0.669,0.577-1.257,1.058s-0.991,0.854-1.21,1.119
			C19.638,24.169,19.542,24.296,19.444,24.444z"/>
		<path fill="#E0E7E7" d="M29.452,18.685h-2.783l-0.334,1.898c0.555-0.297,1.066-0.445,1.535-0.445c0.375,0,0.726,0.07,1.052,0.211
			s0.612,0.335,0.858,0.583s0.439,0.542,0.58,0.882s0.211,0.705,0.211,1.096c0,0.566-0.127,1.082-0.381,1.547
			s-0.62,0.834-1.099,1.107s-1.03,0.41-1.655,0.41c-0.699,0-1.267-0.129-1.702-0.387s-0.744-0.554-0.926-0.888
			s-0.272-0.626-0.272-0.876c0-0.152,0.063-0.297,0.19-0.434s0.286-0.205,0.478-0.205c0.328,0,0.572,0.189,0.732,0.568
			c0.156,0.348,0.367,0.618,0.633,0.812s0.563,0.29,0.891,0.29c0.301,0,0.564-0.078,0.791-0.234s0.401-0.371,0.524-0.645
			s0.185-0.584,0.185-0.932c0-0.375-0.066-0.695-0.199-0.961s-0.311-0.464-0.533-0.595s-0.471-0.196-0.744-0.196
			c-0.336,0-0.576,0.041-0.721,0.123s-0.353,0.226-0.624,0.431s-0.495,0.308-0.671,0.308c-0.191,0-0.361-0.069-0.51-0.208
			s-0.223-0.296-0.223-0.472c0-0.02,0.021-0.152,0.064-0.398l0.492-2.807c0.055-0.336,0.156-0.58,0.305-0.732
			s0.391-0.229,0.727-0.229h3.094c0.609,0,0.914,0.232,0.914,0.697c0,0.203-0.074,0.367-0.223,0.492S29.741,18.685,29.452,18.685z"
			/>
	</g>
</g>
</svg>
