<?xml version="1.0" encoding="utf-8"?>
<!-- Generator: Adobe Illustrator 21.0.0, SVG Export Plug-In . SVG Version: 6.00 Build 0)  -->
<svg version="1.1" id="图层_1" xmlns="http://www.w3.org/2000/svg" xmlns:xlink="http://www.w3.org/1999/xlink" x="0px" y="0px"
	 viewBox="0 0 32 32" style="enable-background:new 0 0 32 32;" xml:space="preserve">
<style type="text/css">
	.st0{fill:none;stroke:#727575;stroke-width:1.5;stroke-miterlimit:10;}
	.st1{fill:none;stroke:#727575;stroke-width:1.5;stroke-linecap:round;stroke-miterlimit:10;}
	.st2{fill:#727575;}
</style>
<path class="st0" d="M27.1,27.8H5.9c-1.1,0-2-0.9-2-2v-18c0-1.1,0.9-2,2-2h21.1c1.1,0,2,0.9,2,2v18C29.1,26.9,28.2,27.8,27.1,27.8z"
	/>
<g>
	<line class="st1" x1="11.1" y1="3.4" x2="11.1" y2="8.6"/>
	<line class="st1" x1="21.9" y1="3.4" x2="21.9" y2="8.6"/>
</g>
<line class="st1" x1="3.9" y1="12.5" x2="29.1" y2="12.5"/>
<g>
	<rect x="7.7" y="15.5" class="st2" width="3.5" height="3.5"/>
	<rect x="14.7" y="15.5" class="st2" width="3.5" height="3.5"/>
	<rect x="21.8" y="15.5" class="st2" width="3.5" height="3.5"/>
	<rect x="7.7" y="20.9" class="st2" width="3.5" height="3.5"/>
	<rect x="14.7" y="20.9" class="st2" width="3.5" height="3.5"/>
	<rect x="21.8" y="20.9" class="st2" width="3.5" height="3.5"/>
</g>
</svg>
