<svg 
 xmlns="http://www.w3.org/2000/svg"
 xmlns:xlink="http://www.w3.org/1999/xlink"
 width="17px" height="17px">
<path fill-rule="evenodd"  fill="rgb(58, 208, 189)"
 d="M16.782,16.787 C16.505,17.064 16.057,17.064 15.781,16.787 C15.781,16.787 11.538,12.546 11.538,12.546 C10.318,13.542 8.781,14.163 7.083,14.163 C3.170,14.163 -0.002,10.993 -0.002,7.081 C-0.002,3.170 3.170,-0.001 7.083,-0.001 C10.996,-0.001 14.168,3.170 14.168,7.081 C14.168,7.803 14.021,8.479 13.812,9.128 C13.812,9.128 13.816,9.177 13.816,9.177 C13.816,9.333 13.756,9.470 13.670,9.587 C13.657,9.619 13.652,9.654 13.639,9.685 C13.639,9.685 13.618,9.664 13.618,9.664 C13.489,9.799 13.310,9.884 13.109,9.884 C12.718,9.884 12.401,9.568 12.401,9.177 C12.401,9.177 12.394,9.111 12.394,9.111 C12.394,8.926 12.470,8.759 12.587,8.633 C12.587,8.633 12.504,8.551 12.504,8.551 C12.634,8.075 12.726,7.585 12.726,7.068 C12.726,3.946 10.194,1.414 7.070,1.414 C3.946,1.414 1.413,3.946 1.413,7.068 C1.413,10.191 3.946,12.722 7.070,12.722 C8.621,12.722 10.023,12.097 11.045,11.086 C11.048,11.083 11.050,11.080 11.052,11.076 C11.052,11.076 12.077,11.094 12.077,11.094 C12.077,11.094 14.511,13.527 14.511,13.527 C14.511,13.527 14.516,13.522 14.516,13.522 C14.516,13.522 16.782,15.787 16.782,15.787 C17.058,16.063 17.058,16.511 16.782,16.787 Z"/>
</svg>