<svg 
 xmlns="http://www.w3.org/2000/svg"
 xmlns:xlink="http://www.w3.org/1999/xlink"
 width="13px" height="13px">
<path fill-rule="evenodd"  fill="rgb(49, 204, 192)"
 d="M11.375,13.000 C11.375,13.000 11.375,11.438 11.375,11.438 C11.375,11.438 13.000,11.438 13.000,11.438 C13.000,11.438 13.000,13.000 13.000,13.000 C13.000,13.000 11.375,13.000 11.375,13.000 ZM11.375,5.719 C11.375,5.719 13.000,5.719 13.000,5.719 C13.000,5.719 13.000,7.281 13.000,7.281 C13.000,7.281 11.375,7.281 11.375,7.281 C11.375,7.281 11.375,5.719 11.375,5.719 ZM11.375,-0.000 C11.375,-0.000 13.000,-0.000 13.000,-0.000 C13.000,-0.000 13.000,1.562 13.000,1.562 C13.000,1.562 11.375,1.562 11.375,1.562 C11.375,1.562 11.375,-0.000 11.375,-0.000 ZM-0.000,11.438 C-0.000,11.438 8.906,11.438 8.906,11.438 C8.906,11.438 8.906,13.000 8.906,13.000 C8.906,13.000 -0.000,13.000 -0.000,13.000 C-0.000,13.000 -0.000,11.438 -0.000,11.438 ZM-0.000,5.719 C-0.000,5.719 8.906,5.719 8.906,5.719 C8.906,5.719 8.906,7.281 8.906,7.281 C8.906,7.281 -0.000,7.281 -0.000,7.281 C-0.000,7.281 -0.000,5.719 -0.000,5.719 ZM-0.000,-0.000 C-0.000,-0.000 8.906,-0.000 8.906,-0.000 C8.906,-0.000 8.906,1.562 8.906,1.562 C8.906,1.562 -0.000,1.562 -0.000,1.562 C-0.000,1.562 -0.000,-0.000 -0.000,-0.000 Z"/>
</svg>