<?xml version="1.0" encoding="utf-8"?>
<!-- Generator: Adobe Illustrator 18.0.0, SVG Export Plug-In . SVG Version: 6.00 Build 0)  -->
<!DOCTYPE svg PUBLIC "-//W3C//DTD SVG 1.1//EN" "http://www.w3.org/Graphics/SVG/1.1/DTD/svg11.dtd">
<svg version="1.1" id="图层_1" xmlns="http://www.w3.org/2000/svg" xmlns:xlink="http://www.w3.org/1999/xlink" x="0px" y="0px"
	 viewBox="0 0 48 48" enable-background="new 0 0 48 48" xml:space="preserve">
<g>
	<circle fill="#358A83" cx="24" cy="23.902" r="21"/>
	<g>
		<path fill="#DBE5E7" stroke="#DBE5E7" stroke-width="0.5" stroke-miterlimit="10" d="M34.977,15.255
			c1.192-0.065,1.721-0.889,1.636-2.044c-0.076-1.041-0.692-1.617-1.738-1.644c-1.172-0.031-1.919,0.546-1.947,1.739
			c-0.018,0.76-0.323,1.314-0.765,1.86c-1.027,1.267-2.036,2.547-3.07,3.808c-0.244,0.298-0.516,0.637-0.851,0.787
			c-1.613,0.72-5.391-0.668-5.977-2.349c-0.314-0.901-1.108-1.229-2.045-1.084c-0.951,0.147-1.555,0.719-1.54,1.688
			c0.013,0.837-0.364,1.386-0.921,1.917c-0.858,0.818-1.697,1.658-2.519,2.513c-0.562,0.585-1.123,1.002-2.026,1.012
			c-1.102,0.012-1.706,0.741-1.664,1.854c0.041,1.091,0.665,1.756,1.758,1.82c1.18,0.069,1.92-0.555,1.929-1.741
			c0.006-0.784,0.327-1.293,0.845-1.79c0.749-0.717,1.622-1.368,2.173-2.22c1.746-2.701,6.481-1.269,7.676,1.112
			c0.378,0.752,1.028,1.186,1.938,1.086c0.832-0.091,1.51-0.539,1.56-1.335c0.134-2.131,1.698-3.293,2.93-4.692
			C33.039,16.573,33.439,15.338,34.977,15.255z"/>
		<path fill="#DBE5E7" stroke="#DBE5E7" stroke-width="0.5" stroke-miterlimit="10" d="M15.165,35.72
			c0,0.286-0.232,0.518-0.518,0.518h-2.751c-0.286,0-0.518-0.232-0.518-0.518v-4.917c0-0.286,0.232-0.518,0.518-0.518h2.751
			c0.286,0,0.518,0.232,0.518,0.518V35.72z"/>
		<path fill="#DBE5E7" stroke="#DBE5E7" stroke-width="0.5" stroke-miterlimit="10" d="M22.591,35.78
			c0,0.253-0.232,0.458-0.518,0.458h-2.751c-0.286,0-0.518-0.205-0.518-0.458V24.829c0-0.253,0.232-0.458,0.518-0.458h2.751
			c0.286,0,0.518,0.205,0.518,0.458V35.78z"/>
		<path fill="#DBE5E7" stroke="#DBE5E7" stroke-width="0.5" stroke-miterlimit="10" d="M29.196,35.72
			c0,0.286-0.254,0.518-0.568,0.518h-2.447c-0.314,0-0.568-0.232-0.568-0.518v-8.732c0-0.286,0.254-0.518,0.568-0.518h2.447
			c0.314,0,0.568,0.232,0.568,0.518V35.72z"/>
		<path fill="#DBE5E7" stroke="#DBE5E7" stroke-width="0.5" stroke-miterlimit="10" d="M36.622,35.72
			c0,0.286-0.232,0.518-0.518,0.518h-2.7c-0.286,0-0.518-0.232-0.518-0.518V19.633c0-0.286,0.232-0.518,0.518-0.518h2.7
			c0.286,0,0.518,0.232,0.518,0.518V35.72z"/>
	</g>
</g>
</svg>
