<svg 
 xmlns="http://www.w3.org/2000/svg"
 xmlns:xlink="http://www.w3.org/1999/xlink"
 width="98.5px" height="107.5px">
<defs>
<radialGradient id="PSgrad_0">
  <stop offset="0%" stop-color="rgb(28,114,118)" stop-opacity="1" />
  <stop offset="100%" stop-color="rgb(11,39,45)" stop-opacity="1" />
</radialGradient>

</defs><path fill-rule="evenodd"  opacity="0.6" fill="rgb(7, 27, 43)"
 d="M75.433,0.500 C75.433,0.500 69.284,5.540 69.284,5.540 C69.284,5.540 59.500,5.500 59.500,5.500 C59.500,5.500 65.500,0.500 65.500,0.500 C65.500,0.500 41.789,0.500 41.789,0.500 C41.789,0.500 35.788,5.540 35.788,5.540 C35.788,5.540 26.595,5.540 26.595,5.540 C26.595,5.540 31.500,0.500 31.500,0.500 C31.500,0.500 8.500,0.500 8.500,0.500 C8.500,0.500 0.500,6.500 0.500,6.500 C0.500,6.500 0.500,93.500 0.500,93.500 C0.500,93.500 8.500,99.500 8.500,99.500 C8.500,99.500 16.500,99.500 16.500,99.500 C16.500,99.500 18.465,105.900 18.465,105.900 C18.465,105.900 76.693,106.039 76.693,106.039 C76.693,106.039 78.539,99.393 78.539,99.393 C78.539,99.393 88.500,99.500 88.500,99.500 C88.500,99.500 96.500,93.500 96.500,93.500 C96.500,93.500 96.561,8.500 96.561,8.500 C96.561,8.500 88.500,0.500 88.500,0.500 C88.500,0.500 75.433,0.500 75.433,0.500 Z"/>
<path stroke="rgb(77, 215, 244)" stroke-width="1px" stroke-linecap="butt" stroke-linejoin="miter" fill="url(#PSgrad_0)"
 d="M75.433,0.500 C75.433,0.500 69.284,5.540 69.284,5.540 C69.284,5.540 59.500,5.500 59.500,5.500 C59.500,5.500 65.500,0.500 65.500,0.500 C65.500,0.500 41.789,0.500 41.789,0.500 C41.789,0.500 35.788,5.540 35.788,5.540 C35.788,5.540 26.595,5.540 26.595,5.540 C26.595,5.540 31.500,0.500 31.500,0.500 C31.500,0.500 8.500,0.500 8.500,0.500 C8.500,0.500 0.500,6.500 0.500,6.500 C0.500,6.500 0.500,93.500 0.500,93.500 C0.500,93.500 8.500,99.500 8.500,99.500 C8.500,99.500 16.500,99.500 16.500,99.500 C16.500,99.500 18.465,105.900 18.465,105.900 C18.465,105.900 76.693,106.039 76.693,106.039 C76.693,106.039 78.539,99.393 78.539,99.393 C78.539,99.393 88.500,99.500 88.500,99.500 C88.500,99.500 96.500,93.500 96.500,93.500 C96.500,93.500 96.561,8.500 96.561,8.500 C96.561,8.500 88.500,0.500 88.500,0.500 C88.500,0.500 75.433,0.500 75.433,0.500 Z"/>
</svg>