<svg 
 xmlns="http://www.w3.org/2000/svg"
 xmlns:xlink="http://www.w3.org/1999/xlink"
 width="29px" height="29px">
<defs>
<linearGradient id="PSgrad_0" x1="0%" x2="0%" y1="100%" y2="0%">
  <stop offset="0%" stop-color="rgb(9,40,64)" stop-opacity="1" />
  <stop offset="100%" stop-color="rgb(12,47,74)" stop-opacity="1" />
</linearGradient>

</defs><path fill-rule="evenodd"  fill="rgb(18, 191, 231)"
 d="M14.000,-0.000 C21.732,-0.000 28.000,6.268 28.000,14.000 C28.000,21.732 21.732,28.000 14.000,28.000 C6.268,28.000 -0.000,21.732 -0.000,14.000 C-0.000,6.268 6.268,-0.000 14.000,-0.000 Z"/>
<path fill-rule="evenodd"  stroke="rgb(8, 17, 26)" stroke-width="2px" stroke-linecap="butt" stroke-linejoin="miter" fill="none"
 d="M2.000,18.000 C2.000,18.000 26.000,18.000 26.000,18.000 "/>
<path fill-rule="evenodd"  fill="rgb(8, 17, 26)"
 d="M14.000,8.000 C14.000,8.000 19.000,8.000 19.000,8.000 C19.000,8.000 14.000,17.000 14.000,17.000 C14.000,17.000 9.000,8.000 9.000,8.000 C9.000,8.000 14.000,8.000 14.000,8.000 Z"/>
<path fill-rule="evenodd"  fill="rgb(8, 17, 26)"
 d="M7.000,16.000 C7.000,16.000 8.000,16.000 8.000,16.000 C8.000,16.000 8.000,18.000 8.000,18.000 C8.000,18.000 7.000,18.000 7.000,18.000 C7.000,18.000 7.000,16.000 7.000,16.000 Z"/>
<path fill-rule="evenodd"  fill="rgb(8, 17, 26)"
 d="M20.000,16.000 C20.000,16.000 21.000,16.000 21.000,16.000 C21.000,16.000 21.000,18.000 21.000,18.000 C21.000,18.000 20.000,18.000 20.000,18.000 C20.000,18.000 20.000,16.000 20.000,16.000 Z"/>
</svg>