<?xml version="1.0" encoding="utf-8"?>
<!-- Generator: Adobe Illustrator 18.0.0, SVG Export Plug-In . SVG Version: 6.00 Build 0)  -->
<!DOCTYPE svg PUBLIC "-//W3C//DTD SVG 1.1//EN" "http://www.w3.org/Graphics/SVG/1.1/DTD/svg11.dtd">
<svg version="1.1" id="图层_1" xmlns="http://www.w3.org/2000/svg" xmlns:xlink="http://www.w3.org/1999/xlink" x="0px" y="0px"
	 viewBox="0 0 128.008 128" enable-background="new 0 0 128.008 128" xml:space="preserve">
<g>
	<path fill="#5EC3DF" d="M95.429,95.731h-1.693V81.106c0-8.115-7.974-11.006-13.796-13.118c-1.932-0.7-3.756-1.361-4.814-2.041
		c-1.194-0.77-1.255-1.743-1.257-1.9c0.002-0.108,0.063-1.086,1.257-1.854c1.059-0.684,2.888-1.347,4.822-2.05
		c5.818-2.111,13.787-5.003,13.787-13.111V32.269h1.693c2.034,0,3.686-1.65,3.686-3.69c0-2.037-1.652-3.686-3.686-3.686H32.581
		c-2.037,0-3.689,1.65-3.689,3.686c0,2.04,1.652,3.69,3.689,3.69h1.691v14.763c0,8.108,7.97,10.999,13.787,13.111
		c1.935,0.703,3.763,1.365,4.822,2.047c1.194,0.771,1.255,1.749,1.26,1.973c0,0.011-0.058,1.007-1.258,1.781
		c-1.059,0.682-2.884,1.344-4.815,2.043C42.245,70.1,34.272,72.99,34.272,81.106v14.626h-1.691c-2.037,0-3.689,1.652-3.689,3.69
		c0,2.039,1.652,3.686,3.689,3.686h62.848c2.034,0,3.686-1.647,3.686-3.686C99.116,97.383,97.464,95.731,95.429,95.731
		L95.429,95.731z M38.782,81.106c0-4.589,4.69-6.655,10.823-8.877c2.177-0.79,4.232-1.534,5.721-2.495
		c3.369-2.173,3.336-5.397,3.32-5.571c0.016-0.361,0.049-3.588-3.32-5.763c-1.489-0.957-3.548-1.706-5.727-2.497
		c-6.128-2.224-10.817-4.29-10.817-8.872V32.269h50.444v14.763c0,4.583-4.688,6.648-10.816,8.872c-2.18,0.791-4.239,1.54-5.727,2.5
		c-3.369,2.173-3.336,5.399-3.321,5.575c-0.015,0.359-0.048,3.583,3.323,5.758c1.486,0.958,3.541,1.703,5.718,2.493
		c6.132,2.222,10.823,4.288,10.823,8.877v14.626H38.782V81.106L38.782,81.106z M38.782,81.106"/>
	<path fill="#5EC3DF" d="M45.545,84.008c0,0,0.002,3.734,0,3.734h36.919v-3.734l-18.459-6.787L45.545,84.008L45.545,84.008z
		 M45.545,84.008"/>
	<path fill="#5EC3DF" d="M64.004,58.275c0-2.197,0.002-2.197,0.002,0c1.011-2.03,2.62-4.016,5.014-5.562
		c2.129-1.37,4.536-2.242,7.084-3.167c1.777-0.643,5.452-1.392,6.227-2.674H45.677c0.777,1.281,4.452,2.03,6.229,2.674
		c2.548,0.925,4.953,1.797,7.082,3.167C61.382,54.259,62.993,56.244,64.004,58.275L64.004,58.275z M64.004,58.275"/>
</g>
</svg>
