<svg 
 xmlns="http://www.w3.org/2000/svg"
 xmlns:xlink="http://www.w3.org/1999/xlink"
 width="48px" height="48px">
<path fill-rule="evenodd"  fill="rgb(255, 255, 255)"
 d="M9.000,6.000 C9.000,6.000 38.000,6.000 38.000,6.000 C39.657,6.000 41.000,7.343 41.000,9.000 C41.000,9.000 41.000,38.000 41.000,38.000 C41.000,39.657 39.657,41.000 38.000,41.000 C38.000,41.000 9.000,41.000 9.000,41.000 C7.343,41.000 6.000,39.657 6.000,38.000 C6.000,38.000 6.000,9.000 6.000,9.000 C6.000,7.343 7.343,6.000 9.000,6.000 Z"/>
<path fill-rule="evenodd"  fill="rgb(8, 17, 26)"
 d="M26.377,32.001 C26.377,32.001 26.377,27.609 26.377,27.609 C26.377,27.609 30.001,27.609 30.001,27.609 C30.001,27.609 23.000,19.998 23.000,19.998 C23.000,19.998 15.999,27.609 15.999,27.609 C15.999,27.609 19.623,27.609 19.623,27.609 C19.623,27.609 19.623,32.001 19.623,32.001 C19.623,32.001 26.377,32.001 26.377,32.001 Z"/>
<path fill-rule="evenodd"  fill="rgb(8, 17, 26)"
 d="M15.000,17.000 C15.000,17.000 31.000,17.000 31.000,17.000 C31.000,17.000 31.000,19.000 31.000,19.000 C31.000,19.000 15.000,19.000 15.000,19.000 C15.000,19.000 15.000,17.000 15.000,17.000 Z"/>
</svg>