<?xml version="1.0" encoding="utf-8"?>
<!-- Generator: Adobe Illustrator 21.0.0, SVG Export Plug-In . SVG Version: 6.00 Build 0)  -->
<svg version="1.1" id="图层_1" xmlns="http://www.w3.org/2000/svg" xmlns:xlink="http://www.w3.org/1999/xlink" x="0px" y="0px"
	 viewBox="0 0 48 48" enable-background="new 0 0 48 48" xml:space="preserve">
<g>
	<circle fill="#386B8B" cx="24" cy="23.902" r="20.999"/>
	<g>
		<path fill="#E0E7E7" d="M36.513,20.416c0.064,0.754-0.721,1.549-1.439,2.285c-3.137,3.218-6.362,6.35-9.495,9.574
			c-1.922,1.977-4.582,2.194-6.962,3.034c-0.789,0.278-1.21-0.328-0.965-1.497c0.834-3.967,2.877-7.027,5.952-9.62
			c2.297-1.937,4.285-4.238,6.446-6.34c1.077-1.047,2.348-1.924,3.888-1.159C35.244,17.34,36.411,18.277,36.513,20.416z
			 M34.83,20.028c0.155-0.851-0.55-1.281-1.105-1.673c-0.624-0.44-1.386-0.442-1.995,0.161c-3.618,3.582-7.276,7.124-10.803,10.794
			c-0.662,0.69-0.847,1.877-1.138,2.869c-0.177,0.603,0.178,1.208,0.836,0.876c1.098-0.556,2.405-0.531,3.367-1.506
			c3.214-3.254,6.525-6.412,9.749-9.656C34.219,21.413,34.851,20.912,34.83,20.028z"/>
		<g>
			<path fill="#E0E7E7" d="M20.8,25.712l-0.911-0.718c0.267-0.569,0.428-1.198,0.428-1.868c0-0.573-0.117-1.117-0.316-1.619
				l6.986-5.496c0.455,0.285,0.989,0.457,1.565,0.457c1.635,0,2.961-1.326,2.961-2.961s-1.326-2.961-2.961-2.961
				s-2.961,1.326-2.961,2.961c0,0.326,0.066,0.635,0.163,0.929l-6.9,5.429c-0.784-0.71-1.813-1.154-2.954-1.154
				c-2.439,0-4.416,1.977-4.416,4.416c0,2.439,1.977,4.416,4.416,4.416c1.043,0,1.989-0.377,2.745-0.982l0.843,0.664L20.8,25.712z"
				/>
			<path fill="#E0E7E7" d="M30.042,31.272c-0.587,0-1.13,0.175-1.592,0.467l-0.534-0.421l-1.311,1.513l0.613,0.483
				c-0.101,0.301-0.169,0.617-0.169,0.952c0,1.653,1.34,2.993,2.993,2.993c1.653,0,2.993-1.34,2.993-2.993
				C33.036,32.612,31.696,31.272,30.042,31.272z"/>
		</g>
	</g>
</g>
</svg>
