<?xml version="1.0" encoding="utf-8"?>
<!-- Generator: Adobe Illustrator 18.0.0, SVG Export Plug-In . SVG Version: 6.00 Build 0)  -->
<!DOCTYPE svg PUBLIC "-//W3C//DTD SVG 1.1//EN" "http://www.w3.org/Graphics/SVG/1.1/DTD/svg11.dtd">
<svg version="1.1" id="图层_1" xmlns="http://www.w3.org/2000/svg" xmlns:xlink="http://www.w3.org/1999/xlink" x="0px" y="0px"
	 viewBox="0 0 32 32" enable-background="new 0 0 32 32" xml:space="preserve">
	<path fill="#B2DBE5"  d="M14.637,27.663c-0.719,0-1.207-0.171-1.464-0.514c-0.257-0.343-0.385-0.891-0.385-1.644
	c0-0.343-0.004-0.882-0.013-1.618c-0.009-0.736-0.013-1.52-0.013-2.35c0-0.831-0.004-1.64-0.013-2.428
	c-0.009-0.788-0.013-1.413-0.013-1.875c0-0.651-0.064-1.169-0.193-1.554c-0.128-0.385-0.424-0.569-0.886-0.552
	c-0.325,0-0.728-0.009-1.207-0.026s-0.891-0.026-1.233-0.026c-0.599,0-0.98-0.158-1.143-0.475c-0.163-0.317-0.047-0.732,0.347-1.246
	c0.411-0.514,0.891-1.122,1.439-1.824c0.548-0.702,1.117-1.421,1.708-2.158c0.591-0.736,1.169-1.46,1.734-2.171
	c0.565-0.711,1.062-1.34,1.49-1.888c0.394-0.497,0.775-0.754,1.143-0.771c0.368-0.017,0.749,0.214,1.143,0.694
	c0.411,0.497,0.891,1.079,1.439,1.747c0.548,0.668,1.109,1.357,1.683,2.068c0.574,0.711,1.139,1.413,1.695,2.106
	c0.557,0.694,1.058,1.314,1.503,1.862c0.497,0.599,0.685,1.092,0.565,1.477s-0.488,0.578-1.105,0.578h-0.617
	c-0.24,0-0.488,0.004-0.745,0.013c-0.257,0.009-0.509,0.021-0.758,0.039c-0.248,0.017-0.467,0.026-0.655,0.026
	c-0.445,0-0.719,0.128-0.822,0.385c-0.103,0.257-0.154,0.608-0.154,1.053c0,0.497,0.004,1.147,0.013,1.952
	c0.009,0.805,0.013,1.644,0.013,2.517c0,0.873,0.004,1.721,0.013,2.543c0.009,0.822,0.013,1.49,0.013,2.004
	c0,0.223-0.017,0.454-0.051,0.694c-0.034,0.24-0.116,0.458-0.244,0.655c-0.128,0.197-0.304,0.36-0.527,0.488
	c-0.223,0.128-0.531,0.193-0.925,0.193c-0.462,0-0.908,0.004-1.336,0.013C15.648,27.658,15.168,27.663,14.637,27.663L14.637,27.663z
	"/>
</svg>
