<?xml version="1.0" encoding="utf-8"?>
<!-- Generator: Adobe Illustrator 18.0.0, SVG Export Plug-In . SVG Version: 6.00 Build 0)  -->
<!DOCTYPE svg PUBLIC "-//W3C//DTD SVG 1.1//EN" "http://www.w3.org/Graphics/SVG/1.1/DTD/svg11.dtd">
<svg version="1.1" id="矩形_24_1_" xmlns="http://www.w3.org/2000/svg" xmlns:xlink="http://www.w3.org/1999/xlink" x="0px"
	 y="0px" viewBox="0 0 612 792" enable-background="new 0 0 612 792" xml:space="preserve">
<g>
	<g>
		<path fill="#727575" d="M280.2,657.1c5.4,5.4,16.3,10.9,24.5,10.9s19-2.7,24.5-10.9l114.2-114.2l16.3-16.3
			c92.5-92.5,97.9-250.2,2.7-340C418.9,145.8,361.8,124,304.6,124s-114.2,21.8-157.8,62.6c-95.2,89.8-89.8,244.8,2.7,340
			L280.2,657.1z M171.4,213.8c35.4-35.4,84.3-54.4,133.3-54.4s97.9,19,133.3,54.4c38.1,35.4,57.1,84.3,59.8,136
			c0,57.1-21.8,114.2-62.6,155l-16.3,16.3l-117,114.2L223,556.5l-49-54.4c-40.8-40.8-62.6-97.9-62.6-155
			C114.2,295.4,133.3,246.4,171.4,213.8L171.4,213.8z"/>
	</g>
	<path fill="#727575" stroke="#E8E8E8" stroke-width="0.5" stroke-miterlimit="10" d="M451.5,319.8h-291c-2.7,0-8.2-2.7-8.2-5.4
		c0-2.7,0-8.2,2.7-10.9l65.3-65.3c2.7-2.7,10.9-2.7,13.6,0c2.7,2.7,2.7,10.9,0,13.6l-49,49h266.6c5.4,0,10.9,5.4,10.9,10.9
		C459.7,314.4,457,319.8,451.5,319.8L451.5,319.8z M160.5,417.8h288.3c2.7,0,8.2,2.7,8.2,5.4c2.7,2.7,0,8.2-2.7,10.9l-62.6,68
		c-2.7,2.7-10.9,2.7-13.6,0c-2.7-2.7-2.7-10.9,0-13.6l49-49H160.5c-5.4,0-10.9-5.4-10.9-10.9C152.3,423.2,155,417.8,160.5,417.8
		L160.5,417.8z"/>
</g>
</svg>
