<?xml version="1.0" encoding="utf-8"?>
<!-- Generator: Adobe Illustrator 21.0.2, SVG Export Plug-In . SVG Version: 6.00 Build 0)  -->
<svg version="1.1" id="矩形_24_1_" xmlns="http://www.w3.org/2000/svg" xmlns:xlink="http://www.w3.org/1999/xlink" x="0px"
	 y="0px" viewBox="0 0 22.5 20.2" style="enable-background:new 0 0 22.5 20.2;" xml:space="preserve">
<style type="text/css">
	.st0{fill:#E8E8E8;}
	.st1{fill:#E8E8E8;stroke:#E8E8E8;stroke-width:0.5;stroke-miterlimit:10;}
</style>
<g>
	<g>
		<path class="st0" d="M10.3,19.7c0.2,0.2,0.6,0.4,0.9,0.4c0.3,0,0.7-0.1,0.9-0.4l4.2-4.2l0.6-0.6c3.4-3.4,3.6-9.2,0.1-12.5
			c-1.6-1.5-3.7-2.3-5.8-2.3c-2.1,0-4.2,0.8-5.8,2.3c-3.5,3.3-3.3,9,0.1,12.5L10.3,19.7z M6.3,3.4c1.3-1.3,3.1-2,4.9-2
			c1.8,0,3.6,0.7,4.9,2c1.4,1.3,2.1,3.1,2.2,5c0,2.1-0.8,4.2-2.3,5.7l-0.6,0.6l-4.3,4.2l-2.9-2.9L6.4,14c-1.5-1.5-2.3-3.6-2.3-5.7
			C4.2,6.4,4.9,4.6,6.3,3.4L6.3,3.4z M6.3,3.4"/>
	</g>
	<path class="st1" d="M16.6,7.3H5.9c-0.1,0-0.3-0.1-0.3-0.2C5.6,7,5.6,6.8,5.7,6.7l2.4-2.4c0.1-0.1,0.4-0.1,0.5,0
		c0.1,0.1,0.1,0.4,0,0.5L6.8,6.6h9.8c0.2,0,0.4,0.2,0.4,0.4C16.9,7.1,16.8,7.3,16.6,7.3L16.6,7.3z M5.9,10.9h10.6
		c0.1,0,0.3,0.1,0.3,0.2c0.1,0.1,0,0.3-0.1,0.4L14.4,14c-0.1,0.1-0.4,0.1-0.5,0c-0.1-0.1-0.1-0.4,0-0.5l1.8-1.8H5.9
		c-0.2,0-0.4-0.2-0.4-0.4C5.6,11.1,5.7,10.9,5.9,10.9L5.9,10.9z M5.9,10.9"/>
</g>
</svg>
