<svg 
 xmlns="http://www.w3.org/2000/svg"
 xmlns:xlink="http://www.w3.org/1999/xlink"
 width="34px" height="29.5px">
<path fill-rule="evenodd"  fill="rgb(15, 49, 73)"
 d="M32.212,0.519 C32.212,0.519 32.962,0.519 32.962,0.519 C32.962,0.519 32.962,28.904 32.962,28.904 C32.962,28.904 32.212,28.904 32.212,28.904 C32.212,28.904 32.212,0.519 32.212,0.519 Z"/>
<path fill-rule="evenodd"  stroke="rgb(8, 25, 41)" stroke-width="1px" stroke-linecap="butt" stroke-linejoin="miter" fill="none"
 d="M1.284,23.173 C1.665,19.640 5.410,16.865 9.981,16.865 C14.553,16.865 18.298,19.640 18.679,23.173 C18.679,23.173 1.284,23.173 1.284,23.173 ZM9.981,15.559 C7.227,15.559 4.993,13.204 4.993,10.299 C4.993,7.394 7.227,5.038 9.981,5.038 C12.736,5.038 14.970,7.394 14.970,10.299 C14.970,13.204 12.736,15.559 9.981,15.559 Z"/>
</svg>