<?xml version="1.0" encoding="utf-8"?>
<!-- Generator: Adobe Illustrator 21.0.0, SVG Export Plug-In . SVG Version: 6.00 Build 0)  -->
<svg version="1.1" id="图层_1" xmlns="http://www.w3.org/2000/svg" xmlns:xlink="http://www.w3.org/1999/xlink" x="0px" y="0px"
	 viewBox="0 0 32 32" style="enable-background:new 0 0 32 32;" xml:space="preserve">
<style type="text/css">
	.st0{fill:#FFFFFF;}
	.st1{fill:#FF0003;}
</style>
<path class="st0" d="M26.9,3.2c-3.2-1.9-6.2-1.2-8.9,1c-1.5,1.2-2.5,1-3.8-0.1c-1.3-1-2.8-1.8-4.5-1.9C6,2,2.7,4.1,0.9,7.9
	c-1.6,3.5-1,7.7,1.9,10.5c3.9,3.8,8,7.3,12,11c0.9,0.9,1.6,0.7,2.5-0.1c3.9-3.5,7.8-7,11.7-10.6c2-1.8,3-4.1,2.9-6.4
	C32.1,7.9,30.1,5.1,26.9,3.2z"/>
</svg>
