<?xml version="1.0" encoding="utf-8"?>
<!-- Generator: Adobe Illustrator 18.0.0, SVG Export Plug-In . SVG Version: 6.00 Build 0)  -->
<!DOCTYPE svg PUBLIC "-//W3C//DTD SVG 1.1//EN" "http://www.w3.org/Graphics/SVG/1.1/DTD/svg11.dtd">
<svg version="1.1" id="图层_1" xmlns="http://www.w3.org/2000/svg" xmlns:xlink="http://www.w3.org/1999/xlink" x="0px" y="0px"
	 viewBox="0 0 32 32" enable-background="new 0 0 32 32" xml:space="preserve">
<path fill="none" stroke="#E0E7E7" stroke-width="2" stroke-miterlimit="10" d="M12.128,11.299V7.801c0-1.65,1.35-3,3-3h0.917
	c1.65,0,3,1.35,3,3v3.499"/>
<path fill="#E0E7E7" d="M26.756,12.563c-0.473-2.272-1.649-3.813-4.448-3.813H8.865c-2.799,0-3.975,1.541-4.448,3.813H26.756z"/>
<g>
	<path fill="#E0E7E7" d="M23.509,17.399c1.815,0,3.292,1.477,3.292,3.292s-1.477,3.292-3.292,3.292s-3.292-1.477-3.292-3.292
		S21.694,17.399,23.509,17.399 M23.509,16.399c-2.37,0-4.292,1.921-4.292,4.292s1.921,4.292,4.292,4.292s4.292-1.921,4.292-4.292
		S25.879,16.399,23.509,16.399L23.509,16.399z"/>
</g>
<path fill="#E0E7E7" d="M26.97,14.063H4.202C4.141,14.779,4.12,15.541,4.12,16.33v0c0,4.169,0.576,7.58,4.746,7.58h10.477
	c-0.691-0.894-1.119-2.001-1.119-3.216c0-2.917,2.374-5.291,5.291-5.291c1.363,0,2.595,0.532,3.534,1.382
	c0.002-0.151,0.004-0.301,0.004-0.455v0C27.053,15.541,27.032,14.779,26.97,14.063z M17.149,16.917c0,0.55-0.45,1-1,1h-1.125
	c-0.55,0-1-0.45-1-1v-0.5c0-0.55,0.45-1,1-1h1.125c0.55,0,1,0.45,1,1V16.917z"/>
<g>
	<path fill="#E0E7E7" d="M23.509,21.19c-0.276,0-0.5-0.224-0.5-0.5v-2.472c0-0.276,0.224-0.5,0.5-0.5s0.5,0.224,0.5,0.5v2.472
		C24.009,20.967,23.785,21.19,23.509,21.19z"/>
</g>
<g>
	<path fill="#E0E7E7" d="M25.981,21.19h-2.473c-0.276,0-0.5-0.224-0.5-0.5s0.224-0.5,0.5-0.5h2.473c0.276,0,0.5,0.224,0.5,0.5
		S26.258,21.19,25.981,21.19z"/>
</g>
</svg>
