<?xml version="1.0" standalone="no"?><!DOCTYPE svg PUBLIC "-//W3C//DTD SVG 1.1//EN" "http://www.w3.org/Graphics/SVG/1.1/DTD/svg11.dtd"><svg t="1554963245692" class="icon" style="" viewBox="0 0 1024 1024" version="1.1" xmlns="http://www.w3.org/2000/svg" p-id="3169" xmlns:xlink="http://www.w3.org/1999/xlink" width="200" height="200"><defs><style type="text/css"></style></defs><path d="M514 912c-219.9 0-398.8-178.9-398.8-398.9 0-219.9 178.9-398.8 398.8-398.8s398.8 178.9 398.8 398.8c0 220-178.9 398.9-398.8 398.9z m0-701.5c-166.9 0-302.7 135.8-302.7 302.7S347.1 815.9 514 815.9s302.7-135.8 302.7-302.7S680.9 210.5 514 210.5z" fill="#1296db" p-id="3170"></path><path d="M349.9 406.2c15 0 30.1 5.7 41.5 17.2L514 546l122.6-122.6c22.9-22.9 60.2-22.9 83.1 0 22.9 22.9 22.9 60.2 0 83.1L555.5 670.6c-22.9 22.9-60.2 22.9-83.1 0L308.3 506.5c-22.9-22.9-22.9-60.2 0-83.1 11.5-11.4 26.6-17.2 41.6-17.2z" fill="#1296db" p-id="3171"></path></svg>