<svg 
 xmlns="http://www.w3.org/2000/svg"
 xmlns:xlink="http://www.w3.org/1999/xlink"
 width="16px" height="16px">
<path fill-rule="evenodd"  fill="rgb(37, 137, 206)"
 d="M8.000,-0.000 C12.418,-0.000 16.000,3.582 16.000,8.000 C16.000,12.418 12.418,16.000 8.000,16.000 C3.582,16.000 -0.000,12.418 -0.000,8.000 C-0.000,3.582 3.582,-0.000 8.000,-0.000 Z"/>
<path fill-rule="evenodd"  fill="rgb(228, 228, 228)"
 d="M12.426,9.387 C12.426,9.387 14.000,9.176 14.000,9.176 C14.000,9.176 13.994,6.793 13.994,6.793 C13.994,6.793 12.419,6.589 12.419,6.589 C11.982,6.533 11.844,6.201 12.111,5.851 C12.111,5.851 13.074,4.589 13.074,4.589 C13.074,4.589 11.384,2.908 11.384,2.908 C11.384,2.908 10.127,3.878 10.127,3.878 C9.779,4.147 9.446,4.010 9.387,3.574 C9.387,3.574 9.176,2.000 9.176,2.000 C9.176,2.000 6.793,2.006 6.793,2.006 C6.793,2.006 6.590,3.582 6.590,3.582 C6.534,4.018 6.201,4.157 5.852,3.890 C5.852,3.890 4.589,2.926 4.589,2.926 C4.589,2.926 2.908,4.615 2.908,4.615 C2.908,4.615 3.879,5.873 3.879,5.873 C4.148,6.222 4.011,6.555 3.575,6.613 C3.575,6.613 2.000,6.825 2.000,6.825 C2.000,6.825 2.006,9.207 2.006,9.207 C2.006,9.207 3.582,9.410 3.582,9.410 C4.018,9.467 4.157,9.799 3.890,10.149 C3.890,10.149 2.926,11.412 2.926,11.412 C2.926,11.412 4.615,13.092 4.615,13.092 C4.615,13.092 5.873,12.122 5.873,12.122 C6.222,11.853 6.555,11.990 6.613,12.426 C6.613,12.426 6.825,14.000 6.825,14.000 C6.825,14.000 9.208,13.994 9.208,13.994 C9.208,13.994 9.411,12.418 9.411,12.418 C9.467,11.982 9.799,11.843 10.149,12.110 C10.149,12.110 11.412,13.074 11.412,13.074 C11.412,13.074 13.092,11.384 13.092,11.384 C13.092,11.384 12.122,10.127 12.122,10.127 C11.853,9.778 11.990,9.445 12.426,9.387 ZM8.000,10.334 C6.711,10.334 5.666,9.289 5.666,8.000 C5.666,6.711 6.711,5.666 8.000,5.666 C9.289,5.666 10.334,6.711 10.334,8.000 C10.334,9.289 9.289,10.334 8.000,10.334 Z"/>
</svg>