<svg 
 xmlns="http://www.w3.org/2000/svg"
 xmlns:xlink="http://www.w3.org/1999/xlink"
 width="26px" height="26px">
<path fill-rule="evenodd"  fill="rgb(51, 213, 202)"
 d="M24.717,21.641 C24.717,21.641 1.480,21.641 1.480,21.641 C1.291,21.640 1.108,21.575 0.963,21.456 C0.616,21.174 0.568,20.668 0.855,20.327 C0.855,20.327 3.247,17.513 3.247,17.513 C3.247,17.513 3.247,12.376 3.247,12.376 C3.247,8.158 6.298,4.485 10.349,3.308 C10.349,3.308 10.349,2.279 10.349,2.279 C10.349,1.023 11.354,0.001 12.587,0.001 C12.587,0.001 13.606,0.001 13.606,0.001 C14.843,0.001 15.847,1.023 15.847,2.279 C15.847,2.279 15.847,3.308 15.847,3.308 C19.898,4.485 22.947,8.158 22.947,12.376 C22.947,12.376 22.947,17.513 22.947,17.513 C22.947,17.513 25.341,20.327 25.341,20.327 C25.464,20.471 25.531,20.654 25.531,20.842 C25.531,21.284 25.166,21.641 24.717,21.641 ZM14.220,2.279 C14.220,1.906 13.946,1.601 13.606,1.601 C13.606,1.601 12.586,1.601 12.586,1.601 C12.249,1.601 11.975,1.905 11.975,2.279 C11.975,2.279 11.976,2.279 11.976,2.279 C11.976,2.279 11.976,2.981 11.976,2.981 C12.346,2.938 12.720,2.911 13.099,2.911 C13.477,2.911 13.850,2.938 14.220,2.982 C14.220,2.982 14.220,2.279 14.220,2.279 ZM21.511,18.316 C21.389,18.172 21.322,17.991 21.322,17.803 C21.322,17.803 21.322,12.376 21.322,12.376 C21.322,8.111 17.555,4.510 13.099,4.510 C8.641,4.510 4.875,8.113 4.875,12.376 C4.875,12.376 4.875,17.803 4.875,17.803 C4.875,17.991 4.808,18.172 4.686,18.316 C4.686,18.316 3.220,20.041 3.220,20.041 C3.220,20.041 22.979,20.041 22.979,20.041 C22.979,20.041 21.511,18.316 21.511,18.316 ZM13.306,7.353 C16.305,7.353 18.737,9.743 18.737,12.691 C18.737,15.639 16.305,18.028 13.306,18.028 C10.307,18.028 7.876,15.639 7.876,12.691 C7.876,9.743 10.307,7.353 13.306,7.353 ZM12.690,12.827 C12.690,12.828 12.690,12.829 12.690,12.830 C12.690,12.831 12.690,12.832 12.690,12.833 C12.690,13.120 12.928,13.354 13.220,13.354 C13.220,13.354 16.557,13.354 16.557,13.354 C16.849,13.354 17.088,13.120 17.088,12.833 C17.088,12.546 16.849,12.312 16.557,12.312 C16.557,12.312 13.750,12.312 13.750,12.312 C13.750,12.312 13.750,10.422 13.750,10.422 C13.750,10.135 13.511,9.900 13.220,9.900 C12.928,9.900 12.690,10.135 12.690,10.422 C12.690,10.422 12.690,12.827 12.690,12.827 ZM10.485,22.574 C10.934,22.574 11.298,22.932 11.298,23.373 C11.298,23.858 12.037,24.400 13.099,24.400 C14.129,24.400 14.899,23.858 14.899,23.373 C14.899,22.932 15.264,22.574 15.713,22.574 C16.162,22.574 16.526,22.932 16.527,23.373 C16.527,24.845 15.023,26.000 13.100,26.000 C11.177,26.000 9.671,24.845 9.671,23.373 C9.671,22.932 10.035,22.574 10.485,22.574 Z"/>
</svg>