<svg 
 xmlns="http://www.w3.org/2000/svg"
 xmlns:xlink="http://www.w3.org/1999/xlink"
 width="46.5px" height="46.5px">
<path fill-rule="evenodd"  stroke="rgb(51, 213, 200)" stroke-width="1px" stroke-linecap="butt" stroke-linejoin="miter" fill="rgb(7, 27, 45)"
 d="M22.500,5.000 C32.165,5.000 40.000,12.835 40.000,22.500 C40.000,32.165 32.165,40.000 22.500,40.000 C12.835,40.000 5.000,32.165 5.000,22.500 C5.000,12.835 12.835,5.000 22.500,5.000 Z"/>
<path fill-rule="evenodd"  fill="rgb(73, 178, 173)"
 d="M22.427,25.222 C22.427,25.222 29.292,18.058 29.292,18.058 C29.292,18.058 30.725,19.431 30.725,19.431 C30.725,19.431 22.486,28.028 22.486,28.028 C22.486,28.028 13.889,19.790 13.889,19.790 C13.889,19.790 15.262,18.357 15.262,18.357 C15.262,18.357 22.427,25.222 22.427,25.222 Z"/>
</svg>