<svg 
 xmlns="http://www.w3.org/2000/svg"
 xmlns:xlink="http://www.w3.org/1999/xlink"
 width="42px" height="36px"  viewBox="0 0 42 36">
<path fill-rule="evenodd"  fill="rgb(0, 187, 156)"
 d="M35.874,29.874 C29.040,36.708 17.960,36.708 11.126,29.874 C11.000,29.749 10.893,29.612 10.772,29.483 C10.772,29.483 10.772,29.521 10.772,29.521 C10.772,29.521 0.873,19.621 0.873,19.621 C-0.299,18.450 -0.299,16.550 0.873,15.379 C0.873,15.379 10.772,5.479 10.772,5.479 C10.772,5.479 10.772,5.517 10.772,5.517 C10.893,5.388 11.000,5.251 11.126,5.126 C17.960,-1.709 29.040,-1.709 35.874,5.126 C42.708,11.960 42.708,23.040 35.874,29.874 Z"/>
<path fill-rule="evenodd"  fill="rgb(1, 2, 3)"
 d="M28.000,10.000 C28.000,10.000 30.000,10.000 30.000,10.000 C30.000,10.000 30.000,26.000 30.000,26.000 C30.000,26.000 28.000,26.000 28.000,26.000 C28.000,26.000 28.000,10.000 28.000,10.000 Z"/>
<path fill-rule="evenodd"  fill="rgb(1, 2, 3)"
 d="M25.000,10.000 C25.000,10.000 27.000,10.000 27.000,10.000 C27.000,10.000 27.000,26.000 27.000,26.000 C27.000,26.000 25.000,26.000 25.000,26.000 C25.000,26.000 25.000,10.000 25.000,10.000 Z"/>
<path fill-rule="evenodd"  fill="rgb(1, 2, 3)"
 d="M25.009,17.510 C25.009,17.510 17.991,25.010 17.991,25.010 C17.991,25.010 17.991,10.010 17.991,10.010 C17.991,10.010 25.009,17.510 25.009,17.510 Z"/>
</svg>