<svg 
 xmlns="http://www.w3.org/2000/svg"
 xmlns:xlink="http://www.w3.org/1999/xlink"
 width="111px" height="36px"  viewBox="0 0 111 36">
<path fill-rule="evenodd"  fill="rgb(0, 187, 156)"
 d="M18.000,-0.000 C18.000,-0.000 93.000,-0.000 93.000,-0.000 C102.941,-0.000 111.000,8.059 111.000,18.000 C111.000,27.941 102.941,36.000 93.000,36.000 C93.000,36.000 18.000,36.000 18.000,36.000 C8.059,36.000 -0.000,27.941 -0.000,18.000 C-0.000,8.059 8.059,-0.000 18.000,-0.000 Z"/>
<path fill-rule="evenodd"  fill="rgb(1, 2, 3)"
 d="M24.500,24.000 C25.881,24.000 27.000,25.119 27.000,26.500 C27.000,27.881 25.881,29.000 24.500,29.000 C23.119,29.000 22.000,27.881 22.000,26.500 C22.000,26.394 22.018,26.292 22.031,26.189 C22.031,26.189 15.362,21.454 15.362,21.454 C14.822,21.795 14.186,22.000 13.500,22.000 C11.567,22.000 10.000,20.433 10.000,18.500 C10.000,16.567 11.567,15.000 13.500,15.000 C14.126,15.000 14.706,15.178 15.214,15.466 C15.214,15.466 20.105,11.178 20.105,11.178 C20.043,10.961 20.000,10.737 20.000,10.500 C20.000,9.119 21.119,8.000 22.500,8.000 C23.881,8.000 25.000,9.119 25.000,10.500 C25.000,11.881 23.881,13.000 22.500,13.000 C22.094,13.000 21.716,12.894 21.378,12.723 C21.378,12.723 16.601,16.910 16.601,16.910 C16.848,17.389 17.000,17.924 17.000,18.500 C17.000,19.014 16.883,19.499 16.683,19.939 C16.683,19.939 23.057,24.465 23.057,24.465 C23.465,24.174 23.961,24.000 24.500,24.000 Z"/>
<text fill="rgb(1, 2, 3)" font-size="14px" x="30px" y="22px">&#23436;&#25972;&#25299;&#25169;&#22270;</text>
</svg>