<svg 
 xmlns="http://www.w3.org/2000/svg"
 xmlns:xlink="http://www.w3.org/1999/xlink"
 width="45.5px" height="45.5px"  viewBox="0 0 45.5 45.5">
<path fill-rule="evenodd"  stroke="rgb(51, 213, 200)" stroke-width="1px" stroke-linecap="butt" stroke-linejoin="miter" fill="rgb(7, 27, 45)"
 d="M22.000,4.500 C31.665,4.500 39.500,12.335 39.500,22.000 C39.500,31.665 31.665,39.500 22.000,39.500 C12.335,39.500 4.500,31.665 4.500,22.000 C4.500,12.335 12.335,4.500 22.000,4.500 Z"/>
<path fill-rule="evenodd"  fill="rgb(73, 178, 173)"
 d="M28.755,25.707 C28.755,25.707 21.811,18.620 21.811,18.620 C21.811,18.620 14.724,25.564 14.724,25.564 C14.724,25.564 13.335,24.146 13.335,24.146 C13.335,24.146 21.840,15.813 21.840,15.813 C21.840,15.813 30.173,24.319 30.173,24.319 C30.173,24.319 28.755,25.707 28.755,25.707 Z"/>
</svg>