<svg id="导航栏图标" xmlns="http://www.w3.org/2000/svg" viewBox="0 0 48 48"><title>协议图标</title><g id="矩形_1781_拷贝_3" data-name="矩形 1781 拷贝 3"><path d="M9.13,14.12H32.56a2.36,2.36,0,0,0,2.35-2.57A2.47,2.47,0,0,0,32.39,9.4H9A2.36,2.36,0,0,0,6.61,12,2.47,2.47,0,0,0,9.13,14.12Zm31.29,0a2.36,2.36,0,1,0-2.36-2.36A2.36,2.36,0,0,0,40.42,14.12ZM32.56,22H9A2.36,2.36,0,1,0,9,26.7h23.6a2.36,2.36,0,0,0,0-4.72Zm7.87,0a2.36,2.36,0,1,0,2.36,2.36A2.36,2.36,0,0,0,40.42,22ZM32.56,34.57H9a2.36,2.36,0,1,0,0,4.72h23.6a2.36,2.36,0,0,0,0-4.72Zm7.87,0a2.36,2.36,0,1,0,2.36,2.36A2.36,2.36,0,0,0,40.42,34.57Z" style="fill:#4db2a5;fill-rule:evenodd"/></g></svg>