<?xml version="1.0" encoding="utf-8"?>
<!-- Generator: Adobe Illustrator 21.0.2, SVG Export Plug-In . SVG Version: 6.00 Build 0)  -->
<svg version="1.1" id="图层_1" xmlns="http://www.w3.org/2000/svg" xmlns:xlink="http://www.w3.org/1999/xlink" x="0px" y="0px"
	 viewBox="250 0 752 832"  height="800px" width="800px" style="enable-background:new 0 0 1190.6 807.9;" xml:space="preserve">
<g>
	<path d="M543.4,97.3h-51.2c-14.2,0-25.6,11.4-25.6,25.6c0,14.2,11.4,25.6,25.6,25.6h51.2c14.2,0,25.6-11.4,25.6-25.6
		C569,108.7,557.6,97.3,543.4,97.3L543.4,97.3z M543.4,97.3" fill="#37e6d7"/>
	<path d="M697,97.3h-51.2c-14.2,0-25.6,11.4-25.6,25.6c0,14.2,11.4,25.6,25.6,25.6H697c14.2,0,25.6-11.4,25.6-25.6
		C722.6,108.7,711.2,97.3,697,97.3L697,97.3z M697,97.3" fill="#37e6d7"/>
	<path d="M827.1,199.7H825V-5.1H364.2v204.8h-2.1c-27.1,0-49.1,22-49.1,49.1v516.1c0,27.1,22,49.1,49.1,49.1H827
		c27.1,0,49.1-22,49.1-49.1V248.8C876.2,221.7,854.2,199.7,827.1,199.7L827.1,199.7z M415.4,46.1h358.4v153.6H415.4V46.1z
		 M825,762.9H364.2v-512H825V762.9z M825,762.9" fill="#37e6d7"/>
</g>
</svg>
