<?xml version="1.0" encoding="utf-8"?>
<!-- Generator: Adobe Illustrator 21.0.0, SVG Export Plug-In . SVG Version: 6.00 Build 0)  -->
<svg version="1.1" xmlns="http://www.w3.org/2000/svg" xmlns:xlink="http://www.w3.org/1999/xlink" x="0px" y="0px"
	 viewBox="0 0 16 16" style="enable-background:new 0 0 16 16;" xml:space="preserve">
<style type="text/css">
	.st0{display:none;}
	.st1{display:inline;fill:#08111A;}
	.st2{fill:#FFFFFF;}
	.st3{fill:#FF0003;}
	.st4{fill:#A575C9;}
	.st5{fill:#DBE5E7;}
	.st6{fill:#27C1AE;}
	.st7{fill:url(#SVGID_1_);}
	.st8{fill:none;stroke:#15EBDA;}
	.st9{fill:#939494;}
	.st10{fill:#277CBD;}
	.st11{fill:#D0DDE8;}
	.st12{fill:#03111C;}
	.st13{fill:#78797B;}
</style>
<g id="图层_2" class="st0">
	<rect x="-114" y="-106.5" class="st1" width="654.1" height="1029.1"/>
</g>
<g id="图层_1">
	<circle class="st12" cx="8" cy="8" r="7.7"/>
	<path class="st13" d="M11.5,5.2C11.4,5.1,11.2,5.1,11,5c-0.2,0-0.3,0.1-0.5,0.2L7,9.3L5.4,7.7C5.3,7.6,5.1,7.5,4.9,7.5
		c-0.2,0-0.3,0.1-0.5,0.2c-0.2,0.3-0.2,0.7,0,0.9l2.1,2.1C6.7,10.9,6.8,11,7,11h0h0c0.2,0,0.3-0.1,0.5-0.2l4-4.6
		C11.7,5.9,11.7,5.5,11.5,5.2z"/>
</g>
</svg>
