<?xml version="1.0" encoding="utf-8"?>
<!-- Generator: Adobe Illustrator 17.0.0, SVG Export Plug-In . SVG Version: 6.00 Build 0)  -->
<!DOCTYPE svg PUBLIC "-//W3C//DTD SVG 1.1//EN" "http://www.w3.org/Graphics/SVG/1.1/DTD/svg11.dtd">
<svg version="1.1" id="图层_1" xmlns="http://www.w3.org/2000/svg" xmlns:xlink="http://www.w3.org/1999/xlink" x="0px" y="0px"
	 width="50px" height="50px" viewBox="0 0 50 50" enable-background="new 0 0 50 50" xml:space="preserve">
<g>
	<path fill="#FFFFFF" d="M25,0.5C11.469,0.5,0.5,11.469,0.5,25c0,13.531,10.969,24.5,24.5,24.5S49.5,38.531,49.5,25
		C49.5,11.469,38.531,0.5,25,0.5z M25,46.426C13.766,46.426,3.574,36.234,3.574,25C3.574,13.766,13.766,3.574,25,3.574
		S46.426,13.766,46.426,25C46.426,36.234,36.234,46.426,25,46.426z"/>
	<g>
		<path fill="#FFFFFF" d="M30.495,12.095c0.099,2.358-1.883,4.03-4.135,4.03s-3.584-0.748-3.588-3.044
			c-0.003-2.018,1.885-3.831,4.37-3.831C29.393,9.25,30.411,10.112,30.495,12.095z"/>
		<path fill="#FFFFFF" d="M16.498,25.242l0.832,1.338c0,0,2.707-1.448,3.826-1.721c0.179-0.043,0.488,0.049,0.422,0.438
			c-0.398,2.341-2.653,10.792-2.657,11.234c-0.009,1.029-0.232,1.972,0.893,2.879s6.264-0.3,11.183-5.057l-0.942-1.241
			c0,0-4.058,2.763-4.102,1.544c-0.063-1.734,2.43-9.682,2.676-11.052s0.401-3.16-0.919-3.562
			C26.391,19.641,21.922,20.938,16.498,25.242z"/>
	</g>
</g>
</svg>
