<?xml version="1.0" encoding="utf-8"?>
<!-- Generator: Adobe Illustrator 17.0.0, SVG Export Plug-In . SVG Version: 6.00 Build 0)  -->
<!DOCTYPE svg PUBLIC "-//W3C//DTD SVG 1.1//EN" "http://www.w3.org/Graphics/SVG/1.1/DTD/svg11.dtd">
<svg version="1.1" id="图层_1" xmlns="http://www.w3.org/2000/svg" xmlns:xlink="http://www.w3.org/1999/xlink" x="0px" y="0px"
	 width="50px" height="50px" viewBox="0 0 50 50" enable-background="new 0 0 50 50" xml:space="preserve">
<path fill="#FFFFFF" d="M17.041,31.722c0-8.168,6.621-14.789,14.787-14.787c1.753,0,3.434,0.305,4.995,0.866
	C36.681,11.465,31.504,6.37,25.134,6.37c-6.46,0-11.697,5.237-11.697,11.697c0,0.06,0.005,0.121,0.005,0.181h-0.003
	c0,8.316-6.024,15.679-6.611,16.376c-0.013,0.013-0.026,0.026-0.037,0.042l-0.011,0.01v0.003c-0.189,0.242-0.303,0.548-0.303,0.879
	c0,0.787,0.637,1.426,1.426,1.426h10.103C17.384,35.351,17.041,33.577,17.041,31.722z"/>
<path fill="#FFFFFF" d="M43.56,29.362c-0.042-0.211-0.232-0.363-0.448-0.363h-1.95c-0.195-0.676-0.466-1.331-0.808-1.95l1.379-1.381
	c0.153-0.15,0.176-0.392,0.058-0.571c-0.44-0.66-0.945-1.276-1.5-1.832c-0.555-0.555-1.171-1.06-1.831-1.5
	c-0.179-0.121-0.421-0.095-0.576,0.058l-1.379,1.379c-0.618-0.342-1.274-0.611-1.95-0.808v-1.953c0-0.216-0.153-0.403-0.366-0.447
	c-1.55-0.308-3.163-0.308-4.713,0c-0.213,0.045-0.366,0.232-0.366,0.447v1.953c-0.676,0.195-1.331,0.466-1.95,0.808l-1.379-1.379
	c-0.158-0.153-0.397-0.176-0.576-0.058c-0.661,0.44-1.276,0.945-1.832,1.5c0,0-0.003,0.005-0.003,0.008
	c-0.555,0.55-1.058,1.166-1.497,1.826c-0.121,0.179-0.097,0.421,0.058,0.574l1.376,1.376c-0.34,0.619-0.611,1.274-0.808,1.95h-1.95
	c-0.216,0-0.403,0.153-0.447,0.368c-0.155,0.776-0.234,1.574-0.234,2.36c0,0.787,0.079,1.579,0.234,2.355
	c0.045,0.213,0.232,0.366,0.447,0.366h1.958c0.195,0.676,0.466,1.332,0.808,1.95l-1.379,1.379c-0.153,0.153-0.176,0.392-0.058,0.571
	c0.44,0.661,0.945,1.276,1.5,1.831c0.555,0.555,1.171,1.061,1.832,1.5c0.179,0.121,0.418,0.097,0.571-0.058l1.382-1.379
	c0.618,0.34,1.273,0.611,1.95,0.808v1.945c0,0.218,0.153,0.403,0.366,0.447c0.774,0.155,1.568,0.234,2.355,0.234
	c0.787,0,1.579-0.079,2.355-0.234c0.213-0.045,0.366-0.231,0.366-0.447v-1.95c0.676-0.195,1.331-0.466,1.95-0.808l1.382,1.379
	c0.15,0.153,0.392,0.176,0.571,0.058c1.326-0.884,2.447-2.005,3.331-3.332c0.121-0.179,0.095-0.418-0.058-0.571l-1.379-1.382
	c0.342-0.618,0.611-1.274,0.808-1.95h1.947c0.216,0,0.403-0.153,0.447-0.366c0.155-0.774,0.234-1.566,0.234-2.355
	C43.789,30.933,43.712,30.14,43.56,29.362z M31.828,35.148c-1.889,0-3.424-1.537-3.424-3.424c0-1.889,1.537-3.424,3.424-3.424
	c1.889,0,3.424,1.537,3.424,3.424C35.252,33.609,33.718,35.148,31.828,35.148z"/>
</svg>
