<svg 
 xmlns="http://www.w3.org/2000/svg"
 xmlns:xlink="http://www.w3.org/1999/xlink"
 width="52.5px" height="53.5px">
<path fill-rule="evenodd"  stroke="rgb(58, 175, 161)" stroke-width="1px" stroke-linecap="butt" stroke-linejoin="miter" fill="none"
 d="M18.985,1.836 C18.985,1.836 47.043,1.836 47.043,1.836 C47.043,1.836 50.161,4.944 50.161,4.944 C50.161,4.944 50.161,6.497 50.161,6.497 C50.161,6.497 47.043,9.604 47.043,9.604 C47.043,9.604 47.043,30.967 47.043,30.967 C47.043,30.967 48.602,32.520 48.602,32.520 C48.602,32.520 48.602,34.462 48.602,34.462 C48.602,34.462 42.757,40.288 42.757,40.288 C42.757,40.288 42.757,43.007 42.757,43.007 C42.757,43.007 45.095,45.338 45.095,45.338 C45.095,45.338 45.095,48.833 45.095,48.833 C45.095,48.833 31.066,48.833 31.066,48.833 C31.066,48.833 28.728,46.503 28.728,46.503 C28.728,46.503 24.051,51.164 24.051,51.164 C24.051,51.164 6.515,51.164 6.515,51.164 C6.515,51.164 1.839,46.503 1.839,46.503 C1.839,46.503 1.839,19.314 1.839,19.314 C1.839,19.314 18.985,1.836 18.985,1.836 Z"/>
<path fill-rule="evenodd"  fill="rgb(58, 171, 158)"
 d="M19.148,1.836 C19.148,1.836 14.100,1.836 14.100,1.836 C14.100,1.836 5.806,10.772 5.806,10.772 C5.806,10.772 5.806,15.062 5.806,15.062 C5.806,15.062 19.148,1.836 19.148,1.836 Z"/>
<path fill-rule="evenodd"  stroke="rgb(57, 167, 154)" stroke-width="1px" stroke-linecap="round" stroke-linejoin="miter" fill="none"
 d="M3.642,41.155 C3.642,41.155 11.576,48.661 11.576,48.661 "/>
<path fill-rule="evenodd"  stroke="rgb(57, 167, 154)" stroke-width="1px" stroke-linecap="round" stroke-linejoin="miter" opacity="0.541" fill="none"
 d="M4.802,44.811 C4.802,44.811 8.252,48.223 8.252,48.223 "/>
<path fill-rule="evenodd"  stroke="rgb(57, 167, 154)" stroke-width="1px" stroke-linecap="round" stroke-linejoin="miter" opacity="0.541" fill="none"
 d="M7.687,42.309 C7.687,42.309 11.136,45.721 11.136,45.721 "/>
<path fill-rule="evenodd"  fill="rgb(54, 156, 144)"
 d="M47.276,9.343 C47.276,9.343 48.358,8.628 48.358,8.628 C48.358,8.628 48.358,31.862 48.358,31.862 C48.358,31.862 47.276,31.147 47.276,31.147 C47.276,31.147 47.276,9.343 47.276,9.343 Z"/>
</svg>