<svg id="图层_1" data-name="图层 1" xmlns="http://www.w3.org/2000/svg" viewBox="0 0 200 200"><defs><style>.cls-1{fill:#fff;}</style></defs><title>日志</title><path class="cls-1" d="M125.5,16.17H41.83A16.71,16.71,0,0,0,25.17,32.83V171.17a16.71,16.71,0,0,0,16.66,16.66H158.17a16.71,16.71,0,0,0,16.66-16.66V65.83Zm4.67,26.33,19.66,19.67h-19a.72.72,0,0,1-.66-.67Zm28.33,130H41.83a1.44,1.44,0,0,1-1.33-1.33V32.83a1.44,1.44,0,0,1,1.33-1.33H114.5v30a16.35,16.35,0,0,0,16.33,16.33h29v93.34c-.33,1-.66,1.33-1.33,1.33Z"/><path class="cls-1" d="M138.17,84.83h-76a7.67,7.67,0,0,0,0,15.34h76a7.67,7.67,0,0,0,0-15.34Zm0,41.34h-76a7.67,7.67,0,1,0,0,15.33h76a7.67,7.67,0,0,0,0-15.33Z"/></svg>