<?xml version="1.0" encoding="utf-8"?>
<!-- Generator: Adobe Illustrator 18.0.0, SVG Export Plug-In . SVG Version: 6.00 Build 0)  -->
<!DOCTYPE svg PUBLIC "-//W3C//DTD SVG 1.1//EN" "http://www.w3.org/Graphics/SVG/1.1/DTD/svg11.dtd">
<svg version="1.1" id="图层_1" xmlns="http://www.w3.org/2000/svg" xmlns:xlink="http://www.w3.org/1999/xlink" x="0px" y="0px"
	 viewBox="187 197 231.7 58.3" enable-background="new 187 197 231.7 58.3" xml:space="preserve">
<path fill="#4DD7F4" d="M202.2,204.5h13.9l-8.7,25.2c0,0-1.4,5.6,3.1,5.8c4.5,0.1,6.9,0,6.9,0s3.2-0.6,5.1-5.2
	c1.8-4.6,8.3-25.8,8.3-25.8h18.7l8.2,11.1l11-11.1h17.5L266,227.3l15.2,19.7h-18.3l-6.6-9.4l-9.4,9.4h-18l19.1-21.1l-7-9.6
	l-5.8,17.9c0,0-5.2,13.7-18.7,13.7c-13.4,0-26-2.3-23.1-14.2C196.3,221.7,202.2,204.5,202.2,204.5z"/>
<path fill="none" stroke="#FFFFFF" stroke-miterlimit="10" d="M324.5,204.5"/>
<polygon fill="#4DD7F4" points="324.5,204.5 338.7,204.5 324.5,247.9 310.2,247.9 "/>
<path fill="#4DD7F4" d="M342.2,204.5h9.6l9.1,19.7l7.6-19.7h13.5c0,0-20,13.8-10,32.2l-3.7,11.1H357l-8.6-16.9l-6.2,16.9h-14.5
	L342.2,204.5z"/>
<path fill="#4DD7F4" d="M190.8,248.7h99.6c0,0,10.3-7.7,4.1-16.6c-6.2-8.7-16.9-22.4,0.6-32.5h122.2v3.5l-115.7,0.3
	c0,0-10,5.9,1,17.6c11,11.7,4.6,26.3-5.1,31.5H191.1L190.8,248.7L190.8,248.7z"/>
<path fill="#4DD7F4" d="M393.3,204c-12.2,0-22.1,9.9-22.1,22.1c0,12.2,9.9,22.1,22.1,22.1c12.2,0,22.1-9.9,22.1-22.1
	C415.3,213.8,405.4,204,393.3,204z M393.3,235.4c-5.1,0-9.3-4.1-9.3-9.3c0-5.2,4.1-9.3,9.3-9.3s9.3,4.1,9.3,9.3
	C402.5,231.1,398.4,235.4,393.3,235.4z"/>
</svg>
