<svg xmlns="http://www.w3.org/2000/svg" width="300" height="300" viewBox="0 0 27 27">
  <metadata><?xpacket begin="﻿" id="W5M0MpCehiHzreSzNTczkc9d"?>
<x:xmpmeta xmlns:x="adobe:ns:meta/" x:xmptk="Adobe XMP Core 5.6-c142 79.160924, 2017/07/13-01:06:39        ">
   <rdf:RDF xmlns:rdf="http://www.w3.org/1999/02/22-rdf-syntax-ns#">
      <rdf:Description rdf:about=""/>
   </rdf:RDF>
</x:xmpmeta>              
<?xpacket end="w"?></metadata>
<defs>
    <style>
      .cls-1 {
        fill: #c04d3a;
        fill-rule: evenodd;
      }
    </style>
  </defs>
  <path id="椭圆_1_拷贝" data-name="椭圆 1 拷贝" class="cls-1" d="M128.5,250A13.5,13.5,0,1,1,142,236.5,13.5,13.5,0,0,1,128.5,250Zm0-24.618A11.118,11.118,0,1,0,139.618,236.5,11.118,11.118,0,0,0,128.5,225.382Zm0,16.677a5.559,5.559,0,0,1-5.559-5.559,5.478,5.478,0,0,1,.677-2.6l-1.64-.947,5.529-3.225-0.029,6.4-1.8-1.043a3.128,3.128,0,0,0-.35,1.416,3.177,3.177,0,1,0,5.5-2.153l1.684-1.685A5.548,5.548,0,0,1,128.5,242.059Z" transform="translate(-115 -223)"/>
</svg>
