<?xml version="1.0" encoding="utf-8"?>
<!-- Generator: Adobe Illustrator 17.0.0, SVG Export Plug-In . SVG Version: 6.00 Build 0)  -->
<!DOCTYPE svg PUBLIC "-//W3C//DTD SVG 1.1//EN" "http://www.w3.org/Graphics/SVG/1.1/DTD/svg11.dtd">
<svg version="1.1" id="图层_1" xmlns="http://www.w3.org/2000/svg" xmlns:xlink="http://www.w3.org/1999/xlink" x="0px" y="0px"
	 width="50px" height="50px" viewBox="0 0 50 50" enable-background="new 0 0 50 50" xml:space="preserve">
<g>
	<g>
		<path fill="#FFFFFF" d="M45.495,0.5H4.505C2.294,0.5,0.5,2.294,0.5,4.506v40.988c0,2.212,1.794,4.006,4.005,4.006h40.99
			c2.211,0,4.005-1.794,4.005-4.006V4.506C49.497,2.294,47.706,0.5,45.495,0.5L45.495,0.5z M43.342,3.59
			c1.13,0,2.046,0.916,2.046,2.046c0,1.13-0.916,2.046-2.046,2.046c-1.13,0-2.046-0.916-2.046-2.046
			C41.297,4.506,42.212,3.59,43.342,3.59L43.342,3.59z M36.362,3.59c1.13,0,2.046,0.916,2.046,2.046c0,1.13-0.916,2.046-2.046,2.046
			c-1.13,0-2.046-0.916-2.046-2.046C34.316,4.506,35.232,3.59,36.362,3.59L36.362,3.59z M29.382,3.59
			c1.13,0,2.046,0.916,2.046,2.046c0,1.13-0.916,2.046-2.046,2.046c-1.13,0-2.046-0.916-2.046-2.046
			C27.34,4.506,28.255,3.59,29.382,3.59L29.382,3.59z M45.384,10.745v16.062h-5.449l-3.611-5.499
			c-0.356-0.542-0.995-0.826-1.634-0.726c-0.639,0.1-1.165,0.563-1.341,1.186l-3.3,11.648l-10.695-16.27
			c-0.356-0.543-0.995-0.826-1.635-0.726c-0.639,0.097-1.164,0.56-1.341,1.182l-3.3,11.652l-2.111-3.218
			c-0.308-0.466-0.826-0.747-1.382-0.747H4.616V10.745H45.384L45.384,10.745z M4.616,45.383V28.605H8.69l3.611,5.499
			c0.356,0.543,0.995,0.826,1.635,0.726c0.639-0.1,1.165-0.564,1.341-1.186l3.3-11.648L29.267,38.27
			c0.308,0.47,0.833,0.747,1.382,0.747c0.083,0,0.169-0.007,0.252-0.021c0.639-0.1,1.165-0.564,1.341-1.186l3.3-11.648l2.115,3.218
			c0.307,0.466,0.826,0.747,1.386,0.747h6.344V45.39H4.616V45.383z M4.616,45.383"/>
	</g>
	<circle fill="#FFFFFF" cx="29.413" cy="5.672" r="1.126"/>
	<circle fill="#FFFFFF" cx="36.357" cy="5.672" r="1.126"/>
</g>
</svg>
