<?xml version="1.0" encoding="utf-8"?>
<!-- Generator: Adobe Illustrator 17.0.0, SVG Export Plug-In . SVG Version: 6.00 Build 0)  -->
<!DOCTYPE svg PUBLIC "-//W3C//DTD SVG 1.1//EN" "http://www.w3.org/Graphics/SVG/1.1/DTD/svg11.dtd">
<svg version="1.1" id="图层_1" xmlns="http://www.w3.org/2000/svg" xmlns:xlink="http://www.w3.org/1999/xlink" x="0px" y="0px"
	 width="50px" height="50px" viewBox="0 0 50 50" enable-background="new 0 0 50 50" xml:space="preserve">
<g>
	<path fill="#FFFFFF" d="M45.593,35.156c-0.092-0.073-0.203-0.148-0.332-0.221c-0.551-0.203-0.997-0.54-1.339-1.008
		c-0.339-0.47-0.509-1.018-0.509-1.646c0-0.644,0.203-1.221,0.608-1.727c0.405-0.506,0.892-0.861,1.463-1.064
		c0.149-0.055,0.292-0.172,0.431-0.345c0.136-0.175,0.187-0.42,0.149-0.733c-0.073-0.533-0.216-1.064-0.428-1.589
		c-0.212-0.525-0.456-0.918-0.731-1.175c-0.149-0.146-0.326-0.229-0.538-0.248c-0.212-0.019-0.392,0.018-0.538,0.11
		c-0.553,0.258-1.153,0.363-1.798,0.318c-0.644-0.047-1.188-0.29-1.631-0.733c-0.439-0.443-0.709-0.96-0.801-1.548
		c-0.091-0.59-0.018-1.151,0.222-1.686c0.037-0.073,0.073-0.198,0.11-0.373c0.037-0.175,0.01-0.336-0.083-0.483
		c-0.149-0.24-0.345-0.46-0.595-0.663c-0.246-0.203-0.519-0.37-0.817-0.498c-0.292-0.13-0.592-0.232-0.897-0.305
		c-0.305-0.075-0.587-0.11-0.843-0.11c-0.169,0-0.329,0.078-0.485,0.235c-0.156,0.156-0.272,0.308-0.345,0.456
		c-0.203,0.553-0.553,1.008-1.051,1.368c-0.498,0.36-1.068,0.54-1.714,0.54c-0.626,0-1.171-0.19-1.631-0.568
		c-0.46-0.379-0.793-0.815-0.996-1.313c-0.055-0.165-0.151-0.328-0.289-0.485c-0.139-0.157-0.329-0.235-0.567-0.235
		c-0.183,0-0.433,0.032-0.746,0.097c-0.313,0.067-0.636,0.162-0.968,0.29c-0.332,0.13-0.641,0.292-0.926,0.485
		c-0.287,0.193-0.485,0.418-0.595,0.676c-0.054,0.11-0.068,0.24-0.041,0.388c0.028,0.148,0.06,0.277,0.097,0.388
		c0.018,0.11,0.042,0.293,0.068,0.553c0.029,0.258,0.029,0.543,0,0.856c-0.026,0.313-0.092,0.631-0.193,0.955
		c-0.102,0.321-0.263,0.593-0.483,0.816c-0.461,0.441-0.991,0.704-1.589,0.786c-0.6,0.083-1.175,0.015-1.728-0.208
		c-0.165-0.055-0.318-0.092-0.456-0.11c-0.138-0.018-0.282,0.018-0.43,0.11c-0.183,0.11-0.354,0.282-0.511,0.511
		c-0.156,0.232-0.295,0.485-0.415,0.76c-0.12,0.277-0.217,0.563-0.29,0.858c-0.073,0.295-0.11,0.563-0.11,0.803
		c0,0.219,0.057,0.436,0.167,0.649c0.11,0.212,0.248,0.345,0.41,0.397c0.551,0.222,1.049,0.571,1.492,1.051
		c0.443,0.48,0.663,1.042,0.663,1.686c0,0.628-0.221,1.193-0.663,1.701c-0.443,0.508-0.939,0.871-1.492,1.093
		c-0.315,0.11-0.498,0.368-0.553,0.773c-0.037,0.222-0.018,0.503,0.055,0.843c0.075,0.342,0.18,0.673,0.318,0.995
		c0.139,0.321,0.295,0.618,0.47,0.885c0.177,0.266,0.365,0.436,0.567,0.509c0.259,0.11,0.517,0.13,0.775,0.057
		c0.405-0.13,0.801-0.204,1.188-0.222c0.332-0.018,0.681,0.013,1.051,0.097c0.368,0.083,0.681,0.261,0.939,0.538
		c0.425,0.46,0.66,0.963,0.705,1.506c0.045,0.545-0.032,1.028-0.235,1.453c-0.147,0.313-0.217,0.558-0.207,0.733
		c0.01,0.173,0.06,0.326,0.152,0.456c0.13,0.183,0.323,0.368,0.58,0.551c0.258,0.185,0.548,0.347,0.871,0.485
		c0.323,0.138,0.645,0.253,0.968,0.345c0.323,0.094,0.613,0.139,0.871,0.139c0.222,0,0.425-0.05,0.606-0.151
		c0.185-0.102,0.323-0.263,0.415-0.485c0.203-0.553,0.558-1.036,1.065-1.451c0.506-0.415,1.073-0.623,1.699-0.623
		c0.647,0,1.213,0.208,1.701,0.623c0.488,0.415,0.833,0.906,1.036,1.479h0.028c0.058,0.146,0.159,0.285,0.305,0.415
		c0.149,0.128,0.303,0.193,0.469,0.193c0.242,0,0.517-0.037,0.83-0.109c0.315-0.075,0.616-0.175,0.9-0.305
		c0.284-0.13,0.548-0.272,0.788-0.43c0.237-0.156,0.415-0.308,0.525-0.456c0.238-0.37,0.266-0.736,0.083-1.106
		c-0.24-0.535-0.323-1.096-0.25-1.686c0.073-0.59,0.334-1.115,0.777-1.576c0.199-0.221,0.448-0.379,0.731-0.47
		c0.284-0.091,0.569-0.151,0.854-0.178c0.287-0.026,0.566-0.018,0.845,0.028c0.276,0.047,0.507,0.097,0.691,0.152
		c0.203,0.075,0.386,0.11,0.551,0.11c0.167,0,0.36-0.055,0.582-0.167c0.219-0.11,0.425-0.293,0.608-0.553
		c0.183-0.258,0.339-0.548,0.469-0.871c0.13-0.321,0.222-0.64,0.276-0.953c0.058-0.313,0.066-0.579,0.029-0.801
		C45.935,35.534,45.795,35.321,45.593,35.156z M38.712,34.588c-0.313,0.728-0.741,1.367-1.286,1.921
		c-0.545,0.553-1.185,0.986-1.923,1.299c-0.735,0.313-1.519,0.47-2.348,0.47c-0.829,0-1.607-0.157-2.335-0.47
		c-0.726-0.314-1.364-0.746-1.907-1.299c-0.543-0.554-0.973-1.195-1.286-1.921c-0.313-0.728-0.47-1.506-0.47-2.335
		c0-0.829,0.157-1.608,0.47-2.335c0.313-0.728,0.743-1.365,1.286-1.908c0.542-0.543,1.179-0.973,1.905-1.286
		c0.728-0.313,1.508-0.47,2.336-0.47c0.827,0,1.613,0.157,2.348,0.47c0.739,0.313,1.378,0.743,1.923,1.286
		c0.545,0.543,0.973,1.18,1.286,1.908c0.313,0.726,0.469,1.505,0.469,2.335C39.18,33.081,39.025,33.86,38.712,34.588z"/>
</g>
<path fill="#FFFFFF" d="M7.395,35.046v-6.679c0-1.34,1.087-2.427,2.427-2.427h9.591c0.778-1.748,1.856-3.332,3.172-4.686H9.821
	c-1.34,0-2.427-1.087-2.427-2.427v-6.681h18.333v6.589c2.02-1.239,4.335-2.044,6.814-2.287c-0.024-0.513-0.264-0.972-0.64-1.278
	l-6.344-5.132c-0.337-0.262-0.75-0.387-1.156-0.368H5.292c-1.338,0-2.425,1.087-2.427,2.425v24.826c0,1.34,1.087,2.427,2.427,2.427
	h14.27c-0.634-1.342-1.088-2.786-1.33-4.301H7.395z"/>
</svg>
