<?xml version="1.0" encoding="utf-8"?>
<!-- Generator: Adobe Illustrator 17.0.0, SVG Export Plug-In . SVG Version: 6.00 Build 0)  -->
<!DOCTYPE svg PUBLIC "-//W3C//DTD SVG 1.1//EN" "http://www.w3.org/Graphics/SVG/1.1/DTD/svg11.dtd">
<svg version="1.1" id="图层_1" xmlns="http://www.w3.org/2000/svg" xmlns:xlink="http://www.w3.org/1999/xlink" x="0px" y="0px"
	 width="50px" height="50px" viewBox="0 0 50 50" enable-background="new 0 0 50 50" xml:space="preserve">
<g>
	<path fill="#FFFFFF" d="M25,0.5C11.469,0.5,0.5,11.469,0.5,25c0,13.531,10.969,24.5,24.5,24.5S49.5,38.531,49.5,25
		C49.5,11.469,38.531,0.5,25,0.5z M25,46.426C13.766,46.426,3.574,36.234,3.574,25C3.574,13.766,13.766,3.574,25,3.574
		S46.426,13.766,46.426,25C46.426,36.234,36.234,46.426,25,46.426z"/>
	<g>
		<path fill="#FFFFFF" d="M24.696,10.662c4.025,0,7.288,3.209,7.288,7.169c0,3.959-3.263,7.169-7.288,7.169
			c-4.025,0-7.288-3.21-7.288-7.169C17.408,13.871,20.671,10.662,24.696,10.662L24.696,10.662z M24.696,10.662"/>
		<path fill="#FFFFFF" d="M24.696,10.662c4.025,0,7.288,3.209,7.288,7.169c0,3.959-3.263,7.169-7.288,7.169
			c-4.025,0-7.288-3.21-7.288-7.169C17.408,13.871,20.671,10.662,24.696,10.662L24.696,10.662z M24.696,10.662"/>
		<path fill="#FFFFFF" d="M21.963,27.389h6.074c5.199,0,9.414,4.146,9.414,9.26v0.597c0,2.015-4.215,2.092-9.414,2.092h-6.074
			c-5.199,0-9.415-0.002-9.415-2.092v-0.597C12.548,31.535,16.764,27.389,21.963,27.389L21.963,27.389z M21.963,27.389"/>
	</g>
</g>
</svg>
